<?xml version="1.0" encoding="utf-8"?>
<!-- Generator: Adobe Illustrator 24.1.3, SVG Export Plug-In . SVG Version: 6.00 Build 0)  -->
<svg version="1.1" id="Layer_2_1_" xmlns="http://www.w3.org/2000/svg" xmlns:xlink="http://www.w3.org/1999/xlink" x="0px" y="0px"
	 viewBox="0 0 123 124" style="enable-background:new 0 0 123 124;" xml:space="preserve">
<style type="text/css">
	.st0{fill:#1D1D1B;}
</style>
<path class="st0" d="M104.8,43.4V17.8l-24.6,0.8L60.9,0L43.4,18.6L18,17.8l0.5,26.1L0,62l18,17.8l-0.3,25.6l25.4,0.3L61.7,124
	l18-18.6h25.1l0.3-25.8L123,62L104.8,43.4z M59,48.2L59,50.7c0,2.5-0.6,3.5-2.1,3.5c-1.5,0-2.1-0.9-2.1-3.5
	c-0.1-3.7-0.6-4.1-4.7-4.1h-7.8c-3.7,0-4.2,0.7-4.2,5.8c0,3.4,0.2,4.1,1.5,4.8c1.5,0.9,1.8,1.2,2,2c0.2,0.7,0.2,1.2,0.2,3.7v7.7
	c0,6.6,0.3,6.9,4.8,6.9h3.5c4.4,0,4.6-0.4,4.6-6.5c0-2.5,0.6-3.5,2.1-3.5c1.5,0,2.1,1,2.1,3.7v6.6c0,3.9-1.1,4.9-5.1,4.9H38.9
	c-4.3,0-5.1-0.9-5.1-5.9V47c0-4.5,0.9-5.6,4.6-5.6h15.7c4.2,0,4.8,0.9,4.8,6.4L59,48.2z M89.2,50.3c0,2.5-0.7,3.7-2.1,3.7
	c-1.3,0-2-0.9-2.1-3.1L85,50c-0.1-3-0.7-3.5-3.7-3.5h-10c-2.8,0-3.3,0.9-3.3,5.4c0,4.9,0.4,5.5,3.8,5.5h12.6c4.1,0,4.9,0.8,4.9,5.7
	v14c0,4.7-0.8,5.6-5.2,5.6H67.9c-3.2,0-4.1-1.3-4.1-6v-6c0-2.2,0.7-3.2,2.1-3.2c1.4,0,2,1,2,3.3v2.1c0,3.8,0.6,4.5,3.6,4.5h6.6
	c3,0,3.4-0.6,3.4-5.1v-5c0-4.2-0.5-4.7-4.2-4.7h-9.1c-3.6,0-4.4-1.1-4.4-5.7V46.8c0-4.5,0.9-5.5,4.7-5.5h15.9c3.8,0,4.8,1,4.8,4.8
	V50.3z"/>
</svg>
