<?xml version="1.0" encoding="utf-8"?>
<!-- Generator: Adobe Illustrator 25.2.1, SVG Export Plug-In . SVG Version: 6.00 Build 0)  -->
<svg version="1.1" id="Layer_1" xmlns="http://www.w3.org/2000/svg" xmlns:xlink="http://www.w3.org/1999/xlink" x="0px" y="0px"
	 viewBox="0 0 1125 1619.3" style="enable-background:new 0 0 1125 1619.3;" xml:space="preserve">
<style type="text/css">
	.st0{fill:#BA00FF;}
	.st1{fill:#FFFFFF;}
	.st2{fill:none;stroke:#BA00FF;stroke-miterlimit:10;}
	.st3{fill:none;stroke:#FFFFFF;stroke-width:2;stroke-miterlimit:10;}
</style>
<rect x="9.5" y="19" class="st0" width="103" height="1582"/>
<path class="st1" d="M71.1,611.8c2.1,0,2.6,0.7,2.6,3.4v9.7c0,2.8-0.5,3.3-3.2,3.3h-16c-2.4,0-3-0.6-3-3V615c0-2.7,0.5-3.2,3.4-3.2
	h0.2h1.3c1.3,0,1.9,0.4,1.9,1.4s-0.5,1.4-1.9,1.4c-2,0.1-2.2,0.4-2.2,3.1v5.1c0,2.4,0.4,2.7,3.1,2.7c1.8,0,2.2-0.1,2.6-1
	s0.6-1.2,1.1-1.3c0.7-0.1,1.3-0.2,2-0.1h4.1c3.5,0,3.7-0.2,3.7-3.1v-2.3c0-2.9-0.2-3-3.5-3c-1.3,0-1.9-0.4-1.9-1.4s0.5-1.4,2-1.4
	L71.1,611.8z"/>
<path class="st1" d="M70.8,591.2c2.4,0,2.9,0.6,2.9,3.3v11.1c0,2.1-0.7,2.8-3,2.8H54.4c-2.2,0-2.8-0.7-2.8-3v-11.2
	c0-2.4,0.6-2.9,3.3-2.9H70.8z M58.5,595.1c-0.4,1.2-0.6,1.3-2.1,1.3c-1.7,0-2,0.4-2,2.6v4c0,2.2,0.4,2.5,2.8,2.5h10.7
	c2.7,0,3.1-0.3,3.1-2.4v-6.6c0-2.2-0.4-2.6-2.7-2.6h-7.2C59.2,594,58.9,594.2,58.5,595.1z"/>
<path class="st1" d="M72.1,563.8c1.3,0,1.9,0.5,1.9,1.4s-0.6,1.4-2,1.4H57.3c-2.7,0-2.8,0.2-2.8,2.7v1.7c0,2.2,0.3,2.5,2.8,2.5h14.8
	c1.3,0,1.9,0.5,1.9,1.4s-0.6,1.4-1.9,1.4H57.3c-2.5,0-2.9,0.3-2.9,2.4v3.4c0,2,0.5,2.4,2.6,2.4h1.1c1.5,0,1.7-0.2,2.2-1.2
	s0.8-1.1,2.2-1.2h8.4c2.3,0,3,0.6,3,2.6s-0.7,2.6-3.1,2.6H54.9c-2.7,0-3.2-0.5-3.2-3.3v-16.9c0-2.8,0.5-3.3,3.4-3.3L72.1,563.8z"/>
<path class="st1" d="M72.1,536.4c1.3,0,1.9,0.5,1.9,1.4s-0.6,1.4-2,1.4H57.3c-2.7,0-2.8,0.2-2.8,2.7v1.6c0,2.2,0.3,2.5,2.8,2.5h14.8
	c1.3,0,1.9,0.5,1.9,1.4s-0.6,1.4-1.9,1.4H57.3c-2.5,0-2.9,0.3-2.9,2.4v3.4c0,2,0.5,2.4,2.6,2.4h1.1c1.5,0,1.7-0.2,2.2-1.2
	s0.8-1.1,2.2-1.2h8.4c2.3,0,3,0.6,3,2.6s-0.7,2.6-3.1,2.6H54.9c-2.7,0-3.2-0.5-3.2-3.4v-16.8c0-2.8,0.5-3.3,3.4-3.3H72.1z"/>
<path class="st1" d="M70.8,516c2.6,0,3,0.5,3,4v8.7c0,3.2-0.5,3.8-3.2,3.8H53.3c-1.2,0-1.8-0.4-1.8-1.4s0.5-1.4,1.8-1.4h4.6
	c1.4,0,1.9-0.2,2.1-0.8l0.3-0.6c0.4-0.9,0.7-1,3.2-1h3.8h1.2c2.2,0,2.5-0.4,2.5-3v-3c0-2-0.4-2.4-2.4-2.4H53.3
	c-1.3,0-1.8-0.4-1.8-1.4s0.5-1.4,1.8-1.4L70.8,516z"/>
<path class="st1" d="M72,495.7c1.4,0,2,0.4,2,1.4s-0.5,1.4-2,1.4H56.9c-2.1,0-2.4,0.4-2.4,2.7v5.6c0,2.1,0.4,2.5,2,2.5h1.2
	c1.6,0,2.1-0.2,2.4-0.9l0.2-0.4c0.3-0.9,0.8-1.1,2.4-1.1h7.9c2.6,0,3.3,0.5,3.3,2.6c0,2.1-0.6,2.6-3.4,2.6H55
	c-2.8,0-3.4-0.5-3.4-3.1v-10c0-2.8,0.5-3.4,3-3.4L72,495.7z"/>
<path class="st1" d="M71.4,486.6c1.6,0,2.3,0.8,2.3,2.6s-0.7,2.6-2.3,2.6H53.2c-1.2,0-1.7-0.4-1.7-1.4s0.5-1.3,1.8-1.3h4.2
	c2,0,2.3-0.1,2.7-1l0.1-0.3c0.4-0.8,0.8-1.1,1.9-1.1L71.4,486.6L71.4,486.6z"/>
<path class="st1" d="M71.1,472.4c2,0,2.7,0.7,2.7,2.6s-0.7,2.6-2.7,2.6H57.3c-2.7,0-2.8,0.1-2.8,3v1.7c0,1.4-0.4,2-1.4,2
	s-1.4-0.6-1.4-2v-12.4c0-1.7,0.4-2.2,1.4-2.2s1.5,0.5,1.5,2.4v2.4c0,1.9,0.4,2.3,2.7,2.3h1.4c0.9,0,1.4-0.3,1.7-0.9l0.2-0.4
	c0.4-0.9,0.7-1.1,2.4-1.1L71.1,472.4z"/>
<path class="st1" d="M71.4,459.5c1.6,0,2.3,0.8,2.3,2.6s-0.7,2.6-2.3,2.6H53.2c-1.2,0-1.7-0.4-1.7-1.4s0.5-1.3,1.8-1.3h4.2
	c2,0,2.3-0.1,2.7-1l0.1-0.3c0.4-0.8,0.8-1.1,1.9-1.1H71.4z"/>
<path class="st1" d="M68.2,450.9c2.5,0,2.8-0.3,2.8-2.8v-3.5c0-1.6,0.4-2.2,1.4-2.2s1.4,0.6,1.4,2.2v8.5c0,2.3-0.6,3-2.8,3H54.8
	c-2.6,0-3.2-0.5-3.2-3v-8.8c0-1.2,0.5-1.8,1.4-1.8s1.4,0.5,1.4,1.8v6.6c0,2.2,0.4,2.4,3.2,2.4c2.2,0,2.7-0.3,2.7-2V445
	c0-2.1,0.3-2.6,1.4-2.6c0.8,0,1.4,0.6,1.4,1.4c0,0,0,0.1,0,0.1v4.4c0,2.4,0.3,2.6,3.4,2.6L68.2,450.9z"/>
<path class="st1" d="M70.8,422c2.5,0,3,0.6,3,3.5v10.9c0,2.2-0.7,2.8-3.2,2.8h-3.2c-1.2,0-1.7-0.5-1.7-1.4s0.5-1.4,1.8-1.4h1.1
	c2,0,2.4-0.4,2.4-2.5v-4.5c0-2-0.3-2.3-2.7-2.3h-2.7c-2.2,0-2.5,0.3-2.5,2.9v6.1c0,2.4-0.6,3-3,3h-5.5c-2.4,0-3-0.6-3-3.2v-10.8
	c0-2.6,0.5-3.2,2.5-3.2h2.3c1.3,0,2,0.5,2,1.4s-0.5,1.3-1.6,1.4h-0.5c-1.6,0.1-1.9,0.5-1.9,2.5v6.8c0,1.9,0.5,2.3,2.9,2.3
	c2.6,0,3-0.3,3-2.6v-8.5c0-2.8,0.4-3.3,3.1-3.3L70.8,422z"/>
<path class="st1" d="M66,1023.3c-2.7,0-3,0.3-3,2.6v3.9c0,2.4,0.3,2.7,3,2.7h4.2c2.9,0,3.5,0.5,3.5,2.6s-0.6,2.6-3.6,2.6h-7.5
	c-1.7,0-2.1-0.2-2.6-1.3s-0.6-1.1-2.5-1.1h-2.7c-2.8,0-3.3-0.5-3.3-3.3v-5.8c0-2.8,0.5-3.3,3.3-3.3h2.6c2,0,2.2-0.1,2.6-0.9l0.2-0.5
	c0.4-0.9,0.7-1,3.6-1h7.6c1.9,0,2.5,0.3,2.5,1.4s-0.6,1.4-2.5,1.4L66,1023.3z M57.7,1032.4c2.3,0,2.6-0.3,2.6-2.4v-2
	c0-2.2-0.3-2.4-3-2.4s-2.9,0.3-2.9,2.3v2.1C54.4,1032.2,54.8,1032.4,57.7,1032.4L57.7,1032.4z"/>
<path class="st1" d="M72,999.9c1.4,0,2,0.4,2,1.4s-0.6,1.4-2,1.4h-6c-2.6,0-3,0.3-3,2.6v4.2c0,2,0.4,2.3,2.5,2.3h5.2
	c2.3,0,3,0.6,3,2.5S73,1017,71,1017H55c-2.8,0-3.4-0.5-3.4-3.3v-8.1c0-2.8,0.5-3.4,3-3.4h3.2c1.7,0,2-0.1,2.4-1.1
	c0.5-1.2,0.7-1.3,2.5-1.3H72z M57.4,1005.1c-2.5,0-3,0.3-3,2.3v4.8c0,1.7,0.5,2,3.1,2c2.3,0,2.8-0.4,2.8-2v-4.8
	C60.3,1005.4,59.9,1005.1,57.4,1005.1L57.4,1005.1z"/>
<path class="st1" d="M71.1,985.7c2,0,2.7,0.7,2.7,2.6s-0.7,2.6-2.7,2.6H57.3c-2.7,0-2.8,0.1-2.8,3v1.7c0,1.4-0.4,2-1.4,2
	s-1.4-0.6-1.4-2v-12.4c0-1.7,0.4-2.2,1.4-2.2s1.5,0.5,1.5,2.4v2.4c0,1.9,0.4,2.3,2.7,2.3h1.4c0.9,0,1.4-0.3,1.7-0.9l0.2-0.4
	c0.4-0.9,0.7-1.1,2.4-1.1H71.1z"/>
<path class="st1" d="M71.4,972.8c1.6,0,2.3,0.8,2.3,2.6s-0.7,2.6-2.3,2.6H53.2c-1.2,0-1.7-0.4-1.7-1.4s0.5-1.3,1.8-1.3h4.2
	c2,0,2.3-0.1,2.7-1l0.1-0.3c0.4-0.8,0.8-1.1,1.9-1.1L71.4,972.8L71.4,972.8z"/>
<path class="st1" d="M70.8,952.3c2.5,0,3,0.6,3,3.5v10.9c0,2.2-0.7,2.8-3.2,2.8h-3.2c-1.2,0-1.7-0.5-1.7-1.4s0.5-1.4,1.8-1.4h1.1
	c2,0,2.4-0.4,2.4-2.5v-4.5c0-2-0.3-2.3-2.7-2.3h-2.7c-2.2,0-2.5,0.3-2.5,2.9v6.1c0,2.4-0.6,3-3,3h-5.5c-2.4,0-3-0.6-3-3.2v-10.8
	c0-2.5,0.5-3.2,2.5-3.2h2.3c1.3,0,2,0.5,2,1.4s-0.5,1.3-1.6,1.4h-0.5c-1.6,0.1-1.9,0.5-1.9,2.5v6.8c0,1.9,0.5,2.3,2.9,2.3
	c2.6,0,3-0.3,3-2.6v-8.5c0-2.8,0.4-3.3,3.1-3.3L70.8,952.3z"/>
<path class="st1" d="M71.1,937.9c2,0,2.7,0.7,2.7,2.6s-0.7,2.6-2.7,2.6H57.3c-2.7,0-2.8,0.1-2.8,3v1.7c0,1.4-0.4,2-1.4,2
	s-1.4-0.6-1.4-2v-12.4c0-1.7,0.4-2.2,1.4-2.2s1.5,0.5,1.5,2.4v2.4c0,1.9,0.4,2.3,2.7,2.3h1.4c0.9,0,1.4-0.3,1.7-0.9l0.2-0.4
	c0.4-0.9,0.7-1.1,2.4-1.1H71.1z"/>
<path class="st1" d="M70.8,913.3c2.5,0,3,0.6,3,3.5v10.9c0,2.2-0.7,2.8-3.2,2.8h-3.2c-1.2,0-1.7-0.5-1.7-1.4s0.5-1.4,1.8-1.4h1.1
	c2,0,2.4-0.4,2.4-2.5v-4.5c0-2-0.3-2.3-2.7-2.3h-2.7c-2.2,0-2.5,0.3-2.5,2.8v6.2c0,2.4-0.6,3-3,3h-5.5c-2.4,0-3-0.6-3-3.2v-10.8
	c0-2.6,0.5-3.2,2.5-3.2h2.3c1.3,0,2,0.5,2,1.4s-0.5,1.3-1.6,1.4h-0.5c-1.6,0.1-1.9,0.5-1.9,2.5v6.8c0,1.9,0.5,2.3,2.9,2.3
	c2.6,0,3-0.3,3-2.6v-8.5c0-2.8,0.4-3.3,3.1-3.3L70.8,913.3z"/>
<path class="st1" d="M46.3,1426.4c2.1,0,2.6,0.7,2.6,3.4v9.7c0,2.8-0.5,3.3-3.2,3.3h-16c-2.4,0-3-0.6-3-3v-10.3
	c0-2.7,0.5-3.2,3.4-3.2h0.2h1.3c1.3,0,1.9,0.4,1.9,1.4s-0.5,1.4-1.9,1.4c-2,0.1-2.2,0.4-2.2,3v5.1c0,2.4,0.4,2.7,3.1,2.7
	c1.8,0,2.2-0.1,2.6-1s0.6-1.2,1.1-1.3c0.7-0.1,1.3-0.2,2-0.1h4.2c3.5,0,3.7-0.2,3.7-3.1v-2.3c0-2.8-0.2-3-3.5-3
	c-1.3,0-1.9-0.4-1.9-1.4s0.5-1.4,2-1.4L46.3,1426.4z"/>
<path class="st1" d="M45.9,1406.4c2.6,0,3,0.5,3,4v8.7c0,3.2-0.5,3.8-3.2,3.8H28.5c-1.2,0-1.8-0.4-1.8-1.4s0.5-1.4,1.8-1.4H33
	c1.4,0,1.9-0.2,2.1-0.8l0.3-0.6c0.4-0.9,0.7-1,3.2-1h3.8h1.2c2.2,0,2.5-0.4,2.5-3v-3c0-2-0.4-2.4-2.5-2.4H28.5
	c-1.3,0-1.8-0.4-1.8-1.4s0.5-1.4,1.8-1.4L45.9,1406.4z"/>
<path class="st1" d="M48.9,1399.5c0,2.4-0.6,3-3,3H28.8c-1.5,0-2.1-0.4-2.1-1.4s0.5-1.4,2.2-1.4h3.6h0.9c1.5,0,1.7-0.1,2.1-1.2
	s0.8-1.2,2.5-1.2h5.5c2.4,0,2.7-0.3,2.7-2.7v-3.4c0-1.7,0.4-2.2,1.4-2.2s1.4,0.5,1.4,2L48.9,1399.5z"/>
<path class="st1" d="M46.2,1375.2c2,0,2.7,0.7,2.7,2.6s-0.7,2.6-2.7,2.6H32.4c-2.7,0-2.8,0.1-2.8,3v1.7c0,1.4-0.4,2-1.4,2
	s-1.4-0.6-1.4-2v-12.4c0-1.7,0.4-2.2,1.4-2.2s1.5,0.5,1.5,2.4v2.4c0,1.9,0.4,2.3,2.7,2.3h1.4c0.9,0,1.4-0.3,1.7-0.9l0.2-0.4
	c0.4-0.9,0.7-1.1,2.4-1.1H46.2z"/>
<path class="st1" d="M45.9,1351c2.6,0,3,0.5,3,4v8.7c0,3.2-0.5,3.8-3.2,3.8H28.5c-1.2,0-1.8-0.4-1.8-1.4s0.5-1.4,1.8-1.4H33
	c1.4,0,1.9-0.2,2.1-0.8l0.3-0.6c0.4-0.9,0.7-1,3.2-1h3.8h1.2c2.2,0,2.5-0.4,2.5-3v-3c0-2-0.4-2.4-2.5-2.4H28.5
	c-1.3,0-1.8-0.4-1.8-1.4s0.5-1.4,1.8-1.4L45.9,1351z"/>
<path class="st1" d="M47.2,1329.9c1.4,0,2,0.4,2,1.4s-0.6,1.4-2,1.4h-6c-2.6,0-3,0.3-3,2.6v4.2c0,2,0.4,2.4,2.5,2.4h5.2
	c2.3,0,3,0.6,3,2.5s-0.7,2.7-2.7,2.7H30.2c-2.9,0-3.4-0.5-3.4-3.3v-8.1c0-2.8,0.5-3.3,3-3.3H33c1.7,0,2-0.1,2.4-1.1
	c0.5-1.2,0.7-1.3,2.5-1.3L47.2,1329.9z M32.5,1335.2c-2.5,0-3,0.3-3,2.3v4.8c0,1.7,0.5,2,3.1,2c2.3,0,2.8-0.4,2.8-2v-4.8
	C35.4,1335.4,35.1,1335.2,32.5,1335.2z"/>
<path class="st1" d="M41.2,1312.5c-2.7,0-3,0.3-3,2.6v3.8c0,2.4,0.3,2.7,3,2.7h4.2c2.9,0,3.5,0.5,3.5,2.6s-0.6,2.6-3.6,2.6h-7.5
	c-1.7,0-2.1-0.2-2.6-1.3s-0.6-1.1-2.5-1.1h-2.7c-2.8,0-3.3-0.5-3.3-3.2v-5.8c0-2.8,0.5-3.2,3.4-3.2h2.6c2,0,2.2-0.1,2.6-0.9l0.2-0.5
	c0.4-0.9,0.7-1,3.6-1h7.6c1.9,0,2.5,0.3,2.5,1.4s-0.6,1.4-2.5,1.4L41.2,1312.5z M32.9,1321.7c2.2,0,2.6-0.3,2.6-2.4v-2
	c0-2.2-0.3-2.4-3-2.4s-2.9,0.3-2.9,2.3v2.1C29.6,1321.4,30,1321.7,32.9,1321.7z"/>
<path class="st1" d="M48.9,1303.3c0,2.4-0.6,3-3,3H28.8c-1.5,0-2.1-0.4-2.1-1.4s0.5-1.4,2.2-1.4h3.6h0.9c1.5,0,1.7-0.1,2.1-1.2
	s0.8-1.2,2.5-1.2h5.5c2.4,0,2.7-0.3,2.7-2.7v-3.4c0-1.7,0.4-2.3,1.4-2.3s1.4,0.5,1.4,2L48.9,1303.3z"/>
<path class="st1" d="M85.8,1469.8c2.4,0,2.9,0.6,2.9,3.3v11.1c0,2.1-0.7,2.8-3,2.8H69.4c-2.2,0-2.8-0.7-2.8-3v-11.2
	c0-2.4,0.6-2.9,3.3-2.9L85.8,1469.8z M73.5,1473.8c-0.4,1.2-0.6,1.3-2.1,1.3c-1.7,0-2,0.4-2,2.6v4c0,2.2,0.4,2.5,2.8,2.5h10.7
	c2.7,0,3.1-0.3,3.1-2.4v-6.6c0-2.2-0.4-2.6-2.7-2.6h-7.2C74.2,1472.6,73.9,1472.8,73.5,1473.8L73.5,1473.8z"/>
<path class="st1" d="M87,1448.7c1.4,0,2,0.4,2,1.4s-0.6,1.4-2,1.4h-6c-2.6,0-3,0.3-3,2.6v4.2c0,2,0.4,2.4,2.5,2.4h5.2
	c2.3,0,3,0.6,3,2.5s-0.7,2.7-2.7,2.7H70c-2.8,0-3.4-0.5-3.4-3.3v-8.1c0-2.8,0.5-3.4,3-3.4h3.2c1.7,0,2-0.1,2.4-1.1
	c0.5-1.2,0.7-1.3,2.5-1.3L87,1448.7z M72.4,1454c-2.5,0-3,0.3-3,2.3v4.8c0,1.7,0.5,2,3.1,2c2.3,0,2.8-0.4,2.8-2v-4.8
	C75.3,1454.2,74.9,1454,72.4,1454z"/>
<path class="st1" d="M85.9,1428.4c2.3,0,2.9,0.7,2.9,3.1v10.3c0,2.8-0.6,3.4-3.1,3.4H69.5c-2.2,0-2.9-0.7-2.9-3v-10.6
	c0-2.6,0.6-3.2,3.1-3.2h1.7c1.4,0,2,0.4,2,1.4s-0.5,1.4-1.8,1.4c-1.9,0.1-2.2,0.3-2.2,2.5v1v5.1c0,2.4,0.3,2.6,3.5,2.6
	c1.6,0,1.8-0.1,2.3-1.1c0.3-0.7,0.5-0.9,0.8-1.1c0.3-0.2,0.7-0.2,1.1-0.2h6.1c1.4,0,2-0.1,2.3-0.5s0.4-0.9,0.4-3.9v-1.9
	c0-2.3-0.2-2.5-4.4-2.5c-3,0-3.4,0.2-3.5,1.8v0.4c-0.1,1.3-0.5,1.8-1.4,1.8s-1.4-0.6-1.4-2v-2.1c0-2.1,0.7-2.8,3-2.8L85.9,1428.4z"
	/>
<path class="st1" d="M81,1410.8c-2.7,0-3,0.3-3,2.6v3.9c0,2.4,0.3,2.7,3,2.7h4.2c2.9,0,3.5,0.5,3.5,2.6s-0.6,2.6-3.6,2.6h-7.5
	c-1.7,0-2.1-0.2-2.6-1.3s-0.6-1.1-2.5-1.1h-2.7c-2.8,0-3.3-0.5-3.3-3.2v-5.8c0-2.8,0.5-3.2,3.3-3.2h2.6c2,0,2.2-0.1,2.6-0.9l0.2-0.5
	c0.4-0.9,0.7-1,3.6-1h7.6c1.9,0,2.5,0.3,2.5,1.4s-0.6,1.4-2.5,1.4L81,1410.8z M72.7,1419.9c2.3,0,2.6-0.3,2.6-2.4v-2
	c0-2.2-0.3-2.4-3-2.4s-2.9,0.3-2.9,2.3v2.1C69.4,1419.7,69.8,1419.9,72.7,1419.9z"/>
<path class="st1" d="M87,1388.1c1.4,0,2,0.4,2,1.4s-0.5,1.4-2,1.4H71.9c-2.1,0-2.4,0.4-2.4,2.7v5.6c0,2.1,0.4,2.5,2,2.5h1.2
	c1.6,0,2.1-0.2,2.4-0.9l0.2-0.4c0.3-0.9,0.8-1.1,2.4-1.1h7.9c2.6,0,3.3,0.5,3.3,2.6s-0.6,2.6-3.4,2.6H70c-2.8,0-3.4-0.5-3.4-3.1v-10
	c0-2.8,0.5-3.4,3-3.4L87,1388.1z"/>
<path class="st1" d="M86.4,1379c1.6,0,2.3,0.8,2.3,2.6s-0.7,2.6-2.3,2.6H68.2c-1.2,0-1.7-0.4-1.7-1.4s0.5-1.3,1.8-1.3h4.2
	c2,0,2.3-0.1,2.7-1l0.1-0.3c0.4-0.8,0.8-1.1,1.9-1.1H86.4z"/>
<path class="st1" d="M85.8,1358.6c2.5,0,3,0.6,3,3.5v10.9c0,2.2-0.7,2.8-3.2,2.8h-3.2c-1.2,0-1.7-0.5-1.7-1.4s0.5-1.4,1.8-1.4h1.1
	c2,0,2.4-0.4,2.4-2.5v-4.5c0-2-0.3-2.3-2.7-2.3h-2.7c-2.2,0-2.5,0.3-2.5,2.9v6.1c0,2.4-0.6,3-3,3h-5.5c-2.4,0-2.9-0.6-2.9-3.2v-10.8
	c0-2.6,0.5-3.3,2.6-3.3h2.3c1.3,0,2,0.5,2,1.4s-0.5,1.3-1.6,1.4h-0.5c-1.6,0.1-1.9,0.5-1.9,2.5v6.8c0,1.9,0.5,2.3,2.9,2.3
	c2.6,0,3-0.3,3-2.6v-8.5c0-2.8,0.4-3.3,3.1-3.3L85.8,1358.6z"/>
<path class="st1" d="M81,1340.9c-2.7,0-3,0.3-3,2.6v3.9c0,2.4,0.3,2.7,3,2.7h4.2c2.9,0,3.5,0.5,3.5,2.6s-0.6,2.6-3.6,2.6h-7.5
	c-1.7,0-2.1-0.2-2.6-1.3s-0.6-1.1-2.5-1.1h-2.7c-2.8,0-3.3-0.5-3.3-3.2v-5.8c0-2.8,0.5-3.2,3.3-3.2h2.6c2,0,2.2-0.1,2.6-0.9l0.2-0.5
	c0.4-0.9,0.7-1,3.6-1h7.6c1.9,0,2.5,0.3,2.5,1.4s-0.6,1.4-2.5,1.4L81,1340.9z M72.7,1350.1c2.3,0,2.6-0.3,2.6-2.4v-2
	c0-2.2-0.3-2.4-3-2.4s-2.9,0.3-2.9,2.3v2.1C69.4,1349.8,69.8,1350.1,72.7,1350.1z"/>
<path class="st1" d="M86.1,1324c2,0,2.7,0.7,2.7,2.6s-0.7,2.6-2.7,2.6H72.3c-2.7,0-2.8,0.1-2.8,3v1.7c0,1.4-0.4,2-1.4,2
	s-1.4-0.6-1.4-2v-12.3c0-1.7,0.4-2.2,1.4-2.2s1.5,0.5,1.5,2.4v2.4c0,1.9,0.4,2.3,2.7,2.3h1.4c0.9,0,1.4-0.3,1.7-0.9l0.2-0.4
	c0.4-0.9,0.7-1.1,2.4-1.1L86.1,1324z"/>
<path class="st1" d="M86.4,1311c1.6,0,2.3,0.8,2.3,2.6s-0.7,2.6-2.3,2.6H68.2c-1.2,0-1.7-0.4-1.7-1.4s0.5-1.3,1.8-1.3h4.2
	c2,0,2.3-0.1,2.7-1l0.1-0.3c0.4-0.8,0.8-1.1,1.9-1.1H86.4z"/>
<path class="st1" d="M85.8,1290.4c2.4,0,2.9,0.6,2.9,3.3v11.1c0,2.1-0.7,2.8-3,2.8H69.4c-2.2,0-2.8-0.7-2.8-3v-11.2
	c0-2.4,0.6-2.9,3.3-2.9L85.8,1290.4z M73.5,1294.4c-0.4,1.2-0.6,1.3-2.1,1.3c-1.7,0-2,0.4-2,2.6v4c0,2.2,0.4,2.5,2.8,2.5h10.7
	c2.7,0,3.1-0.3,3.1-2.4v-6.6c0-2.2-0.4-2.6-2.7-2.6h-7.2C74.2,1293.2,73.9,1293.4,73.5,1294.4z"/>
<path class="st1" d="M87,1270.1c1.4,0,2,0.4,2,1.4s-0.5,1.4-2,1.4H71.9c-2.1,0-2.4,0.4-2.4,2.7v5.6c0,2.1,0.4,2.5,2,2.5h1.2
	c1.6,0,2.1-0.2,2.4-0.9l0.2-0.4c0.3-0.9,0.8-1.1,2.4-1.1h7.9c2.6,0,3.3,0.5,3.3,2.6s-0.6,2.6-3.4,2.6H70c-2.8,0-3.4-0.5-3.4-3.1v-10
	c0-2.8,0.5-3.4,3-3.4L87,1270.1z"/>
<path class="st1" d="M85.8,1249.2c2.5,0,3,0.6,3,3.5v10.9c0,2.2-0.7,2.8-3.2,2.8h-3.2c-1.2,0-1.7-0.5-1.7-1.4s0.5-1.4,1.8-1.4h1.1
	c2,0,2.4-0.4,2.4-2.5v-4.4c0-2-0.3-2.3-2.7-2.3h-2.7c-2.2,0-2.5,0.3-2.5,2.9v6.1c0,2.4-0.6,3-3,3h-5.5c-2.4,0-2.9-0.6-2.9-3.2v-10.8
	c0-2.6,0.5-3.3,2.6-3.3h2.3c1.3,0,2,0.5,2,1.4s-0.5,1.3-1.6,1.4h-0.5c-1.6,0.1-1.9,0.5-1.9,2.5v6.8c0,1.9,0.5,2.3,2.9,2.3
	c2.6,0,3-0.3,3-2.6v-8.5c0-2.8,0.4-3.3,3.1-3.3L85.8,1249.2z"/>
<line class="st2" x1="26.9" y1="1102.9" x2="1053.5" y2="1102.9"/>
<line class="st2" x1="26.9" y1="853.9" x2="1053.5" y2="853.9"/>
<line class="st2" x1="112.2" y1="1386.5" x2="112.2" y2="188.5"/>
<rect x="202.5" y="358.5" class="st2" width="147" height="101"/>
<polygon class="st2" points="642.3,493.5 468.2,493.5 498.6,387.6 681,389.4 "/>
<rect x="448.2" y="558.9" class="st2" width="222.5" height="81"/>
<rect x="466.8" y="696.2" class="st2" width="177" height="123.1"/>
<rect x="862.6" y="938.9" class="st2" width="179" height="91"/>
<rect x="408.5" y="1367.4" class="st2" width="290" height="123.1"/>
<rect x="794.5" y="1368.5" class="st2" width="290" height="123.1"/>
<path class="st0" d="M494.3,609.9c0,3.3-0.7,4-3.9,4h-14.3c-3.5,0-4.2-0.7-4.2-4.1v-20.9c0-3.3,0.7-4,4.6-4h10.4
	c3.5,0,4.3,0.7,4.3,3.7v4.4c0,2.3,0.1,2.7,1.6,3.2s1.6,0.8,1.6,3.9L494.3,609.9z M487.5,592.5c0-3.3-0.4-3.9-3-3.9h-5.5
	c-3.2,0-3.5,0.3-3.5,4.1c0,3.2,0.4,3.6,3.4,3.6h5.6C487,596.2,487.5,595.7,487.5,592.5z M490.1,609.5c0.4-0.6,0.5-1.5,0.5-4.7
	c0-4.7-0.2-5-3.3-5h-5.5c-2.7,0-3.1,0.4-3.2,2.9v2.5v0.5c0,4.2,0.3,4.6,3,4.6h5.5C489.2,610.2,489.7,610.1,490.1,609.5L490.1,609.5z
	"/>
<path class="st0" d="M503.5,610.2c0,3-0.5,3.7-2.9,3.7c-2.7,0-3.1-0.5-3.1-3.7v-22.7c0-2,0.4-2.7,1.6-2.7s1.6,0.6,1.6,2.7v3.8
	c0,1.4,0.2,1.7,1.4,2s1.4,0.7,1.4,2.4V610.2z"/>
<path class="st0" d="M522.9,610.5c0,2.9-0.5,3.3-3.3,3.3h-9.2c-2.9,0-3.3-0.5-3.3-3.3v-13.7c0-3,0.4-3.4,3.3-3.4h9.2
	c3,0,3.3,0.4,3.3,3.4V610.5z M517.5,596.5h-5c-2,0-2.3,0.3-2.3,2.3v1.2c0,1.4,0.2,1.7,1.4,2c1.2,0.3,1.4,0.7,1.4,2.4v3.9
	c0,2.1,0.2,2.3,2.3,2.3h2.1c2,0,2.3-0.3,2.3-2.3v-9.5C519.8,596.9,519.5,596.6,517.5,596.5L517.5,596.5z"/>
<path class="st0" d="M542.3,610.5L542.3,610.5c0,2.8-0.5,3.3-3.3,3.3h-9.2c-2.9,0-3.3-0.5-3.3-3.3v-13.7c0-3,0.4-3.4,3.3-3.4h9.3
	c3,0,3.3,0.4,3.3,3.4v1c0,1.7-0.4,2.4-1.7,2.4c-1,0-1.4-0.5-1.5-1.9c-0.2-1.6-0.3-1.7-2.3-1.7h-5c-2,0-2.3,0.3-2.3,2.3v1.3
	c0,1.4,0.2,1.7,1.4,2s1.4,0.7,1.4,2.4v3.8c0,2.1,0.2,2.3,2.3,2.3h2c1.9,0,2.3-0.3,2.3-2v-0.2c0-2,0.4-2.7,1.6-2.7s1.6,0.6,1.6,2.7
	L542.3,610.5z"/>
<path class="st0" d="M558.2,605.7c0-2-0.3-2.3-2.3-2.3h-2.2c-2,0-2.3,0.3-2.3,2.3v4.5c0,3-0.5,3.7-2.9,3.7c-2.7,0-3.1-0.5-3.1-3.7
	v-22.7c0-2,0.4-2.7,1.6-2.7s1.6,0.6,1.6,2.7V598c0,2.1,0.2,2.3,2.3,2.3h2c2,0,2.3-0.3,2.3-2.3v-2c0-2,0.4-2.7,1.6-2.7
	s1.6,0.7,1.6,2.7v2.4c0,1.4,0.2,1.7,1.4,2s1.4,0.7,1.4,2.4v8.3c0,2-0.4,2.7-1.6,2.7s-1.6-0.6-1.6-2.6L558.2,605.7z"/>
<path class="st0" d="M580.5,610.5L580.5,610.5c0,2.8-0.5,3.3-3.3,3.3h-9.2c-2.9,0-3.3-0.5-3.3-3.3v-13.7c0-3,0.4-3.4,3.3-3.4h9.2
	c3,0,3.3,0.4,3.3,3.4v1c0,1.7-0.4,2.4-1.7,2.4c-1,0-1.4-0.5-1.5-1.9c-0.2-1.6-0.3-1.7-2.3-1.7h-5c-2,0-2.3,0.3-2.3,2.3v1.3
	c0,1.4,0.2,1.7,1.4,2s1.4,0.7,1.4,2.4v3.8c0,2.1,0.2,2.3,2.3,2.3h2c1.9,0,2.3-0.3,2.3-2v-0.2c0-2,0.4-2.7,1.6-2.7s1.6,0.6,1.6,2.7
	L580.5,610.5z"/>
<path class="st0" d="M599.5,611.2c0,2-0.4,2.7-1.6,2.7s-1.6-0.6-1.6-2.6v-12.4c0-2-0.3-2.3-2.3-2.3h-5c-2,0-2.3,0.3-2.3,2.3v1.2
	c0,1.4,0.2,1.7,1.4,2s1.5,0.7,1.5,2.4v5.7c0,3-0.5,3.7-2.9,3.7c-2.8,0-3.2-0.5-3.2-3.7v-22.7c0-2,0.4-2.7,1.6-2.7s1.6,0.6,1.6,2.7v4
	c0,1.6,0.4,2,2,2h7.4c2.9,0,3.3,0.4,3.3,3.4L599.5,611.2z"/>
<path class="st0" d="M618.7,610.5c0,2.9-0.5,3.3-3.4,3.3h-9.2c-2.9,0-3.4-0.5-3.4-3.3V605c0-3,0.4-3.4,3.3-3.4h7.1
	c2,0,2.3-0.3,2.3-2.3v-0.4c0-2-0.3-2.3-2.3-2.3H608c-1.5,0-1.9,0.3-2,1.2l-0.1,0.6c0,0.8-0.6,1.4-1.4,1.4c0,0-0.1,0-0.1,0
	c-1.2,0-1.6-0.6-1.6-2.4v-0.5c0-3,0.4-3.4,3.3-3.4h9.2c3,0,3.3,0.4,3.3,3.4L618.7,610.5z M613.2,604.7H611c-2,0-2.3,0.3-2.3,2.3v1.4
	c0,2.1,0.2,2.3,2.3,2.3h2.1c2,0,2.3-0.3,2.3-2.2v-1.3C615.5,605,615.2,604.7,613.2,604.7z"/>
<path class="st0" d="M625.2,590.2c-2.3,0-3-0.6-3-2.5s0.8-2.8,3.1-2.8s3,0.6,3,2.6v0.1C628.2,589.6,627.5,590.2,625.2,590.2z
	 M628.2,610.2c0,3-0.5,3.7-2.9,3.7c-2.7,0-3.1-0.5-3.1-3.7V596c0-2,0.4-2.7,1.6-2.7s1.6,0.6,1.6,2.7v3.1c0,1.4,0.2,1.7,1.4,2
	s1.4,0.7,1.4,2.4V610.2z"/>
<path class="st0" d="M643.7,593.4c2.9,0,3.3,0.4,3.3,3.4v14.3c0,2-0.4,2.7-1.6,2.7s-1.6-0.6-1.6-2.6v-12.4c0-2-0.3-2.3-2.3-2.3h-5
	c-2,0-2.3,0.3-2.3,2.3v1.2c0,1.4,0.2,1.7,1.4,2s1.4,0.7,1.4,2.4v5.7c0,3-0.5,3.7-2.9,3.7c-2.8,0-3.2-0.5-3.2-3.7v-13.3
	c0-3,0.4-3.4,3.3-3.4H643.7z"/>
<path class="st0" d="M890.7,526.5c0,2.8,0.3,3.1,3.1,3.1h3.8c1.8,0,2.4,0.4,2.4,1.5s-0.7,1.6-2.4,1.6h-9.3c-2.6,0-3.3-0.7-3.3-3
	v-17.9c0-2.9,0.6-3.5,3.3-3.5h9.7c1.3,0,1.9,0.5,1.9,1.6s-0.6,1.5-1.9,1.5h-7.3c-2.4,0-2.7,0.4-2.7,3.5c0,2.5,0.4,3,2.2,3h6.9
	c2.3,0,2.9,0.3,2.9,1.5c0,0.8-0.7,1.5-1.5,1.5c-0.1,0-0.1,0-0.2,0h-4.8c-2.6,0-2.9,0.3-2.9,3.7L890.7,526.5z"/>
<path class="st0" d="M902.4,521.1v-3.4c0-1.7,0.3-2.2,1.4-2.2s1.4,0.5,1.4,2.2v2.7c0,1.8,0.2,2,2,2h4.2c1.7,0,2-0.2,2-1.9v-2.8
	c0-1.7,0.3-2.2,1.3-2.2s1.4,0.5,1.4,2.2v3.5c0,1.6-0.3,2.1-1.2,2.6c1.1,0.6,1.2,1,1.2,3.1v3.6c0,1.7-0.3,2.3-1.4,2.3
	s-1.3-0.5-1.3-2.2V527c0-1.7-0.2-1.9-2-1.9h-1.8c-1.7,0-1.9,0.3-1.9,1.9v2.6c0,2.6-0.4,3.1-2.4,3.1c-2.3,0-2.7-0.4-2.7-3.1v-3
	c0-1.8,0.4-2.4,1.7-2.8C902.8,523.4,902.4,522.9,902.4,521.1z"/>
<path class="st0" d="M918.5,518.3c0-2.3,0.5-2.8,2.8-2.8h7.9c2.4,0,2.8,0.4,2.8,2.8v11.5c0,2.5-0.4,2.9-2.8,2.9h-6.2
	c-1.4,0-1.7,0.3-1.7,1.7v2.6c0,1.7-0.3,2.2-1.3,2.2s-1.4-0.5-1.4-2.3L918.5,518.3z M927.4,518.1h-4.2c-1.7,0-1.9,0.3-1.9,1.9v1
	c0,1.2,0.2,1.4,1.2,1.7s1.2,0.6,1.2,2v3.3c0,1.8,0.2,1.9,2,1.9h1.8c1.7,0,2-0.2,2-1.9V520C929.3,518.4,929.1,518.1,927.4,518.1z"/>
<path class="st0" d="M948.4,522.2c0,2.4-0.4,2.8-2.8,2.8h-3.6c-1.7,0-1.9,0.3-1.9,1.9v1.2c0,1.8,0.2,2,2,2h2.2
	c1.1,0,1.5-0.3,1.5-1.2l0.1-0.6c0-0.7,0.5-1.2,1.2-1.2c0,0,0,0,0.1,0c1,0,1.3,0.6,1.3,1.9v1c0,2.4-0.4,2.8-2.8,2.8h-7.8
	c-2.4,0-2.8-0.4-2.8-2.8v-11.5c0-2.5,0.4-2.9,2.8-2.9h7.8c2.5,0,2.8,0.4,2.8,2.9L948.4,522.2z M945.7,520.3v-0.3
	c0-1.7-0.3-1.9-2-1.9h-4.2c-1.8,0-1.9,0.2-1.9,1.9v0.3c0,1.8,0.2,2,1.9,2h4.2C945.4,522.3,945.7,522,945.7,520.3z"/>
<path class="st0" d="M956.2,529.6c0,2.6-0.5,3.1-2.5,3.1c-2.3,0-2.6-0.4-2.6-3.1v-11.2c0-2.5,0.4-2.9,2.8-2.9h4.7
	c1.7,0,2.3,0.3,2.3,1.3s-0.5,1.4-2.3,1.4h-2.9c-1.7,0-1.9,0.3-1.9,1.9v0.2c0,1.2,0.1,1.4,1.2,1.7s1.2,0.6,1.2,2L956.2,529.6z"/>
<path class="st0" d="M965.6,512.7c-2,0-2.6-0.5-2.6-2.1s0.7-2.3,2.6-2.3s2.5,0.5,2.5,2.2v0.1C968.2,512.2,967.5,512.7,965.6,512.7z
	 M968.1,529.6c0,2.6-0.4,3.1-2.4,3.1c-2.3,0-2.6-0.4-2.6-3.1v-12c0-1.7,0.3-2.2,1.3-2.2s1.4,0.5,1.4,2.2v2.6c0,1.2,0.1,1.4,1.2,1.7
	s1.2,0.6,1.2,2V529.6z"/>
<path class="st0" d="M984.1,522.2c0,2.4-0.4,2.8-2.8,2.8h-3.6c-1.7,0-1.9,0.3-1.9,1.9v1.2c0,1.8,0.2,2,2,2h2.2
	c1.1,0,1.5-0.3,1.5-1.2l0.1-0.6c0-0.7,0.5-1.2,1.1-1.3c0,0,0.1,0,0.1,0c1,0,1.4,0.6,1.4,1.9v1c0,2.4-0.4,2.8-2.8,2.8h-7.8
	c-2.4,0-2.8-0.4-2.8-2.8v-11.5c0-2.5,0.4-2.9,2.8-2.9h7.8c2.5,0,2.8,0.4,2.8,2.9L984.1,522.2z M981.4,520.3v-0.3
	c0-1.7-0.3-1.9-1.9-1.9h-4.2c-1.8,0-1.9,0.2-1.9,1.9v0.3c0,1.8,0.2,2,1.9,2h4.2C981.2,522.3,981.4,522,981.4,520.3L981.4,520.3z"/>
<path class="st0" d="M997.4,515.5c2.5,0,2.8,0.4,2.8,2.9v12.1c0,1.7-0.3,2.3-1.4,2.3s-1.3-0.5-1.3-2.2v-10.5c0-1.7-0.3-1.9-1.9-1.9
	h-4.2c-1.7,0-2,0.3-2,1.9v1c0,1.2,0.2,1.4,1.2,1.7s1.2,0.6,1.2,2v4.8c0,2.6-0.4,3.1-2.5,3.1c-2.3,0-2.7-0.4-2.7-3.1v-11.2
	c0-2.5,0.4-2.9,2.8-2.9H997.4z"/>
<path class="st0" d="M1016.7,529.9L1016.7,529.9c0,2.4-0.4,2.8-2.8,2.8h-7.8c-2.4,0-2.8-0.4-2.8-2.8v-11.5c0-2.5,0.4-2.9,2.8-2.9
	h7.8c2.5,0,2.8,0.4,2.8,2.9v0.8c0,1.4-0.4,2-1.4,2c-0.8,0-1.2-0.4-1.3-1.6c-0.2-1.3-0.3-1.4-1.9-1.4h-4.3c-1.7,0-1.9,0.3-1.9,1.9
	v1.1c0,1.2,0.2,1.4,1.2,1.7s1.2,0.6,1.2,2v3.2c0,1.8,0.2,1.9,2,1.9h1.7c1.6,0,2-0.3,2-1.7v-0.2c0-1.7,0.3-2.2,1.4-2.2
	s1.3,0.5,1.3,2.2L1016.7,529.9z"/>
<path class="st0" d="M1032.8,522.2c0,2.4-0.4,2.8-2.8,2.8h-3.6c-1.7,0-1.9,0.3-1.9,1.9v1.2c0,1.8,0.2,2,2,2h2.2
	c1.1,0,1.5-0.3,1.5-1.2l0.1-0.6c0-0.7,0.5-1.2,1.1-1.3c0,0,0.1,0,0.1,0c1,0,1.4,0.6,1.4,1.9v1c0,2.4-0.4,2.8-2.8,2.8h-7.8
	c-2.4,0-2.8-0.4-2.8-2.8v-11.5c0-2.5,0.4-2.9,2.8-2.9h7.8c2.5,0,2.8,0.4,2.8,2.9L1032.8,522.2z M1030.1,520.3v-0.3
	c0-1.7-0.3-1.9-1.9-1.9h-4.2c-1.8,0-1.9,0.2-1.9,1.9v0.3c0,1.8,0.2,2,1.9,2h4.2C1029.9,522.3,1030.1,522,1030.1,520.3L1030.1,520.3z
	"/>
<path class="st0" d="M860.7,569.3c0,2.4-0.4,2.8-2.9,2.8H850c-2.4,0-2.9-0.4-2.9-2.8v-1.2c0-1.7,0.3-2.2,1.3-2.2s1.2,0.4,1.3,1.8
	c0.1,1.5,0.3,1.8,1.8,1.8h1.9c1.7,0,2-0.3,2-2v-1.2c0-1.7-0.2-1.9-2-1.9H850c-2.4,0-2.9-0.4-2.9-2.9v-3.8c0-2.5,0.4-2.9,2.8-2.9h7.9
	c2.5,0,2.8,0.4,2.8,2.9v0.8c0,1.2-0.4,1.8-1.4,1.8s-1.2-0.4-1.3-1.4s-0.4-1.3-1.8-1.3h-4.3c-1.7,0-2,0.2-2,1.9v0.3c0,1.7,0.3,2,2,2
	h6c2.5,0,2.8,0.4,2.8,2.9L860.7,569.3z"/>
<path class="st0" d="M876.8,561.6c0,2.4-0.4,2.8-2.8,2.8h-3.6c-1.7,0-1.9,0.3-1.9,1.9v1.2c0,1.8,0.2,1.9,2,1.9h2.2
	c1.1,0,1.5-0.3,1.5-1.2l0.1-0.6c0-0.7,0.5-1.2,1.2-1.3c0,0,0.1,0,0.1,0c1,0,1.4,0.6,1.4,1.9v1c0,2.4-0.4,2.8-2.8,2.8h-7.8
	c-2.4,0-2.8-0.4-2.8-2.8v-11.5c0-2.5,0.4-2.9,2.8-2.9h7.8c2.5,0,2.8,0.4,2.8,2.9L876.8,561.6z M874.1,559.7v-0.3
	c0-1.7-0.3-1.9-2-1.9H868c-1.8,0-2,0.2-2,1.9v0.3c0,1.8,0.2,2,2,2h4.2C873.8,561.7,874.1,561.5,874.1,559.7L874.1,559.7z"/>
<path class="st0" d="M884.6,569c0,2.6-0.4,3.1-2.5,3.1c-2.3,0-2.6-0.4-2.6-3.1v-19.2c0-1.7,0.3-2.2,1.3-2.2s1.3,0.5,1.3,2.2v3.2
	c0,1.2,0.2,1.4,1.2,1.7s1.2,0.6,1.2,2V569z"/>
<path class="st0" d="M901,561.6c0,2.4-0.4,2.8-2.8,2.8h-3.6c-1.7,0-1.9,0.3-1.9,1.9v1.2c0,1.8,0.2,1.9,2,1.9h2.2
	c1.1,0,1.5-0.3,1.5-1.2l0.1-0.6c0-0.7,0.5-1.2,1.2-1.3c0,0,0.1,0,0.1,0c1,0,1.3,0.6,1.3,1.9v1c0,2.4-0.4,2.8-2.8,2.8h-7.8
	c-2.4,0-2.8-0.4-2.8-2.8v-11.5c0-2.5,0.4-2.9,2.8-2.9h7.8c2.5,0,2.8,0.4,2.8,2.9L901,561.6z M898.3,559.7v-0.3c0-1.7-0.3-1.9-2-1.9
	h-4.2c-1.8,0-2,0.2-2,1.9v0.3c0,1.8,0.2,2,2,2h4.2C898,561.7,898.3,561.5,898.3,559.7L898.3,559.7z"/>
<path class="st0" d="M917.2,569.3L917.2,569.3c0,2.4-0.4,2.8-2.8,2.8h-7.8c-2.4,0-2.8-0.4-2.8-2.8v-11.5c0-2.5,0.4-2.9,2.8-2.9h7.8
	c2.5,0,2.8,0.4,2.8,2.9v0.8c0,1.4-0.4,2-1.4,2c-0.8,0-1.2-0.4-1.3-1.6s-0.3-1.4-1.9-1.4h-4.2c-1.7,0-2,0.2-2,1.9v1.1
	c0,1.2,0.2,1.4,1.2,1.7s1.2,0.6,1.2,2v3.2c0,1.8,0.2,1.9,2,1.9h1.7c1.6,0,2-0.3,2-1.7v-0.2c0-1.7,0.3-2.2,1.3-2.2s1.3,0.5,1.3,2.2
	L917.2,569.3z"/>
<path class="st0" d="M921.1,550.9c0-1.7,0.3-2.3,1.4-2.3s1.4,0.5,1.4,2.2v2.6c0,1.2,0.1,1.3,1,1.3c1.2,0,1.7,0.4,1.7,1.4
	s-0.5,1.3-1.5,1.4s-1.2,0.2-1.2,1.3v0.8c0,1.2,0.2,1.4,1.2,1.7s1.2,0.6,1.2,2v5.6c0,2.6-0.4,3.1-2.5,3.1c-2.3,0-2.6-0.4-2.6-3.1
	v-9.9c0-0.2,0-0.4,0-0.6c0-0.7-0.2-0.8-0.8-0.9h-0.5c-0.9-0.1-1.4-0.5-1.4-1.3s0.5-1.4,1.6-1.4s1.1-0.2,1.1-1.9L921.1,550.9z"/>
<path class="st0" d="M942.5,561.6c0,2.4-0.4,2.8-2.8,2.8H936c-1.7,0-1.9,0.3-1.9,1.9v1.2c0,1.8,0.2,1.9,2,1.9h2.2
	c1.1,0,1.5-0.3,1.5-1.2l0.1-0.6c0-0.7,0.5-1.2,1.2-1.3c0,0,0.1,0,0.1,0c1,0,1.3,0.6,1.3,1.9v1c0,2.4-0.4,2.8-2.8,2.8h-7.8
	c-2.4,0-2.8-0.4-2.8-2.8v-11.5c0-2.5,0.4-2.9,2.8-2.9h7.8c2.5,0,2.8,0.4,2.8,2.9L942.5,561.6z M939.8,559.7v-0.3
	c0-1.7-0.3-1.9-2-1.9h-4.2c-1.8,0-2,0.2-2,1.9v0.3c0,1.8,0.2,2,2,2h4.2C939.5,561.7,939.8,561.5,939.8,559.7z"/>
<path class="st0" d="M958.6,569.3c0,2.3-0.5,2.8-2.8,2.8H948c-2.4,0-2.8-0.4-2.8-2.8v-11.6c0-2.5,0.4-2.9,2.8-2.9h6.3
	c1.4,0,1.7-0.4,1.7-1.7v-3.3c0-1.7,0.3-2.2,1.3-2.2s1.3,0.5,1.3,2.2L958.6,569.3z M954,557.5h-4.2c-1.7,0-2,0.3-2,1.9v1
	c0,1.2,0.2,1.4,1.2,1.7s1.2,0.6,1.2,2v3.3c0,1.8,0.2,1.9,2,1.9h1.8c1.7,0,2-0.3,2-1.9v-8.1C956,557.8,955.7,557.5,954,557.5z"/>
<path class="st0" d="M982.3,569.3c0,2.4-0.4,2.8-2.9,2.8h-7.8c-2.4,0-2.9-0.4-2.9-2.8v-4.7c0-2.5,0.3-2.9,2.8-2.9h6
	c1.7,0,1.9-0.3,1.9-2v-0.3c0-1.7-0.2-1.9-1.9-1.9h-4.4c-1.2,0-1.6,0.2-1.7,1l-0.1,0.5c0,0.7-0.6,1.2-1.2,1.2c0,0-0.1,0-0.1,0
	c-1,0-1.3-0.5-1.3-2v-0.4c0-2.5,0.3-2.9,2.8-2.9h7.8c2.5,0,2.8,0.3,2.8,2.9L982.3,569.3z M977.7,564.4h-1.8c-1.7,0-1.9,0.3-1.9,1.9
	v1.2c0,1.8,0.2,1.9,2,1.9h1.8c1.7,0,1.9-0.3,1.9-1.9v-1.1C979.6,564.7,979.4,564.4,977.7,564.4L977.7,564.4z"/>
<path class="st0" d="M990.3,569c0,2.6-0.4,3.1-2.5,3.1c-2.3,0-2.6-0.4-2.6-3.1v-11.2c0-2.5,0.4-2.9,2.8-2.9h4.7
	c1.7,0,2.3,0.3,2.3,1.3s-0.5,1.4-2.3,1.4h-2.9c-1.7,0-2,0.3-2,1.9v0.2c0,1.2,0.2,1.4,1.2,1.7s1.2,0.6,1.2,2L990.3,569z"/>
<path class="st0" d="M998.4,550.9c0-1.7,0.3-2.3,1.3-2.3s1.4,0.5,1.4,2.2v2.6c0,1.2,0.1,1.3,1,1.3c1.2,0,1.7,0.4,1.7,1.4
	s-0.5,1.3-1.5,1.4s-1.2,0.2-1.2,1.3v0.8c0,1.2,0.2,1.4,1.2,1.7s1.2,0.6,1.2,2v5.6c0,2.6-0.4,3.1-2.5,3.1c-2.3,0-2.6-0.4-2.6-3.1
	v-9.9c0-0.2,0-0.4,0-0.6c0-0.7-0.2-0.8-0.8-0.9h-0.5c-0.9-0.1-1.4-0.5-1.4-1.3s0.5-1.4,1.6-1.4s1.1-0.2,1.1-1.9L998.4,550.9z"/>
<path class="st0" d="M1009.1,572.2c-2.4,0-2.8-0.4-2.8-2.8v-12.3c0-1.7,0.3-2.2,1.4-2.2s1.3,0.5,1.3,2.2v2.6c0,1.2,0.1,1.4,1.2,1.7
	s1.2,0.6,1.2,2v4.1c0,1.7,0.2,1.9,1.5,1.9s1.7-0.4,1.7-1.9v-10.5c0-1.7,0.3-2.2,1.3-2.2s1.3,0.5,1.3,2.2v2.6c0,1.2,0.2,1.4,1.2,1.7
	s1.2,0.6,1.2,2v4.1c0,1.7,0.2,1.9,1.6,1.9s1.6-0.4,1.6-1.9v-10.5c0-1.7,0.3-2.2,1.4-2.2s1.3,0.5,1.3,2.2v12.3c0,2.4-0.4,2.8-2.8,2.8
	L1009.1,572.2z"/>
<path class="st0" d="M1041.9,569.3c0,2.4-0.4,2.8-2.8,2.8h-7.8c-2.4,0-2.8-0.4-2.8-2.8v-11.5c0-2.5,0.4-2.9,2.8-2.9h7.8
	c2.5,0,2.8,0.4,2.8,2.9V569.3z M1037.4,557.5h-4.3c-1.7,0-1.9,0.3-1.9,1.9v1c0,1.2,0.2,1.4,1.2,1.7s1.2,0.6,1.2,2v3.3
	c0,1.8,0.2,1.9,2,1.9h1.8c1.7,0,2-0.3,2-1.9v-8.1C1039.3,557.8,1039,557.5,1037.4,557.5L1037.4,557.5z"/>
<path class="st0" d="M1050,569c0,2.6-0.4,3.1-2.5,3.1c-2.3,0-2.6-0.4-2.6-3.1v-11.2c0-2.5,0.4-2.9,2.8-2.9h4.7
	c1.7,0,2.3,0.3,2.3,1.3s-0.6,1.4-2.3,1.4h-2.9c-1.7,0-1.9,0.3-1.9,1.9v0.2c0,1.2,0.2,1.4,1.2,1.7s1.2,0.6,1.2,2V569z"/>
<path class="st0" d="M1067.5,569.3c0-1.7-0.3-2-2-2h-1.8c-1.7,0-1.9,0.3-1.9,2v3.8c0,2.6-0.4,3.1-2.4,3.1c-2.3,0-2.6-0.4-2.6-3.1
	v-19.2c0-1.7,0.3-2.2,1.3-2.2s1.3,0.5,1.3,2.2v8.8c0,1.8,0.2,2,2,2h1.7c1.7,0,2-0.3,2-1.9v-1.7c0-1.7,0.3-2.3,1.3-2.3
	s1.3,0.5,1.3,2.3v2c0,1.2,0.2,1.4,1.2,1.7s1.2,0.6,1.2,2.1v7c0,1.7-0.3,2.3-1.3,2.3s-1.3-0.5-1.3-2.2L1067.5,569.3z"/>
<path class="st0" d="M911.2,988.3c0-3.2-0.3-3.6-3.2-3.6h-4.7c-2.9,0-3.2,0.3-3.2,3.6v5.1c0,3.5-0.6,4.2-3.2,4.2s-3.1-0.7-3.1-4.3
	v-9c0-2.1,0.2-2.5,1.6-3.1s1.3-0.7,1.3-3v-3.3c0-3.4,0.6-4,3.9-4h7c3.4,0,3.9,0.6,3.9,4v3.1c0,2.4,0.1,2.6,1.1,3.1l0.6,0.2
	c1.1,0.4,1.2,0.8,1.2,4.3v9.2c0,2.3-0.3,3-1.6,3s-1.7-0.7-1.7-3L911.2,988.3z M900.2,978.3c0,2.7,0.3,3.1,2.8,3.1h2.4
	c2.6,0,2.8-0.4,2.8-3.6c0-3-0.4-3.5-2.7-3.5H903C900.6,974.3,900.2,974.8,900.2,978.3L900.2,978.3z"/>
<path class="st0" d="M923.1,994.2c0,2.8-0.5,3.4-2.7,3.4c-2.5,0-2.9-0.4-2.9-3.4V982c0-2.8,0.4-3.2,3.1-3.2h5.1
	c1.9,0,2.5,0.4,2.5,1.4s-0.6,1.5-2.5,1.5h-3.1c-1.8,0-2.1,0.3-2.1,2.1v0.1c0,1.3,0.2,1.5,1.3,1.8s1.3,0.6,1.3,2.2L923.1,994.2z"/>
<path class="st0" d="M931.9,974.5c0-1.9,0.4-2.5,1.5-2.5s1.5,0.6,1.5,2.4v2.8c0,1.3,0.1,1.4,1.1,1.5c1.3,0,1.8,0.5,1.8,1.5
	s-0.6,1.4-1.7,1.5s-1.3,0.2-1.3,1.5v0.8c0,1.3,0.2,1.5,1.3,1.8s1.3,0.6,1.3,2.2v6.1c0,2.8-0.5,3.4-2.7,3.4c-2.5,0-2.9-0.4-2.9-3.4
	v-10.8c0-0.2,0-0.5,0-0.7c0-0.7-0.2-0.9-0.9-1h-0.5c-1-0.1-1.5-0.6-1.5-1.4c0-1,0.6-1.5,1.7-1.5s1.2-0.2,1.2-2.1L931.9,974.5z"/>
<path class="st0" d="M943.6,997.6c-2.6,0-3.1-0.4-3.1-3.1v-13.4c0-1.8,0.4-2.4,1.5-2.4s1.4,0.6,1.4,2.4v2.8c0,1.3,0.2,1.5,1.3,1.8
	s1.3,0.6,1.3,2.2v4.5c0,1.8,0.2,2.1,1.7,2.1s1.8-0.4,1.8-2.1v-11.4c0-1.8,0.4-2.4,1.5-2.4s1.4,0.6,1.4,2.4v2.8
	c0,1.3,0.2,1.5,1.3,1.8s1.3,0.6,1.3,2.2v4.5c0,1.8,0.2,2.1,1.7,2.1s1.8-0.4,1.8-2.1v-11.4c0-1.8,0.4-2.4,1.5-2.4s1.4,0.6,1.4,2.4
	v13.4c0,2.6-0.4,3.1-3.1,3.1L943.6,997.6z"/>
<path class="st0" d="M979.4,994.5c0,2.6-0.4,3.1-3.1,3.1h-8.5c-2.6,0-3.1-0.4-3.1-3.1V982c0-2.8,0.4-3.2,3.1-3.2h8.5
	c2.7,0,3.1,0.4,3.1,3.2V994.5z M974.4,981.7h-4.6c-1.8,0-2.1,0.3-2.1,2.1v1.1c0,1.3,0.2,1.5,1.3,1.8s1.3,0.6,1.3,2.2v3.6
	c0,1.9,0.2,2.1,2.2,2.1h1.9c1.8,0,2.2-0.3,2.2-2.1v-8.8C976.5,982,976.2,981.7,974.4,981.7z"/>
<path class="st0" d="M988.2,994.2c0,2.8-0.5,3.4-2.7,3.4c-2.5,0-2.9-0.4-2.9-3.4V982c0-2.8,0.4-3.2,3.1-3.2h5.1
	c1.9,0,2.5,0.4,2.5,1.4s-0.6,1.5-2.5,1.5h-3.1c-1.8,0-2.1,0.3-2.1,2.1v0.1c0,1.3,0.2,1.5,1.3,1.8s1.3,0.6,1.3,2.2L988.2,994.2z"/>
<path class="st0" d="M1007.3,990.1c0-1.8-0.3-2.1-2.1-2.1h-2c-1.8,0-2.1,0.3-2.1,2.1v4.1c0,2.8-0.5,3.4-2.7,3.4
	c-2.5,0-2.9-0.4-2.9-3.4v-20.9c0-1.8,0.4-2.4,1.4-2.4s1.5,0.6,1.5,2.4v9.7c0,1.9,0.2,2.1,2.2,2.1h1.9c1.9,0,2.2-0.3,2.2-2.1v-1.8
	c0-1.9,0.4-2.5,1.5-2.5s1.4,0.6,1.4,2.5v2.2c0,1.3,0.2,1.6,1.3,1.8s1.3,0.6,1.3,2.2v7.7c0,1.9-0.3,2.5-1.5,2.5s-1.4-0.6-1.4-2.4
	L1007.3,990.1z"/>
<path class="st0" d="M537.6,443.8v1.3c0.1,1.3-0.7,2.6-2,3.1l-0.7,0.3c-1.3,0.5-1.6,1.2-1.6,3.9v5.9c0,4.6-0.9,5.5-5.9,5.5h-8.7
	c-5.5,0-6.5-0.8-6.5-5.7v-6.6c0-2-0.4-2.5-2.3-3.3c-1.7-0.7-2-1.3-2-4.8v-13.6c0-4.9,0.8-6,4.9-6c3.7,0,4.6,1.1,4.6,6.1v24.1
	c0,4.1,0.6,4.9,3.7,4.9h3c3.4,0,4.1-0.7,4.1-4v-7.2c0-3.1,0.3-3.7,2-4.3c2-0.7,2.4-1.5,2.4-5v-11c0-2.5,0.7-3.5,2.6-3.5
	c1.7,0,2.5,1.1,2.5,3.2L537.6,443.8z"/>
<path class="st0" d="M573.3,458.5c0,4.4-1,5.3-5.9,5.3h-20c-3.8,0-5-1.3-5-5.3v-29.6c0-4,1.2-5.1,5.5-5.1h20.2c4.4,0,5.3,1,5.3,5.9
	L573.3,458.5z M566.2,436.2c-2.1-0.7-2.3-1.1-2.4-3.8c-0.1-3.1-0.7-3.6-4.6-3.6h-7.3c-3.9,0-4.5,0.7-4.5,5v19.4
	c0,4.9,0.5,5.5,4.3,5.5h11.9c4,0,4.7-0.7,4.7-4.9v-13C568.2,437.3,568,436.8,566.2,436.2z"/>
<path class="st0" d="M598.2,458.9c0,3.6-1.2,4.9-4.7,4.9s-4.7-1.2-4.7-4.9v-25c0-4.9-0.2-5.1-5.3-5.1h-3.1c-2.5,0-3.5-0.8-3.5-2.6
	s1.1-2.5,3.7-2.5h22.2c3,0,4,0.7,4,2.5c0,2-0.9,2.6-4.4,2.6H598c-3.5,0-4.1,0.7-4.1,4.8v2.5c0.1,1.7,0.5,2.5,1.7,3l0.7,0.3
	c1.6,0.7,1.9,1.3,1.9,4.3L598.2,458.9z"/>
<path class="st0" d="M620,453.6c0,4.6,0.5,5,5.1,5h6.2c2.9,0,4,0.7,4,2.5s-1.1,2.6-3.9,2.6h-15.3c-4.2,0-5.4-1.1-5.4-5v-29.2
	c0-4.7,1-5.8,5.4-5.8h16c2.1,0,3.2,0.9,3.2,2.6s-1,2.5-3.2,2.5h-12c-3.9,0-4.4,0.7-4.4,5.7c0,4,0.6,4.9,3.5,4.9h11.3
	c3.8,0,4.7,0.5,4.7,2.5c0,1.4-1.1,2.5-2.4,2.5c-0.1,0-0.2,0-0.3,0h-7.9c-4.3,0-4.7,0.5-4.7,6.1L620,453.6z"/>
<path class="st0" d="M230.3,987.1c0,2.2-0.4,2.6-2.9,2.6h-3.1c-1.9,0-2.1,0.2-2.1,2.4v3.9c0,2.1-0.5,2.7-2.2,2.7s-2.2-0.6-2.2-2.6
	v-13.6c0-2,0.5-2.5,2.9-2.5h6.6c2.6,0,3,0.4,3,2.8L230.3,987.1z M227.9,984.7c0-2-0.2-2.3-2.1-2.3h-3.6c-1.8,0-2,0.4-2,2.4
	s0.2,2.5,2,2.5h3.7C227.7,987.3,227.9,987,227.9,984.7z"/>
<path class="st0" d="M236.1,996.3c0,2-0.3,2.4-1.9,2.4c-1.8,0-2-0.3-2-2.4v-8.6c0-1.9,0.3-2.2,2.2-2.2h3.6c1.3,0,1.7,0.3,1.7,1
	s-0.4,1-1.7,1h-2.2c-1.3,0-1.5,0.2-1.5,1.5v0.1c0,0.9,0.1,1.1,0.9,1.3s0.9,0.5,0.9,1.6L236.1,996.3z"/>
<path class="st0" d="M251.6,996.5c0,1.8-0.3,2.2-2.2,2.2h-6c-1.9,0-2.2-0.3-2.2-2.2v-8.8c0-1.9,0.3-2.2,2.2-2.2h6
	c1.9,0,2.2,0.3,2.2,2.2V996.5z M248.1,987.5h-3.3c-1.3,0-1.5,0.2-1.5,1.5v0.8c0,0.9,0.1,1.1,0.9,1.3s0.9,0.5,0.9,1.6v2.5
	c0,1.3,0.1,1.5,1.5,1.5h1.3c1.3,0,1.5-0.2,1.5-1.5V989C249.6,987.7,249.4,987.5,248.1,987.5L248.1,987.5z"/>
<path class="st0" d="M257.8,1001.4c0,1.8-0.3,2.1-2.2,2.1h-2c-1.3,0-1.7-0.2-1.7-1s0.4-1,1.7-1h0.7c1.3,0,1.5-0.2,1.5-1.5
	c0-0.3,0-0.6-0.1-0.8c-0.1-0.2-0.3-0.3-0.4-0.4l-0.4-0.2c-0.8-0.3-0.9-0.6-0.9-2.4v-9c0-1.3,0.2-1.7,1-1.7s1,0.4,1,1.7v2
	c0,0.9,0.1,1.1,0.9,1.3s0.9,0.5,0.9,1.6L257.8,1001.4z M255.8,983.4c-1.5,0-2-0.4-2-1.6s0.5-1.8,2-1.8s1.9,0.4,1.9,1.7v0
	C257.8,983,257.3,983.4,255.8,983.4L255.8,983.4z"/>
<path class="st0" d="M270,990.6c0,1.8-0.3,2.2-2.2,2.2H265c-1.3,0-1.5,0.2-1.5,1.5v0.9c0,1.3,0.2,1.5,1.5,1.5h1.7
	c0.8,0,1.1-0.2,1.2-0.9l0-0.5c0-0.5,0.3-1,0.9-1c0,0,0.1,0,0.1,0c0.7,0,1,0.5,1,1.5v0.8c0,1.8-0.3,2.2-2.2,2.2h-6
	c-1.9,0-2.2-0.3-2.2-2.2v-8.8c0-1.9,0.3-2.2,2.2-2.2h6c1.9,0,2.2,0.3,2.2,2.2L270,990.6z M268,989.2V989c0-1.3-0.2-1.5-1.5-1.5h-3.3
	c-1.4,0-1.5,0.1-1.5,1.5v0.2c0,1.4,0.1,1.5,1.5,1.5h3.2C267.7,990.7,267.9,990.5,268,989.2L268,989.2z"/>
<path class="st0" d="M282.4,996.5L282.4,996.5c0,1.8-0.3,2.2-2.2,2.2h-6c-1.9,0-2.2-0.3-2.2-2.2v-8.8c0-1.9,0.3-2.2,2.2-2.2h6
	c1.9,0,2.2,0.3,2.2,2.2v0.6c0,1.1-0.3,1.5-1.1,1.5c-0.6,0-0.9-0.3-1-1.2s-0.2-1.1-1.5-1.1h-3.3c-1.3,0-1.5,0.2-1.5,1.5v0.8
	c0,0.9,0.1,1.1,0.9,1.3s0.9,0.5,0.9,1.6v2.5c0,1.3,0.1,1.5,1.5,1.5h1.3c1.2,0,1.5-0.2,1.5-1.3v-0.1c0-1.3,0.2-1.7,1-1.7s1,0.4,1,1.7
	L282.4,996.5z"/>
<path class="st0" d="M285.4,982.5c0-1.3,0.2-1.7,1-1.7s1,0.4,1,1.7v2c0,0.9,0.1,1,0.8,1c0.9,0,1.3,0.3,1.3,1s-0.4,1-1.2,1
	s-0.9,0.1-0.9,1v0.6c0,0.9,0.1,1.1,0.9,1.3s0.9,0.5,0.9,1.6v4.3c0,2-0.3,2.4-1.9,2.4c-1.8,0-2-0.3-2-2.4v-7.6c0-0.2,0-0.3,0-0.5
	c0-0.5-0.1-0.6-0.6-0.7h-0.4c-0.7,0-1.1-0.4-1.1-1s0.4-1,1.2-1s0.9-0.2,0.9-1.5L285.4,982.5z"/>
<path class="st0" d="M298.7,998.7l0.7-5.5h-2.3v-1.7h2.5l0.5-4.1h-2.4v-1.7h2.7l0.7-5.4h1.6l-0.7,5.4h2.9l0.7-5.4h1.6l-0.7,5.4h2.3
	v1.7h-2.6l-0.5,4.1h2.4v1.7h-2.7l-0.7,5.5h-1.7l0.7-5.5h-2.9l-0.7,5.5H298.7z M304.3,991.6l0.5-4.1h-2.9l-0.5,4.1H304.3z"/>
<path class="st0" d="M325.9,996.2c0,2.1-0.4,2.5-2.7,2.5h-9c-2.4,0-2.8-0.4-2.8-2.9v-13.1c0-2.4,0.4-2.8,2.8-2.8h9
	c2.3,0,2.7,0.4,2.7,2.8L325.9,996.2z M321.5,989.2c0-1.4,0.1-1.6,1.1-2s1-0.6,1-1.6v-1v-0.1c0-1.8-0.4-2.1-2.2-2.1h-5.2
	c-2.3,0-2.5,0.2-2.5,2.6v8.6c0,2.6,0.1,2.8,1.9,2.8h3c2.7,0,2.8-0.1,2.8-2.3v-3.9L321.5,989.2z"/>
<path class="st0" d="M330.3,981.4c0-1,0.3-1.5,1.1-1.5s1.2,0.5,1.2,1.4v15.4c0,1.4-0.6,2-2.2,2s-2.2-0.6-2.2-2v-7.9
	c0-0.9,0.2-1.3,0.9-1.6l0.3-0.1c0.7-0.3,0.8-0.6,0.8-2.2V981.4z"/>
<path class="st0" d="M439.3,987c0,2.2-0.5,2.6-2.9,2.6h-3.1c-1.9,0-2.1,0.2-2.1,2.4v4c0,2.1-0.5,2.7-2.2,2.7s-2.2-0.6-2.2-2.6v-13.6
	c0-2,0.5-2.5,2.9-2.5h6.6c2.6,0,3,0.4,3,2.8L439.3,987z M436.9,984.6c0-2-0.2-2.3-2.1-2.3h-3.6c-1.8,0-2,0.4-2,2.4s0.2,2.5,2,2.5
	h3.7C436.7,987.3,436.9,987,436.9,984.6L436.9,984.6z"/>
<path class="st0" d="M445.1,996.3c0,2-0.3,2.4-1.9,2.4c-1.8,0-2-0.3-2-2.4v-8.6c0-1.9,0.3-2.2,2.2-2.2h3.6c1.3,0,1.7,0.2,1.7,1
	s-0.4,1-1.7,1h-2.2c-1.3,0-1.5,0.2-1.5,1.5v0.1c0,0.9,0.1,1.1,0.9,1.3s0.9,0.4,0.9,1.6L445.1,996.3z"/>
<path class="st0" d="M460.6,996.5c0,1.8-0.3,2.2-2.2,2.2h-6c-1.9,0-2.2-0.3-2.2-2.2v-8.8c0-1.9,0.3-2.2,2.2-2.2h6
	c1.9,0,2.2,0.3,2.2,2.2V996.5z M457.1,987.5h-3.3c-1.3,0-1.5,0.2-1.5,1.5v0.8c0,0.9,0.1,1.1,0.9,1.3s0.9,0.5,0.9,1.6v2.5
	c0,1.3,0.1,1.5,1.5,1.5h1.4c1.3,0,1.5-0.2,1.5-1.5V989C458.6,987.7,458.4,987.5,457.1,987.5L457.1,987.5z"/>
<path class="st0" d="M466.8,1001.4c0,1.8-0.3,2.1-2.2,2.1h-2c-1.3,0-1.7-0.2-1.7-1s0.4-1,1.7-1h0.7c1.3,0,1.5-0.2,1.5-1.5
	c0-0.3,0-0.6-0.1-0.8c-0.1-0.2-0.3-0.3-0.5-0.4l-0.4-0.2c-0.8-0.3-0.9-0.7-0.9-2.5v-9c0-1.3,0.2-1.7,1-1.7s1,0.4,1,1.7v2
	c0,0.9,0.1,1.1,0.9,1.3s0.9,0.4,0.9,1.6L466.8,1001.4z M464.8,983.4c-1.5,0-2-0.4-2-1.6s0.5-1.8,2-1.8s1.9,0.4,1.9,1.7v0.1
	C466.8,983,466.3,983.3,464.8,983.4L464.8,983.4z"/>
<path class="st0" d="M479,990.6c0,1.8-0.3,2.2-2.2,2.2H474c-1.3,0-1.5,0.2-1.5,1.5v0.9c0,1.3,0.2,1.5,1.5,1.5h1.7
	c0.8,0,1.1-0.2,1.2-0.9l0-0.5c0-0.5,0.3-1,0.9-1c0,0,0.1,0,0.1,0c0.7,0,1,0.5,1,1.5v0.8c0,1.8-0.3,2.2-2.2,2.2h-6
	c-1.9,0-2.2-0.3-2.2-2.2v-8.8c0-1.9,0.3-2.2,2.2-2.2h6c1.9,0,2.2,0.3,2.2,2.2L479,990.6z M477,989.2V989c0-1.3-0.2-1.5-1.5-1.5h-3.2
	c-1.4,0-1.5,0.1-1.5,1.5v0.2c0,1.4,0.1,1.5,1.5,1.5h3.2C476.7,990.7,476.9,990.5,477,989.2L477,989.2z"/>
<path class="st0" d="M491.3,996.5L491.3,996.5c0,1.8-0.3,2.2-2.2,2.2h-6c-1.9,0-2.2-0.3-2.2-2.2v-8.8c0-1.9,0.3-2.2,2.2-2.2h6
	c1.9,0,2.2,0.3,2.2,2.2v0.6c0,1.1-0.3,1.5-1.1,1.5c-0.6,0-0.9-0.3-1-1.2s-0.2-1.1-1.5-1.1h-3.3c-1.3,0-1.5,0.2-1.5,1.5v0.8
	c0,0.9,0.1,1.1,0.9,1.3s0.9,0.5,0.9,1.6v2.5c0,1.3,0.1,1.5,1.5,1.5h1.3c1.2,0,1.5-0.2,1.5-1.3v-0.1c0-1.3,0.2-1.7,1-1.7s1,0.4,1,1.7
	L491.3,996.5z"/>
<path class="st0" d="M494.4,982.4c0-1.3,0.2-1.7,1-1.7s1,0.4,1,1.7v2c0,0.9,0.1,1,0.8,1c0.9,0,1.3,0.3,1.3,1s-0.4,1-1.2,1
	s-0.9,0.1-0.9,1v0.6c0,0.9,0.1,1.1,0.9,1.3s0.9,0.4,0.9,1.6v4.3c0,2-0.3,2.4-1.9,2.4c-1.8,0-2-0.3-2-2.4v-7.6c0-0.2,0-0.3,0-0.5
	c0-0.5-0.1-0.7-0.6-0.7h-0.4c-0.7-0.1-1.1-0.4-1.1-1s0.4-1,1.2-1s0.9-0.2,0.9-1.5L494.4,982.4z"/>
<path class="st0" d="M507.7,998.7l0.7-5.5h-2.3v-1.7h2.5l0.5-4.1h-2.4v-1.7h2.7l0.7-5.4h1.6l-0.7,5.4h2.9l0.7-5.4h1.7l-0.7,5.4h2.3
	v1.7h-2.5l-0.5,4.1h2.4v1.7h-2.7l-0.7,5.5h-1.7l0.7-5.5h-2.9l-0.7,5.5H507.7z M513.3,991.5l0.5-4.1h-2.9l-0.5,4.1H513.3z"/>
<path class="st0" d="M534.9,996.2c0,2.1-0.4,2.5-2.7,2.5h-9c-2.4,0-2.8-0.4-2.8-2.9v-13.1c0-2.3,0.4-2.8,2.8-2.8h9
	c2.3,0,2.7,0.4,2.7,2.8L534.9,996.2z M530.5,989.2c0-1.4,0.1-1.6,1.1-2s1-0.6,1-1.6v-1v-0.1c0-1.8-0.4-2.1-2.2-2.1h-5.2
	c-2.3,0-2.5,0.2-2.5,2.6v8.6c0,2.6,0.1,2.8,1.9,2.8h3c2.7,0,2.8-0.1,2.8-2.3v-3.8L530.5,989.2z"/>
<path class="st0" d="M551.2,988.9c0,2.1-0.5,2.5-2.8,2.5h-4.3c-2.2,0-2.4,0.2-2.4,2.9c0,1.9,0.2,2,2.7,2h4.6c2,0,2.4,0.2,2.4,1.2
	s-0.5,1.2-1.8,1.2h-9.7c-2.2,0-2.6-0.4-2.6-2.7v-4.3c0-2.2,0.4-2.7,2.5-2.7h7.3c1.6,0,1.8-0.3,1.8-2.6v-1.5c0-2.3-0.2-2.5-2.4-2.5
	H542c-1.9,0-2.2,0.3-2.3,1.7v0.6c0,1.3-0.3,1.7-1.2,1.7s-1.2-0.4-1.2-2v-1.7c0-2.3,0.4-2.7,2.9-2.7h8c2.6,0,3,0.3,3,2.7L551.2,988.9
	z"/>
<path class="st0" d="M665.8,987c0,2.2-0.5,2.6-2.9,2.6h-3.1c-1.9,0-2.1,0.2-2.1,2.4v4c0,2.1-0.5,2.7-2.2,2.7s-2.2-0.6-2.2-2.6v-13.6
	c0-2,0.5-2.5,2.9-2.5h6.6c2.6,0,3,0.4,3,2.8L665.8,987z M663.5,984.6c0-2-0.2-2.3-2.1-2.3h-3.6c-1.8,0-2,0.4-2,2.4s0.2,2.5,2,2.5
	h3.7C663.2,987.3,663.5,987,663.5,984.6L663.5,984.6z"/>
<path class="st0" d="M671.6,996.3c0,2-0.3,2.4-1.9,2.4c-1.8,0-2-0.3-2-2.4v-8.6c0-1.9,0.3-2.2,2.2-2.2h3.6c1.3,0,1.7,0.2,1.7,1
	s-0.4,1-1.7,1h-2.2c-1.3,0-1.5,0.2-1.5,1.5v0.1c0,0.9,0.1,1.1,0.9,1.3s0.9,0.4,0.9,1.6L671.6,996.3z"/>
<path class="st0" d="M687.2,996.5c0,1.8-0.3,2.2-2.2,2.2h-6c-1.8,0-2.2-0.3-2.2-2.2v-8.8c0-1.9,0.3-2.2,2.2-2.2h6
	c1.9,0,2.2,0.3,2.2,2.2V996.5z M683.6,987.5h-3.3c-1.3,0-1.5,0.2-1.5,1.5v0.8c0,0.9,0.1,1.1,0.9,1.3s0.9,0.5,0.9,1.6v2.5
	c0,1.3,0.1,1.5,1.5,1.5h1.3c1.3,0,1.5-0.2,1.5-1.5V989C685.1,987.7,684.9,987.5,683.6,987.5L683.6,987.5z"/>
<path class="st0" d="M693.3,1001.4c0,1.8-0.3,2.1-2.2,2.1h-2c-1.3,0-1.7-0.2-1.7-1s0.4-1,1.7-1h0.7c1.3,0,1.5-0.2,1.5-1.5
	c0-0.3,0-0.6-0.1-0.8c-0.1-0.2-0.3-0.3-0.5-0.4l-0.4-0.2c-0.8-0.3-0.9-0.7-0.9-2.5v-9c0-1.3,0.3-1.7,1-1.7s1,0.4,1,1.7v2
	c0,0.9,0.1,1.1,0.9,1.3s0.9,0.4,0.9,1.6L693.3,1001.4z M691.4,983.4c-1.5,0-2-0.4-2-1.6s0.5-1.8,2-1.8s1.9,0.4,1.9,1.7v0.1
	C693.3,983,692.8,983.3,691.4,983.4L691.4,983.4z"/>
<path class="st0" d="M705.5,990.6c0,1.8-0.3,2.2-2.2,2.2h-2.8c-1.3,0-1.5,0.2-1.5,1.5v0.9c0,1.3,0.2,1.5,1.5,1.5h1.7
	c0.8,0,1.1-0.2,1.2-0.9l0-0.5c0-0.5,0.3-1,0.8-1c0.1,0,0.1,0,0.2,0c0.7,0,1,0.5,1,1.5v0.8c0,1.8-0.3,2.2-2.2,2.2h-6
	c-1.8,0-2.2-0.3-2.2-2.2v-8.8c0-1.9,0.3-2.2,2.2-2.2h6c1.9,0,2.2,0.3,2.2,2.2L705.5,990.6z M703.4,989.2V989c0-1.3-0.2-1.5-1.5-1.5
	h-3.2c-1.3,0-1.5,0.1-1.5,1.5v0.2c0,1.4,0.1,1.5,1.5,1.5h3.3C703.2,990.7,703.4,990.5,703.4,989.2L703.4,989.2z"/>
<path class="st0" d="M717.9,996.5L717.9,996.5c0,1.8-0.3,2.2-2.2,2.2h-6c-1.8,0-2.2-0.3-2.2-2.2v-8.8c0-1.9,0.3-2.2,2.2-2.2h6
	c1.9,0,2.2,0.3,2.2,2.2v0.6c0,1.1-0.3,1.5-1.1,1.5s-0.9-0.3-1-1.2s-0.2-1.1-1.5-1.1h-3.2c-1.3,0-1.5,0.2-1.5,1.5v0.8
	c0,0.9,0.1,1.1,0.9,1.3s0.9,0.5,0.9,1.6v2.5c0,1.3,0.1,1.5,1.5,1.5h1.3c1.2,0,1.5-0.2,1.5-1.3v-0.1c0-1.3,0.2-1.7,1-1.7s1,0.4,1,1.7
	L717.9,996.5z"/>
<path class="st0" d="M720.9,982.4c0-1.3,0.2-1.7,1-1.7s1,0.4,1,1.7v2c0,0.9,0.1,1,0.8,1c0.9,0,1.3,0.3,1.3,1s-0.4,1-1.2,1
	s-0.9,0.1-0.9,1v0.6c0,0.9,0.1,1.1,0.9,1.3s0.9,0.4,0.9,1.6v4.3c0,2-0.3,2.4-1.9,2.4c-1.8,0-2-0.3-2-2.4v-7.6c0-0.2,0-0.3,0-0.5
	c0-0.5-0.1-0.7-0.6-0.7h-0.4c-0.7-0.1-1.1-0.4-1.1-1s0.4-1,1.2-1s0.9-0.2,0.9-1.5L720.9,982.4z"/>
<path class="st0" d="M734.2,998.7l0.7-5.5h-2.3v-1.7h2.6l0.5-4.1h-2.4v-1.7h2.7l0.7-5.4h1.6l-0.7,5.4h2.9l0.7-5.4h1.7l-0.7,5.4h2.3
	v1.7H742l-0.5,4.1h2.4v1.7h-2.7l-0.7,5.5h-1.7l0.7-5.5h-2.9l-0.7,5.5H734.2z M739.8,991.5l0.5-4.1h-2.9l-0.5,4.1H739.8z"/>
<path class="st0" d="M761.4,996.2c0,2.1-0.4,2.5-2.7,2.5h-9c-2.4,0-2.8-0.4-2.8-2.9v-13.1c0-2.3,0.4-2.8,2.8-2.8h9
	c2.3,0,2.7,0.4,2.7,2.8L761.4,996.2z M757,989.2c0-1.4,0.1-1.6,1.1-2c0.8-0.3,1-0.6,1-1.6v-1v-0.1c0-1.8-0.4-2.1-2.2-2.1h-5.1
	c-2.3,0-2.4,0.2-2.4,2.6v8.6c0,2.6,0.1,2.8,1.9,2.8h2.9c2.7,0,2.8-0.1,2.8-2.3v-3.8L757,989.2z"/>
<path class="st0" d="M777.6,996c0,2.3-0.4,2.7-3,2.7h-7.9c-2.6,0-3.1-0.4-3.1-2.6v-1.8c0-1.4,0.3-1.9,1.2-1.9s1.1,0.3,1.2,1.8
	c0.1,2,0.3,2.2,2.3,2.2h2.2c2.5,0,2.7-0.2,2.7-2.4v-1.4v-0.9c0-1.7-0.3-1.9-2.4-1.9h-3.1c-1.5,0-2-0.3-2-1.2s0.4-1.2,1.8-1.2h3.2
	c2.3,0,2.4-0.1,2.4-2.4s-0.2-2.5-2.3-2.5H768c-1.6,0-1.9,0.3-2,1.7v0.7c0,1.3-0.3,1.6-1.2,1.6s-1.2-0.5-1.2-1.5v-2
	c0-2.3,0.4-2.8,2.6-2.8h6.7c2.4,0,2.7,0.4,2.7,3v1.9c0,1.8,0.1,1.9,1.1,2.4c0.8,0.3,0.9,0.5,0.9,2.3L777.6,996z"/>
<path class="st0" d="M465.1,1414.9c0,3-0.7,3.5-4,3.5h-13.3c-2.6,0-3.3-0.8-3.3-3.6v-19.7c0-2.6,0.8-3.4,3.6-3.4h13.5
	c2.9,0,3.5,0.7,3.5,4V1414.9z M461.4,1395.9c-0.3-0.6-1.1-0.8-3-0.8H451c-2.8,0-3.1,0.4-3.1,3.5c0,2.6,0.1,2.9,1.1,3.4l0.7,0.3
	c1,0.4,1.1,0.6,1.1,3.3v6c0,3.1,0.4,3.4,3.6,3.4h4.6c2.4,0,2.8-0.4,2.8-3.3v-12.5C461.8,1397.1,461.7,1396.3,461.4,1395.9
	L461.4,1395.9z"/>
<path class="st0" d="M483.2,1406.9c0,2.6-0.4,3.1-3.1,3.1h-4c-1.8,0-2.1,0.3-2.1,2.1v1.3c0,1.9,0.2,2.1,2.2,2.1h2.4
	c1.2,0,1.6-0.3,1.7-1.3l0.1-0.7c0-0.7,0.5-1.3,1.2-1.4c0.1,0,0.1,0,0.2,0c1,0,1.5,0.6,1.5,2.1v1.1c0,2.6-0.4,3.1-3.1,3.1h-8.5
	c-2.6,0-3.1-0.4-3.1-3.1v-12.6c0-2.8,0.4-3.2,3.1-3.2h8.5c2.7,0,3.1,0.4,3.1,3.2L483.2,1406.9z M480.3,1404.9v-0.3
	c0-1.8-0.3-2.1-2.1-2.1h-4.6c-1.9,0-2.1,0.2-2.1,2.1v0.3c0,2,0.2,2.2,2.1,2.2h4.6C480,1407,480.3,1406.8,480.3,1404.9z"/>
<path class="st0" d="M500.7,1415.3c0,2.6-0.5,3.1-3.1,3.1h-8.5c-2.6,0-3.1-0.4-3.1-3.1v-1.3c0-1.8,0.4-2.4,1.4-2.4s1.4,0.5,1.4,2
	c0.1,1.7,0.4,2,2,2h2.1c1.8,0,2.1-0.3,2.1-2.1v-1.3c0-1.8-0.2-2.1-2.1-2.1h-3.9c-2.6,0-3.1-0.5-3.1-3.1v-4.2c0-2.8,0.4-3.2,3.1-3.2
	h8.6c2.7,0,3.1,0.4,3.1,3.2v0.8c0,1.4-0.4,1.9-1.5,1.9s-1.4-0.4-1.5-1.6s-0.4-1.4-2-1.4H491c-1.9,0-2.1,0.3-2.1,2.1v0.3
	c0,1.8,0.3,2.1,2.1,2.1h6.6c2.7,0,3.1,0.4,3.1,3.2L500.7,1415.3z"/>
<path class="st0" d="M518.3,1415.3L518.3,1415.3c0,2.6-0.5,3.1-3.1,3.1h-8.5c-2.6,0-3.1-0.4-3.1-3.1v-12.6c0-2.8,0.4-3.2,3.1-3.2
	h8.5c2.7,0,3.1,0.4,3.1,3.2v0.9c0,1.6-0.4,2.2-1.5,2.2c-0.9,0-1.3-0.5-1.4-1.8c-0.2-1.4-0.3-1.6-2.1-1.6h-4.6
	c-1.8,0-2.1,0.3-2.1,2.1v1.2c0,1.3,0.2,1.5,1.3,1.8s1.3,0.6,1.3,2.2v3.5c0,1.9,0.2,2.1,2.2,2.1h1.9c1.8,0,2.2-0.3,2.2-1.8v-0.2
	c0-1.9,0.3-2.4,1.5-2.4s1.4,0.5,1.4,2.4L518.3,1415.3z"/>
<path class="st0" d="M535.9,1406.9c0,2.6-0.4,3.1-3.1,3.1h-4c-1.8,0-2.1,0.3-2.1,2.1v1.3c0,1.9,0.2,2.1,2.2,2.1h2.4
	c1.2,0,1.6-0.3,1.7-1.3l0.1-0.7c0-0.7,0.5-1.3,1.3-1.4c0,0,0.1,0,0.1,0c1,0,1.5,0.6,1.5,2.1v1.1c0,2.6-0.4,3.1-3.1,3.1h-8.5
	c-2.6,0-3.1-0.4-3.1-3.1v-12.6c0-2.8,0.4-3.2,3.1-3.2h8.5c2.7,0,3.1,0.4,3.1,3.2L535.9,1406.9z M533,1404.9v-0.3
	c0-1.8-0.3-2.1-2.1-2.1h-4.6c-1.9,0-2.1,0.2-2.1,2.1v0.3c0,2,0.2,2.2,2.1,2.2h4.6C532.7,1407,533,1406.8,533,1404.9z"/>
<path class="st0" d="M550.5,1399.6c2.7,0,3.1,0.4,3.1,3.2v13.2c0,1.9-0.4,2.5-1.5,2.5s-1.4-0.6-1.4-2.4v-11.4c0-1.8-0.3-2.1-2.1-2.1
	H544c-1.8,0-2.1,0.3-2.1,2.1v1.1c0,1.3,0.2,1.6,1.3,1.8s1.3,0.6,1.3,2.2v5.2c0,2.8-0.5,3.4-2.7,3.4c-2.5,0-2.9-0.4-2.9-3.4v-12.3
	c0-2.8,0.4-3.2,3.1-3.2L550.5,1399.6z"/>
<path class="st0" d="M558.1,1395.3c0-1.9,0.4-2.5,1.5-2.5s1.5,0.6,1.5,2.4v2.8c0,1.3,0.1,1.4,1.1,1.5c1.3,0,1.8,0.5,1.8,1.5
	s-0.6,1.4-1.7,1.5s-1.3,0.2-1.3,1.5v0.8c0,1.3,0.2,1.6,1.3,1.8s1.3,0.6,1.3,2.2v6.1c0,2.8-0.5,3.4-2.7,3.4c-2.5,0-2.9-0.4-2.9-3.4
	v-10.8c0-0.2,0-0.5,0-0.7c0-0.7-0.2-0.9-0.9-1h-0.5c-1-0.1-1.5-0.6-1.5-1.4c0-1,0.6-1.5,1.7-1.5s1.2-0.2,1.2-2.1L558.1,1395.3z"/>
<path class="st0" d="M572.3,1415c0,2.8-0.5,3.4-2.7,3.4c-2.5,0-2.9-0.4-2.9-3.4v-12.3c0-2.8,0.4-3.2,3.1-3.2h5.1
	c1.9,0,2.5,0.4,2.5,1.4s-0.6,1.5-2.5,1.5h-3.1c-1.8,0-2.1,0.3-2.1,2.1v0.2c0,1.3,0.2,1.6,1.3,1.8s1.3,0.6,1.3,2.2L572.3,1415z"/>
<path class="st0" d="M594.2,1415.3c0,2.6-0.5,3.1-3.1,3.1h-8.5c-2.6,0-3.1-0.4-3.1-3.1v-5.1c0-2.8,0.3-3.2,3.1-3.2h6.5
	c1.8,0,2.1-0.3,2.1-2.1v-0.4c0-1.8-0.2-2.1-2.1-2.1h-4.8c-1.4,0-1.8,0.2-1.9,1.1l-0.1,0.6c0,0.7-0.6,1.3-1.3,1.3c0,0-0.1,0-0.1,0
	c-1.1,0-1.4-0.5-1.4-2.2v-0.5c0-2.8,0.3-3.2,3.1-3.2h8.5c2.7,0,3.1,0.4,3.1,3.2L594.2,1415.3z M589.2,1410h-2
	c-1.8,0-2.1,0.3-2.1,2.1v1.3c0,1.9,0.2,2.1,2.2,2.1h1.9c1.8,0,2.1-0.3,2.1-2.1v-1.2C591.2,1410.2,591,1410,589.2,1410L589.2,1410z"
	/>
<path class="st0" d="M603,1415c0,2.8-0.5,3.4-2.7,3.4c-2.5,0-2.9-0.4-2.9-3.4v-20.9c0-1.8,0.4-2.4,1.5-2.4s1.4,0.6,1.4,2.4v3.5
	c0,1.3,0.2,1.6,1.3,1.8s1.3,0.6,1.3,2.2V1415z"/>
<path class="st0" d="M609,1396.6c-2.2,0-2.8-0.5-2.8-2.3s0.7-2.6,2.9-2.6s2.7,0.6,2.7,2.4v0.1C611.8,1396,611.1,1396.6,609,1396.6z
	 M611.8,1415c0,2.8-0.4,3.4-2.6,3.4c-2.5,0-2.9-0.4-2.9-3.4v-13c0-1.8,0.3-2.4,1.4-2.4s1.5,0.6,1.5,2.4v2.9c0,1.3,0.2,1.6,1.3,1.8
	s1.3,0.6,1.3,2.2V1415z"/>
<path class="st0" d="M628.9,1415.3c0,2.6-0.4,3.1-3.1,3.1h-8.6c-2.6,0-3.1-0.4-3.1-3.1v-4.9c0-2.1,0.4-2.6,3-2.8l6.4-0.7
	c2.1-0.2,2.4-0.4,2.4-2.5c0-1.8-0.3-2-2.5-2h-4.4c-1.6,0-1.8,0.2-2,1.6c-0.1,1-0.6,1.4-1.4,1.4c-1.2,0-1.6-0.6-1.6-2.2v-0.5
	c0-2.8,0.4-3.2,3.1-3.2h8.6c2.7,0,3.1,0.4,3.1,3.2v3.9c0,2.5-0.4,2.9-2.9,3.1l-4,0.4c-1.9,0.2-2.3,0.5-2.3,2.2v1
	c0,1.9,0.2,2.1,2.2,2.1h2.1c1.6,0,1.9-0.2,2-1.6v-0.4c0.1-1.3,0.5-1.8,1.5-1.8s1.4,0.6,1.4,2.2V1415.3z"/>
<path class="st0" d="M646.5,1406.9c0,2.6-0.4,3.1-3.1,3.1h-4c-1.8,0-2.1,0.3-2.1,2.1v1.3c0,1.9,0.2,2.1,2.2,2.1h2.4
	c1.2,0,1.6-0.3,1.7-1.3l0.1-0.7c0-0.7,0.5-1.3,1.3-1.4c0,0,0.1,0,0.1,0c1,0,1.5,0.6,1.5,2.1v1.1c0,2.6-0.4,3.1-3.1,3.1h-8.5
	c-2.6,0-3.1-0.4-3.1-3.1v-12.6c0-2.8,0.4-3.2,3.1-3.2h8.5c2.7,0,3.1,0.4,3.1,3.2L646.5,1406.9z M643.6,1404.9v-0.3
	c0-1.8-0.3-2.1-2.1-2.1h-4.6c-1.9,0-2.1,0.2-2.1,2.1v0.3c0,2,0.2,2.2,2.1,2.2h4.6C643.3,1407,643.6,1406.8,643.6,1404.9
	L643.6,1404.9z"/>
<path class="st0" d="M664.2,1415.3c0,2.5-0.6,3.1-3,3.1h-8.6c-2.6,0-3.1-0.4-3.1-3.1v-12.6c0-2.7,0.4-3.1,3.1-3.1h6.8
	c1.5,0,1.8-0.4,1.8-1.8v-3.6c0-1.9,0.4-2.4,1.4-2.4s1.5,0.6,1.5,2.4L664.2,1415.3z M659.2,1402.5h-4.6c-1.8,0-2.1,0.3-2.1,2.1v1.1
	c0,1.3,0.2,1.6,1.3,1.8s1.3,0.6,1.3,2.2v3.6c0,1.9,0.2,2.1,2.2,2.1h1.9c1.8,0,2.2-0.3,2.2-2.1v-8.8
	C661.3,1402.8,661,1402.5,659.2,1402.5z"/>
<path class="st0" d="M453.2,1458.3c0,2.5-0.6,3.1-3,3.1h-8.6c-2.6,0-3.1-0.4-3.1-3.1v-12.6c0-2.7,0.4-3.1,3.1-3.1h6.8
	c1.5,0,1.8-0.4,1.8-1.8v-3.6c0-1.9,0.4-2.4,1.4-2.4s1.5,0.6,1.5,2.4V1458.3z M448.2,1445.5h-4.6c-1.8,0-2.1,0.3-2.1,2.1v1.1
	c0,1.3,0.2,1.6,1.3,1.8s1.3,0.6,1.3,2.2v3.6c0,1.9,0.2,2.1,2.2,2.1h1.9c1.8,0,2.2-0.3,2.2-2.1v-8.8
	C450.4,1445.8,450.1,1445.5,448.2,1445.5z"/>
<path class="st0" d="M471,1449.9c0,2.6-0.4,3.1-3.1,3.1h-4c-1.8,0-2.1,0.3-2.1,2.1v1.3c0,1.9,0.2,2.1,2.2,2.1h2.4
	c1.2,0,1.6-0.3,1.7-1.3l0.1-0.7c0-0.7,0.5-1.3,1.3-1.4c0,0,0.1,0,0.1,0c1,0,1.5,0.6,1.5,2.1v1.1c0,2.6-0.4,3.1-3.1,3.1h-8.5
	c-2.6,0-3.1-0.4-3.1-3.1v-12.6c0-2.8,0.4-3.2,3.1-3.2h8.5c2.7,0,3.1,0.4,3.1,3.2L471,1449.9z M468.1,1447.9v-0.3
	c0-1.8-0.3-2.1-2.1-2.1h-4.6c-1.9,0-2.1,0.2-2.1,2.1v0.3c0,2,0.2,2.2,2.1,2.2h4.6C467.8,1450,468.1,1449.8,468.1,1447.9z"/>
<path class="st0" d="M488.6,1458.3L488.6,1458.3c0,2.6-0.5,3.1-3.1,3.1h-8.5c-2.6,0-3.1-0.4-3.1-3.1v-12.6c0-2.8,0.4-3.2,3.1-3.2
	h8.5c2.7,0,3.1,0.4,3.1,3.2v0.9c0,1.6-0.4,2.2-1.5,2.2c-0.9,0-1.3-0.5-1.4-1.8c-0.2-1.4-0.3-1.6-2.1-1.6H479c-1.8,0-2.1,0.3-2.1,2.1
	v1.2c0,1.3,0.2,1.5,1.3,1.8s1.3,0.6,1.3,2.2v3.5c0,1.9,0.2,2.1,2.2,2.1h1.9c1.8,0,2.1-0.3,2.1-1.8v-0.2c0-1.9,0.4-2.4,1.5-2.4
	s1.4,0.5,1.4,2.4L488.6,1458.3z"/>
<path class="st0" d="M494.4,1439.6c-2.2,0-2.8-0.5-2.8-2.3s0.7-2.6,2.9-2.6s2.7,0.6,2.7,2.4v0.1
	C497.2,1439,496.5,1439.6,494.4,1439.6z M497.2,1458c0,2.8-0.4,3.4-2.6,3.4c-2.5,0-2.9-0.4-2.9-3.4v-13c0-1.8,0.4-2.4,1.4-2.4
	s1.5,0.6,1.5,2.4v2.9c0,1.3,0.2,1.6,1.3,1.8s1.3,0.6,1.3,2.2V1458z"/>
<path class="st0" d="M514.4,1458.3c0,2.6-0.5,3.1-3.1,3.1h-8.5c-2.6,0-3.1-0.4-3.1-3.1v-1.3c0-1.8,0.4-2.4,1.4-2.4s1.4,0.5,1.4,2
	c0.1,1.7,0.4,2,2,2h2.1c1.8,0,2.1-0.3,2.1-2.1v-1.3c0-1.8-0.2-2.1-2.1-2.1h-3.9c-2.6,0-3.1-0.5-3.1-3.1v-4.2c0-2.8,0.4-3.2,3.1-3.2
	h8.6c2.7,0,3.1,0.4,3.1,3.2v0.8c0,1.4-0.4,1.9-1.5,1.9s-1.4-0.4-1.5-1.6s-0.4-1.4-2-1.4h-4.7c-1.9,0-2.1,0.3-2.1,2.1v0.3
	c0,1.8,0.3,2.1,2.1,2.1h6.6c2.7,0,3.1,0.4,3.1,3.2V1458.3z"/>
<path class="st0" d="M520.1,1439.6c-2.2,0-2.8-0.5-2.8-2.3s0.7-2.6,2.9-2.6s2.7,0.6,2.7,2.4v0.1
	C522.9,1439,522.2,1439.6,520.1,1439.6z M522.8,1458c0,2.8-0.4,3.4-2.6,3.4c-2.5,0-2.9-0.4-2.9-3.4v-13c0-1.8,0.4-2.4,1.4-2.4
	s1.5,0.6,1.5,2.4v2.9c0,1.3,0.2,1.6,1.3,1.8s1.3,0.6,1.3,2.2V1458z"/>
<path class="st0" d="M540.2,1458.3c0,2.6-0.4,3.1-3.1,3.1h-8.5c-2.6,0-3.1-0.4-3.1-3.1v-12.6c0-2.8,0.4-3.2,3.1-3.2h8.5
	c2.7,0,3.1,0.4,3.1,3.2V1458.3z M535.2,1445.5h-4.6c-1.8,0-2.1,0.3-2.1,2.1v1.1c0,1.3,0.2,1.6,1.3,1.8s1.3,0.6,1.3,2.2v3.6
	c0,1.9,0.2,2.1,2.2,2.1h1.9c1.8,0,2.2-0.3,2.2-2.1v-8.8C537.4,1445.8,537.1,1445.5,535.2,1445.5z"/>
<path class="st0" d="M555,1442.6c2.7,0,3.1,0.4,3.1,3.2v13.2c0,1.9-0.4,2.5-1.5,2.5s-1.4-0.6-1.4-2.4v-11.4c0-1.8-0.3-2.1-2.1-2.1
	h-4.6c-1.8,0-2.1,0.3-2.1,2.1v1.1c0,1.3,0.2,1.6,1.3,1.8s1.3,0.6,1.3,2.2v5.2c0,2.8-0.5,3.4-2.7,3.4c-2.6,0-2.9-0.4-2.9-3.4v-12.3
	c0-2.8,0.4-3.2,3.1-3.2L555,1442.6z"/>
<path class="st0" d="M587.5,1442.6c2.7,0,3.1,0.4,3.1,3.2v13.2c0,1.9-0.4,2.5-1.5,2.5s-1.4-0.6-1.4-2.4v-11.4c0-1.8-0.3-2.1-2.1-2.1
	h-1.9c-1.8,0-2.1,0.3-2.1,2.1v1.1c0,1.3,0.2,1.6,1.3,1.8s1.3,0.6,1.3,2.2v5.2c0,2.8-0.4,3.4-2.6,3.4c-2.5,0-2.9-0.4-2.9-3.4v-10.4
	c0-1.8-0.2-2.1-2.1-2.1h-1.9c-1.8,0-2.1,0.3-2.1,2.1v1.1c0,1.3,0.2,1.6,1.3,1.8s1.3,0.6,1.3,2.2v5.2c0,2.8-0.5,3.4-2.7,3.4
	c-2.6,0-2.9-0.4-2.9-3.4v-12.3c0-2.8,0.4-3.2,3.1-3.2L587.5,1442.6z"/>
<path class="st0" d="M608.2,1458.3c0,2.6-0.5,3.1-3.1,3.1h-8.5c-2.6,0-3.1-0.4-3.1-3.1v-5.1c0-2.8,0.4-3.2,3.1-3.2h6.5
	c1.8,0,2.1-0.3,2.1-2.1v-0.4c0-1.8-0.2-2.1-2.1-2.1h-4.8c-1.4,0-1.8,0.2-1.9,1.1l-0.1,0.6c0,0.7-0.6,1.3-1.3,1.3c0,0-0.1,0-0.1,0
	c-1.1,0-1.4-0.5-1.4-2.2v-0.5c0-2.8,0.4-3.2,3.1-3.2h8.5c2.7,0,3.1,0.4,3.1,3.2L608.2,1458.3z M603.2,1453h-2
	c-1.8,0-2.1,0.3-2.1,2.1v1.3c0,1.9,0.2,2.1,2.2,2.1h1.9c1.8,0,2.1-0.3,2.1-2.1v-1.2C605.3,1453.2,605.1,1453,603.2,1453L603.2,1453z
	"/>
<path class="st0" d="M623.1,1453.9c0-1.8-0.3-2.1-2.1-2.1h-2c-1.8,0-2.1,0.3-2.1,2.1v4.1c0,2.8-0.5,3.4-2.7,3.4
	c-2.5,0-2.9-0.4-2.9-3.4v-20.9c0-1.8,0.4-2.4,1.4-2.4s1.5,0.6,1.5,2.4v9.6c0,1.9,0.2,2.1,2.2,2.1h1.9c1.9,0,2.2-0.3,2.2-2.1v-1.8
	c0-1.9,0.4-2.5,1.5-2.5s1.4,0.6,1.4,2.5v2.2c0,1.3,0.2,1.6,1.3,1.8s1.3,0.6,1.3,2.2v7.7c0,1.9-0.4,2.5-1.5,2.5s-1.4-0.6-1.4-2.4
	L623.1,1453.9z"/>
<path class="st0" d="M631.8,1439.6c-2.2,0-2.8-0.5-2.8-2.3s0.7-2.6,2.9-2.6s2.7,0.6,2.7,2.4v0.1
	C634.6,1439,633.9,1439.6,631.8,1439.6z M634.5,1458c0,2.8-0.4,3.4-2.6,3.4c-2.5,0-2.9-0.4-2.9-3.4v-13c0-1.8,0.4-2.4,1.4-2.4
	s1.5,0.6,1.5,2.4v2.9c0,1.3,0.2,1.6,1.3,1.8s1.3,0.6,1.3,2.2V1458z"/>
<path class="st0" d="M648.8,1442.6c2.7,0,3.1,0.4,3.1,3.2v13.2c0,1.9-0.4,2.5-1.5,2.5s-1.4-0.6-1.4-2.4v-11.4c0-1.8-0.3-2.1-2.1-2.1
	h-4.6c-1.8,0-2.1,0.3-2.1,2.1v1.1c0,1.3,0.2,1.6,1.3,1.8s1.3,0.6,1.3,2.2v5.2c0,2.8-0.5,3.4-2.7,3.4c-2.6,0-2.9-0.4-2.9-3.4v-12.3
	c0-2.8,0.4-3.2,3.1-3.2L648.8,1442.6z"/>
<path class="st0" d="M669.8,1465.3c0,2.6-0.5,3-3.2,3h-9c-1.8,0-2.4-0.3-2.4-1.4s0.6-1.5,2.5-1.5h7.1c1.8,0,2.2-0.3,2.2-1.9
	c0-1.8-0.3-2.1-2.1-2.1h-6.6c-2.6,0-3.1-0.4-3.1-3.1v-12.6c0-2.8,0.4-3.2,3.1-3.2h8.5c2.7,0,3.1,0.4,3.1,3.2L669.8,1465.3z
	 M664.8,1445.5h-4.6c-1.8,0-2.1,0.3-2.1,2.1v1.1c0,1.3,0.2,1.6,1.3,1.8s1.3,0.6,1.3,2.2v3.6c0,1.9,0.2,2.1,2.2,2.1h1.9
	c1.8,0,2.2-0.3,2.2-2.1v-8.8C666.9,1445.8,666.6,1445.5,664.8,1445.5L664.8,1445.5z"/>
<path class="st0" d="M243.1,398.5c0,1.4-0.4,2-1.4,2s-1.4-0.6-1.4-2v-6.1c0-2.6-0.3-3-2.6-3h-4.3c-2,0-2.4,0.4-2.4,2.5v5.3
	c0,2.4-0.6,3.1-2.6,3.1s-2.7-0.7-2.7-2.7v-16.3c0-2.9,0.5-3.4,3.3-3.4h8.2c2.8,0,3.4,0.5,3.4,3.1v3.3c0,1.7,0.1,2,1.1,2.4
	c1.2,0.5,1.4,0.7,1.4,2.6L243.1,398.5z M237.8,383.6c0-2.6-0.3-3-2.3-3h-4.9c-1.8,0-2.1,0.5-2.1,3.1c0,2.3,0.4,2.8,2.1,2.8h4.9
	C237.5,386.6,237.8,386.2,237.8,383.6z"/>
<path class="st0" d="M257.9,390.5c0,2.2-0.4,2.6-2.6,2.6H252c-1.5,0-1.8,0.3-1.8,1.8v1.1c0,1.6,0.2,1.8,1.8,1.8h2
	c1,0,1.4-0.3,1.4-1.1l0.1-0.6c0-0.6,0.4-1.1,1-1.2c0,0,0.1,0,0.1,0c0.9,0,1.2,0.5,1.2,1.8v1c0,2.2-0.4,2.6-2.6,2.6h-7.2
	c-2.2,0-2.6-0.4-2.6-2.6v-10.6c0-2.3,0.3-2.7,2.6-2.7h7.2c2.3,0,2.6,0.3,2.6,2.7L257.9,390.5z M255.5,388.8v-0.2
	c0-1.5-0.2-1.8-1.8-1.8h-3.9c-1.6,0-1.8,0.2-1.8,1.8v0.2c0,1.7,0.2,1.8,1.8,1.8h3.9C255.2,390.7,255.5,390.4,255.5,388.8
	L255.5,388.8z"/>
<path class="st0" d="M272.8,403.5c0,2.2-0.4,2.6-2.7,2.6h-7.6c-1.5,0-2-0.3-2-1.2s0.5-1.2,2.1-1.2h6c1.5,0,1.8-0.3,1.8-1.6
	c0-1.5-0.2-1.8-1.8-1.8H263c-2.2,0-2.6-0.4-2.6-2.6v-10.6c0-2.3,0.3-2.7,2.6-2.7h7.2c2.3,0,2.6,0.3,2.6,2.7L272.8,403.5z
	 M268.6,386.8h-3.9c-1.5,0-1.8,0.3-1.8,1.8v0.9c0,1.1,0.2,1.3,1.1,1.5s1.1,0.5,1.1,1.9v3c0,1.6,0.2,1.8,1.8,1.8h1.6
	c1.5,0,1.8-0.2,1.8-1.8v-7.4C270.4,387.1,270.1,386.8,268.6,386.8z"/>
<path class="st0" d="M277.8,381.9c-1.8,0-2.4-0.4-2.4-2s0.6-2.2,2.4-2.2s2.3,0.5,2.3,2v0.1C280.1,381.4,279.5,381.9,277.8,381.9z
	 M280.1,397.4c0,2.4-0.4,2.9-2.2,2.9c-2.1,0-2.4-0.4-2.4-2.9v-11c0-1.5,0.3-2.1,1.2-2.1s1.2,0.5,1.2,2.1v2.4c0,1.1,0.1,1.3,1.1,1.5
	s1.1,0.5,1.1,1.9L280.1,397.4z"/>
<path class="st0" d="M294.6,397.7c0,2.2-0.4,2.6-2.6,2.6h-7.1c-2.2,0-2.6-0.4-2.6-2.6v-1.1c0-1.5,0.3-2,1.2-2s1.1,0.4,1.2,1.6
	c0.1,1.4,0.3,1.7,1.7,1.7h1.8c1.5,0,1.8-0.2,1.8-1.8V395c0-1.6-0.2-1.8-1.8-1.8h-3.3c-2.2,0-2.6-0.4-2.6-2.6v-3.5
	c0-2.3,0.3-2.7,2.6-2.7h7.3c2.3,0,2.6,0.3,2.6,2.7v0.7c0,1.1-0.4,1.6-1.2,1.6s-1.1-0.4-1.2-1.3s-0.3-1.2-1.7-1.2h-4
	c-1.6,0-1.8,0.2-1.8,1.8v0.3c0,1.5,0.2,1.8,1.8,1.8h5.6c2.3,0,2.6,0.3,2.6,2.7L294.6,397.7z"/>
<path class="st0" d="M298.2,380.8c0-1.6,0.3-2.1,1.2-2.1s1.2,0.5,1.2,2.1v2.4c0,1.1,0.1,1.2,0.9,1.2c1.1,0,1.5,0.4,1.5,1.2
	s-0.5,1.2-1.4,1.2s-1.1,0.2-1.1,1.2v0.7c0,1.1,0.2,1.3,1.1,1.5s1.1,0.5,1.1,1.9v5.2c0,2.4-0.4,2.9-2.3,2.9c-2.1,0-2.4-0.4-2.4-2.9
	v-9.1c0-0.2,0-0.4,0-0.6c0-0.6-0.2-0.8-0.7-0.8H297c-0.8-0.1-1.3-0.5-1.3-1.2s0.5-1.2,1.5-1.2s1-0.2,1-1.8L298.2,380.8z"/>
<path class="st0" d="M317.8,390.5c0,2.2-0.4,2.6-2.6,2.6h-3.3c-1.5,0-1.8,0.3-1.8,1.8v1.1c0,1.6,0.2,1.8,1.8,1.8h2
	c1,0,1.4-0.3,1.4-1.1l0.1-0.6c0-0.6,0.4-1.1,1-1.2c0,0,0.1,0,0.1,0c0.9,0,1.2,0.5,1.2,1.8v1c0,2.2-0.4,2.6-2.6,2.6H308
	c-2.2,0-2.6-0.4-2.6-2.6v-10.6c0-2.3,0.3-2.7,2.6-2.7h7.2c2.3,0,2.6,0.3,2.6,2.7L317.8,390.5z M315.4,388.8v-0.2
	c0-1.5-0.2-1.8-1.8-1.8h-3.9c-1.6,0-1.8,0.2-1.8,1.8v0.2c0,1.7,0.2,1.8,1.8,1.8h3.9C315.1,390.7,315.4,390.4,315.4,388.8z"/>
<path class="st0" d="M325,397.4c0,2.4-0.4,2.9-2.3,2.9c-2.1,0-2.4-0.4-2.4-2.9v-10.4c0-2.3,0.3-2.7,2.6-2.7h4.3
	c1.6,0,2.1,0.3,2.1,1.2s-0.5,1.2-2.1,1.2h-2.6c-1.5,0-1.8,0.3-1.8,1.8v0.2c0,1.1,0.1,1.3,1.1,1.5s1.1,0.5,1.1,1.9L325,397.4z"/>
<path class="st0" d="M238,417c0-1.6,0.3-2.1,1.2-2.1s1.2,0.5,1.2,2.1v2.4c0,1.1,0.1,1.2,0.9,1.2c1.1,0,1.6,0.4,1.6,1.2
	s-0.5,1.2-1.4,1.2s-1.1,0.2-1.1,1.2v0.7c0,1.1,0.2,1.3,1.1,1.5s1.1,0.5,1.1,1.9v5.2c0,2.4-0.4,2.9-2.2,2.9c-2.1,0-2.4-0.4-2.4-2.9
	v-9.1c0-0.2,0-0.4,0-0.6c0-0.6-0.2-0.8-0.7-0.8h-0.4c-0.8-0.1-1.3-0.5-1.3-1.2s0.5-1.2,1.4-1.2s1.1-0.2,1.1-1.8L238,417z"/>
<path class="st0" d="M257.6,433.9c0,2.2-0.4,2.6-2.6,2.6h-7.2c-2.2,0-2.6-0.4-2.6-2.6v-10.6c0-2.3,0.3-2.7,2.6-2.7h7.1
	c2.3,0,2.6,0.3,2.6,2.7L257.6,433.9z M253.4,423.1h-3.9c-1.5,0-1.8,0.3-1.8,1.8v0.9c0,1.1,0.2,1.3,1.1,1.5s1.1,0.5,1.1,1.9v3
	c0,1.6,0.2,1.8,1.8,1.8h1.6c1.6,0,1.8-0.2,1.8-1.8v-7.4C255.2,423.3,255,423.1,253.4,423.1L253.4,423.1z"/>
<path class="st0" d="M279.3,428.6c0,1.4-0.2,1.6-1.1,1.9s-1.1,0.5-1.1,1.5v1.9c0,2.2-0.4,2.6-2.6,2.6h-2.8c-2.2,0-2.6-0.4-2.6-2.6
	V432c0-1.1-0.1-1.3-1.1-1.6s-1.1-0.5-1.1-1.9v-5.1c0-2.4,0.4-2.9,2.2-2.9c2.1,0,2.5,0.4,2.5,2.9v8.8c0,1.5,0.3,1.8,1.5,1.8
	s1.6-0.3,1.6-1.8v-2.2c0-1.1,0.2-1.3,1.1-1.5s1.1-0.6,1.1-1.9v-4c0-1.5,0.3-2,1.2-2s1.2,0.5,1.2,2V428.6z"/>
<path class="st0" d="M293.9,433.9c0,2.2-0.4,2.6-2.6,2.6h-7.2c-2.2,0-2.6-0.4-2.6-2.6v-10.6c0-2.3,0.3-2.7,2.6-2.7h7.2
	c2.3,0,2.6,0.3,2.6,2.7V433.9z M289.7,423.1h-3.9c-1.5,0-1.8,0.3-1.8,1.8v0.9c0,1.1,0.2,1.3,1.1,1.5s1.1,0.5,1.1,1.9v3
	c0,1.6,0.2,1.8,1.8,1.8h1.6c1.5,0,1.8-0.2,1.8-1.8v-7.4C291.5,423.3,291.2,423.1,289.7,423.1z"/>
<path class="st0" d="M297.8,417c0-1.6,0.3-2.1,1.2-2.1s1.2,0.5,1.2,2.1v2.4c0,1.1,0.1,1.2,0.9,1.2c1.1,0,1.5,0.4,1.5,1.2
	s-0.5,1.2-1.4,1.2s-1.1,0.2-1.1,1.2v0.7c0,1.1,0.2,1.3,1.1,1.5s1.1,0.5,1.1,1.9v5.2c0,2.4-0.4,2.9-2.3,2.9c-2.1,0-2.4-0.4-2.4-2.9
	v-9.1c0-0.2,0-0.4,0-0.6c0-0.6-0.2-0.8-0.7-0.8h-0.4c-0.8-0.1-1.3-0.5-1.3-1.2s0.5-1.2,1.5-1.2s1-0.2,1-1.8L297.8,417z"/>
<path class="st0" d="M317.4,426.8c0,2.2-0.4,2.6-2.6,2.6h-3.3c-1.5,0-1.8,0.3-1.8,1.8v1.1c0,1.6,0.2,1.8,1.8,1.8h2
	c1,0,1.3-0.3,1.4-1.1l0.1-0.6c0-0.6,0.5-1.1,1.1-1.2c0,0,0.1,0,0.1,0c0.9,0,1.2,0.5,1.2,1.8v1c0,2.2-0.4,2.6-2.6,2.6h-7.2
	c-2.2,0-2.6-0.4-2.6-2.6v-10.6c0-2.3,0.3-2.7,2.6-2.7h7.2c2.3,0,2.6,0.3,2.6,2.7V426.8z M314.9,425.1v-0.2c0-1.5-0.2-1.8-1.8-1.8
	h-3.9c-1.6,0-1.8,0.2-1.8,1.8v0.2c0,1.7,0.2,1.8,1.8,1.8h3.9C314.7,426.9,314.9,426.7,314.9,425.1z"/>
<path class="st0" d="M836.5,1418.7c0,2.5-0.8,3.2-4,3.2h-11.8c-3.4,0-4-0.6-4-3.8v-19.2c0-2.9,0.7-3.6,3.6-3.6h12.4
	c3.3,0,3.8,0.6,3.8,4.1v0.2v1.6c0,1.6-0.5,2.3-1.6,2.3s-1.6-0.6-1.7-2.2c-0.1-2.4-0.5-2.6-3.7-2.6h-6.2c-2.9,0-3.3,0.4-3.3,3.8
	c0,2.2,0.2,2.6,1.2,3.1c1.2,0.6,1.4,0.8,1.6,1.3c0.2,0.8,0.2,1.6,0.2,2.4v5c0,4.2,0.2,4.5,3.8,4.5h2.8c3.4,0,3.6-0.2,3.6-4.2
	c0-1.6,0.5-2.2,1.7-2.2s1.7,0.6,1.7,2.4L836.5,1418.7z"/>
<path class="st0" d="M854.1,1418.8c0,2.6-0.4,3.1-3.1,3.1h-8.5c-2.6,0-3.1-0.4-3.1-3.1v-12.6c0-2.8,0.4-3.2,3.1-3.2h8.5
	c2.7,0,3.1,0.4,3.1,3.2L854.1,1418.8z M849.1,1405.9h-4.6c-1.8,0-2.1,0.3-2.1,2.1v1.1c0,1.3,0.2,1.6,1.3,1.8s1.3,0.6,1.3,2.2v3.6
	c0,1.9,0.2,2.1,2.2,2.1h1.9c1.8,0,2.2-0.3,2.2-2.1v-8.8C851.2,1406.2,850.9,1405.9,849.1,1405.9z"/>
<path class="st0" d="M875.2,1403c2.7,0,3.1,0.4,3.1,3.2v13.2c0,1.9-0.4,2.5-1.5,2.5s-1.4-0.6-1.4-2.4V1408c0-1.8-0.3-2.1-2.1-2.1
	h-1.9c-1.8,0-2.1,0.3-2.1,2.1v1.1c0,1.3,0.2,1.6,1.3,1.8s1.3,0.6,1.3,2.2v5.2c0,2.8-0.4,3.4-2.6,3.4c-2.5,0-2.9-0.4-2.9-3.4V1408
	c0-1.8-0.2-2.1-2.1-2.1h-1.9c-1.8,0-2.1,0.3-2.1,2.1v1.1c0,1.3,0.2,1.6,1.3,1.8s1.3,0.6,1.3,2.2v5.2c0,2.8-0.5,3.4-2.7,3.4
	c-2.6,0-2.9-0.4-2.9-3.4v-12.3c0-2.8,0.4-3.2,3.1-3.2L875.2,1403z"/>
<path class="st0" d="M899.4,1403c2.7,0,3.1,0.4,3.1,3.2v13.2c0,1.9-0.4,2.5-1.5,2.5s-1.4-0.6-1.4-2.4V1408c0-1.8-0.3-2.1-2.1-2.1
	h-1.9c-1.8,0-2.1,0.3-2.1,2.1v1.1c0,1.3,0.2,1.6,1.3,1.8s1.3,0.6,1.3,2.2v5.2c0,2.8-0.4,3.4-2.6,3.4c-2.5,0-2.9-0.4-2.9-3.4V1408
	c0-1.8-0.2-2.1-2.1-2.1h-1.9c-1.8,0-2.1,0.3-2.1,2.1v1.1c0,1.3,0.2,1.6,1.3,1.8s1.3,0.6,1.3,2.2v5.2c0,2.8-0.5,3.4-2.7,3.4
	c-2.6,0-2.9-0.4-2.9-3.4v-12.3c0-2.8,0.4-3.2,3.1-3.2L899.4,1403z"/>
<path class="st0" d="M908.5,1400c-2.2,0-2.8-0.5-2.8-2.3s0.7-2.6,2.9-2.6s2.7,0.6,2.7,2.4v0.1C911.3,1399.5,910.6,1400,908.5,1400z
	 M911.3,1418.4c0,2.8-0.4,3.4-2.6,3.4c-2.5,0-2.9-0.4-2.9-3.4v-13.1c0-1.8,0.4-2.4,1.4-2.4s1.5,0.6,1.5,2.4v2.9
	c0,1.3,0.2,1.6,1.3,1.8s1.3,0.6,1.3,2.2V1418.4z"/>
<path class="st0" d="M928.5,1418.8c0,2.6-0.5,3.1-3.1,3.1h-8.5c-2.6,0-3.1-0.4-3.1-3.1v-1.3c0-1.8,0.4-2.4,1.4-2.4s1.4,0.5,1.4,2
	c0.1,1.7,0.4,2,2,2h2.1c1.8,0,2.1-0.3,2.1-2.1v-1.3c0-1.8-0.2-2.1-2.1-2.1h-3.9c-2.6,0-3.1-0.5-3.1-3.1v-4.2c0-2.8,0.4-3.2,3.1-3.2
	h8.6c2.7,0,3.1,0.4,3.1,3.2v0.8c0,1.4-0.4,1.9-1.5,1.9s-1.4-0.4-1.5-1.6s-0.4-1.4-2-1.4h-4.7c-1.9,0-2.1,0.3-2.1,2.1v0.3
	c0,1.8,0.3,2.1,2.1,2.1h6.6c2.7,0,3.1,0.4,3.1,3.2L928.5,1418.8z"/>
<path class="st0" d="M945.9,1418.8c0,2.6-0.5,3.1-3.1,3.1h-8.5c-2.6,0-3.1-0.4-3.1-3.1v-1.3c0-1.8,0.4-2.4,1.4-2.4s1.4,0.5,1.4,2
	c0.1,1.7,0.4,2,2,2h2.1c1.8,0,2.1-0.3,2.1-2.1v-1.3c0-1.8-0.2-2.1-2.1-2.1h-3.9c-2.6,0-3.1-0.5-3.1-3.1v-4.2c0-2.8,0.4-3.2,3.1-3.2
	h8.6c2.7,0,3.1,0.4,3.1,3.2v0.8c0,1.4-0.4,1.9-1.5,1.9s-1.4-0.4-1.5-1.6s-0.4-1.4-2-1.4h-4.7c-1.9,0-2.1,0.3-2.1,2.1v0.3
	c0,1.8,0.3,2.1,2.1,2.1h6.6c2.7,0,3.1,0.4,3.1,3.2L945.9,1418.8z"/>
<path class="st0" d="M951.6,1400c-2.2,0-2.8-0.5-2.8-2.3s0.7-2.6,2.9-2.6s2.7,0.6,2.7,2.4v0.1C954.4,1399.5,953.7,1400,951.6,1400z
	 M954.3,1418.4c0,2.8-0.4,3.4-2.6,3.4c-2.5,0-2.9-0.4-2.9-3.4v-13.1c0-1.8,0.4-2.4,1.4-2.4s1.5,0.6,1.5,2.4v2.9
	c0,1.3,0.2,1.6,1.3,1.8s1.3,0.6,1.3,2.2V1418.4z"/>
<path class="st0" d="M971.7,1418.8c0,2.6-0.4,3.1-3.1,3.1h-8.5c-2.6,0-3.1-0.4-3.1-3.1v-12.6c0-2.8,0.4-3.2,3.1-3.2h8.5
	c2.7,0,3.1,0.4,3.1,3.2V1418.8z M966.7,1405.9h-4.6c-1.8,0-2.1,0.3-2.1,2.1v1.1c0,1.3,0.2,1.6,1.3,1.8s1.3,0.6,1.3,2.2v3.6
	c0,1.9,0.2,2.1,2.2,2.1h1.9c1.8,0,2.2-0.3,2.2-2.1v-8.8C968.9,1406.2,968.6,1405.9,966.7,1405.9z"/>
<path class="st0" d="M986.5,1403c2.7,0,3.1,0.4,3.1,3.2v13.2c0,1.9-0.4,2.5-1.5,2.5s-1.4-0.6-1.4-2.4V1408c0-1.8-0.3-2.1-2.1-2.1
	H980c-1.8,0-2.1,0.3-2.1,2.1v1.1c0,1.3,0.2,1.6,1.3,1.8s1.3,0.6,1.3,2.2v5.2c0,2.8-0.5,3.4-2.7,3.4c-2.6,0-2.9-0.4-2.9-3.4v-12.3
	c0-2.8,0.4-3.2,3.1-3.2L986.5,1403z"/>
<path class="st0" d="M995.6,1400c-2.2,0-2.8-0.5-2.8-2.3s0.7-2.6,2.9-2.6s2.7,0.6,2.7,2.4v0.1C998.4,1399.5,997.7,1400,995.6,1400z
	 M998.4,1418.4c0,2.8-0.4,3.4-2.6,3.4c-2.5,0-2.9-0.4-2.9-3.4v-13.1c0-1.8,0.4-2.4,1.4-2.4s1.5,0.6,1.5,2.4v2.9
	c0,1.3,0.2,1.6,1.3,1.8s1.3,0.6,1.3,2.2V1418.4z"/>
<path class="st0" d="M1012.7,1403c2.7,0,3.1,0.4,3.1,3.2v13.2c0,1.9-0.4,2.5-1.5,2.5s-1.4-0.6-1.4-2.4V1408c0-1.8-0.3-2.1-2.1-2.1
	h-4.6c-1.8,0-2.1,0.3-2.1,2.1v1.1c0,1.3,0.2,1.6,1.3,1.8s1.3,0.6,1.3,2.2v5.2c0,2.8-0.5,3.4-2.7,3.4c-2.6,0-2.9-0.4-2.9-3.4v-12.3
	c0-2.8,0.4-3.2,3.1-3.2L1012.7,1403z"/>
<path class="st0" d="M1033.7,1425.8c0,2.6-0.5,3-3.2,3h-9c-1.8,0-2.4-0.3-2.4-1.4s0.6-1.5,2.5-1.5h7.1c1.8,0,2.2-0.3,2.2-1.9
	c0-1.8-0.3-2.1-2.1-2.1h-6.6c-2.6,0-3.1-0.4-3.1-3.1v-12.6c0-2.8,0.4-3.2,3.1-3.2h8.5c2.7,0,3.1,0.4,3.1,3.2L1033.7,1425.8z
	 M1028.7,1405.9h-4.7c-1.8,0-2.1,0.3-2.1,2.1v1.1c0,1.3,0.2,1.6,1.3,1.8c1.1,0.3,1.3,0.6,1.3,2.2v3.6c0,1.9,0.2,2.1,2.2,2.1h1.9
	c1.8,0,2.2-0.3,2.2-2.1v-8.8C1030.8,1406.2,1030.5,1405.9,1028.7,1405.9z"/>
<path class="st0" d="M1059.7,1418.8c0,2.6-0.4,3.1-3.1,3.1h-8.5c-2.6,0-3.1-0.4-3.1-3.1v-12.6c0-2.8,0.4-3.2,3.1-3.2h8.5
	c2.7,0,3.1,0.4,3.1,3.2V1418.8z M1054.7,1405.9h-4.6c-1.8,0-2.1,0.3-2.1,2.1v1.1c0,1.3,0.2,1.6,1.3,1.8s1.3,0.6,1.3,2.2v3.6
	c0,1.9,0.2,2.1,2.2,2.1h1.9c1.8,0,2.2-0.3,2.2-2.1v-8.8C1056.8,1406.2,1056.5,1405.9,1054.7,1405.9z"/>
<path class="st0" d="M1064.3,1402.4c0-2.8,0.4-3.2,3.1-3.2h2.9c1.9,0,2.5,0.3,2.5,1.5s-0.6,1.5-2.5,1.5h-1c-1.8,0-2.1,0.3-2.1,2.1
	v1.2c0,1.3,0.1,1.5,1.1,1.5c1.3,0,1.8,0.5,1.8,1.5s-0.5,1.4-1.7,1.5s-1.3,0.2-1.3,1.5v0.8c0,1.3,0.2,1.6,1.3,1.8s1.4,0.6,1.4,2.2
	v6.1c0,2.8-0.5,3.4-2.7,3.4c-2.5,0-2.9-0.4-2.9-3.4v-10.8c0-0.2,0-0.5,0-0.7c0-0.7-0.2-0.9-0.9-1h-0.5c-1-0.1-1.5-0.6-1.5-1.4
	c0-1,0.6-1.5,1.7-1.5s1.2-0.2,1.2-2.1L1064.3,1402.4z"/>
<path class="st0" d="M836.1,1461.8c0,2.6-0.5,3.1-3.1,3.1h-8.5c-2.6,0-3.1-0.4-3.1-3.1v-1.3c0-1.8,0.4-2.4,1.4-2.4s1.4,0.5,1.4,2
	c0.1,1.7,0.4,2,2,2h2.1c1.8,0,2.1-0.3,2.1-2.1v-1.3c0-1.8-0.2-2.1-2.1-2.1h-3.9c-2.6,0-3.1-0.5-3.1-3.1v-4.2c0-2.8,0.4-3.2,3.1-3.2
	h8.6c2.7,0,3.1,0.4,3.1,3.2v0.8c0,1.4-0.4,1.9-1.5,1.9s-1.4-0.4-1.5-1.6s-0.4-1.4-2-1.4h-4.7c-1.9,0-2.1,0.3-2.1,2.1v0.3
	c0,1.8,0.3,2.1,2.1,2.1h6.6c2.7,0,3.1,0.4,3.1,3.2L836.1,1461.8z"/>
<path class="st0" d="M853.7,1453.3c0,2.6-0.4,3.1-3.1,3.1h-4c-1.8,0-2.1,0.3-2.1,2.1v1.3c0,1.9,0.2,2.1,2.2,2.1h2.4
	c1.2,0,1.6-0.3,1.7-1.3l0.1-0.7c0-0.7,0.5-1.3,1.3-1.4c0,0,0.1,0,0.1,0c1,0,1.5,0.6,1.5,2.1v1.1c0,2.6-0.4,3.1-3.1,3.1h-8.5
	c-2.6,0-3.1-0.4-3.1-3.1v-12.6c0-2.8,0.4-3.2,3.1-3.2h8.5c2.7,0,3.1,0.4,3.1,3.2V1453.3z M850.8,1451.3v-0.3c0-1.8-0.3-2.1-2.1-2.1
	h-4.6c-1.9,0-2.1,0.2-2.1,2.1v0.3c0,2,0.2,2.2,2.1,2.2h4.6C850.5,1453.5,850.8,1453.2,850.8,1451.3z"/>
<path class="st0" d="M862.2,1461.5c0,2.8-0.5,3.4-2.7,3.4c-2.5,0-2.9-0.4-2.9-3.4v-20.9c0-1.8,0.4-2.4,1.5-2.4s1.4,0.6,1.4,2.4v3.5
	c0,1.3,0.2,1.6,1.3,1.8s1.3,0.6,1.3,2.2V1461.5z"/>
<path class="st0" d="M880.1,1453.3c0,2.6-0.4,3.1-3.1,3.1h-4c-1.8,0-2.1,0.3-2.1,2.1v1.3c0,1.9,0.2,2.1,2.2,2.1h2.4
	c1.2,0,1.6-0.3,1.7-1.3l0.1-0.7c0-0.7,0.5-1.3,1.3-1.4c0,0,0.1,0,0.1,0c1,0,1.5,0.6,1.5,2.1v1.1c0,2.6-0.4,3.1-3.1,3.1h-8.5
	c-2.6,0-3.1-0.4-3.1-3.1v-12.6c0-2.8,0.4-3.2,3.1-3.2h8.5c2.7,0,3.1,0.4,3.1,3.2L880.1,1453.3z M877.2,1451.3v-0.3
	c0-1.8-0.3-2.1-2.1-2.1h-4.6c-1.9,0-2.1,0.2-2.1,2.1v0.3c0,2,0.2,2.2,2.1,2.2h4.6C876.9,1453.5,877.2,1453.2,877.2,1451.3z"/>
<path class="st0" d="M897.7,1461.8L897.7,1461.8c0,2.6-0.5,3.1-3.1,3.1h-8.5c-2.6,0-3.1-0.4-3.1-3.1v-12.6c0-2.8,0.4-3.2,3.1-3.2
	h8.5c2.7,0,3.1,0.4,3.1,3.2v0.9c0,1.6-0.4,2.2-1.5,2.2c-0.9,0-1.3-0.5-1.4-1.8c-0.2-1.4-0.3-1.6-2.1-1.6h-4.6
	c-1.8,0-2.1,0.3-2.1,2.1v1.2c0,1.3,0.2,1.5,1.3,1.8s1.3,0.6,1.3,2.2v3.5c0,1.9,0.2,2.1,2.2,2.1h1.9c1.8,0,2.2-0.3,2.2-1.8v-0.2
	c0-1.9,0.4-2.4,1.5-2.4s1.4,0.5,1.4,2.4L897.7,1461.8z"/>
<path class="st0" d="M902.1,1441.7c0-1.9,0.4-2.5,1.5-2.5s1.5,0.6,1.5,2.4v2.8c0,1.3,0.1,1.4,1.1,1.5c1.3,0,1.8,0.5,1.8,1.5
	s-0.6,1.4-1.7,1.5s-1.3,0.2-1.3,1.5v0.8c0,1.3,0.2,1.6,1.3,1.8s1.3,0.6,1.3,2.2v6.1c0,2.8-0.5,3.4-2.7,3.4c-2.5,0-2.9-0.4-2.9-3.4
	v-10.8c0-0.2,0-0.5,0-0.7c0-0.7-0.2-0.9-0.9-1h-0.5c-1-0.1-1.5-0.6-1.5-1.4c0-1,0.6-1.5,1.7-1.5s1.2-0.2,1.2-2.1L902.1,1441.7z"/>
<path class="st0" d="M925.3,1453.3c0,2.6-0.4,3.1-3.1,3.1h-4c-1.8,0-2.1,0.3-2.1,2.1v1.3c0,1.9,0.2,2.1,2.2,2.1h2.4
	c1.2,0,1.6-0.3,1.7-1.3l0.1-0.7c0-0.7,0.5-1.3,1.3-1.4c0,0,0.1,0,0.1,0c1,0,1.5,0.6,1.5,2.1v1.1c0,2.6-0.4,3.1-3.1,3.1h-8.5
	c-2.6,0-3.1-0.4-3.1-3.1v-12.6c0-2.8,0.4-3.2,3.1-3.2h8.5c2.7,0,3.1,0.4,3.1,3.2L925.3,1453.3z M922.4,1451.3v-0.3
	c0-1.8-0.3-2.1-2.1-2.1h-4.6c-1.9,0-2.1,0.2-2.1,2.1v0.3c0,2,0.2,2.2,2.1,2.2h4.6C922.1,1453.5,922.4,1453.2,922.4,1451.3
	L922.4,1451.3z"/>
<path class="st0" d="M943,1461.8c0,2.5-0.6,3.1-3,3.1h-8.6c-2.6,0-3.1-0.4-3.1-3.1v-12.6c0-2.7,0.4-3.1,3.1-3.1h6.8
	c1.5,0,1.8-0.4,1.8-1.8v-3.6c0-1.9,0.4-2.4,1.4-2.4s1.5,0.6,1.5,2.4L943,1461.8z M938,1448.9h-4.6c-1.8,0-2.1,0.3-2.1,2.1v1.1
	c0,1.3,0.2,1.6,1.3,1.8s1.3,0.6,1.3,2.2v3.6c0,1.9,0.2,2.1,2.2,2.1h1.9c1.8,0,2.2-0.3,2.2-2.1v-8.8
	C940.1,1449.2,939.8,1448.9,938,1448.9z"/>
<path class="st0" d="M968.8,1461.8c0,2.6-0.5,3.1-3.1,3.1h-8.5c-2.6,0-3.1-0.4-3.1-3.1v-5.1c0-2.8,0.4-3.2,3.1-3.2h6.5
	c1.8,0,2.1-0.3,2.1-2.1v-0.4c0-1.8-0.2-2.1-2.1-2.1h-4.8c-1.4,0-1.8,0.2-1.9,1.1l-0.1,0.6c0,0.7-0.6,1.3-1.3,1.3c0,0-0.1,0-0.1,0
	c-1.1,0-1.4-0.5-1.4-2.2v-0.5c0-2.8,0.4-3.2,3.1-3.2h8.5c2.7,0,3.1,0.4,3.1,3.2L968.8,1461.8z M963.8,1456.4h-2
	c-1.8,0-2.1,0.3-2.1,2.1v1.3c0,1.9,0.2,2.1,2.2,2.1h1.9c1.8,0,2.1-0.3,2.1-2.1v-1.2C965.8,1456.7,965.6,1456.4,963.8,1456.4
	L963.8,1456.4z"/>
<path class="st0" d="M977.5,1461.5c0,2.8-0.5,3.4-2.7,3.4c-2.5,0-2.9-0.4-2.9-3.4v-12.3c0-2.8,0.4-3.2,3.1-3.2h5.1
	c1.9,0,2.5,0.4,2.5,1.4s-0.6,1.5-2.5,1.5H977c-1.8,0-2.1,0.3-2.1,2.1v0.2c0,1.3,0.2,1.6,1.3,1.8s1.3,0.6,1.3,2.2L977.5,1461.5z"/>
<path class="st0" d="M986.4,1441.7c0-1.9,0.4-2.5,1.5-2.5s1.5,0.6,1.5,2.4v2.8c0,1.3,0.1,1.4,1.1,1.5c1.3,0,1.8,0.5,1.8,1.5
	s-0.6,1.4-1.7,1.5s-1.3,0.2-1.3,1.5v0.8c0,1.3,0.2,1.6,1.3,1.8s1.3,0.6,1.3,2.2v6.1c0,2.8-0.5,3.4-2.7,3.4c-2.5,0-2.9-0.4-2.9-3.4
	v-10.8c0-0.2,0-0.5,0-0.7c0-0.7-0.2-0.9-0.9-1H985c-1-0.1-1.5-0.6-1.5-1.4c0-1,0.6-1.5,1.7-1.5s1.2-0.2,1.2-2.1L986.4,1441.7z"/>
<path class="st0" d="M998.1,1464.9c-2.6,0-3.1-0.4-3.1-3.1v-13.4c0-1.8,0.4-2.4,1.5-2.4s1.4,0.6,1.4,2.4v2.9c0,1.3,0.2,1.6,1.3,1.8
	s1.3,0.6,1.3,2.2v4.5c0,1.8,0.2,2.1,1.7,2.1s1.8-0.4,1.8-2.1v-11.4c0-1.8,0.4-2.4,1.5-2.4s1.4,0.6,1.4,2.4v2.9
	c0,1.3,0.2,1.6,1.3,1.8s1.3,0.6,1.3,2.2v4.5c0,1.8,0.2,2.1,1.7,2.1s1.8-0.4,1.8-2.1v-11.4c0-1.8,0.4-2.4,1.5-2.4s1.4,0.6,1.4,2.4
	v13.4c0,2.6-0.4,3.1-3.1,3.1H998.1z"/>
<path class="st0" d="M1033.9,1461.8c0,2.6-0.4,3.1-3.1,3.1h-8.5c-2.6,0-3.1-0.4-3.1-3.1v-12.6c0-2.8,0.4-3.2,3.1-3.2h8.5
	c2.7,0,3.1,0.4,3.1,3.2V1461.8z M1028.9,1448.9h-4.6c-1.8,0-2.1,0.3-2.1,2.1v1.1c0,1.3,0.2,1.6,1.3,1.8c1.1,0.3,1.3,0.6,1.3,2.2v3.6
	c0,1.9,0.2,2.1,2.2,2.1h1.9c1.8,0,2.2-0.3,2.2-2.1v-8.8C1031,1449.2,1030.7,1448.9,1028.9,1448.9z"/>
<path class="st0" d="M1042.6,1461.5c0,2.8-0.5,3.4-2.7,3.4c-2.5,0-2.9-0.4-2.9-3.4v-12.3c0-2.8,0.4-3.2,3.1-3.2h5.1
	c1.9,0,2.5,0.4,2.5,1.4s-0.6,1.5-2.5,1.5h-3.1c-1.8,0-2.1,0.3-2.1,2.1v0.2c0,1.3,0.2,1.6,1.3,1.8s1.3,0.6,1.3,2.2L1042.6,1461.5z"/>
<path class="st0" d="M1061.7,1461.3c0-1.8-0.3-2.1-2.1-2.1h-2c-1.8,0-2.1,0.3-2.1,2.1v4.1c0,2.8-0.5,3.4-2.7,3.4
	c-2.5,0-2.9-0.4-2.9-3.4v-20.9c0-1.8,0.4-2.4,1.4-2.4s1.5,0.6,1.5,2.4v9.6c0,1.9,0.2,2.1,2.2,2.1h1.9c1.9,0,2.2-0.3,2.2-2.1v-1.8
	c0-1.9,0.4-2.5,1.5-2.5s1.4,0.6,1.4,2.5v2.2c0,1.3,0.2,1.6,1.3,1.8s1.3,0.6,1.3,2.2v7.7c0,1.9-0.4,2.5-1.5,2.5s-1.4-0.6-1.4-2.4
	L1061.7,1461.3z"/>
<path class="st0" d="M518.9,259c0,2-0.7,2.7-2.7,2.7s-2.6-0.7-2.6-2.7v-14c0-2.7-0.1-2.9-3-2.9h-1.7c-1.4,0-2-0.4-2-1.4
	s0.6-1.4,2.1-1.4h12.5c1.7,0,2.2,0.4,2.2,1.4s-0.5,1.5-2.5,1.5h-2.4c-2,0-2.3,0.4-2.3,2.7v1.4c0,0.9,0.3,1.4,0.9,1.7l0.4,0.2
	c0.9,0.4,1.1,0.7,1.1,2.4L518.9,259z"/>
<path class="st0" d="M538,259.1c0,2.2-0.4,2.6-2.6,2.6h-7.2c-2.2,0-2.6-0.4-2.6-2.6v-10.6c0-2.3,0.3-2.7,2.6-2.7h7.2
	c2.3,0,2.6,0.3,2.6,2.7V259.1z M533.8,248.3h-3.9c-1.5,0-1.8,0.3-1.8,1.8v1c0,1.1,0.2,1.3,1.1,1.6s1.1,0.5,1.1,1.9v3
	c0,1.6,0.2,1.8,1.8,1.8h1.6c1.5,0,1.8-0.2,1.8-1.8V250C535.6,248.5,535.3,248.3,533.8,248.3L533.8,248.3z"/>
<path class="st0" d="M550.5,255.4c0-1.5-0.2-1.8-1.8-1.8H547c-1.5,0-1.8,0.3-1.8,1.8v3.5c0,2.4-0.4,2.9-2.3,2.9
	c-2.1,0-2.4-0.4-2.4-2.9v-17.6c0-1.6,0.3-2.1,1.2-2.1s1.2,0.5,1.2,2.1v8.1c0,1.6,0.2,1.8,1.8,1.8h1.6c1.6,0,1.8-0.2,1.8-1.8v-1.5
	c0-1.6,0.3-2.1,1.2-2.1s1.2,0.5,1.2,2.1v1.9c0,1.1,0.2,1.3,1.1,1.6s1.1,0.5,1.1,1.9v6.5c0,1.6-0.3,2.1-1.2,2.1s-1.2-0.5-1.2-2.1
	V255.4z"/>
<path class="st0" d="M567.8,252c0,2.2-0.4,2.6-2.6,2.6h-3.3c-1.5,0-1.8,0.3-1.8,1.8v1.1c0,1.6,0.2,1.8,1.8,1.8h2
	c1,0,1.3-0.3,1.4-1.1l0.1-0.6c0-0.6,0.4-1.1,1-1.2c0,0,0.1,0,0.1,0c0.9,0,1.2,0.5,1.2,1.8v0.9c0,2.2-0.4,2.6-2.6,2.6h-7.2
	c-2.2,0-2.6-0.4-2.6-2.6v-10.7c0-2.3,0.3-2.7,2.6-2.7h7.2c2.3,0,2.6,0.3,2.6,2.7L567.8,252z M565.4,250.3v-0.2
	c0-1.6-0.2-1.8-1.8-1.8h-3.9c-1.6,0-1.8,0.2-1.8,1.8v0.2c0,1.6,0.2,1.8,1.8,1.8h3.9C565.2,252.1,565.4,251.9,565.4,250.3
	L565.4,250.3z"/>
<path class="st0" d="M580.1,245.8c2.3,0,2.6,0.3,2.6,2.7v11.1c0,1.6-0.3,2.1-1.2,2.1s-1.2-0.5-1.2-2.1v-9.6c0-1.6-0.2-1.8-1.8-1.8
	h-3.8c-1.5,0-1.8,0.3-1.8,1.8v0.9c0,1.1,0.2,1.3,1.1,1.6s1.1,0.5,1.1,1.9v4.4c0,2.4-0.4,2.9-2.3,2.9c-2.2,0-2.5-0.4-2.5-2.9v-10.4
	c0-2.3,0.3-2.7,2.6-2.7H580.1z"/>
<path class="st0" d="M597.6,259.1c0,2.2-0.4,2.6-2.6,2.6h-7.2c-2.2,0-2.6-0.4-2.6-2.6V258c0-1.5,0.3-2,1.2-2s1.1,0.4,1.2,1.7
	c0.1,1.4,0.3,1.6,1.7,1.6h1.8c1.5,0,1.8-0.2,1.8-1.8v-1.1c0-1.5-0.2-1.8-1.8-1.8h-3.3c-2.2,0-2.6-0.4-2.6-2.6v-3.5
	c0-2.3,0.3-2.7,2.6-2.7h7.2c2.2,0,2.6,0.3,2.6,2.7v0.7c0,1.1-0.4,1.6-1.2,1.6s-1.1-0.4-1.2-1.3s-0.3-1.2-1.7-1.2h-4
	c-1.6,0-1.8,0.2-1.8,1.8v0.3c0,1.6,0.2,1.8,1.8,1.8h5.6c2.2,0,2.6,0.3,2.6,2.7L597.6,259.1z"/>
<path class="st0" d="M508.1,278.2c0-2.4,0.3-2.7,2.6-2.7h2.5c1.6,0,2.1,0.3,2.1,1.2s-0.5,1.2-2.1,1.2h-0.8c-1.5,0-1.8,0.3-1.8,1.8v1
	c0,1.1,0.1,1.2,0.9,1.2c1.1,0,1.5,0.4,1.5,1.2s-0.4,1.2-1.4,1.2s-1.1,0.2-1.1,1.2v0.7c0,1.1,0.1,1.3,1.1,1.6
	c0.9,0.2,1.1,0.5,1.1,1.9v5.2c0,2.4-0.4,2.9-2.3,2.9c-2.1,0-2.4-0.4-2.4-2.9V286c0-0.2,0-0.4,0-0.6c0-0.6-0.2-0.8-0.7-0.9h-0.4
	c-0.8-0.1-1.3-0.5-1.3-1.2s0.5-1.2,1.5-1.2s1-0.2,1-1.8L508.1,278.2z"/>
<path class="st0" d="M527.7,295.4c0,2.2-0.4,2.6-2.6,2.6h-7.2c-2.2,0-2.6-0.4-2.6-2.6v-10.6c0-2.3,0.3-2.7,2.6-2.7h7.2
	c2.3,0,2.6,0.3,2.6,2.7L527.7,295.4z M523.5,284.5h-3.9c-1.5,0-1.8,0.3-1.8,1.8v1c0,1.1,0.2,1.3,1.1,1.5s1.1,0.5,1.1,1.9v3
	c0,1.6,0.2,1.8,1.8,1.8h1.6c1.5,0,1.8-0.2,1.8-1.8v-7.4C525.2,284.8,525,284.5,523.5,284.5L523.5,284.5z"/>
<path class="st0" d="M535.1,295.1c0,2.4-0.4,2.9-2.3,2.9c-2.1,0-2.4-0.4-2.4-2.9v-10.4c0-2.3,0.3-2.7,2.6-2.7h4.3
	c1.6,0,2.1,0.3,2.1,1.2s-0.5,1.2-2.1,1.2h-2.6c-1.5,0-1.8,0.3-1.8,1.8v0.2c0,1.1,0.1,1.3,1.1,1.6s1.1,0.5,1.1,1.9L535.1,295.1z"/>
<path class="st0" d="M560.3,290.1c0,1.4-0.2,1.6-1.1,1.9s-1.1,0.5-1.1,1.5v1.9c0,2.2-0.4,2.6-2.6,2.6h-2.8c-2.2,0-2.6-0.4-2.6-2.6
	v-1.9c0-1.1-0.1-1.3-1.1-1.6s-1.1-0.5-1.1-1.9v-5.1c0-2.4,0.4-2.9,2.2-2.9c2.1,0,2.5,0.4,2.5,2.9v8.8c0,1.5,0.3,1.8,1.5,1.8
	s1.6-0.3,1.6-1.8v-2.2c0-1.1,0.2-1.3,1.1-1.5s1.1-0.6,1.1-1.9v-4c0-1.5,0.3-2.1,1.2-2.1s1.2,0.5,1.2,2.1L560.3,290.1z"/>
<path class="st0" d="M575,295.4c0,2.2-0.4,2.6-2.6,2.6h-7.2c-2.2,0-2.6-0.4-2.6-2.6v-10.6c0-2.3,0.3-2.7,2.6-2.7h7.2
	c2.3,0,2.6,0.3,2.6,2.7V295.4z M570.8,284.5h-3.9c-1.5,0-1.8,0.3-1.8,1.8v1c0,1.1,0.2,1.3,1.1,1.5s1.1,0.5,1.1,1.9v3
	c0,1.6,0.2,1.8,1.8,1.8h1.6c1.6,0,1.8-0.2,1.8-1.8v-7.4C572.5,284.8,572.3,284.5,570.8,284.5L570.8,284.5z"/>
<path class="st0" d="M578.8,278.5c0-1.6,0.3-2.1,1.2-2.1s1.2,0.5,1.2,2v2.4c0,1.1,0.1,1.2,1,1.2c1.1,0,1.5,0.4,1.5,1.2
	s-0.5,1.2-1.4,1.2s-1.1,0.2-1.1,1.2v0.7c0,1.1,0.2,1.3,1.1,1.6s1.1,0.5,1.1,1.9v5.2c0,2.4-0.4,2.9-2.2,2.9c-2.1,0-2.4-0.4-2.4-2.9
	V286c0-0.2,0-0.4,0-0.6c0-0.6-0.2-0.8-0.8-0.9h-0.4c-0.8-0.1-1.3-0.5-1.3-1.2s0.5-1.2,1.5-1.2s1-0.2,1-1.8L578.8,278.5z"/>
<path class="st0" d="M598.4,288.2c0,2.2-0.4,2.6-2.6,2.6h-3.3c-1.5,0-1.8,0.3-1.8,1.8v1.1c0,1.6,0.2,1.8,1.8,1.8h2
	c1,0,1.3-0.3,1.4-1.1l0.1-0.6c0-0.6,0.4-1.1,1-1.2c0,0,0.1,0,0.1,0c0.9,0,1.2,0.5,1.2,1.8v0.9c0,2.2-0.4,2.6-2.6,2.6h-7.2
	c-2.2,0-2.6-0.4-2.6-2.6v-10.6c0-2.3,0.3-2.7,2.6-2.7h7.2c2.3,0,2.6,0.3,2.6,2.7L598.4,288.2z M596,286.5v-0.2
	c0-1.5-0.2-1.8-1.8-1.8h-3.9c-1.6,0-1.8,0.2-1.8,1.8v0.2c0,1.6,0.2,1.8,1.8,1.8h3.9C595.7,288.4,596,288.1,596,286.5z"/>
<path class="st0" d="M528.8,198.1v0.5c0,0.5-0.3,1-0.8,1.2l-0.3,0.1c-0.5,0.2-0.7,0.5-0.7,1.6v2.4c0,1.9-0.4,2.2-2.3,2.2h-3.5
	c-2.2,0-2.6-0.3-2.6-2.3v-2.6c0-0.8-0.2-1-0.9-1.3s-0.8-0.5-0.8-1.9v-5.4c0-2,0.3-2.4,2-2.4s1.8,0.4,1.8,2.4v9.6
	c0,1.6,0.2,1.9,1.5,1.9h1.2c1.4,0,1.7-0.3,1.7-1.6v-2.9c0-1.2,0.1-1.5,0.8-1.7c0.8-0.3,1-0.6,1-2v-4.4c0-1,0.3-1.4,1-1.4
	s1,0.4,1,1.3L528.8,198.1z"/>
<path class="st0" d="M539.4,204.2c0,1.6-0.3,1.9-1.8,1.9h-5.1c-1.6,0-1.8-0.3-1.8-1.9v-7.6c0-1.6,0.2-1.9,1.8-1.9h5.1
	c1.6,0,1.8,0.2,1.8,1.9V204.2z M536.4,196.5h-2.8c-1.1,0-1.3,0.2-1.3,1.3v0.7c0,0.8,0.1,0.9,0.8,1.1s0.8,0.4,0.8,1.3v2.2
	c0,1.2,0.1,1.3,1.3,1.3h1.2c1.1,0,1.3-0.2,1.3-1.3v-5.3C537.6,196.7,537.5,196.5,536.4,196.5L536.4,196.5z"/>
<path class="st0" d="M543,193c-1.3,0-1.7-0.3-1.7-1.4s0.4-1.6,1.7-1.6s1.6,0.3,1.6,1.4v0.1C544.7,192.6,544.2,193,543,193z
	 M544.6,204c0,1.7-0.3,2-1.6,2c-1.5,0-1.7-0.3-1.7-2v-7.9c0-1.1,0.2-1.5,0.9-1.5s0.9,0.3,0.9,1.5v1.7c0,0.8,0.1,0.9,0.8,1.1
	s0.8,0.4,0.8,1.3V204z"/>
<path class="st0" d="M555.1,204.2L555.1,204.2c0,1.6-0.3,1.9-1.8,1.9h-5.1c-1.6,0-1.8-0.3-1.8-1.9v-7.6c0-1.6,0.2-1.9,1.8-1.9h5.1
	c1.6,0,1.8,0.2,1.8,1.9v0.5c0,0.9-0.2,1.3-0.9,1.3s-0.8-0.3-0.8-1s-0.2-0.9-1.2-0.9h-2.8c-1.1,0-1.3,0.2-1.3,1.2v0.7
	c0,0.8,0.1,0.9,0.8,1.1s0.8,0.4,0.8,1.4v2.1c0,1.2,0.1,1.3,1.3,1.3h1.1c1.1,0,1.3-0.2,1.3-1.1v-0.1c0-1.1,0.2-1.5,0.9-1.5
	s0.9,0.3,0.9,1.5L555.1,204.2z"/>
<path class="st0" d="M565.7,199.1c0,1.6-0.3,1.9-1.8,1.9h-2.4c-1.1,0-1.3,0.2-1.3,1.3v0.7c0,1.1,0.1,1.3,1.3,1.3h1.4
	c0.7,0,1-0.2,1-0.8l0-0.4c0-0.4,0.3-0.8,0.8-0.8c0,0,0.1,0,0.1,0c0.6,0,0.9,0.4,0.9,1.2v0.7c0,1.6-0.3,1.9-1.8,1.9h-5.1
	c-1.6,0-1.8-0.3-1.8-1.9v-7.6c0-1.6,0.2-1.9,1.8-1.9h5.1c1.6,0,1.8,0.2,1.8,1.9L565.7,199.1z M563.9,197.9v-0.2
	c0-1.1-0.2-1.3-1.3-1.3h-2.8c-1.2,0-1.3,0.1-1.3,1.3v0.2c0,1.2,0.1,1.3,1.3,1.3h2.8C563.8,199.2,563.9,199.1,563.9,197.9z"/>
<path class="st0" d="M584.5,204.2c0,1.5-0.5,1.9-2.4,1.9h-7c-2,0-2.4-0.3-2.4-2.3v-11.6c0-1.7,0.4-2.2,2.2-2.2h7.4
	c2,0,2.3,0.4,2.3,2.5v0.1v1c0,1-0.3,1.4-1,1.4s-1-0.4-1-1.4c0-1.4-0.3-1.6-2.2-1.6h-3.7c-1.8,0-2,0.3-2,2.2c0,1.3,0.1,1.6,0.7,1.9
	s0.9,0.4,0.9,0.8c0.1,0.5,0.1,0.9,0.1,1.4v3c0,2.5,0.1,2.7,2.3,2.7h1.7c2.1,0,2.2-0.1,2.2-2.5c0-1,0.3-1.4,1-1.4s1,0.4,1,1.4
	L584.5,204.2z"/>
<path class="st0" d="M589.6,204c0,1.7-0.3,2-1.6,2c-1.5,0-1.7-0.3-1.7-2v-7.4c0-1.6,0.2-1.9,1.8-1.9h3c1.1,0,1.5,0.2,1.5,0.9
	s-0.4,0.9-1.5,0.9h-1.9c-1.1,0-1.3,0.2-1.3,1.3v0.1c0,0.8,0.1,0.9,0.8,1.1s0.8,0.4,0.8,1.3L589.6,204z"/>
<path class="st0" d="M602.9,199.1c0,1.6-0.3,1.9-1.8,1.9h-2.4c-1.1,0-1.3,0.2-1.3,1.3v0.7c0,1.1,0.1,1.3,1.3,1.3h1.4
	c0.7,0,1-0.2,1-0.8v-0.4c0-0.4,0.3-0.8,0.8-0.8c0,0,0.1,0,0.1,0c0.6,0,0.9,0.4,0.9,1.2v0.7c0,1.6-0.3,1.9-1.8,1.9h-5.1
	c-1.6,0-1.8-0.3-1.8-1.9v-7.6c0-1.6,0.2-1.9,1.8-1.9h5.1c1.6,0,1.8,0.2,1.8,1.9L602.9,199.1z M601.1,197.9v-0.2
	c0-1.1-0.2-1.3-1.3-1.3h-2.8c-1.2,0-1.3,0.1-1.3,1.3v0.2c0,1.2,0.1,1.3,1.3,1.3h2.8C601,199.2,601.1,199.1,601.1,197.9z"/>
<path class="st0" d="M613.5,204.2c0,1.5-0.3,1.9-1.8,1.9h-5.2c-1.6,0-1.8-0.3-1.8-1.9v-7.6c0-1.6,0.2-1.9,1.8-1.9h4.1
	c0.9,0,1.1-0.2,1.1-1.1v-2.2c0-1.1,0.2-1.5,0.9-1.5s0.9,0.3,0.9,1.5V204.2z M610.5,196.5h-2.8c-1.1,0-1.3,0.2-1.3,1.3v0.7
	c0,0.8,0.1,0.9,0.8,1.1s0.8,0.4,0.8,1.3v2.2c0,1.2,0.1,1.3,1.3,1.3h1.2c1.1,0,1.3-0.2,1.3-1.3v-5.3
	C611.8,196.7,611.6,196.5,610.5,196.5z"/>
<path class="st0" d="M617,193c-1.3,0-1.7-0.3-1.7-1.4s0.4-1.5,1.7-1.5s1.6,0.3,1.6,1.4v0.1C618.7,192.6,618.3,193,617,193z
	 M618.7,204c0,1.7-0.3,2-1.6,2c-1.5,0-1.7-0.3-1.7-2v-7.9c0-1.1,0.2-1.5,0.9-1.5s0.9,0.3,0.9,1.5v1.7c0,0.8,0.1,0.9,0.8,1.1
	s0.8,0.4,0.8,1.3V204z"/>
<path class="st0" d="M621.1,192.2c0-1.1,0.2-1.5,0.9-1.5s0.9,0.3,0.9,1.5v1.7c0,0.8,0.1,0.9,0.7,0.9c0.8,0,1.1,0.3,1.1,0.9
	s-0.3,0.9-1,0.9s-0.8,0.1-0.8,0.9v0.5c0,0.8,0.1,0.9,0.8,1.1s0.8,0.4,0.8,1.3v3.6c0,1.7-0.3,2-1.6,2c-1.5,0-1.7-0.3-1.7-2v-6.5
	c0-0.1,0-0.3,0-0.4c0-0.4-0.1-0.6-0.5-0.6h-0.3c-0.6-0.1-0.9-0.4-0.9-0.9s0.3-0.9,1-0.9s0.8-0.1,0.8-1.3L621.1,192.2z"/>
<path class="st0" d="M635,204.2c0,1.6-0.3,1.9-1.9,1.9H628c-1.6,0-1.9-0.3-1.9-1.9v-0.8c0-1.1,0.2-1.4,0.9-1.4s0.8,0.3,0.9,1.2
	s0.2,1.2,1.2,1.2h1.3c1.1,0,1.3-0.2,1.3-1.3v-0.8c0-1.1-0.2-1.2-1.3-1.2H628c-1.6,0-1.9-0.3-1.9-1.9v-2.5c0-1.6,0.2-1.9,1.8-1.9h5.2
	c1.6,0,1.8,0.2,1.8,1.9v0.5c0,0.8-0.3,1.1-0.9,1.1s-0.8-0.3-0.9-0.9s-0.2-0.9-1.2-0.9h-2.8c-1.1,0-1.3,0.2-1.3,1.3v0.2
	c0,1.1,0.2,1.3,1.3,1.3h4c1.6,0,1.8,0.2,1.8,1.9L635,204.2z"/>
<path class="st0" d="M214.4,226.3c0,2.6,0.3,2.8,2.9,2.8h3.5c1.6,0,2.2,0.4,2.2,1.4s-0.6,1.4-2.2,1.4h-8.6c-2.4,0-3-0.6-3-2.8v-16.4
	c0-2.6,0.5-3.2,3-3.2h9c1.2,0,1.8,0.5,1.8,1.4s-0.5,1.4-1.8,1.4h-6.7c-2.2,0-2.5,0.4-2.5,3.2c0,2.3,0.3,2.7,2,2.7h6.3
	c2.1,0,2.7,0.3,2.7,1.4c0,0.8-0.6,1.4-1.4,1.4c-0.1,0-0.1,0-0.2,0H217c-2.4,0-2.7,0.3-2.7,3.4L214.4,226.3z"/>
<path class="st0" d="M225.2,221.3v-3.2c0-1.6,0.3-2.1,1.2-2.1s1.2,0.5,1.2,2.1v2.5c0,1.6,0.2,1.8,1.8,1.8h3.9c1.6,0,1.8-0.2,1.8-1.8
	v-2.6c0-1.6,0.3-2.1,1.2-2.1s1.2,0.5,1.2,2.1v3.2c0,1.5-0.2,2-1.1,2.4c1,0.5,1.1,0.9,1.1,2.8v3.3c0,1.6-0.3,2.1-1.2,2.1
	s-1.2-0.5-1.2-2.1v-3.2c0-1.6-0.2-1.8-1.8-1.8h-1.7c-1.5,0-1.8,0.3-1.8,1.8v2.4c0,2.4-0.4,2.9-2.2,2.9c-2.1,0-2.5-0.4-2.5-2.9v-2.7
	c0-1.7,0.3-2.2,1.5-2.6C225.5,223.4,225.2,222.9,225.2,221.3z"/>
<path class="st0" d="M240,218.7c0-2.1,0.5-2.6,2.5-2.6h7.2c2.2,0,2.6,0.4,2.6,2.6v10.6c0,2.3-0.3,2.7-2.6,2.7H244
	c-1.2,0-1.6,0.3-1.6,1.5v2.4c0,1.6-0.3,2.1-1.2,2.1s-1.2-0.5-1.2-2.1L240,218.7z M248.2,218.6h-3.9c-1.5,0-1.8,0.3-1.8,1.8v0.9
	c0,1.1,0.2,1.3,1.1,1.6s1.1,0.5,1.1,1.9v3c0,1.6,0.2,1.8,1.8,1.8h1.6c1.6,0,1.8-0.2,1.8-1.8v-7.4
	C249.9,218.8,249.7,218.6,248.2,218.6L248.2,218.6z"/>
<path class="st0" d="M267.4,222.3c0,2.2-0.4,2.6-2.6,2.6h-3.3c-1.5,0-1.8,0.3-1.8,1.8v1.1c0,1.6,0.2,1.8,1.8,1.8h2
	c1,0,1.4-0.3,1.4-1.1l0.1-0.6c0-0.6,0.4-1.1,1.1-1.1c0,0,0.1,0,0.1,0c0.9,0,1.2,0.5,1.2,1.8v0.9c0,2.2-0.4,2.6-2.6,2.6h-7.2
	c-2.2,0-2.6-0.4-2.6-2.6v-10.6c0-2.3,0.3-2.7,2.6-2.7h7.2c2.3,0,2.6,0.3,2.6,2.7L267.4,222.3z M265,220.6v-0.2
	c0-1.6-0.2-1.8-1.8-1.8h-3.9c-1.6,0-1.8,0.2-1.8,1.8v0.2c0,1.6,0.2,1.8,1.8,1.8h3.9C264.7,222.4,265,222.1,265,220.6z"/>
<path class="st0" d="M274.6,229.1c0,2.4-0.4,2.9-2.3,2.9c-2.1,0-2.4-0.4-2.4-2.9v-10.4c0-2.3,0.3-2.7,2.6-2.7h4.3
	c1.6,0,2.1,0.3,2.1,1.2s-0.5,1.2-2.1,1.2h-2.6c-1.5,0-1.8,0.3-1.8,1.8v0.2c0,1.1,0.1,1.3,1.1,1.6s1.1,0.5,1.1,1.9L274.6,229.1z"/>
<path class="st0" d="M283.3,213.6c-1.8,0-2.4-0.4-2.4-2s0.6-2.2,2.4-2.2s2.3,0.5,2.3,2v0.1C285.6,213.1,285.1,213.6,283.3,213.6z
	 M285.6,229.1c0,2.4-0.4,2.9-2.2,2.9c-2.1,0-2.4-0.4-2.4-2.9v-11c0-1.6,0.3-2.1,1.2-2.1s1.2,0.5,1.2,2.1v2.4c0,1.1,0.1,1.3,1.1,1.6
	s1.1,0.5,1.1,1.9L285.6,229.1z"/>
<path class="st0" d="M300.3,222.3c0,2.2-0.4,2.6-2.6,2.6h-3.3c-1.5,0-1.8,0.3-1.8,1.8v1.1c0,1.6,0.2,1.8,1.8,1.8h2
	c1,0,1.4-0.3,1.4-1.1l0.1-0.6c0-0.6,0.5-1.1,1.1-1.1c0,0,0.1,0,0.1,0c0.9,0,1.2,0.5,1.2,1.8v0.9c0,2.2-0.4,2.6-2.6,2.6h-7.2
	c-2.2,0-2.6-0.4-2.6-2.6v-10.6c0-2.3,0.3-2.7,2.6-2.7h7.2c2.3,0,2.6,0.3,2.6,2.7L300.3,222.3z M297.8,220.6v-0.2
	c0-1.6-0.2-1.8-1.8-1.8h-3.9c-1.6,0-1.8,0.2-1.8,1.8v0.2c0,1.6,0.2,1.8,1.8,1.8h3.8C297.6,222.4,297.8,222.1,297.8,220.6
	L297.8,220.6z"/>
<path class="st0" d="M312.6,216.1c2.3,0,2.6,0.3,2.6,2.7v11.1c0,1.6-0.3,2.1-1.2,2.1s-1.2-0.5-1.2-2.1v-9.6c0-1.6-0.2-1.8-1.8-1.8
	h-3.9c-1.5,0-1.8,0.3-1.8,1.8v0.9c0,1.1,0.2,1.3,1.1,1.6s1.1,0.5,1.1,1.9v4.4c0,2.4-0.4,2.9-2.3,2.9c-2.2,0-2.5-0.4-2.5-2.9v-10.4
	c0-2.3,0.3-2.7,2.6-2.7H312.6z"/>
<path class="st0" d="M330.2,229.4L330.2,229.4c0,2.2-0.4,2.6-2.6,2.6h-7.2c-2.2,0-2.6-0.4-2.6-2.6v-10.6c0-2.3,0.3-2.7,2.6-2.7h7.2
	c2.3,0,2.6,0.3,2.6,2.7v0.8c0,1.3-0.3,1.9-1.3,1.9c-0.8,0-1.1-0.4-1.2-1.5s-0.3-1.3-1.8-1.3h-3.9c-1.5,0-1.8,0.2-1.8,1.8v1
	c0,1.1,0.2,1.3,1.1,1.6s1.1,0.5,1.1,1.9v3c0,1.6,0.2,1.8,1.8,1.8h1.6c1.5,0,1.8-0.3,1.8-1.6v-0.2c0-1.6,0.3-2.1,1.2-2.1
	s1.2,0.4,1.2,2.1L330.2,229.4z"/>
<path class="st0" d="M345.1,222.3c0,2.2-0.4,2.6-2.6,2.6h-3.3c-1.5,0-1.8,0.3-1.8,1.8v1.1c0,1.6,0.2,1.8,1.8,1.8h2
	c1,0,1.4-0.3,1.4-1.1l0.1-0.6c0-0.6,0.4-1.1,1.1-1.1c0,0,0.1,0,0.1,0c0.9,0,1.2,0.5,1.2,1.8v0.9c0,2.2-0.4,2.6-2.6,2.6h-7.2
	c-2.2,0-2.6-0.4-2.6-2.6v-10.6c0-2.3,0.3-2.7,2.6-2.7h7.2c2.3,0,2.6,0.3,2.6,2.7L345.1,222.3z M342.6,220.6v-0.2
	c0-1.6-0.2-1.8-1.8-1.8H337c-1.6,0-1.8,0.2-1.8,1.8v0.2c0,1.6,0.2,1.8,1.8,1.8h3.9C342.4,222.4,342.6,222.1,342.6,220.6L342.6,220.6
	z"/>
<path class="st0" d="M175.4,247.3c0-1.2,0.2-1.6,1-1.6c0.6,0,1,0.4,1,1v0.7c0,1.2,0.3,1.4,1.1,1.5h0.4c1.2,0.1,1.6,0.7,1.6,2.1
	c0,1.6-0.5,2-2.7,2s-2.6-0.3-2.6-2.1L175.4,247.3z"/>
<path class="st0" d="M184.7,248.7c0-1.6,0.3-2.1,1.2-2.1s1.2,0.5,1.2,2.1v2.4c0,1.1,0.1,1.2,0.9,1.2c1.1,0,1.6,0.4,1.6,1.2
	s-0.5,1.2-1.4,1.2s-1.1,0.2-1.1,1.2v0.7c0,1.1,0.2,1.3,1.1,1.5s1.1,0.5,1.1,1.9v5.2c0,2.4-0.4,2.9-2.3,2.9c-2.1,0-2.4-0.4-2.4-2.9
	v-9.1c0-0.2,0-0.4,0-0.6c0-0.6-0.2-0.8-0.8-0.8h-0.4c-0.8-0.1-1.3-0.5-1.3-1.2s0.5-1.2,1.4-1.2s1.1-0.2,1.1-1.8L184.7,248.7z"/>
<path class="st0" d="M204.1,265.7c0,2.2-0.4,2.6-2.6,2.6h-7.1c-2.2,0-2.6-0.4-2.6-2.6v-4.3c0-2.3,0.3-2.7,2.6-2.7h5.5
	c1.6,0,1.8-0.2,1.8-1.8v-0.3c0-1.5-0.2-1.8-1.8-1.8h-4c-1.1,0-1.5,0.2-1.6,0.9l-0.1,0.5c0,0.6-0.5,1.1-1.1,1.1c0,0-0.1,0-0.1,0
	c-0.9,0-1.2-0.4-1.2-1.9V255c0-2.3,0.3-2.7,2.6-2.7h7.2c2.3,0,2.6,0.3,2.6,2.7L204.1,265.7z M199.9,261.1h-1.7
	c-1.5,0-1.8,0.3-1.8,1.8v1.1c0,1.6,0.2,1.8,1.8,1.8h1.6c1.6,0,1.8-0.2,1.8-1.8v-1C201.6,261.3,201.5,261.1,199.9,261.1z"/>
<path class="st0" d="M219.1,265.7c0,2.2-0.4,2.6-2.6,2.6h-7.1c-2.2,0-2.6-0.4-2.6-2.6v-1.1c0-1.5,0.3-2,1.2-2s1.1,0.4,1.2,1.6
	c0.1,1.4,0.3,1.6,1.7,1.6h1.8c1.6,0,1.8-0.2,1.8-1.8v-1.1c0-1.5-0.2-1.8-1.8-1.8h-3.3c-2.2,0-2.6-0.4-2.6-2.6V255
	c0-2.3,0.3-2.7,2.6-2.7h7.2c2.3,0,2.6,0.3,2.6,2.7v0.7c0,1.1-0.4,1.6-1.2,1.6s-1.1-0.4-1.2-1.3s-0.3-1.2-1.7-1.2h-4
	c-1.6,0-1.8,0.2-1.8,1.8v0.3c0,1.5,0.2,1.8,1.8,1.8h5.6c2.3,0,2.6,0.3,2.6,2.7L219.1,265.7z"/>
<path class="st0" d="M222.7,248.7c0-1.6,0.3-2.1,1.2-2.1s1.2,0.5,1.2,2.1v2.4c0,1.1,0.1,1.2,0.9,1.2c1.1,0,1.6,0.4,1.6,1.2
	s-0.5,1.2-1.4,1.2s-1.1,0.2-1.1,1.2v0.7c0,1.1,0.2,1.3,1.1,1.5s1.1,0.5,1.1,1.9v5.2c0,2.4-0.4,2.9-2.2,2.9c-2.1,0-2.4-0.4-2.4-2.9
	v-9.1c0-0.2,0-0.4,0-0.6c0-0.6-0.2-0.8-0.7-0.8h-0.4c-0.8-0.1-1.3-0.5-1.3-1.2s0.5-1.2,1.4-1.2s1-0.2,1-1.8L222.7,248.7z"/>
<path class="st0" d="M242.3,258.5c0,2.2-0.4,2.6-2.6,2.6h-3.3c-1.5,0-1.8,0.3-1.8,1.8v1.1c0,1.6,0.2,1.8,1.8,1.8h2
	c1,0,1.4-0.3,1.4-1.1l0.1-0.6c0-0.6,0.5-1.1,1.1-1.1c0,0,0,0,0.1,0c0.9,0,1.2,0.5,1.2,1.8v1c0,2.2-0.4,2.6-2.6,2.6h-7.2
	c-2.2,0-2.6-0.4-2.6-2.6V255c0-2.3,0.3-2.7,2.6-2.7h7.2c2.3,0,2.6,0.3,2.6,2.7V258.5z M239.8,256.8v-0.2c0-1.5-0.2-1.8-1.8-1.8h-3.9
	c-1.6,0-1.8,0.2-1.8,1.8v0.2c0,1.6,0.2,1.8,1.8,1.8h3.8C239.6,258.6,239.8,258.4,239.8,256.8L239.8,256.8z"/>
<path class="st0" d="M249.5,265.4c0,2.4-0.4,2.9-2.3,2.9c-2.1,0-2.4-0.4-2.4-2.9V255c0-2.3,0.3-2.7,2.6-2.7h4.3
	c1.6,0,2.1,0.3,2.1,1.2s-0.5,1.2-2.1,1.2H249c-1.5,0-1.8,0.3-1.8,1.8v0.2c0,1.1,0.1,1.3,1.1,1.5s1.1,0.5,1.1,1.9L249.5,265.4z"/>
<path class="st0" d="M261.2,251.4c0,1.2-0.3,1.6-1,1.6c-0.6,0-1-0.4-1-1v-0.7c0-1.2-0.2-1.4-1.1-1.5h-0.5c-1.1-0.1-1.6-0.7-1.6-2.1
	c0-1.6,0.5-2,2.6-2s2.6,0.3,2.6,2.1L261.2,251.4z"/>
<path class="st0" d="M283.3,265.7c0,2.2-0.4,2.6-2.6,2.6h-7.1c-2.2,0-2.6-0.4-2.6-2.6v-4.3c0-2.3,0.3-2.7,2.6-2.7h5.5
	c1.6,0,1.8-0.2,1.8-1.8v-0.3c0-1.5-0.2-1.8-1.8-1.8h-4c-1.1,0-1.5,0.2-1.6,0.9l-0.1,0.5c0,0.6-0.5,1.1-1.1,1.1c0,0-0.1,0-0.1,0
	c-1,0-1.2-0.4-1.2-1.9V255c0-2.3,0.3-2.7,2.6-2.7h7.2c2.3,0,2.6,0.3,2.6,2.7L283.3,265.7z M279,261.1h-1.7c-1.5,0-1.8,0.3-1.8,1.8
	v1.1c0,1.6,0.2,1.8,1.8,1.8h1.6c1.6,0,1.8-0.2,1.8-1.8v-1C280.8,261.3,280.6,261.1,279,261.1z"/>
<path class="st0" d="M290.7,265.4c0,2.4-0.4,2.9-2.3,2.9c-2.1,0-2.4-0.4-2.4-2.9V255c0-2.3,0.3-2.7,2.6-2.7h4.3
	c1.6,0,2.1,0.3,2.1,1.2s-0.5,1.2-2.1,1.2h-2.6c-1.5,0-1.8,0.3-1.8,1.8v0.2c0,1.1,0.1,1.3,1.1,1.5s1.1,0.5,1.1,1.9L290.7,265.4z"/>
<path class="st0" d="M298.1,248.7c0-1.6,0.3-2.1,1.2-2.1s1.2,0.5,1.2,2.1v2.4c0,1.1,0.1,1.2,1,1.2c1.1,0,1.5,0.4,1.5,1.2
	s-0.5,1.2-1.4,1.2s-1.1,0.2-1.1,1.2v0.7c0,1.1,0.2,1.3,1.1,1.5s1.1,0.5,1.1,1.9v5.2c0,2.4-0.4,2.9-2.3,2.9c-2.1,0-2.4-0.4-2.4-2.9
	v-9.1c0-0.2,0-0.4,0-0.6c0-0.6-0.2-0.8-0.7-0.8h-0.4c-0.8-0.1-1.3-0.5-1.3-1.2s0.5-1.2,1.5-1.2s1-0.2,1-1.8L298.1,248.7z"/>
<path class="st0" d="M308,268.2c-2.2,0-2.6-0.4-2.6-2.6v-11.3c0-1.5,0.3-2.1,1.2-2.1s1.2,0.5,1.2,2.1v2.4c0,1.1,0.1,1.3,1.1,1.5
	s1.1,0.5,1.1,1.9v3.8c0,1.5,0.2,1.8,1.4,1.8s1.5-0.3,1.5-1.8v-9.6c0-1.5,0.3-2.1,1.2-2.1s1.2,0.5,1.2,2.1v2.4c0,1.1,0.2,1.3,1.1,1.5
	s1.1,0.5,1.1,1.9v3.8c0,1.5,0.2,1.8,1.5,1.8s1.5-0.3,1.5-1.8v-9.6c0-1.5,0.3-2.1,1.2-2.1s1.2,0.5,1.2,2.1v11.3
	c0,2.2-0.4,2.6-2.6,2.6L308,268.2z"/>
<path class="st0" d="M338.1,265.7c0,2.2-0.4,2.6-2.6,2.6h-7.2c-2.2,0-2.6-0.4-2.6-2.6V255c0-2.3,0.3-2.7,2.6-2.7h7.2
	c2.3,0,2.6,0.3,2.6,2.7V265.7z M333.9,254.8H330c-1.5,0-1.8,0.3-1.8,1.8v0.9c0,1.1,0.2,1.3,1.1,1.5s1.1,0.5,1.1,1.9v3
	c0,1.6,0.2,1.8,1.8,1.8h1.6c1.6,0,1.8-0.2,1.8-1.8v-7.4C335.7,255,335.5,254.8,333.9,254.8L333.9,254.8z"/>
<path class="st0" d="M345.5,265.4c0,2.4-0.4,2.9-2.3,2.9c-2.1,0-2.4-0.4-2.4-2.9V255c0-2.3,0.3-2.7,2.6-2.7h4.3
	c1.6,0,2.1,0.3,2.1,1.2s-0.5,1.2-2.1,1.2h-2.6c-1.5,0-1.8,0.3-1.8,1.8v0.2c0,1.1,0.1,1.3,1.1,1.5s1.1,0.5,1.1,1.9L345.5,265.4z"/>
<path class="st0" d="M361.7,261.9c0-1.5-0.2-1.8-1.8-1.8h-1.7c-1.5,0-1.8,0.3-1.8,1.8v3.5c0,2.4-0.4,2.9-2.3,2.9
	c-2.1,0-2.4-0.4-2.4-2.9v-17.6c0-1.6,0.3-2.1,1.2-2.1s1.2,0.5,1.2,2.1v8.1c0,1.6,0.2,1.8,1.8,1.8h1.6c1.6,0,1.8-0.2,1.8-1.8v-1.5
	c0-1.6,0.3-2.1,1.2-2.1s1.2,0.5,1.2,2.1v1.9c0,1.1,0.2,1.3,1.1,1.5s1.1,0.5,1.1,1.9v6.5c0,1.6-0.3,2.1-1.2,2.1s-1.2-0.5-1.2-2
	L361.7,261.9z"/>
<path class="st0" d="M378.8,265.7c0,2.2-0.4,2.6-2.6,2.6H369c-2.2,0-2.6-0.4-2.6-2.6v-1.1c0-1.5,0.3-2,1.2-2s1.1,0.4,1.2,1.6
	c0.1,1.4,0.3,1.6,1.7,1.6h1.8c1.6,0,1.8-0.2,1.8-1.8v-1.1c0-1.5-0.2-1.8-1.8-1.8H369c-2.2,0-2.6-0.4-2.6-2.6V255
	c0-2.3,0.3-2.7,2.6-2.7h7.2c2.2,0,2.6,0.3,2.6,2.7v0.7c0,1.1-0.4,1.6-1.2,1.6s-1.1-0.4-1.2-1.3s-0.3-1.2-1.7-1.2h-4
	c-1.6,0-1.8,0.2-1.8,1.8v0.3c0,1.5,0.2,1.8,1.8,1.8h5.6c2.2,0,2.6,0.3,2.6,2.7L378.8,265.7z"/>
<path class="st2" d="M521.5,213.6L521.5,213.6l131.4-0.1c-23.6,0-42.7,25.3-42.7,56.5s19.1,56.5,42.7,56.5H521.5v0
	c-22.9-1.1-41.1-25.9-41.1-56.5S498.6,214.6,521.5,213.6z"/>
<path class="st0" d="M505.5,742.6c0,3-0.7,3.5-4,3.5h-13.4c-2.6,0-3.3-0.8-3.3-3.6v-19.7c0-2.6,0.8-3.4,3.6-3.4H502
	c2.9,0,3.5,0.7,3.5,4L505.5,742.6z M499.3,722.8h-7.8c-3,0-3.3,0.3-3.3,3.6V739c0,3.1,0.4,3.6,2.6,3.6c1.6,0,2-0.2,2.4-1.5
	c0.4-1.1,0.8-1.4,2.4-1.4h3.3c2.8,0,3.1-0.4,3.1-3.2V726C502.1,723.3,501.7,722.8,499.3,722.8L499.3,722.8z"/>
<path class="st0" d="M512.1,746.1c-2.6,0-3.1-0.4-3.1-3.1v-13.4c0-1.8,0.4-2.4,1.5-2.4s1.4,0.6,1.4,2.4v2.9c0,1.3,0.2,1.6,1.3,1.8
	s1.3,0.6,1.3,2.2v4.5c0,1.9,0.2,2.1,2.2,2.1h1.9c1.8,0,2.1-0.3,2.1-2.1v-11.4c0-1.8,0.4-2.4,1.5-2.4s1.4,0.6,1.4,2.4V743
	c0,2.6-0.4,3.1-3.1,3.1H512.1z"/>
<path class="st0" d="M541.3,743c0,2.6-0.5,3.1-3.1,3.1h-8.5c-2.6,0-3.1-0.4-3.1-3.1v-5.1c0-2.8,0.4-3.2,3.1-3.2h6.5
	c1.8,0,2.1-0.3,2.1-2.1v-0.4c0-1.8-0.2-2.1-2.1-2.1h-4.8c-1.4,0-1.8,0.2-1.9,1.1l-0.1,0.5c0,0.7-0.6,1.3-1.3,1.3c0,0-0.1,0-0.1,0
	c-1.1,0-1.4-0.5-1.4-2.2v-0.5c0-2.8,0.4-3.2,3.1-3.2h8.5c2.7,0,3.1,0.4,3.1,3.2L541.3,743z M536.3,737.7h-2c-1.8,0-2.1,0.3-2.1,2.1
	v1.3c0,1.9,0.2,2.1,2.2,2.1h1.9c1.8,0,2.1-0.3,2.1-2.1v-1.2C538.3,737.9,538.1,737.7,536.3,737.7L536.3,737.7z"/>
<path class="st0" d="M559.2,743c0,2.5-0.6,3.1-3,3.1h-8.6c-2.6,0-3.1-0.4-3.1-3.1v-12.6c0-2.7,0.4-3.1,3.1-3.1h6.8
	c1.5,0,1.8-0.4,1.8-1.8v-3.6c0-1.9,0.4-2.4,1.4-2.4s1.5,0.6,1.5,2.4V743z M554.2,730.2h-4.6c-1.8,0-2.1,0.3-2.1,2.1v1.1
	c0,1.3,0.2,1.6,1.3,1.8s1.3,0.6,1.3,2.2v3.6c0,1.9,0.2,2.1,2.2,2.1h1.9c1.8,0,2.2-0.3,2.2-2.1v-8.8
	C556.3,730.5,556,730.2,554.2,730.2L554.2,730.2z"/>
<path class="st0" d="M567.8,742.7c0,2.8-0.5,3.4-2.7,3.4c-2.5,0-2.9-0.4-2.9-3.4v-12.3c0-2.8,0.4-3.2,3.1-3.2h5.1
	c1.9,0,2.5,0.4,2.5,1.4s-0.6,1.5-2.5,1.5h-3.1c-1.8,0-2.1,0.3-2.1,2.1v0.2c0,1.3,0.2,1.6,1.3,1.8s1.3,0.6,1.3,2.2V742.7z"/>
<path class="st0" d="M589.7,743c0,2.6-0.5,3.1-3.1,3.1h-8.5c-2.6,0-3.1-0.4-3.1-3.1v-5.1c0-2.8,0.4-3.2,3.1-3.2h6.5
	c1.8,0,2.1-0.3,2.1-2.1v-0.4c0-1.8-0.2-2.1-2.1-2.1h-4.8c-1.3,0-1.8,0.2-1.9,1.1l-0.1,0.5c0,0.7-0.6,1.3-1.4,1.3c0,0-0.1,0-0.1,0
	c-1.1,0-1.4-0.5-1.4-2.2v-0.5c0-2.8,0.4-3.2,3.1-3.2h8.5c2.7,0,3.1,0.4,3.1,3.2L589.7,743z M584.7,737.7h-2c-1.8,0-2.1,0.3-2.1,2.1
	v1.3c0,1.9,0.2,2.1,2.2,2.1h1.9c1.8,0,2.1-0.3,2.1-2.1v-1.2C586.8,737.9,586.6,737.7,584.7,737.7L584.7,737.7z"/>
<path class="st0" d="M594.3,723c0-1.9,0.4-2.5,1.5-2.5s1.5,0.6,1.5,2.4v2.8c0,1.3,0.1,1.4,1.1,1.5c1.3,0,1.8,0.5,1.8,1.5
	s-0.6,1.4-1.7,1.5s-1.3,0.2-1.3,1.5v0.8c0,1.3,0.2,1.6,1.3,1.8s1.3,0.6,1.3,2.2v6.1c0,2.8-0.5,3.4-2.7,3.4c-2.5,0-2.9-0.4-2.9-3.4
	V732c0-0.2,0-0.4,0-0.7c0-0.7-0.2-0.9-0.9-1h-0.5c-1-0.1-1.5-0.6-1.5-1.4c0-1,0.6-1.5,1.7-1.5s1.2-0.2,1.2-2.1L594.3,723z"/>
<path class="st0" d="M605.7,724.3c-2.2,0-2.8-0.5-2.8-2.3s0.7-2.6,2.9-2.6s2.7,0.6,2.7,2.4v0.1C608.5,723.7,607.8,724.3,605.7,724.3
	z M608.5,742.7c0,2.8-0.4,3.4-2.6,3.4c-2.5,0-2.9-0.4-2.9-3.4v-13.1c0-1.8,0.3-2.4,1.4-2.4s1.5,0.6,1.5,2.4v2.9
	c0,1.3,0.2,1.6,1.3,1.8s1.3,0.6,1.3,2.2V742.7z"/>
<path class="st0" d="M625.9,743L625.9,743c0,2.6-0.5,3.1-3.1,3.1h-8.5c-2.6,0-3.1-0.4-3.1-3.1v-12.6c0-2.8,0.4-3.2,3.1-3.2h8.5
	c2.7,0,3.1,0.4,3.1,3.2v0.9c0,1.5-0.4,2.2-1.5,2.2c-0.9,0-1.3-0.5-1.4-1.8c-0.2-1.4-0.3-1.6-2.1-1.6h-4.6c-1.8,0-2.1,0.3-2.1,2.1
	v1.2c0,1.3,0.2,1.5,1.3,1.8s1.3,0.6,1.3,2.2v3.5c0,1.9,0.2,2.1,2.2,2.1h1.9c1.8,0,2.2-0.3,2.2-1.8v-0.2c0-1.9,0.4-2.4,1.5-2.4
	s1.4,0.5,1.4,2.4L625.9,743z"/>
<path class="st0" d="M529.1,775.8v0.9c0,0.9-0.5,1.7-1.3,2l-0.5,0.2c-0.9,0.4-1.1,0.8-1.1,2.6v3.9c0,3.1-0.6,3.6-3.9,3.6h-5.8
	c-3.7,0-4.3-0.6-4.3-3.8v-4.4c0-1.3-0.3-1.7-1.6-2.2s-1.4-0.9-1.4-3.2v-9.1c0-3.3,0.6-4,3.3-4c2.5,0,3,0.8,3,4v16
	c0,2.7,0.4,3.2,2.5,3.2h2c2.3,0,2.8-0.5,2.8-2.7v-4.8c0-2,0.2-2.4,1.3-2.9c1.4-0.5,1.6-1,1.6-3.3v-7.2c0-1.7,0.5-2.4,1.7-2.4
	s1.7,0.7,1.7,2.2L529.1,775.8z"/>
<path class="st0" d="M546.7,786c0,2.6-0.4,3.1-3.1,3.1h-8.5c-2.6,0-3.1-0.4-3.1-3.1v-12.6c0-2.8,0.4-3.2,3.1-3.2h8.5
	c2.7,0,3.1,0.4,3.1,3.2V786z M541.7,773.2h-4.6c-1.8,0-2.1,0.3-2.1,2.1v1.1c0,1.3,0.2,1.6,1.3,1.8s1.3,0.6,1.3,2.2v3.6
	c0,1.9,0.2,2.1,2.2,2.1h1.9c1.8,0,2.2-0.3,2.2-2.1v-8.8C543.9,773.5,543.6,773.2,541.7,773.2L541.7,773.2z"/>
<path class="st0" d="M551.3,766c0-1.9,0.4-2.5,1.5-2.5s1.5,0.6,1.5,2.4v2.8c0,1.3,0.1,1.4,1.1,1.5c1.3,0,1.8,0.5,1.8,1.5
	s-0.6,1.4-1.7,1.5s-1.3,0.2-1.3,1.5v0.8c0,1.3,0.2,1.6,1.3,1.8s1.3,0.6,1.3,2.2v6.1c0,2.8-0.5,3.4-2.7,3.4c-2.5,0-2.9-0.4-2.9-3.4
	V775c0-0.2,0-0.4,0-0.7c0-0.7-0.2-0.9-0.9-1h-0.5c-1-0.1-1.5-0.6-1.5-1.4c0-1,0.6-1.5,1.7-1.5s1.2-0.2,1.2-2.1L551.3,766z"/>
<path class="st0" d="M562.7,767.3c-2.2,0-2.8-0.5-2.8-2.3s0.7-2.6,2.9-2.6s2.7,0.6,2.7,2.4v0.1C565.5,766.7,564.8,767.3,562.7,767.3
	z M565.5,785.7c0,2.8-0.4,3.4-2.6,3.4c-2.5,0-2.9-0.4-2.9-3.4v-13.1c0-1.8,0.4-2.4,1.4-2.4s1.5,0.6,1.5,2.4v2.9
	c0,1.3,0.2,1.6,1.3,1.8s1.3,0.6,1.3,2.2V785.7z"/>
<path class="st0" d="M579.8,770.3c2.7,0,3.1,0.4,3.1,3.2v13.2c0,1.9-0.4,2.5-1.5,2.5s-1.4-0.6-1.4-2.4v-11.4c0-1.8-0.3-2.1-2.1-2.1
	h-4.5c-1.8,0-2.1,0.3-2.1,2.1v1.1c0,1.3,0.2,1.6,1.3,1.8s1.3,0.6,1.3,2.2v5.2c0,2.8-0.5,3.4-2.7,3.4c-2.6,0-2.9-0.4-2.9-3.4v-12.3
	c0-2.8,0.4-3.2,3.1-3.2L579.8,770.3z"/>
<path class="st0" d="M600.7,793c0,2.6-0.5,3-3.2,3h-9c-1.8,0-2.4-0.3-2.4-1.4s0.6-1.5,2.5-1.5h7.1c1.8,0,2.2-0.3,2.2-1.9
	c0-1.8-0.3-2.1-2.1-2.1h-6.6c-2.6,0-3.1-0.4-3.1-3.1v-12.5c0-2.8,0.4-3.2,3.1-3.2h8.5c2.7,0,3.1,0.4,3.1,3.2L600.7,793z
	 M595.7,773.2h-4.6c-1.8,0-2.1,0.3-2.1,2.1v1.1c0,1.3,0.2,1.6,1.3,1.8s1.3,0.6,1.3,2.2v3.6c0,1.9,0.2,2.1,2.2,2.1h1.9
	c1.8,0,2.2-0.3,2.2-2.1v-8.8C597.9,773.5,597.6,773.2,595.7,773.2L595.7,773.2z"/>
<path class="st2" d="M346.4,305.9c23.7-1.1,42.7-26.9,42.7-58.6s-19-57.6-42.7-58.6l2.1-0.1h-4.1c0.8-0.1,1.7-0.1,2.5-0.1H210v0.1
	c-23.8,1.1-42.9,27-42.9,58.8s19.1,57.8,42.9,58.9l0,0h137c-1.6,0-3.1-0.1-4.7-0.3h1H346.4z"/>
<path class="st2" d="M1043.6,602.7c29.6-1.1,53.2-26.9,53.2-58.6s-23.7-57.5-53.2-58.6l2.6-0.1h-5.1c1-0.1,2.1-0.1,3.1-0.1H873.8v0
	c-29.7,1.1-53.4,27-53.4,58.9s23.7,57.8,53.4,58.9l0,0h170.5c-1.9,0-3.9-0.1-5.8-0.3h1.3L1043.6,602.7z"/>
<polygon class="st2" points="370.4,988.3 370.6,988.2 370.2,988.2 323.7,962.5 276.7,936.5 229.8,962.5 183.2,988.2 182.8,988.2 
	183,988.3 182.8,988.5 183.2,988.5 229.8,1014.2 276.7,1040.2 323.7,1014.2 370.2,988.5 370.6,988.5 "/>
<polygon class="st2" points="582.9,988.3 583.1,988.2 582.7,988.2 536.2,962.5 489.2,936.5 442.3,962.5 395.7,988.2 395.4,988.2 
	395.5,988.3 395.4,988.5 395.7,988.5 442.3,1014.2 489.2,1040.2 536.2,1014.2 582.7,988.5 583.1,988.5 "/>
<polygon class="st2" points="810.8,988.3 811,988.2 810.6,988.2 764,962.5 717.1,936.5 670.2,962.5 623.6,988.2 623.2,988.2 
	623.4,988.3 623.2,988.5 623.6,988.5 670.2,1014.2 717.1,1040.2 764,1014.2 810.6,988.5 811,988.5 "/>
<line class="st3" x1="111.1" y1="854.3" x2="9.4" y2="854.3"/>
<line class="st3" x1="111.1" y1="1103.3" x2="9.4" y2="1103.3"/>
<line class="st2" x1="270.1" y1="304.3" x2="270.1" y2="357.5"/>
<line class="st2" x1="348.5" y1="420" x2="480.2" y2="284.4"/>
<line class="st2" x1="574.7" y1="326.9" x2="574.7" y2="388.1"/>
<line class="st2" x1="572" y1="494.5" x2="572" y2="555.7"/>
<line class="st2" x1="570.7" y1="640.8" x2="570.7" y2="695.4"/>
<polyline class="st2" points="489.2,936.5 551,820 277,936 "/>
<path class="st2" d="M717.1,936.5C710.5,933.5,551,820,551,820"/>
<line class="st2" x1="699.7" y1="1424.1" x2="792.8" y2="1424.1"/>
<line class="st2" x1="960.4" y1="1366.9" x2="960.4" y2="1028"/>
<line class="st2" x1="957.8" y1="936.2" x2="957.8" y2="602.3"/>
<line class="st2" x1="489.2" y1="1040" x2="489.2" y2="1367.6"/>
</svg>
