<svg xmlns="http://www.w3.org/2000/svg" viewBox="0 0 658.38 15"><g fill="#ba00ff"><circle cx="3.75" cy="3.75" r="3.75"/><circle cx="27.86" cy="4.06" r="3.75"/><circle cx="51.96" cy="4.38" r="3.75"/><circle cx="76.07" cy="4.69" r="3.75"/><circle cx="100.18" cy="5" r="3.75"/><circle cx="124.28" cy="5.31" r="3.75"/><circle cx="148.39" cy="5.63" r="3.75"/><circle cx="172.5" cy="5.94" r="3.75"/><circle cx="196.6" cy="6.25" r="3.75"/><circle cx="220.71" cy="6.56" r="3.75"/><circle cx="244.82" cy="6.88" r="3.75"/><circle cx="268.92" cy="7.19" r="3.75"/><circle cx="293.03" cy="7.5" r="3.75"/><circle cx="317.14" cy="7.81" r="3.75"/><circle cx="341.25" cy="8.13" r="3.75"/><circle cx="365.35" cy="8.44" r="3.75"/><circle cx="389.46" cy="8.75" r="3.75"/><circle cx="413.57" cy="9.06" r="3.75"/><circle cx="437.67" cy="9.38" r="3.75"/><circle cx="461.78" cy="9.69" r="3.75"/><circle cx="485.89" cy="10" r="3.75"/><circle cx="509.99" cy="10.31" r="3.75"/><circle cx="534.1" cy="10.63" r="3.75"/><circle cx="558.21" cy="10.94" r="3.75"/><circle cx="582.31" cy="11.25" r="3.75"/><circle cx="606.42" cy="10.31" r="3.75"/><circle cx="630.53" cy="10.63" r="3.75"/><circle cx="654.63" cy="10.94" r="3.75"/></g></svg>
