<svg id="Layer_2" data-name="Layer 2" xmlns="http://www.w3.org/2000/svg" viewBox="0 0 1000 1000"><defs><style>.cls-1{fill:#1d1d1b;}</style></defs><path class="cls-1" d="M839.29,360.77v-198L647.5,169,497,24.62,360.84,169l-198-6.19L167,364.9,22.62,505.13,162.86,643.3l-2.07,198,198,2.07L503.13,985.64,643.37,841.28H839.29l2.06-200L981.59,505.13ZM482.77,398.13l-.4,19.2c0,19.23-4.75,27.36-16.27,27.36-11.91,0-16.27-7.2-16.66-26.86-.79-28.33-4.76-31.69-36.51-31.69H351.81c-29,0-32.53,5.27-32.53,45.1,0,26.42,1.58,31.7,11.9,37.44,11.91,6.73,14.29,9.15,15.48,15.37,1.2,5.78,1.58,9.14,1.58,28.33v60c0,50.89,2,53.78,37.31,53.78h27.38c34.12,0,36.11-2.89,36.11-50.42,0-19.19,4.76-26.89,16.67-26.89s16.66,7.7,16.66,28.34v50.89c0,30.21-8.32,37.91-40.09,37.91H326c-33.73,0-39.69-6.72-39.69-46.08V389c0-34.55,7.15-43.19,36.12-43.19h122.6c32.56,0,37.71,7.19,37.71,49.44Zm235.1,16.54c0,19.32-5.36,28.48-16.46,28.48-10.34,0-15.31-7.23-16.08-23.65l-.39-7.7c-1.15-23.15-5.36-27-28.71-27H578.1c-22.21,0-26,6.76-26,42,0,38.09,3,42.93,29.87,42.93h98c32.16,0,37.9,6.24,37.9,44.34V622.59c0,36.64-6.5,43.4-40.21,43.4H552.07c-25.27,0-32.18-10.13-32.18-46.78V572.4c0-16.85,5.36-24.59,16.48-24.59,10.71,0,15.7,7.74,15.7,25.57V589.8c0,29.41,4.58,35.19,28.33,35.19h51.32c23,0,26.43-4.83,26.43-39.55V546.36c0-32.32-3.84-36.17-32.95-36.17H554.36c-28,0-34.47-8.21-34.47-43.87V387.2c0-34.74,6.91-42.93,36.39-42.93H680.35c29.49,0,37.52,7.72,37.52,37.14Z"/></svg>