<svg xmlns="http://www.w3.org/2000/svg" viewBox="0 0 123.15 123.15"><path d="M105.1 43.54V18H79.6l-18-18-18 18H18v25.54l-18 18 18 18v25.5h25.54l18 18 18-18h25.5V79.6l18-18zm-47.28 20.4h-7.3c-4.26 0-4.75.6-4.75 5.8v9.15c0 3.7-1.12 4.94-4.5 4.94-3.9 0-5.07-1.17-5.07-5v-31c0-4.07 1.17-5.25 5.62-5.25h16c2.47 0 3.6.87 3.6 2.72s-1 2.53-3.46 2.53H45.8c-3.83 0-4.4.8-4.4 5.8 0 4.57.5 5.13 5.07 5.13h11.18c2.78 0 3.83.68 3.83 2.6s-1 2.58-3.65 2.58zm29.84 0h-7.3c-4.26 0-4.76.6-4.76 5.8v9.15c0 3.7-1.1 4.94-4.5 4.94-3.9 0-5.06-1.17-5.06-5v-31c0-4.07 1.17-5.25 5.62-5.25h16c2.47 0 3.58.87 3.58 2.72s-1 2.53-3.46 2.53H75.62c-3.83 0-4.38.8-4.38 5.8 0 4.57.5 5.13 5.06 5.13h11.2c2.78 0 3.83.68 3.83 2.6s-1 2.58-3.65 2.58z"/></svg>