<svg xmlns="http://www.w3.org/2000/svg" viewBox="0 0 642.29 330.04"><path d="M268.58 161.55h-9.3c-3.6 0-4.26.33-4.26 2.2v1.15c0 1.32.4 1.6 2.65 1.9s2.65.66 2.65 2.3v3.7c0 2 .4 2.18 4.33 2.18h3.85c3.7 0 4.34-.3 4.34-2.18v-9.07c0-1.9-.56-2.2-4.26-2.2zm125.58 0h-9.3c-3.6 0-4.25.33-4.25 2.2v1.15c0 1.32.4 1.6 2.64 1.9s2.65.66 2.65 2.3v3.7c0 2 .4 2.18 4.33 2.18h3.86c3.7 0 4.33-.3 4.33-2.18v-9.07c0-1.9-.56-2.2-4.25-2.2zm59.77 0h-9.22c-3.86 0-4.26.2-4.26 2.2v.26c0 2 .4 2.23 4.26 2.23h9.22c3.7 0 4.26-.3 4.26-2.23v-.28c0-1.88-.57-2.17-4.26-2.17zm94.3-44.85V48.33h-133L321.14 0l-94.06 48.33h-133v68.36L0 165l94.06 48.34v68.35h133l94.08 48.3 94.06-48.33h133v-68.3L642.3 165zM161.8 174.37c0 3.06-1.37 3.63-7.95 3.63H127c-5.13 0-6.66-.86-6.66-3.67V154c0-2.73 1.6-3.5 7.3-3.5h27c5.85 0 7.06.7 7.06 4.08zm38.35.46c0 2.72-.88 3.17-6.18 3.17h-17.1c-5.3 0-6.18-.45-6.18-3.17V161c0-1.9.73-2.5 3-2.5s2.9.58 2.9 2.5v3c0 1.32.32 1.6 2.65 1.9s2.65.66 2.65 2.3v4.62c0 2 .4 2.18 4.33 2.18h3.8c3.7 0 4.25-.3 4.25-2.18V161c0-1.9.73-2.5 3-2.5s2.9.58 2.9 2.5zm19.66-9c2.25.33 2.65.66 2.65 2.3v6.3c0 2.88-1 3.5-5.38 3.5-5 0-5.77-.45-5.77-3.5v-11.1a2.43 2.43 0 0 1-.08-.7c0-.74-.4-.94-1.77-1h-1c-1.93-.08-3-.62-3-1.48 0-1 1.12-1.53 3.45-1.53s2.5-.25 2.5-2.18v-2.27c0-1.94.72-2.56 3-2.56s3 .58 3 2.52V157c0 1.3.24 1.48 2.25 1.52 2.57 0 3.7.5 3.7 1.53s-1.12 1.48-3.37 1.52-2.65.2-2.65 1.53v.9c-.16 1.3.24 1.6 2.5 1.88zm58.8 9c0 2.72-.88 3.17-6.17 3.17h-17.1c-5.3 0-6.18-.45-6.18-3.17v-13c0-2.85.8-3.26 6.18-3.26h17.1c5.45 0 6.17.4 6.17 3.26zm23.27-21.28h-2c-3.6 0-4.17.33-4.17 2.2V157c0 1.3.24 1.52 2.24 1.52 2.57 0 3.6.5 3.6 1.53s-1 1.48-3.37 1.52-2.56.2-2.56 1.53v.9c0 1.32.32 1.6 2.56 1.9s2.73.66 2.73 2.3v6.3c0 2.88-1 3.5-5.38 3.5-5.05 0-5.77-.45-5.77-3.5v-11.16a2.43 2.43 0 0 1-.08-.7c0-.74-.4-.94-1.77-1h-1c-1.93-.08-3.05-.62-3.05-1.48 0-1 1.12-1.53 3.45-1.53s2.5-.25 2.5-2.18v-2.6c0-2.9.8-3.3 6.26-3.3h5.85c3.78 0 5 .37 5 1.53s-1.26 1.45-5.04 1.45zm65 10.76v.9c-.16 1.1-.9 1.7-2.73 2.1l-1 .2c-1.76.37-2.16.82-2.16 2.68v4c0 3.18-1.2 3.75-7.87 3.75h-11.6c-7.38 0-8.67-.57-8.67-3.9v-4.54c0-1.36-.56-1.73-3.13-2.27-2.32-.5-2.72-.9-2.72-3.3v-9.36c0-3.38 1.12-4.12 6.58-4.12 5 0 6.1.78 6.1 4.17v16.57c0 2.8.8 3.34 5 3.34h4c4.58 0 5.54-.5 5.54-2.76v-4.95c0-2.1.4-2.52 2.65-3 2.72-.5 3.2-1 3.2-3.46v-7.6c0-1.73 1-2.43 3.45-2.43 2.24 0 3.37.74 3.37 2.22zm37.3 10.52c0 2.72-.9 3.17-6.18 3.17h-17.1c-5.3 0-6.18-.45-6.18-3.17v-13c0-2.85.8-3.26 6.18-3.26H398c5.45 0 6.18.4 6.18 3.26zm19.65-9c2.25.33 2.65.66 2.65 2.3v6.3c0 2.88-1 3.5-5.37 3.5-5.06 0-5.78-.45-5.78-3.5v-11.1a2.43 2.43 0 0 1-.08-.7c0-.74-.4-.94-1.77-1h-1c-1.93-.08-3.05-.62-3.05-1.48 0-1 1.12-1.53 3.45-1.53s2.5-.25 2.5-2.18v-2.27c0-1.94.72-2.56 3-2.56s3 .58 3 2.52V157c0 1.3.24 1.48 2.24 1.52 2.57 0 3.7.5 3.7 1.53s-1.12 1.48-3.37 1.52-2.64.2-2.64 1.53v.9c-.1 1.3.3 1.6 2.54 1.88zm40.2.2c0 2.68-.88 3.17-6.17 3.17h-7.95c-3.6 0-4.25.33-4.25 2.2v1.32c0 2 .48 2.18 4.33 2.18h4.74c2.4 0 3.2-.33 3.37-1.32l.16-.7c.16-.9 1.12-1.4 2.8-1.4 2.08 0 3 .66 3 2.14v1.16c0 2.72-.88 3.17-6.17 3.17h-17.1c-5.3 0-6.17-.45-6.17-3.17v-13c0-2.85.8-3.26 6.17-3.26h17.1c5.45 0 6.17.4 6.17 3.26zm37-3.38c0 1.4-.88 2-3 2s-2.73-.45-3-1.6-.8-1.5-4-1.5h-9.46c-3.78 0-4.26.3-4.26 2.2v.33c0 1.9.57 2.18 4.26 2.18h13.24c5.37 0 6.17.4 6.17 3.26v5.28c0 2.72-1 3.17-6.25 3.17h-17c-5.3 0-6.25-.45-6.25-3.17v-1.36c0-1.86.72-2.48 2.88-2.48s2.73.5 2.9 2c.16 1.74.73 2 4 2h4.25c3.7 0 4.25-.28 4.25-2.18v-1.36c0-1.9-.48-2.15-4.25-2.15h-7.87c-5.3 0-6.25-.5-6.25-3.2v-4.3c0-2.85.8-3.26 6.17-3.26h17.26c5.37 0 6.17.4 6.17 3.26zm8.9-9.5c0-2.1 1-2.84 3.45-2.84 2.65 0 3.37.62 3.37 2.88v5c0 2.27.32 2.56 3 3.13 2.33.5 2.65.83 2.65 2.93v3.92c0 2.47-1.53 3.34-6.1 3.34-5.06 0-6.42-.83-6.42-3.92zm6.73 24.83c-5.62 0-6.5-.37-6.5-2.64 0-2 1.12-2.4 6.18-2.4 5.22 0 6.34.4 6.34 2.48s-1.04 2.55-6.02 2.55zm-364.42-18.9c-2.8-.5-3.13-.75-3.2-2.6-.08-2.1-.88-2.47-6.18-2.47h-9.8c-5.2 0-6 .45-6 3.42v13.32c0 3.38.65 3.8 5.78 3.8h15.9c5.38 0 6.26-.45 6.26-3.34v-8.9c.01-2.43-.34-2.8-2.75-3.2z"/></svg>