<svg xmlns="http://www.w3.org/2000/svg" xmlns:xlink="http://www.w3.org/1999/xlink" viewBox="0 0 1334 1334" xmlns:v="https://vecta.io/nano"><style><![CDATA[.A{isolation:isolate}.C{mix-blend-mode:multiply}]]></style><defs><linearGradient id="A" x1="669.84" y1="340.91" x2="669.84" y2="1225.53" gradientUnits="userSpaceOnUse"><stop offset=".53" stop-color="#fff"/><stop offset=".54" stop-color="#f8f8f8"/><stop offset=".77" stop-color="#a7a7a7"/><stop offset=".92" stop-color="#747474"/><stop offset="1" stop-color="#606060"/></linearGradient><linearGradient id="B" x1="1070.92" y1="1062.34" x2="1070.92" y2="1065.39" xlink:href="#A" /></defs><g class="A"><g><g fill="#dd2a5e"><path d="M1070.43 1062.3c-10.63-20.16-107.93-107.52-111.33-112.55-4.44-6.57 2.28 96.28-2.16 95-2.8-.8-25.4-18.08-25.4-18.08-1.93 4.82-63-40.8-62.58-36.43l16.17 141.75c-.65 0-.6 10.5-1.2 10.5-8.82-.53-92.9-93.85-97.7-97.24-10.26-7.22 4.5 104.4 4.5 104.4l3.77 27c1.5 12.67-95.46-107.57-96.7-100.6-3.18 17.7-49.77 149.37-49.77 149.37 2.1-30.64-44.1-139.08-44.1-139.08-3.32-8.5-11.74-22.4-14.35-16.72-6.55 14.24-54.1 72.77-66.63 83.86-2.5-4.68-30.64-54-30.64-54-6.88-9.5-16.56-34.4-20.64-37.87-16.5-14.08-56.3 27.1-56.3 27.1-13.23 7.66-52.45 88.18-52.45 88.18-11.72-28.8 11.4-225.9 14-235.28 1.13-4-7.14 11-7.14 11-8.63 3.27-56.73 96.4-58.6 104.6-.84 3.7 1.1-12.77 1.1-12.77-4.72-11.8 10.54-141.43 12.1-150.8.74-4.46-10.3 11.76-10.3 11.76-7.66 7.3-46 81.2-46 81.2 7.67-58.47 31.2-125.72 42.83-156.14-12.1-25.64-18.34-57.68-16.8-95 2.15-51.34 19-112.75 55.72-181.43q8.34-15.6 18.05-31.7.63-1.05 1.3-2.1a382.32 382.32 0 0 1 55.43-70.72 366.29 366.29 0 0 1 81.89-61.76h0A380.52 380.52 0 0 1 547.75 368c65.6-26.74 118.13-27.16 118.13-27.16s189.18 1.53 298 181.46c62.23 102.94 78.75 217.78 68.4 281.67 15.88 42.8 39.68 45.34 37.7 52.62 7.63 16.74-14.4 12.92-14.4 12.92-6.53-.9-30.9-12.3-35.28-16.16-3-2.66 1.27 4.08-.53 1.7-.46.88.9 4.38.4 5.2 2.38 11.72 14.45 41.26 14.45 41.26-.7-5.7 30.93 144.37 35.8 160.77z"/><path d="M1070.43 1062.3a5.67 5.67 0 0 1 .92 3l-.92-3z"/></g><g class="C" opacity=".55"><path d="M1070.45 1062.33C1059.8 1042.18 962.5 954.8 959.1 949.78c-4.43-6.57 2.3 96.28-2.15 95-2.8-.8-25.4-18.08-25.4-18.08-1.93 4.82-63-40.8-62.58-36.43l16.16 141.75c-.65 0-.58 10.5-1.2 10.5-8.8-.53-92.88-93.85-97.7-97.24-10.26-7.22 4.48 104.4 4.48 104.4l3.77 27c1.5 12.67-95.45-107.57-96.7-100.6-3.18 17.7-49.77 149.37-49.77 149.37 2.1-30.64-44.1-139.08-44.1-139.08-3.32-8.5-11.74-22.4-14.35-16.72-6.55 14.24-54.1 72.77-66.63 83.86-2.5-4.68-30.65-54-30.65-54-6.88-9.5-16.56-34.4-20.64-37.87-16.5-14.08-56.28 27.1-56.28 27.1-13.23 7.66-52.46 88.18-52.46 88.18-11.7-28.8 11.4-225.9 14.05-235.28 1.12-4-7.14 11-7.14 11-8.64 3.27-56.73 96.4-58.6 104.6-.84 3.7 1.1-12.77 1.1-12.77-4.7-11.8 10.54-141.43 12.1-150.8.75-4.46-10.28 11.76-10.28 11.76-7.66 7.3-46 81.2-46 81.2C275.8 928.2 299.32 861 311 830.54c-12.12-25.7-18.37-57.8-16.78-95.28 2.18-51 18.9-112 55.12-180.1q8.58-16.12 18.64-32.8l1.2-2A382.86 382.86 0 0 1 425 449.21a365.43 365.43 0 0 1 56-45.87 372.8 372.8 0 0 1 25.67-15.62 380.38 380.38 0 0 1 41.63-19.88c65.36-26.5 117.6-26.93 117.6-26.93s30.6.25 74.3 12.26a390.67 390.67 0 0 1 40.25 13.45 375.49 375.49 0 0 1 83.23 45.69A364.07 364.07 0 0 1 908 450.4a383.68 383.68 0 0 1 55.87 72c62.23 102.94 78.72 217.74 68.37 281.63q1.63 4.4 3.35 8.6c15.54 38.1 36.2 37.27 34.37 44 7.63 16.74-14.4 12.92-14.4 12.92-6.53-.9-30.9-12.3-35.3-16.16-3-2.66 1.28 4.08-.52 1.7-.46.88.9 4.38.4 5.2 2.4 11.72 14.44 41.22 14.44 41.22-.68-5.7 30.98 144.4 35.85 160.8z" fill="url(#A)"/><path d="M1070.45 1062.34a5.67 5.67 0 0 1 .92 3.05l-.92-3.05z" fill="url(#B)"/></g><path d="M547.75 368a380.52 380.52 0 0 0-41.21 19.71s-75.8-123.55-170.42-25.7a64.58 64.58 0 0 0 3.82 20.1 3 3 0 0 1-3 4c-4.45-.3-10.9-1.26-14.35-4.2a37.21 37.21 0 0 0-3.15 17.08 108.86 108.86 0 0 0-30.91-2.97c-6.1.4-11.82 1-17.2 1.8l2.76-17.55c5.57-37.37 23.06-68.4 48.5-69.94S317 309.5 317 292s46.92-11.13 59.65-8.74S356 257.8 356 257.8c44.54-13 80.2-6.5 108.13 8.52 51.92 27.9 77.22 85.25 83.53 101.48z" fill="#e5557f"/><path d="M506.54 387.74h0l-.26.25a372.8 372.8 0 0 0-25.67 15.62 365.43 365.43 0 0 0-56 45.87c-37.22-24.54-73.68-43.42-105.15-50.56a37.21 37.21 0 0 1 3.15-17.08c3.44 2.95 9.9 3.9 14.35 4.2a3 3 0 0 0 3-4 64.58 64.58 0 0 1-3.82-20.1c94.6-97.8 170.4 25.8 170.4 25.8z" fill="#f8d4df"/><path d="M1052 380.26c-5.57-37.37-23.06-68.4-48.5-69.94s5.56-.83 5.56-18.33-46.9-11.13-59.64-8.74 20.68-25.45 20.68-25.45c-31.7-9.26-58.75-8.92-81.66-2.82-77.7 20.68-107.57 107.7-108.78 111.33a392 392 0 0 0-40.13-13.18c-41.72-11.25-71.08-11.73-72.38-11.75l.08 462.65h364.63q2.38-8.75 4-18.18a237.14 237.14 0 0 0 2.89-50.44c-2.58-59-24.6-131.27-73.74-212.54l-1.34-2.18a382 382 0 0 0-55.58-70.84c34.56-22.83 68.5-40.8 98.4-49.05 13.68-3.8 26.52-5.53 38.2-4.77a206.26 206.26 0 0 1 9.9.87c-.83-6.14-1.8-11.7-2.56-16.64z" fill="#565656"/><g fill="#7f7f7f"><path d="M1006.55 400.77c-29.9 8.25-63.83 26.22-98.4 49.05a366.68 366.68 0 0 0-86.64-64.26c5.86-9.2 77.8-117.3 168.47-23.6a64.42 64.42 0 0 1-3.83 20.1 3 3 0 0 0 3 4c4.44-.3 10.9-1.26 14.35-4.2a37.76 37.76 0 0 1 3.04 18.91zM974.42 804H666.2V365.7s278.7-20.23 334.8 378.6h-59.2s27.3 46.7 32.62 59.7z"/></g><path d="M909.54 804H666.67l-.14-438.27s-278.7-20.25-334.8 378.58h59.2s-27.5 47.55-32.08 59.7h64.8s-39 36.9-29.6 41.57 53-7.8 74.78-14c0 0 10.9 23.37-14 48.3 0 0-4.7 12.46 25.7 0 9.66-4 18.56-5.24 26.6-4.45V888a105.26 105.26 0 0 0 105.24 105.25h109.88A105.26 105.26 0 0 0 827.53 888v-12.7c7.66-.5 16.07.83 25.15 4.56 30.38 12.46 25.7 0 25.7 0-24.93-24.93-14-48.3-14-48.3 21.82 6.24 65.44 18.7 74.8 14S909.54 804 909.54 804z" fill="#f8d4df"/><path d="M1044.2 497.28s91.27-30.35 137.44 60.7c-.9-.32-47.57-17.22-82.67 3.88 0 0 55.84 26.48-2.15 58.76 0 0 31.14 14.86 34.36 36.8 0 0-47.24-10.33-83.75 4.52 0 0 46.17 17.43 50.47 40 0 0-30.07-5.8-50.47 0 0 0 11.8 21.3 6.44 37.46 0 0-6.17-2-15.06-4-10-2.3-23.46-4.7-35.4-4.35 0 0 9.66 18.73-4.3 31.64 0 0-12.88-11-49.4-10.33 0 0 33.3 18.73 24.7 51.66 0 0-35.64-71.68-190.06-71.68h-117.7v-72l.6-.64c8.77-9.3 112.27-118.43 217-193.38q5.25-3.76 10.5-7.4 6.7-4.65 13.37-9.06c34.56-22.83 68.5-40.8 98.4-49.05 13.68-3.8 26.52-5.53 38.2-4.77a206.26 206.26 0 0 1 9.9.87c112.1 12.4 85.84 102.76 163.77 90.28 0 0-16.34 40.48-80.77 9.5s-93.4.6-93.4.6z" fill="#c6c6c6"/><circle cx="821.13" cy="445.32" r="11.4" fill="#1e1e1e"/><g fill="#7f7f7f"><path d="M827.636 450.46l-2.866 2.324-10.126-12.49 2.866-2.324z"/><path d="M826.26 438.814l2.324 2.866-12.49 10.126-2.324-2.866z"/></g><circle cx="1007.49" cy="777.74" r="11.4" fill="#1e1e1e"/><g fill="#7f7f7f"><path d="M1015.687 777.363l-.687 3.625-15.8-2.994.687-3.625z"/><path d="M1007.113 769.543l3.625.687-2.994 15.8-3.625-.687z"/></g><circle cx="691.08" cy="513.59" r="11.4" fill="#1e1e1e"/><g fill="#7f7f7f"><path d="M698.966 511.02l.34 3.674-16.012 1.477-.34-3.674z"/><path d="M688.54 505.744l3.674-.34 1.477 16.012-3.674.34z"/></g><path d="M449.94 357.7a64.67 64.67 0 0 0-17.22-14.51c-11.5-6.75-24.8-4.35-36.55.7-16.94 7.3-28.3 22-28.4 40.8.7 20.92 19.05 39.58 39.15 43.58 11.15 2.22 22.8.3 31.57-7.24s14.8-19.4 17.44-30.4c2.7-11.2 1.43-23.73-6-32.92zm-73.16 27c.07-13.23 6.9-23.86 18.33-30.3l.23-.12 10.6 29.12c-1.7 10.67-5.54 21.06-9.85 31-10.72-6.4-18.9-17.5-19.32-29.73zm63.78 19.52c-5.15 8.73-12.4 15.36-23 15.92a35.46 35.46 0 0 1-13.37-2c4.26-9.77 8.14-19.93 10.07-30.4a107.93 107.93 0 0 1 30.64 7.76 69.32 69.32 0 0 1-4.34 8.7zm7-17.25a120.55 120.55 0 0 0-33.77-8.25l-10.27-28.16c5.84-2.12 12.25-3.36 17.73-2.5 6 .95 12.2 6.2 16.73 10.32 5.13 4.65 8.8 9.6 10 16.73a32.79 32.79 0 0 1-.4 11.88z" fill="#de2a5f"/><path d="M666.62 660.3v72h-117.7c-154.43.03-190.07 71.7-190.07 71.7-8.6-32.93 24.7-51.66 24.7-51.66-36.5-.7-49.4 10.33-49.4 10.33-14-12.9-4.3-31.64-4.3-31.64-12.07-.34-25.68 2.1-35.72 4.42l-.37.1c-8.52 2-14.38 3.9-14.38 3.9-5.4-16.15 6.44-37.43 6.44-37.43-20.4-5.8-50.47 0-50.47 0 4.3-22.6 50.47-40 50.47-40-36.5-14.85-83.76-4.52-83.76-4.52 3.22-21.95 34.36-36.8 34.36-36.8-58-32.28-2.14-58.76-2.14-58.76-35.1-21.1-81.77-4.2-82.68-3.88 42.8-84.4 124.4-64.47 136-61.12l1.38.42a23.9 23.9 0 0 0-2.46-2.22h0c-8.26-6.63-37.33-24.2-90.93 1.6-64.43 31-80.78-9.5-80.78-9.5 76.2 12.2 52.8-73.9 156.47-89.34 5.38-.8 11.1-1.4 17.2-1.8a108.86 108.86 0 0 1 30.92 2.93c31.47 7.14 67.93 26 105.15 50.56h0q5.26 3.48 10.53 7.08 6.1 4.17 12.2 8.52c110.14 78.3 219.33 195.13 219.33 195.13z" fill="#eb7f9f"/><path d="M779.63 250.6l7.48-125.8-101 81.32-16.6-73.67-40.5 93.2-92.37-130.58 7.88 158.78-104.3-57.7 23.92 70.2c39.92 21.46 64.1 60.3 76 84.5-8.58 104.12 55.52 144.24 34.4 115.27C553 436.6 596 367.62 596 367.62c27.5 44.48 0 128 0 128 37.54-33.1 55.3-73.6 63.7-105.7 8.88 17.08 25.25 40.88 51.93 54.46 0 0-11.77-55-1.55-98.07 8.86 1.7 18.75 3.92 29.42 6.86a392 392 0 0 1 40.13 13.18c1.2-3.63 31.1-90.65 108.78-111.33l3.16-67.3z" fill="#de2a5f"/><path d="M608.3 582.68s29.5 85.66 27.8 109.17c-5 70.55-79.37 24.54-98 13.2-6.23-3.78-83.25-15.38-100-5.5 0 0 34.84-17.95 48.94-21.73a1.46 1.46 0 0 0 .16-2.77c-3.68-1.53-90.6-15.9-105.66-1.23 0 0 51.4-25.65 62.65-27.9a.77.77 0 0 0 .05-1.5c-2.75-.8-77-35.82-86.1-28.34l108.25-23.78a.56.56 0 0 0 0-1.12c-4.24-.37-48.27-19.92-54-18.75 0 0 103.88 3.8 130.27 22.6a1.76 1.76 0 0 0 2.81-1.33c0-1.44-16.7-27.75-24.13-34.47 0 0 75.55 58.65 87.34 83.9a1.32 1.32 0 0 0 2.48-.2c.43-1.94.4-51.06-2.86-60.26z" fill="#dd2a5e"/><path d="M734.4 582.68s-29.5 85.66-27.8 109.17c5 70.55 79.37 24.54 98 13.2 6.23-3.78 83.25-15.38 100-5.5 0 0-34.84-17.95-48.94-21.73a1.46 1.46 0 0 1-.16-2.77c3.68-1.53 90.6-15.9 105.66-1.23 0 0-51.4-25.65-62.65-27.9a.77.77 0 0 1 0-1.5c2.75-.8 77-35.82 86.1-28.34L876.36 592.3a.56.56 0 0 1 0-1.12c4.24-.37 48.27-19.92 54-18.75 0 0-103.88 3.8-130.27 22.6a1.76 1.76 0 0 1-2.81-1.33c0-1.44 16.7-27.75 24.13-34.47 0 0-75.55 58.65-87.34 83.9a1.32 1.32 0 0 1-2.48-.2c-.48-1.94-.46-51.06 2.8-60.26z" fill="#565656"/><path d="M577.32 665.2a101.8 101.8 0 0 0-15.51-7.68c-6.4-2.65-22.34-8.08-23.35-6.76-4.67 6.08-4.58 14.24-2.9 21.4a26.53 26.53 0 0 0 17.66 19.1 29 29 0 0 0 21.4-.89 27.91 27.91 0 0 0 14.51-15.76c0-1.8-10.43-8.54-11.8-9.4zm-13.9 11.5A12 12 0 0 1 551 665.13a7.3 7.3 0 0 1 3.46-6.6c1.67-.06 19.54 8.47 19.54 10.17a11.47 11.47 0 0 1-10.57 8z" fill="#f8d4df"/><g fill="#565656"><path d="M786.54 901.62v12.86a53.84 53.84 0 0 1-3.77 19.85c-4.78-6.57-7-18.55-14.94-18.55-11 0-11 22.75-22 22.75s-11-22.75-22-22.75-11 22.75-22 22.75-11-22.75-22-22.75-11 22.75-22 22.75-11-22.75-22-22.75-11 22.75-22 22.75-11-22.75-22-22.75-11 22.75-22 22.75-11-22.74-22-22.75v-14.16a53.6 53.6 0 0 1 4.06-20.55c4.6 6.65 6.86 18.14 14.66 18.14 11 0 11-22.75 22-22.75s11 22.75 22 22.75 11-22.75 22-22.75 11 22.75 22 22.75 11-22.75 22-22.75 11 22.75 22 22.75 11-22.75 22-22.75 11 22.75 22 22.75 11-22.75 22-22.75 11 22.67 21.9 22.75c.06.8.08 1.6.08 2.4z"/><path d="M601.1 846.58H732a53.93 53.93 0 0 1 53.93 53.93v14a53.93 53.93 0 0 1-53.93 53.9H602.1a53.93 53.93 0 0 1-53.93-53.93v-15a52.93 52.93 0 0 1 52.93-52.9z"/></g><path d="M736.93,958.33c0-21.3-32-38.57-71.46-38.57S594,937,594,958.33v6.1H736.93Z" fill="#dd2a5e"/><path d="M786.48 899.2c-10.93-.08-11-22.75-21.9-22.75s-11 22.75-22 22.75-11-22.75-22-22.75-11 22.75-22 22.75-11-22.75-22-22.75-11 22.75-22 22.75-11-22.75-22-22.75-11 22.75-22 22.75-11-22.75-22-22.75-11 22.75-22 22.75c-5 0-7.75-4.77-10.28-10a7.94 7.94 0 0 0 1.95-5.24c0-12.38 4.9-28.86 47.28-29h1.73c35-.07 46.77-14.6 54.53-24.2 1.2-1.46 2.3-2.85 3.32-3.92a10.86 10.86 0 0 0 1.64-2.32 10.86 10.86 0 0 0 1.64 2.32c1 1.07 2.13 2.46 3.32 3.92 7.76 9.6 19.5 24.13 54.54 24.2h1.73c20.3.1 47.27 3.2 47.27 29a8 8 0 0 0 8 8 8.49 8.49 0 0 0 2.09-.27 53.71 53.71 0 0 1 1.15 7.51z" fill="#fff"/><path d="M791.54 884a8 8 0 0 1-5.91 7.73 8.49 8.49 0 0 1-2.09.27 8 8 0 0 1-8-8c0-25.85-27-28.95-47.27-29h-1.73c-35-.07-46.78-14.6-54.54-24.2-1.2-1.46-2.3-2.85-3.32-3.92a10.86 10.86 0 0 1-1.64-2.32 10.86 10.86 0 0 1-1.64 2.32c-1 1.07-2.13 2.46-3.32 3.92-7.76 9.6-19.5 24.13-54.53 24.2h-1.73c-42.38.18-47.28 16.66-47.28 29a8 8 0 0 1-16 0c0-20.43 11-44.82 63.2-45h1.77c27.4-.06 35.22-9.73 42.12-18.26 1.2-1.47 2.32-2.87 3.53-4.2 0-.08.07-.16.1-.25a15 15 0 0 1 2.29-3.85c1.66-2.46 3.47-13.7 3.47-21.58a8 8 0 0 1 16 0c0 7.88 1.8 19.12 3.47 21.58a14.51 14.51 0 0 1 2.29 3.85l.12.25c1.2 1.33 2.33 2.73 3.52 4.2 6.9 8.53 14.7 18.2 42.13 18.26h1.77c52.24.2 63.2 24.6 63.2 45z" fill="#de2a5f"/><path d="M782.77 934.33a54 54 0 0 1-50.16 34.08H602.1a53.93 53.93 0 0 1-53.92-52.63c11 0 11 22.75 22 22.75s11-22.75 22-22.75 11 22.75 22 22.75 11-22.75 22-22.75 11 22.75 22 22.75 11-22.75 22-22.75 11 22.75 22 22.75 11-22.75 22-22.75 11 22.75 22 22.75 11-22.75 22-22.75c7.63 0 9.83 11.98 14.6 18.55z" fill="#fff"/><path d="M747.93 738.42c-23.8-40-56.95-54.32-72.74-59.1a31.21 31.21 0 0 0-18.11 0c-15.8 4.77-48.94 19.1-72.74 59.1-32.3 54.24 28 70.44 44.48 72.55s23.68 3.52 37.3 3.52 20.8-1.4 37.3-3.52 76.78-18.3 44.5-72.55z" fill="#3f3f3f"/><g fill="#1e1e1e"><path d="M782.3 669.75h0c-3.85 1.85-8 1.37-9.4-1.07L767 657.8c-1.33-2.44.7-5.92 4.57-7.76h0c3.85-1.85 8.05-1.37 9.4 1.07l6 10.88c1.23 2.44-.8 5.92-4.67 7.76zm14.6 26.7h0c-3.85 1.85-8 1.37-9.4-1.07l-6-10.9c-1.33-2.44.7-5.9 4.57-7.76h0c3.85-1.84 8-1.37 9.4 1.07l6 10.9c1.33 2.44-.7 5.9-4.57 7.76zm-7.17-25.86h0c-1.34-2.44.7-5.9 4.56-7.76l17.2-8.25c3.85-1.84 8.06-1.36 9.4 1.08h0c1.33 2.43-.7 5.9-4.56 7.75l-17.2 8.25c-3.86 1.85-8.06 1.33-9.4-1.07zm-42.2 20.23h0c-1.33-2.44.7-5.9 4.56-7.76l17.2-8.25c3.86-1.84 8.06-1.36 9.4 1.07h0c1.34 2.44-.7 5.92-4.56 7.76l-17.2 8.25c-3.85 1.85-8.06 1.37-9.4-1.07z"/></g><path d="M804.23 650.75c-1-1.32-22.7 7.08-24.38 7.73-1.9.72-12.86 5.75-14.48 6.7-1.4.83-11.8 7.6-11.8 9.4a27.91 27.91 0 0 0 14.51 15.76 29 29 0 0 0 21.4.89 26.53 26.53 0 0 0 17.66-19.1c1.67-7.15 1.76-15.32-2.9-21.4z" fill="#dd2a5e"/></g></g></svg>