<svg xmlns="http://www.w3.org/2000/svg" viewBox="0 0 1334 1334" xmlns:v="https://vecta.io/nano"><style><![CDATA[.A{isolation:isolate}.C{mix-blend-mode:multiply}]]></style><defs><linearGradient id="A" x1="680.08" y1="250.81" x2="680.08" y2="1181.36" gradientUnits="userSpaceOnUse"><stop offset=".53" stop-color="#fff"/><stop offset=".54" stop-color="#f8f8f8"/><stop offset=".77" stop-color="#a7a7a7"/><stop offset=".92" stop-color="#747474"/><stop offset="1" stop-color="#606060"/></linearGradient></defs><g class="A"><g><path d="M1088.27 885.38c-32-4.46-56.42-29.25-70-46.74q-2.43 4.47-5.1 8.65a227.84 227.84 0 0 1 3.22 62.07c-2.58-22.37-8.7-36.94-15-46.34a116.15 116.15 0 0 1-15.94 15c10.55 185.07-60 233.94-60 233.94 14.62-102.35-76.1-108.62-76.1-108.62-20.9 52.22 4.8 108.35 4.8 108.35-68.4-1.62-85.12-48.8-89.16-69.5 17.1 136.7-36.8 139.16-36.8 139.16 6.27-91.9-64.75-132-64.75-132-2.1 100.26-56.85 111.15-56.85 111.15 0-81.47-47.6-113.24-47.6-113.24-33.42 29.24-10.88 96.53-10.88 96.53C458.23 1114.5 435.7 1018 435.7 1018c-39.7 23-61.5 94-61.5 94-50.13-123.24-9.53-192.6-9.53-192.6-37.6 14.2-53 94.42-53 94.42-20.9-52.22 5-134.73 5-134.73-23 21.94-31.16 60.7-31.16 60.7-6.1-50.44 13.4-93.68 24.32-113.25-10.78-25.12-16.18-56-14.5-91.6 9.9-2.24 22.94-4.48 34.55-4.15 0 0-9.67 18.73 4.3 31.64 0 0 12.9-11 49.4-10.33 0 0-33.3 18.73-24.7 51.66 0 0 35.64-71.68 190.07-71.68H666.6V573s-98.07-71.4-202-123.65q-6.4-3.2-12.82-6.33-6.1-3-12.18-5.78a365.1 365.1 0 0 1 44.23-34.17 351.85 351.85 0 0 1 24-14.49C499.3 375.73 425.13 270 336.12 362a64.42 64.42 0 0 0 3.83 20.1 3 3 0 0 1-3 4c-4.44-.3-10.9-1.26-14.35-4.2a36.64 36.64 0 0 0-3.18 15.35 153.33 153.33 0 0 0-30.9-1.45q-9.12.6-17.16 1.8l2.73-17.3c5.57-37.37 23.06-68.4 48.5-69.94S317 309.5 317 292s46.9-11.13 59.64-8.74S356 257.8 356 257.8c52.36-15.3 92.43-3.63 122.13 17.15 44 30.8 65.3 81.63 70.08 94.3 65.9-27 118.75-27.4 118.75-27.4s50 .4 113.34 25.23A376.72 376.72 0 0 1 863.05 412c36.3 26.15 72.1 62 101.86 111.3q8.94 14.8 16.7 29.17c56.5 104.64 67.1 192.57 49.62 254 22.9 48.62 57.05 78.92 57.05 78.92z" fill="#bb51bf"/><path class="C" d="M1031.5 806.45c17.48-61.4 6.9-149.34-49.62-254q-7.75-14.37-16.7-29.17C935.4 474.05 899.6 438.16 863.32 412a376.72 376.72 0 0 0-82.75-44.94c-63.36-24.83-113.34-25.23-113.34-25.23s-52.85.42-118.75 27.4c-4.77-12.66-26-63.48-70.08-94.3-29.7-20.78-69.77-32.45-122.13-17.15 0 0 33.4 27.83 20.68 25.45s-59.64-8.75-59.64 8.74 31 16.77 5.56 18.33-42.94 32.57-48.5 69.94l-2.73 17.3q8.06-1.2 17.16-1.8a153.33 153.33 0 0 1 30.9 1.45 36.64 36.64 0 0 1 3.18-15.35c3.44 2.95 9.9 3.9 14.35 4.2a3 3 0 0 0 3-4 64.42 64.42 0 0 1-3.83-20.1c89-92 163.17 13.76 171.66 26.65-7.94 4.4-15.95 9.22-24 14.5a365.1 365.1 0 0 0-44.23 34.17q6.18 2.84 12.18 5.8 5.63 2.73 11.24 5.54C405.8 503.4 353.13 594.15 332 744.3h59.2l-32.14 59.26c-8.4-32.82 24.75-51.48 24.75-51.48-36.5-.7-49.4 10.33-49.4 10.33-14-12.9-4.3-31.64-4.3-31.64-11.6-.33-24.64 1.9-34.55 4.15-1.7 35.63 3.7 66.48 14.5 91.6-10.9 19.57-30.43 62.8-24.32 113.25 0 0 8.18-38.77 31.16-60.7 0 0-25.9 82.5-5 134.73 0 0 15.44-80.22 53-94.42 0 0-40.6 69.36 9.53 192.6 0 0 21.8-71 61.5-94 0 0 22.53 96.53 112.36 125.78 0 0-22.54-67.3 10.88-96.53 0 0 47.6 31.77 47.6 113.24 0 0 54.76-10.9 56.85-111.15 0 0 71 40.13 64.75 132 0 0 53.9-2.45 36.8-139.16 4 20.7 20.76 67.9 89.16 69.5 0 0-25.7-56.13-4.8-108.35 0 0 90.73 6.27 76.1 108.62 0 0 70.6-48.87 60-233.94a116.15 116.15 0 0 0 15.94-15c6.3 9.4 12.44 24 15 46.34a227.84 227.84 0 0 0-3.22-62.07q2.67-4.18 5.1-8.65c13.57 17.5 38 42.28 70 46.74.1.02-34.05-30.28-56.95-78.9zm-364.6-197.38V573z" opacity=".55" fill="url(#A)"/><path d="M507.78 388.62c-7.94 4.4-15.95 9.22-24 14.5a365.1 365.1 0 0 0-44.23 34.17c-42.36-19.75-84.48-35.13-120.17-40.08a36.64 36.64 0 0 1 3.18-15.35c3.44 2.95 9.9 3.9 14.35 4.2a3 3 0 0 0 3-4 64.42 64.42 0 0 1-3.83-20.1c89.05-91.96 163.2 13.77 171.7 26.66z" fill="#ffe2f4"/><path d="M1006.67 398.56c-33.8 5.8-72.77 20.22-112 38.42a367.41 367.41 0 0 0-73.15-51.42c5.86-9.2 77.8-117.3 168.47-23.6a64.58 64.58 0 0 1-3.82 20.1 3 3 0 0 0 3 4c4.45-.3 10.9-1.26 14.35-4.2a37 37 0 0 1 3.15 16.7z" fill="#7f7f7f"/><path d="M1044.7 396q5.15.33 9.94.87l-2.62-16.6c-5.57-37.37-23.06-68.4-48.5-69.94s5.57-.83 5.57-18.33-46.92-11.13-59.64-8.74 20.67-25.45 20.67-25.45c-37.6-11-68.66-8.47-94 1.15-68.48 26-95.24 103.8-96.44 107.35-61.9-24.1-110.82-24.9-112.5-24.92v24.35l.07 206.85V804H1032c5.5-20.18 8-43.17 6.88-68.6-2.27-51.8-19.5-113.78-56.92-183.12q-7.8-14.5-16.83-29.43l-1.34-2.18A378.88 378.88 0 0 0 894.67 437q-4.5-4.07-9-7.9l-2.27-1.9a367.4 367.4 0 0 0-56.59-38.74c-.86-.48-1.72-1-2.58-1.42l-2.67-1.45c2.73-4.3 19.8-30 46.42-46.85 30.53-19.28 73.62-26.8 122 23.26a64.58 64.58 0 0 1-3.82 20.1 3 3 0 0 0 3 4c4.45-.3 10.9-1.26 14.35-4.2a37 37 0 0 1 3.16 16.71c13.63-2.4 26.4-3.35 38.03-2.6z" fill="#565656"/><path d="M974.37 804H666.2V365.7s278.7-20.23 334.8 378.6h-59.2s26.63 44.83 32.57 59.7z" fill="#7f7f7f"/><path d="M666.53 365.73s-278.7-20.25-334.8 378.58h59.2l-32.4 59.7h65.1s-39 36.9-29.6 41.57 53-7.8 74.78-14c0 0 10.9 23.37-14 48.3 0 0-4.7 12.46 25.7 0s53.25 1.56 66 23.37 54.7 68.68 120 68.75h0c65.43 0 107.5-47 120.2-68.76s35.58-35.83 66-23.37 25.7 0 25.7 0c-24.93-24.93-14-48.3-14-48.3 21.82 6.24 65.44 18.7 74.8 14S909.53 804 909.53 804H666.67z" fill="#ffe2f4"/><path d="M1044.17 497.28s91.26-30.35 137.44 60.7c-.9-.32-47.58-17.22-82.68 3.88 0 0 55.84 26.48-2.15 58.76 0 0 31.14 14.86 34.37 36.8 0 0-47.25-10.33-83.76 4.52 0 0 46.17 17.43 50.47 40 0 0-30.07-5.8-50.47 0 0 0 11.8 21.3 6.44 37.46 0 0-6.15-2-15-4-10-2.3-23.5-4.7-35.47-4.36 0 0 9.66 18.73-4.3 31.64 0 0-12.88-11-49.4-10.33 0 0 33.3 18.73 24.7 51.66 0 0-35.64-71.68-190.07-71.68H666.6V573l.64-.46c8.55-6.17 101.55-72.76 200.17-122.42q6.17-3.1 12.35-6.1 7.46-3.62 14.9-7.07c39.23-18.2 78.2-32.6 112-38.42 13.63-2.36 26.4-3.32 38-2.56q5.15.33 9.94.87c112 12.4 85.8 102.75 163.72 90.28 0 0-16.34 40.48-80.77 9.5s-93.4.68-93.4.68z" fill="#c6c6c6"/><circle cx="821.13" cy="445.32" r="11.4" fill="#1e1e1e"/><g fill="#7f7f7f"><path d="M827.636 450.46l-2.866 2.324-10.126-12.49 2.866-2.324z"/><path d="M826.26 438.814l2.324 2.866-12.49 10.126-2.324-2.866z"/></g><circle cx="1007.49" cy="777.74" r="11.4" fill="#1e1e1e"/><g fill="#7f7f7f"><path d="M1015.687 777.363l-.687 3.625-15.8-2.994.687-3.625z"/><path d="M1007.113 769.543l3.625.687-2.994 15.8-3.625-.687z"/></g><circle cx="691.08" cy="513.59" r="11.4" fill="#1e1e1e"/><g fill="#7f7f7f"><path d="M698.966 511.02l.34 3.674-16.012 1.477-.34-3.674z"/><path d="M688.54 505.744l3.674-.34 1.477 16.012-3.674.34z"/></g><path d="M441.63 359.46c-8.5-7.7-20.73-12.2-32-13.6-11.46-1.45-24 1.15-32.35 9.65A64 64 0 0 0 365 374.37c-5.3 12.15-1.77 24.55 4.56 35.68 9.14 16.07 25.37 26.25 44.17 23.9a5.86 5.86 0 0 0 .63-.12 5.66 5.66 0 0 0 .57 0c20.3-3.35 35.5-23.82 37.43-43.55 1.13-11.27-2.24-23.12-10.73-30.8zm1.65 22.12a36 36 0 0 1-.44 11.84c-10.24-2.95-20.86-5.43-31.5-6A110.44 110.44 0 0 1 415.1 356a63.25 63.25 0 0 1 10.74 3.93c9.33 4.34 16 11.07 17.44 21.65zm-72.17 3.55c.25-5.4 4.76-12.75 8.34-17.9 4-5.8 8.92-10 16-11.82a34.15 34.15 0 0 1 10.77-.92 118.82 118.82 0 0 0-3.81 34.52l-26.6 13.85c-2.9-5.55-4.97-11.85-4.7-17.72zM413 425c-13 1.4-24.35-3.65-32.2-14.16l-.23-.3 27.47-14.3c10.83.23 21.63 2.74 32.06 5.75-5 11.4-15 20.83-27.1 23z" fill="#aa25af"/><path d="M666.6 573v159h-117.7c-154.43 0-190.07 71.68-190.07 71.68-8.6-32.93 24.7-51.66 24.7-51.66-36.5-.7-49.4 10.33-49.4 10.33-14-12.9-4.3-31.64-4.3-31.64-11.6-.33-24.64 1.9-34.55 4.15-9.35 2.12-15.92 4.25-15.92 4.25-5.37-16.15 6.44-37.46 6.44-37.46-20.4-5.8-50.47 0-50.47 0 4.3-22.6 50.47-40 50.47-40-36.5-14.85-83.76-4.52-83.76-4.52 3.22-22 34.36-36.8 34.36-36.8-58-32.28-2.15-58.76-2.15-58.76-35.1-21.1-81.76-4.2-82.67-3.88 42.6-84 123.56-64.66 135.86-61.17l1.58.48a24.3 24.3 0 0 0-2.75-2.44c-8.6-6.78-37.62-23.73-90.67 1.8-64.43 31-80.78-9.48-80.78-9.48 76.2 12.2 52.8-73.93 156.5-89.35q8.06-1.2 17.16-1.8a153.33 153.33 0 0 1 30.9 1.45c35.7 4.95 77.8 20.33 120.17 40.08q6.1 2.82 12.18 5.78 6.42 3.1 12.82 6.33C568.54 501.63 666.6 573 666.6 573z" fill="#cc7ccf"/><g fill="#aa25af"><path d="M876.1 259c-5.38-25.55-25.7-54.85-25.7-54.85-14.47 24.6-10 33.22-41.78 42.5a103.53 103.53 0 0 0-45.57 28.22c9.4-37.62 5.75-50.24 1.48-58.83-7.52-15.1-34.47-56.4-34.47-56.4-7.07 37.56-46.6 46.46-46.6 46.46-12.3-11.57-40.13-34.72-40.13-34.72 15.9 25.82-17 60.77-17 54.25s.73-13.4-27.48-27.14-13.3-56.05-13.3-56.05c-15.9 11.58-33.74 41-33.74 41-12.48 16.92-17.37 53.8-17.37 53.8-2.17-34.73-83.4-42-83.4-42 18.8 10.13 53.74 42.68 40 59.32A106.79 106.79 0 0 0 478.13 275c31.67 22.15 51.56 54.65 62 75.87-8.58 104.12 55.52 144.24 34.4 115.27C553 436.6 596 367.62 596 367.62c27.5 44.48 0 128 0 128 37.55-33.1 55.3-73.6 63.7-105.7 8.88 17.08 25.25 40.88 51.93 54.46 0 0-11.66-54.53-1.7-97.46a388.83 388.83 0 0 1 70.33 20.19l-.67-.64v-.13c1.27-3.6 28.03-81.42 96.5-107.35zM774.63 902.36a8 8 0 0 1-16 0c0-4.24 0-14.18-50.2-14.18-20.92 0-33.83-12.26-41.2-25.85-7.36 13.67-20.3 25.94-41.22 25.94-50.2 0-50.2 9.94-50.2 14.2a8 8 0 0 1-16 0c0-8.4 3.63-19.6 20.92-25.36 10.05-3.34 24-4.83 45.3-4.83 12.08 0 21-5.77 27.2-17.65a62 62 0 0 0 6-18.46v-21.8a167.55 167.55 0 0 0 7 .14c3.34 0 6.3-.08 9.08-.24v21.8a61.79 61.79 0 0 0 6.2 18.83c6.23 11.63 15.06 17.3 27 17.3 21.28 0 35.25 1.5 45.3 4.83 17.2 5.75 20.84 17 20.84 25.35zM605 642c1.16-6 1.8-20.87-9.62-47.84 0 0 38.34 24.45 37.5 95.17s-77.77 29.23-97.08 19-52-15.2-100.48 17.37c0 0 6.34-27.7 47.87-41.5a1.47 1.47 0 0 0 0-2.79c-11.3-3.9-46.53-10.58-89.05 36 0 0 11.1-53.82 44.38-62.55a.77.77 0 0 0 0-1.5c-8.37-1.9-32.8-4.58-58.68 19.44 0 0 24-60.9 77.68-72.8a.56.56 0 0 0-.09-1.11c-12.77-.36-46.67-.83-63.62 3.7 0 0 57.6-56 140-4.38a1.76 1.76 0 0 0 2.73-1.5c-.2-4.3-4.23-14.08-27.68-32.88 0 0 53.88 4.93 93.73 78.46a1.31 1.31 0 0 0 2.4-.28z"/></g><path d="M580.7 656.22c-2.94-2.94-13-8.45-17.42-9.16s-17.65-2.2-20.38.94c-4.65 5.35-6 12.72-5.26 19.88a25.55 25.55 0 0 0 21.82 22.54 27.64 27.64 0 0 0 19.89-4.25c5.6-3.86 10.38-9.76 11-17.07.46-4.46-6.7-9.95-9.65-12.88zm-16.55 20.18a12 12 0 0 1-12-12 9.23 9.23 0 0 1 7.85-9.24c4.14 0 15.58 7.3 15.58 11.43a11.49 11.49 0 0 1-11.43 9.81z" fill="#eed3ef"/><path d="M734.92 642c-1.16-6-1.8-20.87 9.62-47.84 0 0-38.35 24.45-37.5 95.17s77.76 29.23 97.08 19 52-15.2 100.47 17.37c0 0-6.33-27.7-47.86-41.5a1.47 1.47 0 0 1 0-2.79c11.3-3.9 46.53-10.58 89 36 0 0-11.1-53.82-44.38-62.55a.77.77 0 0 1 0-1.5c8.38-1.9 32.8-4.58 58.7 19.44 0 0-24-60.9-77.7-72.8a.56.56 0 0 1 .09-1.11c12.78-.36 46.67-.83 63.63 3.7 0 0-57.6-56-140-4.38a1.76 1.76 0 0 1-2.73-1.5c.2-4.3 4.23-14.08 27.67-32.88 0 0-53.88 4.93-93.72 78.46a1.31 1.31 0 0 1-2.36-.28z" fill="#565656"/><path d="M703.44 811c-12.46 1.6-19.6 2.8-28.23 3.28-2.8.16-5.74.24-9.08.24-2.5 0-4.8 0-7-.14-9.62-.4-16.88-1.66-30.35-3.38-16.5-2.1-76.77-18.3-44.48-72.55 23.8-40 56.95-54.32 72.74-59.1a31.21 31.21 0 0 1 18.11 0c15.8 4.77 48.94 19.1 72.74 59.1 32.33 54.2-27.9 70.4-44.45 72.55z" fill="#3f3f3f"/><g fill="#1e1e1e"><rect x="761.33" y="635.96" width="14.53" height="30.12" rx="7.26" transform="matrix(.901682 -.432401 .432401 .901682 -205.93 396.33)"/><rect x="778.97" y="672.75" width="14.53" height="30.12" rx="7.26" transform="matrix(.901682 -.432401 .432401 .901682 -220.1 407.58)"/><rect x="790.48" y="643.69" width="13.49" height="32.44" rx="6.74" transform="matrix(.432401 .901682 -.901682 .432401 1047.55 -344.27)"/><rect x="750.86" y="662.69" width="13.49" height="32.44" rx="6.74" transform="matrix(.432401 .901682 -.901682 .432401 1042.19 -297.76)"/></g><path d="M797 648c-2.72-3.14-15.86-1.68-20.37-.94s-14.5 6.22-17.42 9.16-10.1 8.42-9.7 12.88c.66 7.3 5.45 13.2 11.05 17.07a27.64 27.64 0 0 0 19.89 4.25 25.55 25.55 0 0 0 21.82-22.54c.73-7.16-.6-14.53-5.27-19.88z" fill="#aa25af"/></g></g></svg>