<svg xmlns="http://www.w3.org/2000/svg" viewBox="0 0 1334 1334" xmlns:v="https://vecta.io/nano"><style><![CDATA[.A{isolation:isolate}.C{mix-blend-mode:multiply}]]></style><defs><linearGradient id="A" x1="677.68" y1="346.01" x2="677.68" y2="1208.39" gradientUnits="userSpaceOnUse"><stop offset=".53" stop-color="#fff"/><stop offset=".54" stop-color="#f8f8f8"/><stop offset=".77" stop-color="#a7a7a7"/><stop offset=".92" stop-color="#747474"/><stop offset="1" stop-color="#606060"/></linearGradient></defs><g class="A"><g><path d="M1074.23 877.43c-13-1.82-33.6-12.7-42.4-20.44-6-5.3-7.53-6.22-11.13-11-.93 1.75-1 4.78-2 6.44 4.77 23.44-.34 38.54-3.92 41.43 7.24 124.4-15.6 194.74-15.6 194.74 3.25-22.78-55.14-83.94-62.38-94.67-8.86-13.13-15.4 34-24.27 31.46-5.6-1.57-19.82-10.43-19.82-10.43-3.85 9.64-35-6-34.06 2.73 2.4 22.84 20.26 101.1 20.26 101.1-1.3 0-2.22 5.2-3.48 5.12-17.62-1.06-69.46-51.72-79.1-58.5-20.53-14.44-16.86 25.65-16.86 25.65l2.7 19.73c3 25.34-46-20.67-48.47-6.72-6.36 35.4-43.34 104.28-43.34 104.28 4.18-61.27-54.42-140.56-54.42-140.56-.4 19.06-9 14.16-14.24 25.52-13.1 28.48-44.62 55.83-44.62 55.83 0-31.94-21.7-26.85-28.85-40.2-5-9.36-10.65-21.32-10.65-21.32-22.3 19.5-20.12 39-20.12 39-11.88-3.86-24.58-24.5-32.73-31.47-33-28.15-56.9-41.8-56.9-41.8-26.46 15.32-55.47 91.1-55.47 91.1-23.43-57.6-7.88-186.1-2.6-204.84 2.25-8-.2-3.6-.2-3.6-17.27 6.52-47.83 73.66-51.55 90.08-1.68 7.4-1.2 3-1.2 3-9.44-23.6.7-113 3.85-131.78 1.5-8.92-2.94-5.1-2.94-5.1-15.32 14.62-36.58 72.45-36.58 72.45.9-53.53 20.6-108.85 31.37-134.76-11.92-25.64-18-57.62-16.38-94.87 2.3-52.2 19.8-114.76 57.83-184.76q7.43-13.68 15.9-27.73 2.13-3.52 4.3-7A380.65 380.65 0 0 1 432 444.44a366.63 366.63 0 0 1 76.79-56.62c10.36-5.74 20.6-10.77 30.6-15.2 0 2.84.12 5.6.27 8.33q.36 7 1.16 13.52c.42 3.54.93 7 1.5 10.27 11.16 63.3 49.2 84.62 32.23 61.34-10.8-14.8-5.34-39.54 2.78-60.52a252 252 0 0 1 14.19-30.13c2.7-4.9 4.53-7.82 4.53-7.82a61.61 61.61 0 0 1 3.17 5.82c4.78 9.86 7.34 21.17 8.42 32.84 3.9 42.26-11.6 89.3-11.6 89.3 31-27.32 48.5-59.68 58.4-88.2 2.1-6 3.84-11.9 5.3-17.5 1.82 3.5 4 7.3 6.45 11.22q.17.28.36.57l.64 1q1.64 2.52 3.46 5.1c9.5 13.37 22.87 27.34 41 36.58a300 300 0 0 1-4.84-35.73 250.3 250.3 0 0 1-.13-40.41 151.32 151.32 0 0 1 3.38-21.78c0-.14.06-.28.1-.4a388.08 388.08 0 0 1 69.65 19.81h0a380.72 380.72 0 0 1 42 19.26 366.53 366.53 0 0 1 81.1 58.66 381.71 381.71 0 0 1 62.84 78.82c5.15 8.5 9.94 17.37 14.4 26.5 28.73 58.78 43.5 128.27 49.26 184.35 2.86 27.8 3.5 52.33 2.52 70.6 8.88 35.38 24.3 11.6 20.34 26.17l21.95 47.26z" fill="#e50075"/><path class="C" d="M1074.23 877.43c-13-1.82-33.6-12.7-42.4-20.44-6-5.3-7.53-6.22-11.13-11-.93 1.75-1 4.78-2 6.44 4.77 23.44-.34 38.54-3.92 41.43 7.24 124.4-15.6 194.74-15.6 194.74 3.25-22.78-55.14-83.94-62.38-94.67-8.86-13.13-15.4 34-24.27 31.46-5.6-1.57-19.82-10.43-19.82-10.43-3.85 9.64-35-6-34.06 2.73 2.4 22.84 20.26 101.1 20.26 101.1-1.3 0-2.22 5.2-3.48 5.12-17.62-1.06-69.46-51.72-79.1-58.5-20.53-14.44-16.86 25.65-16.86 25.65l2.7 19.73c3 25.34-46-20.67-48.47-6.72-6.36 35.4-43.34 104.28-43.34 104.28 4.18-61.27-54.42-140.56-54.42-140.56-.4 19.06-9 14.16-14.24 25.52-13.1 28.48-44.62 55.83-44.62 55.83 0-31.94-21.7-26.85-28.85-40.2-5-9.36-10.65-21.32-10.65-21.32-22.3 19.5-20.12 39-20.12 39-11.88-3.86-24.58-24.5-32.73-31.47-33-28.15-56.9-41.8-56.9-41.8-26.46 15.32-55.47 91.1-55.47 91.1-23.43-57.6-7.88-186.1-2.6-204.84 2.25-8-.2-3.6-.2-3.6-17.27 6.52-47.83 73.66-51.55 90.08-1.68 7.4-1.2 3-1.2 3-9.44-23.6.7-113 3.85-131.78 1.5-8.92-2.94-5.1-2.94-5.1-15.32 14.62-36.58 72.45-36.58 72.45.9-53.53 20.6-108.85 31.37-134.76-11.92-25.64-18-57.62-16.38-94.87 2.3-52.2 19.8-114.76 57.83-184.76q7.43-13.68 15.9-27.73 2.13-3.52 4.3-7A380.65 380.65 0 0 1 432 444.44a366.63 366.63 0 0 1 76.79-56.62c10.36-5.74 20.6-10.77 30.6-15.2 0 2.84.12 5.6.27 8.33q.36 7 1.16 13.52c.42 3.54.93 7 1.5 10.27 11.16 63.3 49.2 84.62 32.23 61.34-10.8-14.8-5.34-39.54 2.78-60.52a252 252 0 0 1 14.19-30.13c2.7-4.9 4.53-7.82 4.53-7.82a61.61 61.61 0 0 1 3.17 5.82c4.78 9.86 7.34 21.17 8.42 32.84 3.9 42.26-11.6 89.3-11.6 89.3 31-27.32 48.5-59.68 58.4-88.2 2.1-6 3.84-11.9 5.3-17.5 1.82 3.5 4 7.3 6.45 11.22q.17.28.36.57l.64 1q1.64 2.52 3.46 5.1c9.5 13.37 22.87 27.34 41 36.58a300 300 0 0 1-4.84-35.73 250.3 250.3 0 0 1-.13-40.41 151.32 151.32 0 0 1 3.38-21.78c0-.14.06-.28.1-.4a388.08 388.08 0 0 1 69.65 19.81h0a380.72 380.72 0 0 1 42 19.26 366.53 366.53 0 0 1 81.1 58.66 381.71 381.71 0 0 1 62.84 78.82c5.15 8.5 9.94 17.37 14.4 26.5 28.73 58.78 43.5 128.27 49.26 184.35 2.86 27.8 3.5 52.33 2.52 70.6 8.88 35.38 24.3 11.6 20.34 26.17l21.95 47.26z" opacity=".55" fill="url(#A)"/><g fill="#e53991"><path d="M539.36 372.63c-10 4.42-20.25 9.45-30.6 15.2-4.7-7.22-81-120.58-172.63-25.85a64.58 64.58 0 0 0 3.82 20.1 3 3 0 0 1-3 4c-4.45-.3-10.92-1.26-14.35-4.2a36.84 36.84 0 0 0-3.17 16.32 126.24 126.24 0 0 0-30.7-2.17c-6.18.4-12 1-17.4 1.84l2.77-17.58c5.57-37.37 23.06-68.4 48.5-69.94S317 309.5 317 292s46.92-11.13 59.64-8.74S356 257.8 356 257.8c44.54-13 80.2-6.5 108.13 8.52l2.24 1.23 2.84 1.65 1.06.64 2.17 1.34 2.66 1.72 2.62 1.77c.87.6 1.7 1.2 2.56 1.82s1.68 1.24 2.5 1.87l2.46 1.9 2.4 1.94c.15.1.3.24.44.36l1.92 1.62 2.3 2c1.52 1.35 3 2.72 4.46 4.1l2.15 2.1 2.3 2.3c.76.77 1.25 1.3 1.87 2s1.35 1.44 2 2.16l1.4 1.53c1.5 1.66 2.94 3.34 4.34 5l1.8 2.17c1.57 1.92 3.08 3.86 4.53 5.8.37.48.73 1 1.08 1.45q3.22 4.34 6.08 8.62l1.87 2.83 2.6 4.08.9 1.5.83 1.37.8 1.36.06.1.73 1.24 1.62 2.82 1.1 2 .54 1 1 1.93 1.48 2.8.94 1.82 1.3 2.6c-.57 7.57-.8 14.84-.72 21.77z"/><path d="M528.78 330.3l-2.6-4.08q1.35 2.07 2.6 4.08z"/></g><path d="M508.75 387.82A366.63 366.63 0 0 0 432 444.44c-39.78-22.62-79-40.13-112.53-46.27a36.84 36.84 0 0 1 3.17-16.32c3.43 2.95 9.9 3.9 14.35 4.2a3 3 0 0 0 3-4 64.58 64.58 0 0 1-3.82-20.1c91.6-94.72 167.83 18.64 172.58 25.86z" fill="#facce3"/><path d="M1006.62 399.73c-31.6 7.18-67.7 23.58-104.3 44.36a366.92 366.92 0 0 0-80.79-58.53c5.85-9.2 77.8-117.3 168.47-23.6a64.42 64.42 0 0 1-3.83 20.1 3 3 0 0 0 3 4c4.44-.3 10.9-1.26 14.35-4.2a37.53 37.53 0 0 1 3.11 17.87z" fill="#7f7f7f"/><path d="M981.9 552.27c81.94-53.95 78.64-115.9 72.73-155.42l-2.62-16.6c-5.57-37.37-23.07-68.4-48.5-69.94s5.56-.83 5.56-18.33-46.92-11.13-59.64-8.74 20.68-25.45 20.68-25.45c-31.7-9.26-58.77-8.92-81.67-2.82-77.6 20.66-107.5 107.5-108.78 111.32a388.47 388.47 0 0 0-69.58-19.88c-4.83 20.43-4.7 43.54-3.25 62.2a300 300 0 0 0 4.84 35.73c-18.16-9.24-31.54-23.2-41-36.58q-1.83-2.56-3.46-5.1v5l.07 210.22V804h364.63c5.5-20.2 8-43.2 6.87-68.66-2.24-51.78-19.48-113.75-56.87-183.06zM990 362a64.42 64.42 0 0 1-3.83 20.1 3 3 0 0 0 3 4c4.44-.3 10.9-1.26 14.35-4.2a37.53 37.53 0 0 1 3.11 17.88c-31.6 7.18-67.7 23.58-104.3 44.36a366.92 366.92 0 0 0-80.79-58.53c5.84-9.24 77.78-117.35 168.47-23.6z" fill="#565656"/><path d="M974.58 804H666.2V365.7s278.7-20.23 334.8 378.6h-59.2s28.3 46.8 32.78 59.7z" fill="#7f7f7f"/><path d="M909.54 804H666.67l-.14-438.27s-278.7-20.25-334.8 378.58h59.2s-27.2 48.7-31.87 59.7h64.6s-39 36.9-29.6 41.57 53-7.8 74.78-14c0 0 10.9 23.37-14 48.3 0 0-4.7 12.46 25.7 0 9.66-4 18.56-5.24 26.6-4.45V888c0 58.13 47.13 80.25 105.26 80.25h109.86c58.13 0 105.26-22.12 105.26-80.25v-12.7c7.66-.5 16.07.83 25.15 4.56 30.38 12.46 25.7 0 25.7 0-24.93-24.93-14-48.3-14-48.3 21.82 6.24 65.44 18.7 74.8 14S909.54 804 909.54 804z" fill="#facce3"/><path d="M1044.38 497.28s91.26-30.35 137.44 60.7c-.9-.32-47.58-17.22-82.68 3.88 0 0 55.84 26.48-2.14 58.76 0 0 31.14 14.86 34.36 36.8 0 0-47.25-10.33-83.76 4.52 0 0 46.17 17.43 50.47 40 0 0-30.07-5.8-50.47 0 0 0 11.8 21.3 6.44 37.46 0 0-6.25-2-15.23-4.1-10-2.3-23.36-4.65-35.24-4.3 0 0 9.67 18.73-4.3 31.64 0 0-12.9-11-49.4-10.33 0 0 33.3 18.73 24.7 51.66 0 0-35.64-71.68-190.07-71.68h-117.7v-114l.43-.4c7.3-6.57 106.74-95.44 209.6-158.73q5.64-3.48 11.3-6.85 7.08-4.2 14.16-8.23c36.6-20.78 72.7-37.18 104.3-44.36 13.72-3.1 26.6-4.5 38.3-3.73q5 .33 9.73.85c112.3 12.32 86 102.78 163.94 90.3 0 0-16.35 40.48-80.78 9.5s-93.42.64-93.42.64z" fill="#c6c6c6"/><circle cx="821.13" cy="445.32" r="11.4" fill="#1e1e1e"/><g fill="#7f7f7f"><path d="M827.636 450.46l-2.866 2.324-10.126-12.49 2.866-2.324z"/><path d="M826.26 438.814l2.324 2.866-12.49 10.126-2.324-2.866z"/></g><circle cx="1007.49" cy="777.74" r="11.4" fill="#1e1e1e"/><g fill="#7f7f7f"><path d="M1015.687 777.363l-.687 3.625-15.8-2.994.687-3.625z"/><path d="M1007.113 769.543l3.625.687-2.994 15.8-3.625-.687z"/></g><circle cx="691.08" cy="513.59" r="11.4" fill="#1e1e1e"/><g fill="#7f7f7f"><path d="M698.966 511.02l.34 3.674-16.012 1.477-.34-3.674z"/><path d="M688.54 505.744l3.674-.34 1.477 16.012-3.674.34z"/></g><path d="M455.4 349.76c-5.16-5.1-11.8-7.72-18.63-9.8-7.4-2.24-15.9-4-23.4-1.28a53.41 53.41 0 0 0-16.22 10c-15.1 13-22.33 32.86-14.46 51.88a4.09 4.09 0 0 0 .23.47 4.84 4.84 0 0 0 .22.6c7.86 17.1 28.86 26.5 47 25.16 10.35-.76 20.95-4.94 27.7-13.05 7.27-8.72 9.28-21 9.27-32 .01-11.58-3.27-23.6-11.73-31.98zm-34.9 67.8c-12.26-1.82-24.1-9-29.37-20-4.88-12.4-2.75-24.87 5.32-35.14l21.07 22.67c2.66 10.52 3.1 21.6 2.98 32.47zm2.5-39.8l-20.35-21.9c5.88-5.4 13.26-9.95 20.57-9.48 14.38.93 28.63 7.54 33.13 22.12a39.47 39.47 0 0 1 .95 3.71 118.21 118.21 0 0 0-34.3 5.55zm32.44 22.33c-3.3 9.26-11.07 14.88-20.45 17a35.35 35.35 0 0 1-5.47.8c.13-10.66-.3-21.57-2.54-32a110.45 110.45 0 0 1 31.35-4.73 53.53 53.53 0 0 1-2.91 18.93z" fill="#e50075"/><path d="M666.82 618.3v114h-117.7c-150.8 0-188.33 68.36-190 71.56a.34.34 0 0 0-.05.11h0c-8.6-32.93 24.7-51.66 24.7-51.66-36.5-.7-49.4 10.33-49.4 10.33-14-12.9-4.3-31.64-4.3-31.64-11.37-.32-24.1 1.82-33.95 4-9.66 2.16-16.52 4.38-16.52 4.38C274.23 723.28 286 702 286 702c-20.4-5.8-50.47 0-50.47 0 4.3-22.6 50.47-40 50.47-40-36.5-14.85-83.76-4.52-83.76-4.52 3.22-21.95 34.36-36.8 34.36-36.8-58-32.28-2.14-58.76-2.14-58.76-35.1-21.1-81.77-4.2-82.68-3.88 42.5-83.8 123.2-64.75 135.78-61.2l1.66.5a25.52 25.52 0 0 0-2.9-2.56c-8.78-6.86-37.78-23.46-90.52 1.92-64.43 31-80.78-9.5-80.78-9.5 76.15 12.2 52.83-73.8 156.26-89.3 5.44-.82 11.23-1.44 17.4-1.84a126.24 126.24 0 0 1 30.7 2.17c33.6 6.08 72.8 23.6 112.6 46.2q5.42 3.1 10.84 6.3 5.63 3.3 11.25 6.75l1 .6c102.44 62.73 202 151.4 211.1 159.6l.47.42z" fill="#e573ad"/><g fill="#fff"><path d="M774.77 908.4a32 32 0 0 0 .43-5.21v5.22zm-6.87-5.26c-3.65-6-5.84-15.13-12.42-15.13-9.85 0-9.85 20.4-19.7 20.4s-9.86-20.4-19.72-20.4-9.85 20.4-19.7 20.4-9.85-20.4-19.7-20.4-9.86 20.42-19.66 20.42S647.1 888 637.25 888s-9.86 20.4-19.7 20.4-9.85-20.4-19.7-20.4-9.85 20.4-19.7 20.4c-4.25 0-6.67-3.8-8.84-8.13 2.66-22.93 34.45-25.76 48.47-25.88h1.7c31.8 0 43.7-20.83 49-31.88 5.34 11.05 17.24 31.85 49 31.88h1.7c14.66.14 48.46 3.2 48.73 28.74zm4.27 13.56a40.46 40.46 0 0 1-12.77 15.11c-9.76 7.23-23.25 11.63-38.14 11.63h-106c-26.1 0-47.88-13.52-52.85-32.1a8 8 0 0 0 6.19-5.14c2.8 5.64 5.24 12.08 10.77 12.08 9.86 0 9.86-20.4 19.7-20.4s9.86 20.4 19.7 20.4 9.86-20.4 19.7-20.4 9.85 20.4 19.7 20.4 9.85-20.4 19.7-20.4 9.85 20.4 19.7 20.4 9.85-20.4 19.7-20.4 9.85 20.4 19.7 20.4 9.85-20.4 19.7-20.4c8.2 0 9.6 14.07 15.45 18.83z"/></g><path d="M774.15 911.26a33.08 33.08 0 0 1-2 5.44c-5.86-4.76-7.25-18.83-15.43-18.83-9.85 0-9.85 20.4-19.7 20.4s-9.86-20.4-19.7-20.4-9.85 20.4-19.7 20.4-9.85-20.4-19.7-20.4-9.86 20.4-19.7 20.4-9.85-20.4-19.7-20.4-9.85 20.4-19.7 20.4-9.8-20.4-19.7-20.4-9.85 20.4-19.7 20.4c-5.53 0-8-6.44-10.77-12.08h0a7.78 7.78 0 0 0 .49-2.74 24.68 24.68 0 0 1 .19-3.15c2.17 4.32 4.6 8.12 8.84 8.12 9.85 0 9.85-20.4 19.7-20.4s9.85 20.4 19.7 20.4S627.4 888 637.25 888s9.85 20.4 19.7 20.4 9.85-20.4 19.7-20.4 9.85 20.4 19.7 20.4 9.85-20.4 19.7-20.4 9.86 20.4 19.7 20.4 9.86-20.4 19.7-20.4c6.58 0 8.77 9.08 12.42 15.12h0v.3a8 8 0 0 0 6.25 7.83z" fill="#565656"/><path d="M783.9 903.45a8 8 0 0 1-8 8 8.4 8.4 0 0 1-1.76-.19 8 8 0 0 1-6.24-7.81v-.3c-.28-25.54-34.07-28.6-48.63-28.72h-1.7c-31.8 0-43.7-20.83-49-31.88-5.34 11.05-17.24 31.85-49 31.88h-1.7c-14 .12-45.8 3-48.47 25.88h0a24.68 24.68 0 0 0-.19 3.15 7.78 7.78 0 0 1-.49 2.74h0a8 8 0 0 1-6.19 5.14 8.2 8.2 0 0 1-1.32.11 8 8 0 0 1-8-8c0-27.85 24.12-44.68 64.5-45h1.82c23.93 0 31.26-15.6 35.64-24.9a47 47 0 0 1 2.57-5A13.48 13.48 0 0 1 659 824c.63-2.55 1.17-9.8 1.47-15.92l-.24-7.8a8 8 0 0 1 8-8h.48a8 8 0 0 1 8 8c0 1-.07 4.08-.23 7.8.3 6.1.83 13.36 1.47 15.9a13.71 13.71 0 0 1 1.39 4.55 47.08 47.08 0 0 1 2.56 5c4.38 9.3 11.7 24.87 35.64 24.9h1.84c40.42.33 64.53 17.16 64.53 45z" fill="#e51186"/><path d="M607.06 588.64s33.15 56.18 29.8 103.2c-5.05 70.55-79.38 24.54-98.05 13.2-12.45-7.56-67.15-16.83-100.67 2.92 0 0 21.4-22.6 49.6-30.16a1.46 1.46 0 0 0 .16-2.77c-7.37-3.06-68.2-14.62-98.35 14.7 0 0 32.85-39.35 55.34-43.84a.77.77 0 0 0 .05-1.5c-5.5-1.6-54.74-21.18-72.92-6.22 0 0 58.88-40.12 95.07-45.9a.56.56 0 0 0 0-1.12c-8.48-.75-47.4-11.76-58.86-9.43 0 0 82.36-24.32 135.13 13.3a1.76 1.76 0 0 0 2.81-1.33c0-2.87-10-21-24.9-34.47 0 0 64.52 33.4 88.1 83.9a1.32 1.32 0 0 0 2.48-.2c.98-3.94 1.73-35.94-4.8-54.3z" fill="#e50075"/><path d="M578.6 662.86c-1.6-1.2-12.6-5.86-15.13-6.86-3-1.16-21.82-7.12-23.37-5.17-4.66 5.83-5 13.73-3.7 20.9A26 26 0 0 0 555.46 692a28.64 28.64 0 0 0 20.9-2c6.2-3.3 12.23-8.7 13.35-16.2.4-2.72-8.13-8.76-11.1-10.95zm-15 14.75a12 12 0 0 1-12-12 7.7 7.7 0 0 1 5.08-7.4c2.48 0 18 8.56 18 11a11.42 11.42 0 0 1-11.07 8.4z" fill="#facce3"/><path d="M736.46 588.64s-33.15 56.18-29.78 103.2c5 70.55 79.37 24.54 98 13.2 12.45-7.56 67.15-16.83 100.67 2.92 0 0-21.4-22.6-49.6-30.16a1.46 1.46 0 0 1-.16-2.77c7.4-3.04 68.25-14.62 98.4 14.7 0 0-32.85-39.35-55.34-43.84a.77.77 0 0 1 0-1.5c5.5-1.6 54.74-21.18 72.92-6.22 0 0-58.88-40.12-95.07-45.9a.56.56 0 0 1 0-1.12c8.5-.75 47.4-11.76 58.86-9.43 0 0-82.36-24.32-135.13 13.3a1.76 1.76 0 0 1-2.81-1.33c0-2.87 10-21 24.9-34.47 0 0-64.52 33.4-88.1 83.9a1.32 1.32 0 0 1-2.48-.2c-1.05-3.94-1.8-35.94 4.72-54.3z" fill="#565656"/><path d="M747.93 738.42c-23.8-40-56.95-54.32-72.74-59.1a31.21 31.21 0 0 0-18.11 0c-15.8 4.77-48.94 19.1-72.74 59.1-32.3 54.24 28 70.44 44.48 72.55s23.68 3.52 37.3 3.52 20.8-1.4 37.3-3.52 76.78-18.3 44.5-72.55z" fill="#3f3f3f"/><g fill="#1e1e1e"><path d="M782.66 670.15h0c-3.57 1.75-7.46 1.3-8.7-1l-5.52-10.3c-1.23-2.3.66-5.6 4.23-7.34h0c3.57-1.75 7.47-1.3 8.7 1l5.5 10.3c1.24 2.3-.66 5.6-4.23 7.34zm13.54 25.28h0c-3.58 1.74-7.47 1.3-8.7-1L782 684.1c-1.24-2.3.65-5.6 4.23-7.34h0c3.57-1.75 7.46-1.3 8.7 1l5.52 10.3c1.2 2.32-.68 5.6-4.25 7.36zM789.55 671h0c-1.23-2.3.66-5.6 4.23-7.35l16-7.8c3.57-1.75 7.46-1.3 8.7 1h0c1.24 2.3-.66 5.6-4.23 7.35l-16 7.8c-3.57 1.72-7.47 1.26-8.7-1zm-39.1 19.1h0c-1.24-2.3.66-5.6 4.23-7.34L770.6 675c3.57-1.74 7.47-1.3 8.7 1h0c1.23 2.3-.66 5.6-4.23 7.34l-16 7.8c-3.52 1.72-7.42 1.27-8.65-1.04z"/></g><g fill="#e50075"><path d="M803.4 650.82c-1.55-2-20.4 4-23.37 5.17-2.5 1-13.53 5.68-15.13 6.87-3 2.2-11.5 8.23-11.1 10.9 1.12 7.5 7.16 12.9 13.36 16.2a28.61 28.61 0 0 0 20.89 2 26 26 0 0 0 19.05-20.24c1.33-7.16.96-15.06-3.7-20.9zm88.2-463.14L888.44 255a128 128 0 0 0-30 12.23l-1.5.86-2.15 1.27-1.42.87a152.25 152.25 0 0 0-29.08 23.7l-1.7 1.78q-2.3 2.44-4.47 4.94l-1.57 1.82-1.37 1.64-1.9 2.34q-2.1 2.6-4.06 5.24l-1.33 1.8q-.85 1.17-1.68 2.34l-.82 1.16a220.59 220.59 0 0 0-10.55 16.66l-.6 1q-.6 1-1.14 2l-.55 1-1.58 3-1.68 3.25-1.16 2.32-.43.88-.42.87-.65 1.36-.15.33q-.33.7-.63 1.35l-2.42 5.45-.53 1.25a.14.14 0 0 1 0 .06 46.28 46.28 0 0 0-.47 1.13l-.06.16-1.08 2.7-.36.94-.43 1.15-.7 1.95a388.08 388.08 0 0 0-69.64-19.8c0 .13-.07.27-.1.4a151.32 151.32 0 0 0-3.38 21.78 250.3 250.3 0 0 0 .13 40.41 300 300 0 0 0 4.84 35.73c-18.16-9.24-31.54-23.2-41-36.58q-1.83-2.56-3.46-5.1c-.22-.33-.43-.67-.64-1s-.25-.38-.36-.57a150.09 150.09 0 0 1-6.45-11.22 244.19 244.19 0 0 1-5.3 17.5c-9.92 28.52-27.45 60.88-58.45 88.2 0 0 15.5-47 11.6-89.3-1.08-11.67-3.64-23-8.42-32.84a61.61 61.61 0 0 0-3.17-5.82s-1.82 2.92-4.53 7.82a252 252 0 0 0-14.19 30.13c-8.12 21-13.57 45.73-2.78 60.52 17 23.28-21.07 2-32.23-61.34-.58-3.3-1.1-6.73-1.5-10.27Q540 388 539.63 381c-.15-2.72-.24-5.5-.27-8.33-.1-6.93.15-14.2.78-21.82l-1.3-2.6-.94-1.82-1.48-2.8-1-1.93-.54-1-1.1-2-1.62-2.82-.8-1.34-.8-1.36-.83-1.37-.9-1.5-2.6-4.08c-.6-.94-1.23-1.88-1.87-2.83q-2.85-4.27-6.08-8.62c-.35-.48-.7-1-1.08-1.45-1.45-1.93-3-3.87-4.53-5.8l-1.8-2.17c-1.4-1.68-2.85-3.36-4.34-5l-1.4-1.53q-1-1.08-2-2.16l-1.87-2c-.63-.7-1.52-1.54-2.3-2.3l-2.15-2.1q-2.18-2.1-4.46-4.1a61.16 61.16 0 0 0-2.31-2q-.94-.82-1.92-1.62l-.44-.36-2.4-1.94-2.46-1.9-2.5-1.87-2.56-1.82c-.86-.6-1.74-1.2-2.62-1.77l-2.66-1.72c-.7-.46-1.44-.9-2.17-1.34l-1.06-.64c-.6-.37-1.22-.72-1.84-1.07l-1-.58-2.24-1.23-23.92-70.2 104.3 57.7-7.95-158.77 92.4 130.6 40.5-93.2 16.65 73.67 101-81.32-7.5 125.8z"/></g></g></g></svg>