<svg xmlns="http://www.w3.org/2000/svg" viewBox="0 0 1334 1334" xmlns:v="https://vecta.io/nano"><style><![CDATA[.A{isolation:isolate}.D{mix-blend-mode:multiply}]]></style><defs><linearGradient id="A" x1="680.03" y1="247.6" x2="680.03" y2="1160.47" gradientUnits="userSpaceOnUse"><stop offset=".53" stop-color="#fff"/><stop offset=".54" stop-color="#f8f8f8"/><stop offset=".77" stop-color="#a7a7a7"/><stop offset=".92" stop-color="#747474"/><stop offset="1" stop-color="#606060"/></linearGradient></defs><g class="A"><g><path d="M505.6 383l-8.08 8q-9.34 5.58-18.74 12a364.27 364.27 0 0 0-56.48 47.55c-17.42-17.94-22-32.1-22-32.1-8.64 20.2.84 37.12 8.65 46.6l-5 5.9c-25.82-5.65-34.17-15.3-34.17-15.3-15.73 10.7-9 30.65-9 30.65-13.9-1.68-29.27-7.36-38.95-11.43a103.43 103.43 0 0 1-9-56.37l18.6 8.34a1 1 0 0 0 1.14-1.55c-21-24.14-9.4-46.55-9.4-46.55 3.43 2.94 9.9 3.9 14.35 4.2a3 3 0 0 0 3-4 64.42 64.42 0 0 1-3.83-20.1C431.38 261 505.6 383 505.6 383z" fill="#ddf4d8"/><path d="M1090.62 885.38s-36.2-32.1-59-83.27l.36-1.32c16.67-61.2 5.77-148.16-49.86-251.42q-7.87-14.65-17-29.73c-28.4-47-62.26-81.77-96.8-107.57a375.3 375.3 0 0 0-87.83-48.67c-59.08-23.15-106.52-25.06-112.65-25.22h-.67s-52.7.43-118.5 27.3c-5-13.1-25.12-60.22-65.78-90.78-30.1-22.58-71.42-36.1-126.22-20.1 0 0 33.4 27.83 20.67 25.45s-59.64-8.75-59.64 8.74 31 16.77 5.57 18.33-43 32.57-48.5 69.95c-4.33 29-17.06 80.52 24.17 131.54 11.83 14.67 28.13 29.3 50.37 43.33l3-2.75C291.46 662 284 755.32 307.57 816.94c1 2.66 2.1 5.26 3.22 7.8-11.08 14.7-28.82 46.63-23 95 0 0 8.18-18.77 31.16-40.7 0 0-5.9 82.5 15 134.73 0 0-4.56-80.22 33-94.42 0 0-.6 69.36 49.54 192.6 0 0-6.43-54.43 21.48-94 0 0 28.8 69.9 82.36 125.78 0 0 7.46-67.3 40.88-96.53 0 0 57.6 31.77 57.6 113.24 0 0 29.6-29 46.85-111.15 0 0 61 10.13 54.75 102 0 0 49.13-38.57 45.5-118.76 0 0 22.7 77 110.44 79.1 0 0-45.68-56.13-24.8-108.35 0 0 130.74-3.73 116.1 98.62 0 0 32.23-51 19.68-229.06a116.35 116.35 0 0 0 13.87-13.28c7.1 9.17 14.54 24.48 17.45 49.72a228.47 228.47 0 0 0-4.32-67.45q2-3.17 3.76-6.48c13.04 17.58 38.5 45.28 72.5 50.03zm-768.77-410.6a103.43 103.43 0 0 1-9-56.37l18.6 8.34a1 1 0 0 0 1.14-1.55c-21-24.14-9.4-46.55-9.4-46.55 3.43 2.94 9.9 3.9 14.35 4.2a3 3 0 0 0 3-4 64.42 64.42 0 0 1-3.83-20.1C431.38 261 505.6 383 505.6 383l-8.08 8q-9.34 5.58-18.74 12a364.27 364.27 0 0 0-56.48 47.55c-17.42-17.94-22-32.1-22-32.1-8.64 20.2.84 37.12 8.65 46.6l-5 5.9c-25.82-5.65-34.17-15.3-34.17-15.3-15.73 10.7-9 30.65-9 30.65-13.88-1.76-29.26-7.44-38.94-11.5z" fill="#57ca3d"/><path class="D" d="M1090.62 885.38s-36.2-32.1-59-83.27l.36-1.32c16.67-61.2 5.77-148.16-49.86-251.42q-7.87-14.65-17-29.73c-28.4-47-62.26-81.77-96.8-107.57a375.3 375.3 0 0 0-87.83-48.67c-59.08-23.15-106.52-25.06-112.65-25.22h-.67s-52.7.43-118.5 27.3c-5-13.1-25.12-60.22-65.78-90.78-30.1-22.58-71.42-36.1-126.22-20.1 0 0 33.4 27.83 20.67 25.45s-59.64-8.75-59.64 8.74 31 16.77 5.57 18.33-43 32.57-48.5 69.95c-4.33 29-17.06 80.52 24.17 131.54 11.83 14.67 28.13 29.3 50.37 43.33l3-2.75C291.46 662 284 755.32 307.57 816.94c1 2.66 2.1 5.26 3.22 7.8-11.08 14.7-28.82 46.63-23 95 0 0 8.18-18.77 31.16-40.7 0 0-5.9 82.5 15 134.73 0 0-4.56-80.22 33-94.42 0 0-.6 69.36 49.54 192.6 0 0-6.43-54.43 21.48-94 0 0 28.8 69.9 82.36 125.78 0 0 7.46-67.3 40.88-96.53 0 0 57.6 31.77 57.6 113.24 0 0 29.6-29 46.85-111.15 0 0 61 10.13 54.75 102 0 0 49.13-38.57 45.5-118.76 0 0 22.7 77 110.44 79.1 0 0-45.68-56.13-24.8-108.35 0 0 130.74-3.73 116.1 98.62 0 0 32.23-51 19.68-229.06a116.35 116.35 0 0 0 13.87-13.28c7.1 9.17 14.54 24.48 17.45 49.72a228.47 228.47 0 0 0-4.32-67.45q2-3.17 3.76-6.48c13.04 17.58 38.5 45.28 72.5 50.03zm-768.77-410.6a103.43 103.43 0 0 1-9-56.37l18.6 8.34a1 1 0 0 0 1.14-1.55c-21-24.14-9.4-46.55-9.4-46.55 3.43 2.94 9.9 3.9 14.35 4.2a3 3 0 0 0 3-4 64.42 64.42 0 0 1-3.83-20.1C431.38 261 505.6 383 505.6 383l-8.08 8q-9.34 5.58-18.74 12a364.27 364.27 0 0 0-56.48 47.55c-17.42-17.94-22-32.1-22-32.1-8.64 20.2.84 37.12 8.65 46.6l-5 5.9c-25.82-5.65-34.17-15.3-34.17-15.3-15.73 10.7-9 30.65-9 30.65-13.88-1.76-29.26-7.44-38.94-11.5z" opacity=".55" fill="url(#A)"/><path d="M1002.47 480.62a128.93 128.93 0 0 1-25.47 6.27s6.77-19.95-9-30.65c0 0-8.77 10.15-36.16 15.72l-4.2-5c8-9.15 18.86-26.75 9.8-47.93 0 0-4.76 14.76-23.1 33.24a366.1 366.1 0 0 0-45.42-40.21 370.09 370.09 0 0 0-46.78-29.74c5.9-9.27 77.82-117.26 168.47-23.58a64.42 64.42 0 0 1-3.83 20.1 3 3 0 0 0 3 4c4.45-.3 10.92-1.26 14.35-4.2 0 0 11.57 22.4-9.4 46.55a1 1 0 0 0 1.14 1.55l18.6-8.34s5.4 31.6-11.98 62.22z" fill="#7f7f7f"/><path d="M1027.84 509.37c42-51.27 29.15-103.14 24.8-132.3-5.56-37.38-23.06-68.4-48.5-69.95s5.57-.83 5.57-18.33-46.92-11.13-59.64-8.74 20.67-25.45 20.67-25.45c-56.32-16.45-98-2.6-127.73 20-43.75 33.28-61.74 85.58-62.7 88.48-61.9-24.07-110.82-24.87-112.5-24.9h0l.13 462.6h364.63c16.68-61.27 5.74-148.33-50-251.73 19.6-12.9 34.32-26.27 45.3-39.68zM968 456.24s-8.77 10.15-36.16 15.72l-4.2-5c8-9.15 18.86-26.75 9.8-47.93 0 0-4.76 14.76-23.1 33.24a366.1 366.1 0 0 0-45.42-40.21 370.09 370.09 0 0 0-46.78-29.74c5.9-9.27 77.82-117.26 168.47-23.58a64.42 64.42 0 0 1-3.83 20.1 3 3 0 0 0 3 4c4.45-.3 10.92-1.26 14.35-4.2 0 0 11.57 22.4-9.4 46.55a1 1 0 0 0 1.14 1.55l18.6-8.34s5.4 31.6-12 62.2a128.93 128.93 0 0 1-25.45 6.28s6.76-19.95-9-30.65z" fill="#565656"/><path d="M979.8 800.8h-313V362.5s278.7-20.25 334.8 378.58h-59.2s26.5 53.97 37.42 59.7z" fill="#7f7f7f"/><circle cx="822.89" cy="430.53" r="11.4" fill="#1e1e1e"/><g fill="#7f7f7f"><path d="M829.024 435.998l-3.015 2.127-9.27-13.14 3.015-2.127z"/><path d="M828.358 424.386l2.127 3.015-13.14 9.27-2.127-3.015z"/></g><circle cx="688.58" cy="479.97" r="11.4" fill="#1e1e1e"/><g fill="#7f7f7f"><path d="M696.548 477.893l.093 3.69-16.075.404-.093-3.69z"/><path d="M686.533 472.042l3.69-.093.404 16.075-3.69.093z"/></g><path d="M413.74 341c-11.14-2.2-22.8-.3-31.56 7.25s-14.8 19.4-17.44 30.4c-2.7 11.2-1.44 23.73 6 32.93a64.63 64.63 0 0 0 17.26 14.5c11.5 6.75 24.8 4.35 36.56-.7 16.94-7.28 28.3-22 28.38-40.8-.75-20.92-19.1-39.57-39.2-43.57zm-33.62 24.07c5.15-8.73 12.4-15.36 23-15.93a35.66 35.66 0 0 1 13.37 2c-4.26 9.77-8.13 19.94-10.07 30.4a107.85 107.85 0 0 1-30.63-7.75 67.35 67.35 0 0 1 4.33-8.73zm19.3 56.14c-6-.95-12.2-6.2-16.74-10.3-5.12-4.66-8.8-9.62-10-16.73a32.78 32.78 0 0 1 .38-11.85 121 121 0 0 0 33.78 8.25l10.27 28.15c-5.8 2.12-12.22 3.35-17.7 2.48zm26.15-6.34l-.22.12-10.62-29.1c1.7-10.67 5.54-21.06 9.85-31 10.72 6.4 18.9 17.46 19.32 29.7-.06 13.24-6.9 23.87-18.33 30.3z" fill="#57ca3d"/><path d="M910.16 800.8H667.3l-.14-438.27s-278.7-20.25-334.8 378.58h59.2s-26.48 53.95-37.4 59.7h70.1s-39 36.9-29.6 41.57 53-7.8 74.78-14c0 0 10.9 23.37-14 48.3 0 0-4.7 12.46 25.7 0a45.54 45.54 0 0 1 10.11-2.88 37.36 37.36 0 0 0-.95 8.32v37.46a86.55 86.55 0 0 0 86.54 86.54H761a86.54 86.54 0 0 0 86.53-86.54v-37.48a37.25 37.25 0 0 0-.78-7.6 48.41 48.41 0 0 1 6.61 2.16c30.37 12.46 25.7 0 25.7 0-24.92-24.93-14-48.3-14-48.3 21.8 6.24 65.43 18.7 74.78 14s-29.67-41.55-29.67-41.55z" fill="#ddf4d8"/><path d="M792.93 875.84c14.7 1.5 25-1.2 22.38 10.28-12.07 53.65-69.32 94.27-144.8 94.27-75.2 0-136.73-40.3-150.13-93.67-2.94-11.7 7.23-9.38 22.24-10.9l66.46-8.77c9.73-1 31.8-39 58.7-39 33 0 48.75 38.06 58.48 39z" fill="#565656"/><g fill="#bceab1"><path d="M618 958.48S736.7 994 790.58 897.92c0 0-97 10.08-172.58 60.56zm51.1-386.68v220.5s-228.7 37.35-361.5 24.65a321.59 321.59 0 0 1-37.47-5.57c-121-26.32-67-116.72-148.18-116 0 0 12.18-37.6 71.3 2.63s92.48 13.25 92.48 13.25-94.78 16.44-126.9-80.46c0 0 44.13 24.27 82.34 8.47 0 0-51.28-34.5 10.87-57.8 0 0-28.6-19.32-28.5-41.5 0 0 45.2 17.24 83.5 8 0 0-43.07-24.1-44-47.1 0 0 18 6.36 35.86 7.7a69.81 69.81 0 0 0 14.05-.2s-8.5-22.83-.8-38c0 0 3.8 1.9 9.7 4.38 9.68 4.07 25.06 9.75 38.95 11.43 0 0-6.77-19.95 9-30.65 0 0 8.35 9.65 34.17 15.3a163.07 163.07 0 0 0 10.68 1.92l2.46.34s-.56-.44-1.5-1.28A63.44 63.44 0 0 1 409 465c-7.8-9.47-17.3-26.4-8.65-46.6 0 0 4.57 14.16 22 32.1a157.5 157.5 0 0 0 7.56 7.25c3.58 3.2 7.56 6.47 12 9.76 26.42 19.64 68.76 40 135.76 50 45.13 6.8 73.83 51.64 91.42 54.28z"/></g><path d="M1215.87 696.1c-81.17-.77-27.18 89.64-148.18 116-84.52 18.38-245.6 1.8-335.06-11.26-35.87-5.23-60.23-9.9-63.52-11.5V572.48c17.62-2.65 46.22-47.55 91.06-54.3 64.35-9.68 106-28.8 132.55-47.7q5.38-3.83 10-7.63a154.91 154.91 0 0 0 11.65-10.57c18.35-18.48 23.1-33.24 23.1-33.24 9.07 21.18-1.8 38.78-9.8 47.93a56.37 56.37 0 0 1-6.95 6.82c4-.52 7.73-1.15 11.15-1.84 27.4-5.57 36.16-15.72 36.16-15.72 15.73 10.7 9 30.65 9 30.65a128.93 128.93 0 0 0 25.48-6.27 214.7 214.7 0 0 0 23.18-9.54c7.7 15.17-.8 38-.8 38 1 .13 2 .23 3 .3 20.68 1.5 46.9-7.8 46.9-7.8-.88 23-44 47.1-44 47.1 38.3 9.25 83.5-8 83.5-8 .08 22.2-28.5 41.5-28.5 41.5 62.15 23.3 10.86 57.8 10.86 57.8 38.22 15.8 82.35-8.47 82.35-8.47-32.13 96.9-126.9 80.46-126.9 80.46s33.38 27 92.48-13.25 71.27-2.62 71.27-2.62z" fill="#c6c6c6"/><path d="M748.76 608.32c1.9-7.12 9-23.48 35.44-46.63 0 0-54.2 6.33-90.34 83.12s68.66 72.28 94.86 71.38 64.15 10.8 99.38 71.37c0 0 7.67-33.22-29.94-69.9a1.77 1.77 0 0 1 1.46-3c14.26 1.7 55.8 13 77.27 85.55 0 0 16.2-63.92-15.16-90.78a.93.93 0 0 1 .83-1.6c10 2.34 37.82 12.23 53.18 51.72 0 0 6-78.32-45.76-119.27a.67.67 0 0 1 .69-1.15c14 6.3 50.82 23.54 66.75 37.3 0 0-32.87-90.62-148.84-78a2.12 2.12 0 0 1-2.16-3c2.47-4.55 11.94-13 47.1-21 0 0-60.75-22.9-142.28 35.63a1.58 1.58 0 0 1-2.48-1.75z" fill="#565656"/><g fill="#1e1e1e"><rect x="766.61" y="587.19" width="28.86" height="64.43" rx="8.59"/><rect x="766.61" y="674.47" width="28.86" height="64.43" rx="8.59"/><rect x="810.25" y="630.83" width="28.86" height="64.43" rx="8.59" transform="matrix(0 1 -1 0 1487.72 -161.63)"/><rect x="722.98" y="630.83" width="28.86" height="64.43" rx="8.59" transform="matrix(0 1 -1 0 1400.45 -74.36)"/></g><path d="M583 608.32c-1.9-7.12-9-23.48-35.44-46.63 0 0 54.2 6.33 90.35 83.12S569.2 717.1 543 716.2s-64.13 10.8-99.37 71.37c0 0-7.67-33.22 29.94-69.9a1.77 1.77 0 0 0-1.46-3c-14.25 1.7-55.78 13-77.27 85.55 0 0-16.2-63.92 15.16-90.78a.93.93 0 0 0-.83-1.6c-10 2.34-37.82 12.23-53.18 51.72 0 0-5.95-78.32 45.76-119.27a.67.67 0 0 0-.68-1.15c-14 6.3-50.82 23.54-66.76 37.3 0 0 32.87-90.62 148.84-78a2.12 2.12 0 0 0 2.16-3c-2.47-4.55-11.94-13-47.1-21 0 0 60.76-22.9 142.28 35.63a1.58 1.58 0 0 0 2.51-1.75z" fill="#57ca3d"/><path d="M550.8 625.64c5.07-5.58 10.75-9.5 17.87-11.2a31 31 0 0 1 38.21 28.32c.9 13-3.86 23.63-12.23 33.1s-18.78 16.94-28.77 24.72c-4.6 3.58-8.8 7.66-13.32 11.34a3.35 3.35 0 0 1-3.17.27l-36-29.83c-7.53-6.5-13.84-14.12-16.85-23.85-3.23-10.44-3.28-20.9 2.74-30.4 11.16-17.6 35.6-19.4 50.1-4z" fill="#9adf8b"/><path d="M781.14 625.64c5.07-5.58 10.75-9.5 17.86-11.2a31 31 0 0 1 38.22 28.32c.9 13-3.86 23.63-12.24 33.1s-18.77 16.94-28.76 24.72c-4.6 3.58-8.8 7.66-13.32 11.34a3.35 3.35 0 0 1-3.17.27l-36-29.83c-7.53-6.5-13.84-14.12-16.85-23.85-3.23-10.44-3.3-20.9 2.74-30.4 11.16-17.6 35.6-19.4 50.1-4z" fill="#57ca3d"/><path d="M748.56 735.2c-23.8-40-57-54.32-72.75-59.1a31.17 31.17 0 0 0-18.1 0c-15.8 4.77-49 19.1-72.75 59.1-32.28 54.24 28 70.44 44.5 72.55s23.68 3.52 37.3 3.52 20.8-1.4 37.3-3.52 76.77-18.3 44.5-72.55z" fill="#3f3f3f"/><path d="M882.1 224.1c-41.6 5.42-47.6 2.9-76.46 15.9-27.1 12.25-39.74 34.8-39.74 34.8-1.94-39.1-9.12-47.12-15.28-56.47C730.66 188.1 691 164 691 164c9.95 32.88-4.63 42.14-4.63 42.14-12.77-30.3-75.12-29.4-75.12-29.4 20.83 14.28 18 55.44 18 48.92s-.26-11.52-27.5-27.14C566 178 567.32 154 567.32 154c-14 17.22-20.26 26.9-20.26 26.9-12.47 16.92-9.77 56.35-9.77 56.35-48.1-47.7-103.4-13.86-103.4-13.86 37.78-3.2 45.14 15.4 49.5 34.75a34.65 34.65 0 0 1-.55 16.59c30.23 22.72 49.08 54.57 58.84 74.8l-.1.76c-11.4 108.2 55.4 150.27 33.87 120.8S597 372.62 597 372.62c27.5 44.48 0 128 0 128 38.88-34.28 56.55-76.5 64.56-109.06 9.06 16.92 25.23 39.67 51.08 52.83 0 0-12.3-57.53-.84-100.93a389 389 0 0 1 68.52 19.68c1-2.9 19-55.2 62.7-88.48-1.03-36.34 39.06-50.56 39.06-50.56z" fill="#79d564"/></g></g></svg>