<svg xmlns="http://www.w3.org/2000/svg" xmlns:xlink="http://www.w3.org/1999/xlink" viewBox="0 0 1334 1334" xmlns:v="https://vecta.io/nano"><style><![CDATA[.A{isolation:isolate}.C{mix-blend-mode:multiply}]]></style><defs><linearGradient id="A" x1="680.03" y1="247.6" x2="680.03" y2="1160.47" gradientUnits="userSpaceOnUse"><stop offset=".53" stop-color="#fff"/><stop offset=".54" stop-color="#f8f8f8"/><stop offset=".77" stop-color="#a7a7a7"/><stop offset=".92" stop-color="#747474"/><stop offset="1" stop-color="#606060"/></linearGradient><path id="B" d="M695.3 917.07C671.84 961.7 646.8 928 646.8 928c20.33-31.95 48.48-10.93 48.48-10.93z"/></defs><g class="A"><g><path d="M1090.63 885.38s-36.2-32.1-59.05-83.26l.37-1.33c16.66-61.2 5.76-148.16-49.88-251.42q-7.87-14.64-17-29.73c-28.4-47-62.26-81.77-96.8-107.57a375.3 375.3 0 0 0-87.83-48.67c-59.08-23.15-106.52-25.06-112.65-25.22h-.67s-52.72.43-118.5 27.3c-5-13.25-25.56-61.3-67.17-91.8-30-22-70.87-34.84-124.83-19.08 0 0 33.4 27.83 20.68 25.45s-59.64-8.75-59.64 8.74 31 16.77 5.56 18.33-42.94 32.57-48.5 69.95l-2.76 17.53c-3.8 25.87-6.24 61.05 15.25 97.28a55.92 55.92 0 0 0 1.07 1.78c12 19.6 31.18 39.46 61 58.28l3-2.75c-37.33 69.24-54.56 131.16-56.85 182.9-1.6 36.2 4.12 67.4 15.36 92.67-11.08 14.7-28.82 46.62-23 95 0 0 8.17-18.77 31.15-40.7 0 0-5.9 82.5 15 134.73 0 0-4.55-80.22 33.05-94.42 0 0-.6 69.36 49.53 192.6 0 0-6.42-54.43 21.5-94 0 0 28.8 69.9 82.35 125.78 0 0 7.47-67.3 40.9-96.53 0 0 57.6 31.77 57.6 113.24 0 0 29.6-29 46.84-111.15 0 0 61 10.13 54.75 102 0 0 49.13-38.57 45.5-118.76 0 0 22.72 77 110.45 79.1 0 0-45.7-56.13-24.8-108.35 0 0 130.73-3.73 116.1 98.62 0 0 32.22-51 19.67-229.05a116.48 116.48 0 0 0 13.87-13.29c7.1 9.16 14.54 24.47 17.46 49.72a228.76 228.76 0 0 0-4.33-67.46c1.3-2.1 2.56-4.25 3.77-6.47 13 17.56 38.48 45.27 72.5 50zm-770.58-492a36.35 36.35 0 0 1 3.17-14.76c3.44 2.94 9.9 3.9 14.36 4.2a3 3 0 0 0 3-4 64.42 64.42 0 0 1-3.83-20.1c90.52-93.55 166 15.84 172.42 25.53a364.14 364.14 0 0 0-30.38 18.64 367.06 367.06 0 0 0-29.3 22.21c-45.5-15.82-91.15-28.26-129.44-31.7z" fill="#1bb57a"/><path class="C" d="M1090.63 885.38s-36.2-32.1-59.05-83.26l.37-1.33c16.66-61.2 5.76-148.16-49.88-251.42q-7.87-14.64-17-29.73c-28.4-47-62.26-81.77-96.8-107.57a375.3 375.3 0 0 0-87.83-48.67c-59.08-23.15-106.52-25.06-112.65-25.22h-.67s-52.72.43-118.5 27.3c-5-13.25-25.56-61.3-67.17-91.8-30-22-70.87-34.84-124.83-19.08 0 0 33.4 27.83 20.68 25.45s-59.64-8.75-59.64 8.74 31 16.77 5.56 18.33-42.94 32.57-48.5 69.95l-2.76 17.53c-3.8 25.87-6.24 61.05 15.25 97.28a55.92 55.92 0 0 0 1.07 1.78c12 19.6 31.18 39.46 61 58.28l3-2.75c-37.33 69.24-54.56 131.16-56.85 182.9-1.6 36.2 4.12 67.4 15.36 92.67-11.08 14.7-28.82 46.62-23 95 0 0 8.17-18.77 31.15-40.7 0 0-5.9 82.5 15 134.73 0 0-4.55-80.22 33.05-94.42 0 0-.6 69.36 49.53 192.6 0 0-6.42-54.43 21.5-94 0 0 28.8 69.9 82.35 125.78 0 0 7.47-67.3 40.9-96.53 0 0 57.6 31.77 57.6 113.24 0 0 29.6-29 46.84-111.15 0 0 61 10.13 54.75 102 0 0 49.13-38.57 45.5-118.76 0 0 22.72 77 110.45 79.1 0 0-45.7-56.13-24.8-108.35 0 0 130.73-3.73 116.1 98.62 0 0 32.22-51 19.67-229.05a116.48 116.48 0 0 0 13.87-13.29c7.1 9.16 14.54 24.47 17.46 49.72a228.76 228.76 0 0 0-4.33-67.46c1.3-2.1 2.56-4.25 3.77-6.47 13 17.56 38.48 45.27 72.5 50zM478.78 402.93a367.06 367.06 0 0 0-29.3 22.21c-45.45-15.86-91.14-28.3-129.43-31.73a36.35 36.35 0 0 1 3.17-14.76c3.44 2.94 9.9 3.9 14.36 4.2a3 3 0 0 0 3-4 64.42 64.42 0 0 1-3.83-20.1c90.52-93.55 166 15.84 172.42 25.53-10.07 5.53-20.24 11.72-30.4 18.65z" opacity=".55" fill="url(#A)"/><g fill="#e4f6ef"><path d="M509.16 384.3a364.14 364.14 0 0 0-30.38 18.64 367.06 367.06 0 0 0-29.3 22.21c-45.45-15.86-91.14-28.3-129.43-31.73a36.35 36.35 0 0 1 3.17-14.76c3.44 2.94 9.9 3.9 14.36 4.2a3 3 0 0 0 3-4 64.42 64.42 0 0 1-3.83-20.1c90.5-93.54 166.02 15.85 172.4 25.54zm158-21.78s-278.7-20.25-334.8 378.58h59.2l-32.12 59.7h64.84s-39 36.9-29.6 41.57 53-7.8 74.78-14c0 0 10.9 23.37-14 48.3 0 0-4.7 12.46 25.7 0s53.25 11.56 66 33.37 54.7 60.68 120 60.75h0c65.43 0 107.5-38.95 120.2-60.76s35.58-45.83 66-33.37 25.7 0 25.7 0c-24.92-24.93-14-48.3-14-48.3 21.8 6.24 65.43 18.7 74.78 14s-29.6-41.58-29.6-41.58H667.3z"/></g><g fill="#565656"><path d="M707.5 894.83a88.33 88.33 0 0 1-16.5-11.37q-.9-.78-1.8-1.6a73.46 73.46 0 0 1-43.84.82l-.87.77a87.68 87.68 0 0 1-16.53 11.37l-.06 3c0 30.58 17.84 55.38 39.85 55.38s39.84-24.8 39.84-55.38l-.1-3zM646.8 928c20.33-32 48.48-10.94 48.48-10.94C671.84 961.7 646.8 928 646.8 928z"/><use xlink:href="#B"/></g><use xlink:href="#B" fill="#76d3af"/><path d="M1007.3 394.13c-36.7 4.23-79.46 16.06-122 30.9q-8.12-6.82-16.33-12.94a369.57 369.57 0 0 0-46.79-29.75c5.9-9.27 77.83-117.26 168.47-23.58a64.58 64.58 0 0 1-3.82 20.1 3 3 0 0 0 3 4c4.45-.3 10.92-1.26 14.35-4.2a36.7 36.7 0 0 1 3.12 15.47z" fill="#7f7f7f"/><path d="M982.54 549.06c81.92-53.94 78.64-115.87 72.72-155.4l-2.62-16.6c-5.56-37.38-23.06-68.4-48.5-69.95s5.57-.83 5.57-18.33-46.92-11.13-59.64-8.74 20.67-25.45 20.67-25.45c-56.44-16.5-98.15-2.56-127.9 20.16C799.2 308 781.26 360.2 780.3 363.1c-61.9-24.1-110.82-24.9-112.5-24.92h0l.07 462.65h364a223.37 223.37 0 0 0 7.5-68.6c-2.18-51.82-19.42-113.8-56.82-183.16zm8.07-190.3a64.58 64.58 0 0 1-3.82 20.1 3 3 0 0 0 3 4c4.45-.3 10.92-1.26 14.35-4.2a36.7 36.7 0 0 1 3.18 15.48c-36.7 4.23-79.46 16.06-122 30.9q-8.12-6.82-16.33-12.94a369.57 369.57 0 0 0-46.79-29.75c5.85-9.28 77.8-117.27 168.4-23.6z" fill="#565656"/><path d="M975 800.8H666.83l-.01-438.3s278.7-20.25 334.8 378.58h-59.2s28.14 47.44 32.6 59.7z" fill="#7f7f7f"/><path d="M1044.77 494.07s91.27-30.35 137.44 60.7c-.9-.32-47.58-17.2-82.67 3.88 0 0 55.84 26.48-2.15 58.76 0 0 31.14 14.86 34.36 36.8 0 0-47.25-10.33-83.76 4.52 0 0 46.18 17.44 50.47 40 0 0-30.07-5.82-50.47 0 0 0 11.8 21.3 6.44 37.45 0 0-6.14-2-15-4-10-2.32-23.5-4.7-35.5-4.37 0 0 9.67 18.73-4.3 31.64 0 0-12.9-11-49.4-10.33 0 0 33.3 18.73 24.7 51.66 0 0-35.64-71.68-190.07-71.68H667.2V521.5l.64-.34c8.2-4.38 94.22-49.85 188.32-85.52q6.86-2.6 13.75-5.12 7.65-2.8 15.34-5.48c42.6-14.84 85.36-26.67 122-30.9a214.33 214.33 0 0 1 38-1.34c3.44.22 6.76.52 10 .88 112 12.4 85.78 102.74 163.7 90.27 0 0-16.35 40.48-80.78 9.5s-93.42.64-93.42.64z" fill="#c6c6c6"/><path d="M748.76 608.32c1.9-7.12 9-23.48 35.44-46.63 0 0-54.2 6.33-90.34 83.12s68.66 72.28 94.86 71.38 64.15 10.8 99.38 71.37c0 0 7.67-33.22-29.94-69.9a1.77 1.77 0 0 1 1.46-3c14.26 1.7 55.8 13 77.27 85.55 0 0 16.2-63.92-15.16-90.78a.93.93 0 0 1 .83-1.6c10 2.34 37.82 12.23 53.18 51.72 0 0 6-78.32-45.76-119.27a.67.67 0 0 1 .69-1.15c14 6.3 50.82 23.54 66.75 37.3 0 0-32.87-90.62-148.84-78a2.12 2.12 0 0 1-2.16-3c2.47-4.55 11.94-13 47.1-21 0 0-60.75-22.9-142.28 35.63a1.58 1.58 0 0 1-2.48-1.75z" fill="#565656"/><g fill="#1e1e1e"><rect x="766.61" y="587.19" width="28.86" height="64.43" rx="8.59"/><rect x="766.61" y="674.47" width="28.86" height="64.43" rx="8.59"/><rect x="810.25" y="630.83" width="28.86" height="64.43" rx="8.59" transform="matrix(0 1 -1 0 1487.72 -161.63)"/><rect x="722.98" y="630.83" width="28.86" height="64.43" rx="8.59" transform="matrix(0 1 -1 0 1400.45 -74.36)"/></g><circle cx="781.04" cy="663.04" r="43.64" fill="#1bb57a"/><circle cx="822.89" cy="430.53" r="11.4" fill="#1e1e1e"/><g fill="#7f7f7f"><path d="M829.024 435.998l-3.015 2.127-9.27-13.14 3.015-2.127z"/><path d="M828.358 424.386l2.127 3.015-13.14 9.27-2.127-3.015z"/></g><circle cx="688.58" cy="489.97" r="11.4" fill="#1e1e1e"/><g fill="#7f7f7f"><path d="M696.54 487.894l.093 3.69-16.075.404-.093-3.69z"/><path d="M686.524 482.04l3.69-.093.404 16.075-3.69.093z"/></g><path d="M413.74 341c-11.14-2.2-22.8-.3-31.56 7.25s-14.8 19.4-17.44 30.4c-2.7 11.2-1.44 23.73 6 32.93a64.63 64.63 0 0 0 17.26 14.5c11.5 6.75 24.8 4.35 36.56-.7 16.94-7.28 28.3-22 28.38-40.8-.75-20.92-19.1-39.57-39.2-43.57zm-33.62 24.07c5.15-8.73 12.4-15.36 23-15.93a35.66 35.66 0 0 1 13.37 2c-4.26 9.77-8.13 19.94-10.07 30.4a107.85 107.85 0 0 1-30.63-7.75 67.35 67.35 0 0 1 4.33-8.73zm19.3 56.14c-6-.95-12.2-6.2-16.74-10.3-5.12-4.66-8.8-9.62-10-16.73a32.78 32.78 0 0 1 .38-11.85 121 121 0 0 0 33.78 8.25l10.27 28.15c-5.8 2.12-12.22 3.35-17.7 2.48zm26.15-6.34l-.22.12-10.62-29.1c1.7-10.67 5.54-21.06 9.85-31 10.72 6.4 18.9 17.46 19.32 29.7-.06 13.24-6.9 23.87-18.33 30.3z" fill="#1bb57a"/><path d="M667.2 521.5V729.1h-117.7c-154.43 0-190.07 71.68-190.07 71.68-8.6-32.93 24.7-51.66 24.7-51.66-36.5-.7-49.4 10.33-49.4 10.33-14-12.9-4.3-31.64-4.3-31.64-11.8-.33-25.06 2-35 4.26-9.1 2.08-15.44 4.14-15.44 4.14-5.37-16.15 6.44-37.45 6.44-37.45-20.4-5.82-50.47 0-50.47 0 4.3-22.6 50.47-40 50.47-40-36.5-14.85-83.76-4.52-83.76-4.52 3.22-22 34.36-36.8 34.36-36.8-58-32.28-2.15-58.76-2.15-58.76-35.1-21.1-81.76-4.2-82.67-3.88 42.84-84.48 124.53-64.43 136.07-61.1a34.18 34.18 0 0 1 1.37.42 23.53 23.53 0 0 0-2.44-2.2c-8.2-6.6-37.27-24.28-91 1.56-64.43 31-80.78-9.5-80.78-9.5 76.2 12.16 52.78-73.98 156.54-89.4q8.06-1.2 17.16-1.8a201.76 201.76 0 0 1 30.93.62c38.3 3.43 84 15.87 129.43 31.73q6.4 2.24 12.8 4.56 7.5 2.7 14.93 5.54C576.57 472.8 667.2 521.5 667.2 521.5z" fill="#76d3af"/><circle cx="1003.87" cy="778.19" r="11.4" fill="#1e1e1e"/><g fill="#7f7f7f"><path d="M1012.06 777.813l-.687 3.625-15.8-2.994.687-3.625z"/><path d="M1003.493 770l3.625.687-2.994 15.8-3.625-.687z"/></g><path d="M583 608.32c-1.9-7.12-9-23.48-35.44-46.63 0 0 54.2 6.33 90.35 83.12S569.2 717.1 543 716.2s-64.13 10.8-99.37 71.37c0 0-7.67-33.22 29.94-69.9a1.77 1.77 0 0 0-1.46-3c-14.25 1.7-55.78 13-77.27 85.55 0 0-16.2-63.92 15.16-90.78a.93.93 0 0 0-.83-1.6c-10 2.34-37.82 12.23-53.18 51.72 0 0-5.95-78.32 45.76-119.27a.67.67 0 0 0-.68-1.15c-14 6.3-50.82 23.54-66.76 37.3 0 0 32.87-90.62 148.84-78a2.12 2.12 0 0 0 2.16-3c-2.47-4.55-11.94-13-47.1-21 0 0 60.76-22.9 142.28 35.63a1.58 1.58 0 0 0 2.51-1.75z" fill="#1bb57a"/><path d="M550.7 619.4A43.64 43.64 0 1 0 594.33 663a43.63 43.63 0 0 0-43.64-43.59zm-.85 64.6A20.16 20.16 0 1 1 570 663.84 20.17 20.17 0 0 1 549.84 684z" fill="#e4f6ef"/><path d="M871.93 204.1c-41.6 5.42-34 28.06-65.78 37.36-28.1 8.23-40 32.6-40.4 33.35 9.4-37.6 3.66-49.47 1.47-58.8-8.28-35.28-53.43-62-53.43-62 10 32.88-27.63 52.14-27.63 52.14C673.4 175.8 631 176.7 631 176.7c20.84 14.28-2 55.44-2 48.92s-.26-11.52-27.48-27.14c-35.7-20.47 1.7-41.07 1.7-41.07-36-2.2-48.72 26-48.72 26-12.48 16.92-17.36 53.8-17.36 53.8-13.26-57.37-83.4-20-83.4-20 37.8-3.22 53.75 20.68 40 37.32a105.13 105.13 0 0 0-12.27 19.1c32.72 24 52.38 58.8 61.75 79-10.13 106.42 55.45 147.64 34.1 118.38-21.5-29.48 21.5-98.47 21.5-98.47 27.5 44.48 0 128 0 128 38.87-34.28 56.54-76.5 64.56-109.06 9.06 16.92 25.22 39.67 51.07 52.83 0 0-12.24-57.24-.92-100.6a389.67 389.67 0 0 1 66.77 19.35c1-2.9 18.9-55.06 62.53-88.34-1.67-37.38 29.1-70.63 29.1-70.63z" fill="#49c495"/><path d="M704.07 807.76c-12.13 1.55-19.22 2.72-27.54 3.24-3 .18-6.16.28-9.77.28-2.86 0-5.43-.06-7.87-.18-9.2-.44-16.4-1.67-29.44-3.34-16.5-2.1-76.78-18.3-44.5-72.55 23.8-40 56.95-54.32 72.74-59.1a31.21 31.21 0 0 1 18.11 0c15.8 4.77 48.94 19.1 72.74 59.1 32.3 54.24-27.98 70.44-44.48 72.55z" fill="#3f3f3f"/><path d="M801.55 862.05c-1.52 7.53-16.8 38.4-58.8 40.52q-1.86.1-3.7.1a67 67 0 0 1-31.57-7.83 88.33 88.33 0 0 1-16.5-11.37q-.9-.78-1.8-1.6a79.32 79.32 0 0 1-19.6-27c-.57-1.33-1.2-2.67-1.85-4l-1.86 4a79.54 79.54 0 0 1-20.53 27.8c-.3.27-.58.52-.87.77a87.68 87.68 0 0 1-16.53 11.37 66.94 66.94 0 0 1-31.57 7.83q-1.83 0-3.7-.1c-42-2.12-57.26-33-58.8-40.52a8 8 0 0 1 15.67-3.23c1.33 5.18 13.26 26.22 43.93 27.76 14.7.75 27.58-4.1 40.54-15.25a63.86 63.86 0 0 0 17.14-22.76c.8-1.84 1.64-3.6 2.45-5.32l.7-1.5c1.07-2.3 2.82-10.5 4.2-26.1l.37-4.56a158.9 158.9 0 0 0 7.87.18c3.6 0 6.77-.1 9.77-.28l.38 4.66c1.38 15.6 3.13 23.8 4.2 26.1l.7 1.5 2.45 5.32a63.86 63.86 0 0 0 17.14 22.76c13 11.15 25.85 16 40.54 15.25 30.7-1.54 42.63-22.65 43.94-27.8a8 8 0 1 1 15.66 3.26z" fill="#1bb57a"/></g></g></svg>