<svg xmlns="http://www.w3.org/2000/svg" viewBox="0 0 1334 1334" xmlns:v="https://vecta.io/nano"><style><![CDATA[.A{isolation:isolate}.C{mix-blend-mode:multiply}]]></style><defs><linearGradient id="A" x1="690.2" y1="341.59" x2="690.2" y2="1191.56" gradientUnits="userSpaceOnUse"><stop offset=".53" stop-color="#fff"/><stop offset=".54" stop-color="#f8f8f8"/><stop offset=".77" stop-color="#a7a7a7"/><stop offset=".92" stop-color="#747474"/><stop offset="1" stop-color="#606060"/></linearGradient></defs><g class="A"><g><path d="M1090.23 885.38s-35.37-31.38-58.23-81.5v-.07c16.44-61.3 5.36-148.2-50.34-251.34h0q-7.76-14.37-16.7-29.17c-29.83-49.25-65.62-85.14-101.92-111.3a376.5 376.5 0 0 0-82.75-44.94c-61-23.9-109.54-25.16-113.13-25.23H667s-52.6.42-118.3 27.2c-4.93-13-26.43-63.57-70.5-94.2-29.8-20.7-69.9-32.32-122.18-17.05 0 0 33.4 27.83 20.68 25.45S317 274.5 317 292s31 16.77 5.56 18.33-42.94 32.57-48.5 69.94l-2.77 17.63c5.55-.84 11.46-1.48 17.77-1.9a117.81 117.81 0 0 1 10-.2c1.43 0 2.88.1 4.34.18.43 0 .86 0 1.3.07a74.14 74.14 0 0 1 2.54.19l1.5.13 1.73.17c2.7.27 5.46.63 8.25 1.06v-.14a37.07 37.07 0 0 1 3.2-16c.18.16.38.3.58.46l.06-.1a10.64 10.64 0 0 0 1.42 1l.18.1c3.6 1.84 8.58 2.53 12.22 2.77a3 3 0 0 0 3-4 64.9 64.9 0 0 1-3.86-20.25c56.45-58.34 106.42-38 137.8-11.8a180 180 0 0 1 34.36 39q-6 3.36-12.1 7l-.08.05q-5.85 3.54-11.73 7.4a365 365 0 0 0-47.75 37.39 378.71 378.71 0 0 0-63 76.26q-2 3.23-4 6.53c-49 81-71 153.1-73.72 212-1.7 37 4.25 68.82 15.93 94.4-9.9 21.5-25.63 64.7-19.77 113 0 0 4.18-41.77 27.16-63.7 0 0-20.9 82.5 0 134.73 0 0 10.44-80.22 48-94.42 0 0-37.6 69.36 12.53 192.6 0 0 18.8-71 58.5-94 0 0 12.53 106.53 102.36 135.78 0 0-12.54-77.3 20.88-106.53 0 0 37.6 41.77 37.6 123.24 0 0 64.76-20.9 66.85-121.15 0 0 71 50.13 64.75 142 0 0 56.4-12.54 35.52-158.7.53 2.15 18.07 71 104.43 73.06 0 0-39.7-50.13-18.8-102.35 0 0 87.74 6.27 73.1 108.62 0 0 73.68-49.13 62.93-235.42a116.45 116.45 0 0 0 15.18-14.81c6.6 9.35 13.2 24.2 15.9 47.6a228.39 228.39 0 0 0-3.69-64.46q2.3-3.76 4.4-7.78c13.35 17.66 38.27 43.78 71.2 48.37z" fill="#f3f"/><path class="C" d="M1019 837.22q-2.1 3.94-4.37 7.67a234.08 234.08 0 0 1 4.49 40.44v12.42c-.2 7.4-.72 11.8-.72 11.8-2.7-23.48-9.33-38.38-16-47.7v-.07a117.47 117.47 0 0 1-15.07 14.64q.56 9.57.83 18.67.43 15 .16 28.64c-2.86 147.76-63.9 188.45-63.9 188.45v-.22a157.93 157.93 0 0 0 1.6-19.37q0-3.15 0-6.13c-2.27-77.72-74.7-82.9-74.7-82.9a85.2 85.2 0 0 0-6 30v3.55c.63 36.36 22.5 65.77 24.68 68.6l.17.22c-84.65-2-103.18-68.2-104.37-72.85l-.06-.2a446.16 446.16 0 0 1 4.48 49.42q.25 8.3.08 15.77c-1.73 85-40.08 93.5-40.08 93.5v-.2c.14-1.95.23-3.87.3-5.78q.17-4.77 0-9.4c-2-82.1-65.1-126.67-65.1-126.67-2.1 100.26-66.85 121.15-66.85 121.15v-.2q0-3.72-.1-7.32c-2.2-76.5-37.5-115.72-37.5-115.72-17.6 15.4-22.45 44.12-23.1 67.87-.13 4.66-.1 9.12 0 13.25a226.48 226.48 0 0 0 2.14 25.2v.2c-89.83-29.24-102.36-135.78-102.36-135.78-39.7 23-58.5 94-58.5 94-18.84-46.3-25.3-85-26-115.3q-.15-6.32 0-12.15c1.15-42.47 13.45-65.15 13.45-65.15h-.14C329 934 318.6 1014 318.6 1014c-6.33-15.84-8.82-34.46-9.22-52.72-.1-4.32-.08-8.62 0-12.86a356.8 356.8 0 0 1 9.18-69.15l-.07.07C295.6 901.3 291.44 943 291.44 943c-.67-5.52-1.05-11-1.2-16.3-.1-3.58-.1-7.1 0-10.6 1.1-37.32 13.08-69.13 21.1-86.47-11.7-25.57-17.66-57.35-16-94.32 1.32-29.4 7.47-62.1 19.38-97.55l2.47-7.16 2.33-6.4q1-2.62 2-5.26l2.46-6.3 1.6-4a583.9 583.9 0 0 1 27.36-57.45q7.53-13.9 16.15-28.17 2.2-3.62 4.42-7.13A378.6 378.6 0 0 1 436 440.44a364.5 364.5 0 0 1 59.52-44.88 378.7 378.7 0 0 1 52.66-26.51c66-27 118.9-27.46 118.9-27.46s189.18 1.52 298 181.46c70.2 116.1 85.06 213.8 67 280.8v.14c21.75 47.7 54.82 78.44 58 81.36l.26.24c-33-4.6-57.93-30.8-71.22-48.34z" opacity=".55" fill="url(#A)"/><path d="M507.74 388.63q-6 3.36-12.1 7l-.08.05a366.75 366.75 0 0 0-59.48 44.8l-.1-.06c-41.17-21-81.9-37.35-116.54-42.74l-.66-.1v-.14a37.07 37.07 0 0 1 3.2-16c.18.16.38.3.58.46a10.83 10.83 0 0 0 1.48.91l.18.1c3.6 1.84 8.58 2.53 12.22 2.77a3 3 0 0 0 3-4 64.9 64.9 0 0 1-3.86-20.25c93.96-97.06 169.97 23.64 172.18 27.2z" fill="#ffe2f4"/><g fill="#7f7f7f"><path d="M1006.65 399.1c-32.77 6.46-70.37 21.8-108.35 41.2l-2.36-2.17q-5.2-4.75-10.47-9.2l-2.13-1.78-6.46-5.26-2.4-1.88-2.4-1.86-2.4-1.84-2.4-1.8-3.4-2.5q-6.63-4.8-13.27-9.16l-2-1.3-6.65-4.22-2-1.2-1.68-1c-.8-.5-1.6-1-2.4-1.44l-2.4-1.42-2.57-1.5-2.23-1.26-1.92-1.07-2.63-1.45-2.62-1.42 1.15-1.75c.12-.2.26-.4.4-.6 1.14-1.7 2.77-4 4.85-6.75l.8-1 .85-1.1c.28-.37.58-.74.88-1.12a173.49 173.49 0 0 1 18.08-19.49l1.5-1.37 1.53-1.35 1.6-1.37 1.6-1.35.24-.2 1.4-1.14a18.97 18.97 0 0 1 .84-.67l1.7-1.3c.3-.22.57-.44.87-.65q2-1.5 4.14-3c.7-.48 1.4-1 2.12-1.43.5-.35 1-.7 1.56-1l.92-.58a55.55 55.55 0 0 1 2.24-1.36l1.87-1.08a61.27 61.27 0 0 1 3.1-1.69l1.4-.72 1.42-.7 1.44-.7a81.9 81.9 0 0 1 4.39-1.91c.87-.35 1.74-.7 2.62-1l.12-.05 1.1-.4a67.04 67.04 0 0 1 3.86-1.27l1.48-.43c.52-.15 1-.3 1.57-.43s1.06-.28 1.6-.4a59.64 59.64 0 0 1 2.72-.6 21.62 21.62 0 0 1 1.4-.27l.93-.17a28.61 28.61 0 0 1 1.48-.25l1.43-.2 1.83-.22 1.68-.17c.28 0 .56-.06.85-.07l1.07-.08c.48 0 1-.06 1.47-.08s1 0 1.53-.05a77.83 77.83 0 0 1 25.28 3.59l1.93.62a87.35 87.35 0 0 1 5.77 2.17l2 .84a103.2 103.2 0 0 1 3.88 1.81l2 1 .82.43 1.54.84q3.8 2.1 7.64 4.63l2.42 1.63q1.83 1.28 3.67 2.64l3.7 2.85 3.72 3.06 1.24 1.07 2.5 2.2q4.38 4 8.82 8.55a64.58 64.58 0 0 1-3.82 20.1 3 3 0 0 0 3 4c4.45-.3 10.92-1.26 14.35-4.2a37.25 37.25 0 0 1 3.09 17.2zM970 344.23q1.85 1.36 3.7 2.85l-3.7-2.85z"/><path d="M973.7 347.08q1.86 1.47 3.72 3.06l-3.72-3.06z"/></g><path d="M981.9 552.27c81.95-53.95 78.65-115.9 72.73-155.42l-2.62-16.6c-5.57-37.37-23.06-68.4-48.5-69.94s5.57-.83 5.57-18.33-46.92-11.13-59.64-8.74 20.67-25.45 20.67-25.45c-31.33-9.15-58.12-8.93-80.84-3C811 275 780.94 362.53 779.67 366.3c-61.9-24.1-110.82-24.9-112.5-24.92v66l.08 185.62v211.05l364.75-.12c5.48-20.17 8-43.13 6.85-68.54-2.3-51.83-19.54-113.8-56.94-183.12zM822.67 383.8c.12-.2.25-.4.4-.6 1.14-1.7 2.77-4 4.85-6.75.25-.33.5-.68.8-1l.85-1.1c.28-.37.58-.74.88-1.12a173.49 173.49 0 0 1 18.08-19.49c.5-.46 1-.9 1.5-1.37l1.53-1.35 1.6-1.37 1.6-1.35.24-.2 1.4-1.14a18.97 18.97 0 0 1 .84-.67l1.7-1.3c.3-.22.57-.44.87-.65q2-1.5 4.14-3c.7-.48 1.4-1 2.12-1.43.5-.35 1-.7 1.56-1l.92-.58a55.55 55.55 0 0 1 2.24-1.36l1.87-1.08a61.27 61.27 0 0 1 3.1-1.69l1.4-.72 1.42-.7 1.44-.7a81.9 81.9 0 0 1 4.39-1.91c.87-.35 1.74-.7 2.62-1l.12-.05 1.1-.4a67.04 67.04 0 0 1 3.86-1.27l1.48-.43c.52-.15 1-.3 1.57-.43s1.06-.28 1.6-.4c.9-.22 1.8-.42 2.72-.6.46-.1.93-.2 1.4-.27l.93-.17c.5-.1 1-.18 1.48-.25l1.43-.2 1.83-.22 1.68-.17c.28 0 .56-.06.85-.07l1.07-.08c.48 0 1-.06 1.47-.08s1 0 1.53-.05a77.83 77.83 0 0 1 25.28 3.59l1.93.62a87.35 87.35 0 0 1 5.77 2.17l2 .84a103.2 103.2 0 0 1 3.88 1.81l2 1 .82.43 1.54.84q3.8 2.1 7.64 4.63l2.42 1.63q1.83 1.28 3.67 2.64c1.23.92 2.46 1.86 3.7 2.85l3.72 3.06 1.24 1.07 2.5 2.2q4.38 4 8.82 8.55a64.58 64.58 0 0 1-3.82 20.1 3 3 0 0 0 3 4c4.45-.3 10.92-1.26 14.35-4.2a37.25 37.25 0 0 1 3.14 17.25c-32.77 6.46-70.37 21.8-108.35 41.2l-2.36-2.17q-5.2-4.75-10.47-9.2l-2.13-1.78-6.46-5.26-2.47-1.93q-1.2-.94-2.4-1.86l-2.4-1.84-2.4-1.8-3.4-2.5q-6.63-4.8-13.27-9.16l-2-1.3-6.65-4.22c-.65-.4-1.3-.82-2-1.2l-1.68-1c-.8-.5-1.6-1-2.4-1.44l-2.4-1.42-2.57-1.5-2.23-1.26-1.92-1.07c-.87-.5-1.75-1-2.63-1.45l-2.62-1.42c.3-.4.67-1 1.18-1.75z" fill="#565656"/><path d="M974.58 804H666.2V365.7s278.7-20.23 334.8 378.6h-59.2s26.04 41.17 32.78 59.7z" fill="#7f7f7f"/><path d="M666.53 365.73s-278.7-20.25-334.8 378.58h59.2s-26.47 45.2-31.52 59.7h64.24s-39 36.9-29.6 41.57 53-7.8 74.78-14c0 0 10.9 23.37-14 48.3 0 0-4.7 12.46 25.7 0s53.25 1.56 66 23.37 54.7 70.68 120 70.75h0c65.43 0 107.5-49 120.2-70.76s35.58-35.83 66-23.37 25.7 0 25.7 0c-24.93-24.93-14-48.3-14-48.3 21.82 6.24 65.44 18.7 74.8 14S909.53 804 909.53 804H666.67z" fill="#ffe2f4"/><path d="M1044.38 497.28s91.27-30.35 137.44 60.7c-.9-.32-47.57-17.22-82.67 3.88 0 0 55.84 26.48-2.15 58.76 0 0 31.14 14.86 34.36 36.8 0 0-47.24-10.33-83.75 4.52 0 0 46.17 17.43 50.47 40 0 0-30.07-5.8-50.47 0 0 0 11.8 21.3 6.44 37.46 0 0-6.25-2-15.22-4.1h-.2c-10-2.3-23.25-4.6-35.05-4.27 0 0 9.66 18.73-4.3 31.64 0 0-12.88-11-49.4-10.33 0 0 33.3 18.73 24.7 51.66h0c-.55-1.1-36.84-71.67-190.05-71.67h-117.7v-139l.42-.34c7.1-5.7 103.5-82.5 204.6-138.55l2.44-1.34q4.7-2.6 9.42-5.1 7.08-3.8 14.16-7.43l.42-.2c38-19.4 75.58-34.75 108.35-41.2 13.7-2.7 26.57-3.86 38.26-3.1q5 .33 9.73.85c112.3 12.32 86 102.78 163.94 90.3 0 0-16.34 40.48-80.77 9.5s-93.43.6-93.43.6z" fill="#c6c6c6"/><path d="M732 642.94c-1.5-5.94-3-20.73 6.75-48.33 0 0-36.82 26.7-31.77 97.24s79.37 24.54 98 13.2 51-18.27 101.32 11.35c0 0-8-27.27-50.25-38.6a1.46 1.46 0 0 1-.17-2.77c11.06-4.58 45.83-13.34 91 30.66 0 0-14.3-53.06-48-59.8a.77.77 0 0 1 0-1.5c8.25-2.4 32.48-6.53 59.74 15.9 0 0-27.6-59.36-81.88-68a.56.56 0 0 1 0-1.12c12.73-1.12 46.54-3.6 63.73-.1 0 0-60.84-52.46-140 4a1.76 1.76 0 0 1-2.81-1.33c-.06-4.3 3.38-14.3 25.66-34.47 0 0-53.5 8.13-88.88 83.9a1.32 1.32 0 0 1-2.44-.27z" fill="#565656"/><g fill="#1e1e1e"><path d="M761.7 669.34h0c-3.8 1.93-8 1.43-9.28-1.12l-5.9-11.36c-1.3-2.55.7-6.18 4.5-8.1h0c3.8-1.92 8-1.42 9.3 1.12l5.88 11.37c1.32 2.54-.7 6.17-4.5 8.1zm14.42 27.88h0c-3.8 1.93-8 1.43-9.28-1.1L761 684.74c-1.32-2.55.7-6.17 4.5-8.1h0c3.8-1.93 8-1.43 9.28 1.12l5.88 11.36c1.33 2.55-.74 6.17-4.55 8.1zm-7.12-27h0c-1.32-2.54.7-6.17 4.5-8.1l17-8.6c3.8-1.92 8-1.42 9.28 1.12h0c1.32 2.55-.7 6.17-4.5 8.1l-17 8.6c-3.77 1.93-7.93 1.43-9.28-1.12zm-41.68 21.13h0c-1.3-2.55.7-6.18 4.5-8.1l17-8.6c3.8-1.93 8-1.43 9.28 1.1h0c1.32 2.55-.7 6.18-4.5 8.1l-17 8.6c-3.8 1.93-7.96 1.43-9.28-1.1z"/><circle cx="821.13" cy="445.32" r="11.4"/></g><g fill="#7f7f7f"><path d="M827.636 450.46l-2.866 2.324-10.126-12.49 2.866-2.324z"/><path d="M826.26 438.814l2.324 2.866-12.49 10.126-2.324-2.866z"/></g><circle cx="1007.49" cy="777.74" r="11.4" fill="#1e1e1e"/><g fill="#7f7f7f"><path d="M1015.687 777.363l-.687 3.625-15.8-2.994.687-3.625z"/><path d="M1007.113 769.543l3.625.687-2.994 15.8-3.625-.687z"/></g><circle cx="691.08" cy="513.59" r="11.4" fill="#1e1e1e"/><g fill="#7f7f7f"><path d="M698.966 511.02l.34 3.674-16.012 1.477-.34-3.674z"/><path d="M688.54 505.744l3.674-.34 1.477 16.012-3.674.34z"/></g><path d="M461.07 388.83c-.68-11.67-7.24-22.8-14.74-31.45s-17.62-14.75-29.1-15.25c-7.4-.33-15 2.5-21.65 5.38s-12.5 6.5-16.16 12.72a54.81 54.81 0 0 0-6.33 18c-3.4 19.34 2.8 38.25 20.07 48.63l.5.3q.27.15.54.27c17.15 8.84 39.27 3.56 53.28-8.9 8.26-7.35 14.26-18.46 13.6-29.7zm-70.14-28.46c11-8.66 27.56-12.4 39.8-4.77a37 37 0 0 1 4.76 3.55 120.29 120.29 0 0 0-24 25.14l-29.53-5.16c1.2-7.06 3.82-14.7 8.97-18.76zm7.27 59c-11.66-6.8-17.2-18.2-17.08-31.28l30.5 5.34c8.4 6.82 15.5 15.34 22 24.05-10.93 5.98-24.72 7.6-35.4 1.9zm47.45-11.95a35.43 35.43 0 0 1-4.72 4.94c-6.35-8.6-13.25-17.05-21.37-24a107.82 107.82 0 0 1 22.08-22.71 63.13 63.13 0 0 1 7.32 12c4.8 10.3 3.7 20.83-3.3 29.77z" fill="#d800af"/><path d="M667.18 593.3v139H549.5c-153.22.03-189.5 70.6-190.06 71.7h0c-8.6-32.93 24.7-51.66 24.7-51.66-36.5-.7-49.4 10.33-49.4 10.33-14-12.9-4.3-31.64-4.3-31.64-11.8-.34-25.1 2-35.06 4.27h-.08c-9 2.07-15.33 4.1-15.33 4.1-5.37-16.13 6.44-37.4 6.44-37.4-20.4-5.8-50.47 0-50.47 0 4.3-22.6 50.47-40 50.47-40-36.5-14.85-83.76-4.52-83.76-4.52 3.22-21.95 34.36-36.8 34.36-36.8-58-32.28-2.15-58.76-2.15-58.76-35.1-21.1-81.76-4.2-82.67-3.88 42-82.9 121.5-65.14 135.36-61.3a55.97 55.97 0 0 1 2.08.62 27.34 27.34 0 0 0-3.53-3c-9.5-7.1-38.35-22.4-89.9 2.4-64.43 31-80.78-9.5-80.78-9.5 76.06 12.17 52.88-73.6 155.9-89.26 5.55-.84 11.46-1.48 17.77-1.9a117.81 117.81 0 0 1 10-.2c1.43 0 2.88.1 4.34.18.43 0 .86 0 1.3.07a74.14 74.14 0 0 1 2.54.19l1.5.13 1.73.17c2.7.27 5.46.63 8.25 1.06l.66.1c34.63 5.4 75.37 21.7 116.54 42.74l.1.06q4.55 2.33 9.1 4.72 6.87 3.6 13.73 7.4l1.36.75c101.1 55.74 198 132.8 206.35 139.46z" fill="#ff5cff"/><g fill="#d800af"><path d="M606.92 642.94c1.52-5.94 3-20.73-6.75-48.33 0 0 36.82 26.7 31.78 97.24s-79.38 24.54-98.05 13.2-51-18.27-101.33 11.35c0 0 8-27.27 50.26-38.6a1.46 1.46 0 0 0 .17-2.8c-11.05-4.58-45.82-13.34-91 30.66 0 0 14.3-53.06 48-59.8a.77.77 0 0 0 0-1.5c-8.24-2.4-32.47-6.53-59.73 15.9 0 0 27.6-59.36 81.88-68a.56.56 0 0 0 0-1.12c-12.73-1.12-46.53-3.6-63.72-.1 0 0 60.84-52.46 140 4a1.76 1.76 0 0 0 2.81-1.33c.06-4.3-3.38-14.3-25.67-34.47 0 0 53.5 8.13 88.88 83.9a1.32 1.32 0 0 0 2.47-.23zM769.9 912a8 8 0 0 1-16 0c0-16.46-19.78-27.52-49.22-27.52-18.85 0-30.63-10.85-37.5-23.24-6.87 12.4-18.64 23.24-37.5 23.24-29.45 0-49.23 11.06-49.23 27.52a8 8 0 0 1-16 0c0-26 26.2-43.52 65.23-43.52 10.78 0 18.68-5.33 24.17-16.3a59.11 59.11 0 0 0 5.32-17.6v-20.23c2.16.08 4.45.13 7 .13 3.33 0 6.27-.08 9-.24v20.35c.43 3.7 4.76 33.87 29.5 33.87 39 0 65.22 17.53 65.22 43.53z"/></g><path d="M703.45 811c-12.48 1.6-19.63 2.8-28.27 3.28-2.78.16-5.72.24-9 .24-2.5 0-4.8 0-7-.13-9.63-.4-16.88-1.67-30.36-3.4-16.5-2.1-76.77-18.3-44.48-72.55 23.8-40 56.95-54.32 72.74-59.1a31.21 31.21 0 0 1 18.11 0c15.8 4.77 48.94 19.1 72.74 59.1 32.3 54.2-27.93 70.4-44.48 72.55z" fill="#3f3f3f"/><g fill="#d800af"><path d="M732.08 674.73a29.343 29.343 0 0 0 52.77-25.68zm156.85-457.05c-14.47 24.6-50.64 26.76-80.3 28.93-29.2 2.14-45.07 27.4-45.56 28.2 9.38-37.6-9.42-45.56-18.1-60s0-43.4 0-43.4c-39.8 6.5-61.5 34.72-61.5 34.72-12.3-11.57-10.13-34.72-10.13-34.72-26.76 10.13-47 60.77-47 54.25s-10.85-19.53-39.07-33.27-21.7-49.92-21.7-49.92c-15.9 11.58-13.74 30.38-13.74 30.38 13.74 43.4-17.37 64.4-17.37 64.4-2.14-34.2-42.12-41.73-43.37-42 18.77 10.16 13.7 42.68 0 59.3a106 106 0 0 0-12.87 20.28c31.44 21.86 51.4 53.86 62 75.13-9 104.75 55.5 145.16 34.32 116.1C553 436.6 596 367.62 596 367.62c27.5 44.48 0 128 0 128 37.55-33.1 55.3-73.6 63.7-105.68 8.88 17.07 25.25 40.87 51.93 54.45 0 0-11.74-54.92-1.6-97.92a388.54 388.54 0 0 1 69.59 19.88c1.27-3.77 31.36-91.26 109.6-111.54 5.17-19.24-.3-37.13-.3-37.13z"/></g><path d="M575.63 669.5a12 12 0 0 1-21.41-10.42l-17.3-8.42a29.34 29.34 0 0 0 52.77 25.67z" fill="#ffe0e0"/></g></g></svg>