<svg xmlns="http://www.w3.org/2000/svg" viewBox="0 0 1334 1334" xmlns:v="https://vecta.io/nano"><style><![CDATA[.A{isolation:isolate}.E{mix-blend-mode:multiply}]]></style><defs><linearGradient id="A" x1="679.57" y1="247.6" x2="679.57" y2="1188.15" gradientUnits="userSpaceOnUse"><stop offset=".53" stop-color="#fff"/><stop offset=".54" stop-color="#f8f8f8"/><stop offset=".77" stop-color="#a7a7a7"/><stop offset=".92" stop-color="#747474"/><stop offset="1" stop-color="#606060"/></linearGradient></defs><g class="A"><g><path d="M507.24 385.15a370.69 370.69 0 0 0-33 20.7 366.58 366.58 0 0 0-57.75 50.42c-14.4-16-18.3-28.14-18.3-28.14-7.52 17.58-1.3 32.7 5.58 42.56q-3.57 4.26-7.08 8.7c-21.84-5.7-29.07-14.07-29.07-14.07-15.77 10.67-9 30.67-9 30.67-9.8-1.2-20.32-4.36-29.07-7.55-23.32-32.8-17-70-17-70l18.6 8.34a1 1 0 0 0 1.14-1.55c-21-24.14-9.4-46.55-9.4-46.55 3.44 2.94 9.9 3.9 14.35 4.2a3 3 0 0 0 3-4 64.58 64.58 0 0 1-3.82-20.1c87.98-90.96 160.97 11.5 170.8 26.36z" fill="#ffc"/><path d="M994.77 491.67a117.13 117.13 0 0 1-19.4 4.31s6.77-20-9-30.65c0 0-7.2 8.3-28.86 14q-3.56-4.5-7.18-8.8c6.85-9.87 13-24.9 5.47-42.4 0 0-3.88 12.05-18.17 28a364.87 364.87 0 0 0-44.34-40.48 368.71 368.71 0 0 0-51.49-33.31c5.86-9.2 77.8-117.3 168.47-23.6a64.58 64.58 0 0 1-3.82 20.1 3 3 0 0 0 3 4c4.45-.3 10.9-1.26 14.35-4.2 0 0 11.57 22.4-9.4 46.55a1 1 0 0 0 1.14 1.55l18.6-8.34s6.8 39.73-19.37 73.27z" fill="#7f7f7f"/><path d="M1090 882.17s-35.42-31.42-58.3-81.62c18.14-67 3.3-164.73-66.92-280.9-108.78-179.94-298-181.47-298-181.47s-52.72.43-118.5 27.3h0c-5.04-13.33-25.6-61.47-67.27-91.93-29.94-21.9-70.8-34.68-124.64-19 0 0 33.4 27.83 20.68 25.45s-59.65-8.75-59.65 8.74 31 16.77 5.57 18.33-42.96 32.62-48.55 70c-4.6 30.9-18.73 87.27 32.87 141.43 10.78 11.33 24.45 22.56 41.68 33.44l3-2.7.07-.06c-63.95 118.6-68.93 215.72-40.87 277-9.9 21.38-25.8 64.78-19.9 113.37 0 0 4.17-41.77 27.15-63.7 0 0-20.9 82.5 0 134.73 0 0 10.45-80.22 48-94.42 0 0-37.6 69.35 12.54 192.6 0 0 18.8-71 58.5-94 0 0 12.53 106.53 102.35 135.78 0 0-12.53-77.3 20.9-106.53 0 0 37.6 41.77 37.6 123.24 0 0 64.75-20.9 66.84-121.15 0 0 71 50.13 64.75 142 0 0 56.4-12.54 35.5-158.75 0 0 16.7 71 104.45 73.1 0 0-39.7-50.13-18.8-102.35 0 0 87.73 6.27 73.1 108.62 0 0 73.77-49.2 62.9-235.78a117.47 117.47 0 0 0 15.07-14.64c6.66 9.33 13.3 24.24 16 47.8a228.06 228.06 0 0 0-3.74-64.68q2.28-3.72 4.37-7.67c13.32 17.62 38.27 43.85 71.27 48.45zM329.56 488.43c-23.32-32.8-17-70-17-70l18.6 8.34a1 1 0 0 0 1.14-1.55c-21-24.14-9.4-46.55-9.4-46.55 3.44 2.94 9.9 3.9 14.35 4.2a3 3 0 0 0 3-4 64.58 64.58 0 0 1-3.82-20.1c88-90.93 161 11.52 170.8 26.4a370.69 370.69 0 0 0-33 20.7 366.58 366.58 0 0 0-57.75 50.42c-14.4-16-18.3-28.14-18.3-28.14-7.52 17.58-1.3 32.7 5.58 42.56q-3.57 4.26-7.08 8.7c-21.84-5.7-29.07-14.07-29.07-14.07C351.85 476 358.63 496 358.63 496c-9.8-1.2-20.32-4.38-29.07-7.57z" fill="#ff0"/><path class="E" d="M1090 882.17s-35.42-31.42-58.3-81.62c18.14-67 3.3-164.73-66.92-280.9-108.78-179.94-298-181.47-298-181.47s-52.72.43-118.5 27.3h0c-5.04-13.33-25.6-61.47-67.27-91.93-29.94-21.9-70.8-34.68-124.64-19 0 0 33.4 27.83 20.68 25.45s-59.65-8.75-59.65 8.74 31 16.77 5.57 18.33-42.96 32.62-48.55 70c-4.6 30.9-18.73 87.27 32.87 141.43 10.78 11.33 24.45 22.56 41.68 33.44l3-2.7.07-.06c-63.95 118.6-68.93 215.72-40.87 277-9.9 21.38-25.8 64.78-19.9 113.37 0 0 4.17-41.77 27.15-63.7 0 0-20.9 82.5 0 134.73 0 0 10.45-80.22 48-94.42 0 0-37.6 69.35 12.54 192.6 0 0 18.8-71 58.5-94 0 0 12.53 106.53 102.35 135.78 0 0-12.53-77.3 20.9-106.53 0 0 37.6 41.77 37.6 123.24 0 0 64.75-20.9 66.84-121.15 0 0 71 50.13 64.75 142 0 0 56.4-12.54 35.5-158.75 0 0 16.7 71 104.45 73.1 0 0-39.7-50.13-18.8-102.35 0 0 87.73 6.27 73.1 108.62 0 0 73.77-49.2 62.9-235.78a117.47 117.47 0 0 0 15.07-14.64c6.66 9.33 13.3 24.24 16 47.8a228.06 228.06 0 0 0-3.74-64.68q2.28-3.72 4.37-7.67c13.32 17.62 38.27 43.85 71.27 48.45zM329.56 488.43c-23.32-32.8-17-70-17-70l18.6 8.34a1 1 0 0 0 1.14-1.55c-21-24.14-9.4-46.55-9.4-46.55 3.44 2.94 9.9 3.9 14.35 4.2a3 3 0 0 0 3-4 64.58 64.58 0 0 1-3.82-20.1c88-90.93 161 11.52 170.8 26.4a370.69 370.69 0 0 0-33 20.7 366.58 366.58 0 0 0-57.75 50.42c-14.4-16-18.3-28.14-18.3-28.14-7.52 17.58-1.3 32.7 5.58 42.56q-3.57 4.26-7.08 8.7c-21.84-5.7-29.07-14.07-29.07-14.07C351.85 476 358.63 496 358.63 496c-9.8-1.2-20.32-4.38-29.07-7.57z" opacity=".55" fill="url(#A)"/><path d="M1025 512.43c45.07-52.26 31.82-105.62 27.38-135.37-5.57-37.38-23.06-68.4-48.5-69.95s5.57-.83 5.57-18.33-46.92-11.13-59.65-8.74 20.68-25.45 20.68-25.45c-30.66-9-57-8.94-79.4-3.4-79.32 19.57-109.77 108.1-111 111.9-54.36-21.1-98.66-24.34-109.88-24.83h0-.63c-.92 0-1.55-.05-1.86-.06h-.18l.13 462.63h364.63c16.68-61.27 5.74-148.33-50-251.73 18.06-11.97 32-24.3 42.7-36.67zm-34.7-153.67a64.58 64.58 0 0 1-3.82 20.1 3 3 0 0 0 3 4c4.45-.3 10.9-1.26 14.35-4.2 0 0 11.57 22.4-9.4 46.55a1 1 0 0 0 1.14 1.55l18.6-8.34s6.77 39.72-19.4 73.26a117.13 117.13 0 0 1-19.4 4.31s6.77-20-9-30.65c0 0-7.2 8.3-28.86 14q-3.56-4.5-7.18-8.8c6.85-9.87 13-24.9 5.47-42.4 0 0-3.88 12.05-18.17 28a364.87 364.87 0 0 0-44.34-40.48 368.71 368.71 0 0 0-51.49-33.31c5.9-9.2 77.83-117.34 168.5-23.58z" fill="#565656"/><path d="M979.5 800.8h-313V362.5s278.7-20.25 334.8 378.58h-59.2s26.5 53.97 37.42 59.7z" fill="#7f7f7f"/><path d="M666.85 362.52s-278.7-20.25-334.78 378.58h59.2s-26.5 53.95-37.4 59.7H424s-39 36.9-29.6 41.57 53-7.8 74.78-14c0 0 10.9 23.37-14 48.3 0 0-4.68 12.46 25.7 0s53.25 1.56 66 23.37 54.7 60.68 120 60.75h0c65.44 0 107.5-38.95 120.2-60.76s35.58-35.83 66-23.37 25.7 0 25.7 0c-24.93-24.93-14-48.3-14-48.3 21.82 6.24 65.44 18.7 74.8 14s-29.6-41.58-29.6-41.58H667z" fill="#ffc"/><path d="M666.92 581.57V771s-222.25 61.17-355.8 55.3a259.3 259.3 0 0 1-43.17-5.11c-121-26.32-77-116.72-158.18-116 0 0 22.18-37.6 81.28 2.63s92.48 13.26 92.48 13.26-94.8 16.43-126.9-80.47c0 0 44.13 24.26 82.34 8.46 0 0-51.28-34.48 10.86-57.8 0 0-28.58-19.3-28.5-41.5 0 0 45.2 17.24 83.5 8 0 0-43.06-24.1-43.95-47.1 0 0 25.82 9.14 46.42 7.83 1.18-.07 2.35-.18 3.5-.33 0 0-8.5-22.83-.8-38a209.37 209.37 0 0 0 19.59 8.26c8.75 3.2 19.28 6.36 29.07 7.55 0 0-6.78-20 8.95-30.65 0 0 7.23 8.36 29.07 14.07 3.2.84 6.74 1.62 10.6 2.3 2.4.43 4.95.83 7.63 1.18a50.4 50.4 0 0 1-4.48-4.13 65.91 65.91 0 0 1-6.68-8.07c-6.9-9.87-13.1-25-5.58-42.56 0 0 3.9 12.12 18.3 28.14q3.78 4.23 8.6 8.77c3 2.78 6.25 5.64 9.86 8.5 26 20.74 69.35 43 140.55 53.73 45.17 6.78 73.87 51.63 91.47 54.28z" fill="#f9ec06"/><circle cx="821.45" cy="442.12" r="11.4" fill="#1e1e1e"/><g fill="#7f7f7f"><path d="M827.952 447.25l-2.866 2.324-10.126-12.49 2.866-2.324z"/><path d="M826.6 435.618l2.324 2.866-12.49 10.126-2.324-2.866z"/></g><circle cx="691.4" cy="510.38" r="11.4" fill="#1e1e1e"/><g fill="#7f7f7f"><path d="M699.272 507.806l.34 3.674-16.012 1.477-.34-3.674z"/><path d="M690.852 505.947l3.7-.332 1.447 16.08-3.7.332z"/></g><path d="M413.43 341c-11.14-2.2-22.8-.3-31.56 7.25s-14.8 19.4-17.44 30.4c-2.7 11.2-1.43 23.73 6 32.93a64.67 64.67 0 0 0 17.22 14.51c11.5 6.75 24.8 4.35 36.55-.7 16.94-7.28 28.3-22 28.4-40.8-.7-20.93-19.06-39.58-39.16-43.58zm-33.62 24.07c5.15-8.73 12.4-15.36 23-15.93a35.66 35.66 0 0 1 13.37 2c-4.26 9.77-8.14 19.94-10.07 30.4a107.92 107.92 0 0 1-30.64-7.75 68.65 68.65 0 0 1 4.34-8.73zm19.3 56.13c-6-.95-12.2-6.2-16.73-10.3-5.13-4.66-8.8-9.62-10-16.73a32.78 32.78 0 0 1 .38-11.85 120.9 120.9 0 0 0 33.77 8.25l10.27 28.15c-5.8 2.13-12.2 3.36-17.7 2.5zm26.16-6.34l-.26.14-10.6-29.1c1.7-10.67 5.54-21.06 9.85-31 10.72 6.4 18.9 17.46 19.32 29.7-.04 13.23-6.87 23.86-18.3 30.28z" fill="#f9ec06"/><path d="M854.3 917.63c0 69.84-84.1 126.45-187.83 126.45s-187.83-56.6-187.83-126.45V841H854.3z" fill="#ffc"/><circle cx="1003.56" cy="778.19" r="11.4" fill="#1e1e1e"/><g fill="#7f7f7f"><path d="M1011.754 777.818l-.687 3.625-15.8-2.994.687-3.625z"/><path d="M1003.188 769.996l3.625.687-2.994 15.8-3.625-.687z"/></g><path d="M1224.25 705.17c-81.17-.76-37.18 89.64-158.18 116-93.23 20.28-279.65-5.65-360.3-20.34-21.38-3.9-35.32-7-38.13-8.24l-.15-.07V581.57h.08c17.63-2.78 46.2-47.55 91-54.28C828 516.83 871 495.35 897.2 475.05c3.46-2.68 6.62-5.33 9.5-7.95a145.24 145.24 0 0 0 11-11c14.3-16 18.17-28 18.17-28 7.5 17.5 1.38 32.53-5.47 42.4a65 65 0 0 1-9.4 10.74c-1.2 1.08-1.92 1.65-1.92 1.65l3.14-.44a141.76 141.76 0 0 0 15.31-3.11c21.67-5.7 28.86-14 28.86-14 15.73 10.7 9 30.65 9 30.65a117.13 117.13 0 0 0 19.4-4.31 211.66 211.66 0 0 0 29.26-11.5c5.3 10.43 2.93 24.5.93 32.26-.9 3.5-1.73 5.73-1.73 5.73 21 2.72 49.9-7.5 49.9-7.5-.9 23-44 47.1-44 47.1 38.3 9.26 83.5-8 83.5-8 .08 22.2-28.5 41.5-28.5 41.5 62.15 23.3 10.87 57.8 10.87 57.8 38.2 15.8 82.34-8.46 82.34-8.46-32.12 96.9-126.9 80.46-126.9 80.46s33.38 27 92.48-13.26 81.3-2.62 81.3-2.62z" fill="#c6c6c6"/><path d="M567.76 609.52c-3.22-7.4-13.58-24-46-44.75 0 0 59.77-2 111.45 75.35s-62.63 89.5-91.17 92.8-67.75 22.2-96.04 93.54c0 0-13.72-34.75 21.06-80.6a1.93 1.93 0 0 0-2.07-3C449.78 747 406.6 766 395.17 848.12c0 0-28-66.63 1.63-100.84a1 1 0 0 0-1.16-1.6c-10.5 4.17-39 19.42-49.2 64.7 0 0-19.22-83.9 30.15-136.7a.74.74 0 0 0-.93-1.14c-14.13 9.1-51.24 33.8-66.26 51.3 0 0 20.85-103.56 148.57-108.82a2.32 2.32 0 0 0 1.84-3.66c-3.4-4.52-15.05-12.13-54.46-15.1 0 0 62.1-34.7 160 15.43a1.73 1.73 0 0 0 2.41-2.2z" fill="#d6cc00"/><path d="M518.75 608.1c9.13-10.05 19.34-17.12 32.16-20.14a55.8 55.8 0 0 1 68.78 51c1.6 23.38-6.94 42.54-22 59.6-15.25 17.2-33.8 30.45-51.8 44.45-8.28 6.45-15.85 13.8-24 20.42-1.27 1-4.6 1.4-5.7.5l-64.7-53.7c-13.55-11.68-24.92-25.42-30.33-42.93-5.8-18.8-5.9-37.6 4.93-54.7 20.08-31.7 64.06-34.92 90.16-7.14l2.5 2.66z" fill="#ffc"/><path d="M765.3 611.22c3.2-7.33 13.44-23.76 45.57-44.33 0 0-59.2-2-110.4 74.64s62 88.67 90.3 91.93 67.1 22 95.16 92.67c0 0 13.6-34.43-20.86-79.87a1.92 1.92 0 0 1 2-3c15 4.13 57.8 22.9 69.14 104.3 0 0 27.7-66-1.62-99.9a1 1 0 0 1 1.15-1.59c10.4 4.13 38.63 19.24 48.74 64.1 0 0 19-83.12-29.86-135.43a.73.73 0 0 1 .92-1.12c14 9 50.75 33.48 65.64 50.82 0 0-20.66-102.6-147.18-107.8a2.3 2.3 0 0 1-1.83-3.62c3.4-4.48 14.9-12 53.95-14.95 0 0-61.52-34.38-158.5 15.28a1.71 1.71 0 0 1-2.34-2.16z" fill="#565656"/><g fill="#1e1e1e"><rect x="799.14" y="551.47" width="42.36" height="94.57" rx="11.77"/><rect x="799.14" y="705.31" width="42.36" height="94.57" rx="11.77"/><rect x="888.93" y="628.39" width="42.36" height="94.57" rx="11.77" transform="matrix(0 1 -1 0 1585.78 -234.43)"/><rect x="709.36" y="628.39" width="42.36" height="94.57" rx="11.77" transform="matrix(0 1 -1 0 1406.21 -54.86)"/></g><path d="M820.5 609.57c8.9-9.8 18.86-16.7 31.35-19.65a54.43 54.43 0 0 1 67.08 49.72c1.57 22.8-6.77 41.48-21.47 58.1-14.86 16.8-33 29.74-50.5 43.4-8.07 6.28-15.46 13.44-23.4 19.9-1.23 1-4.5 1.35-5.56.47l-63.1-52.36c-13.2-11.4-24.3-24.8-29.57-41.87-5.67-18.33-5.77-36.67 4.8-53.35 19.6-30.9 62.47-34.05 87.93-7z" fill="#d6cc00"/><path d="M748.25 735.2c-23.8-40-57-54.32-72.74-59.1a31.21 31.21 0 0 0-18.11 0c-15.8 4.77-48.94 19.1-72.74 59.1-32.3 54.24 28 70.44 44.5 72.55s23.67 3.52 37.3 3.52 20.8-1.4 37.3-3.52 76.77-18.3 44.48-72.55z" fill="#3f3f3f"/><path d="M889.25 221.1c-14.47 24.6-50.64 26.77-80.25 28.9-29.2 2.14-45.08 27.4-45.57 28.2 9.4-37.6-9.4-45.56-18.1-60s0-43.4 0-43.4c-39.8 6.5-61.5 34.72-61.5 34.72-12.3-11.57-10.13-34.72-10.13-34.72-26.77 10.13-47 60.77-47 54.26s-10.85-19.54-39.07-33.28-21.7-49.92-21.7-49.92c-15.92 11.58-13.75 30.4-13.75 30.4 13.75 43.4-17.36 64.38-17.36 64.38-2.14-34.18-42.12-41.73-43.37-42 18.77 10.16 13.7 42.68 0 59.3A100.78 100.78 0 0 0 481 273.54c30.75 22.47 50 54.5 60 75.13C529.6 456.92 596.36 499 574.86 469.5s21.5-98.5 21.5-98.5c27.5 44.48 0 128 0 128 37.54-33.1 55.3-73.6 63.7-105.7 8.88 17.07 25.25 40.87 51.93 54.45 0 0-12.94-60.5.1-104.23A390 390 0 0 1 780 363.09c1.28-3.8 31.73-92.34 111-111.9a75.88 75.88 0 0 0-1.75-30.09z" fill="#d6cc00"/><path d="M823.75 850.87l-83.8 1.53c-12.22-1.24-32.82-11.37-73.5-11.37-40.43 0-61.56 10.13-73.78 11.37l-83.54-1.55c-18.87 1.9-31.65-1-27.95 13.7 16.84 67.07 94.18 157 188.7 157 94.88 0 166.84-90.32 182-157.77 3.26-14.43-9.66-11.04-28.12-12.9zM590.1 977.2c88.7-110.5 240.53-110.5 240.53-110.5-65.07 192.88-240.53 110.5-240.53 110.5z" fill="#565656"/></g></g></svg>