<svg xmlns="http://www.w3.org/2000/svg" viewBox="0 0 1334 1334" xmlns:v="https://vecta.io/nano"><style><![CDATA[.A{isolation:isolate}.C{mix-blend-mode:multiply}]]></style><defs><linearGradient id="A" x1="677.18" y1="247.6" x2="677.18" y2="1163.76" gradientUnits="userSpaceOnUse"><stop offset=".53" stop-color="#fff"/><stop offset=".54" stop-color="#f8f8f8"/><stop offset=".77" stop-color="#a7a7a7"/><stop offset=".92" stop-color="#747474"/><stop offset="1" stop-color="#606060"/></linearGradient></defs><g class="A"><g><path d="M1088.86 885.38s-35.08-31.1-58-80.87l1.06-3.72c16.67-61.2 5.76-148.16-49.87-251.43q-7.87-14.64-17-29.72C938 474.8 905.88 441 873 415.6a374.74 374.74 0 0 0-92.5-52.21c-59.08-23.15-106.52-25.06-112.65-25.22h-.67s-52.72.43-118.5 27.3c-5-13.16-25.3-60.7-66.4-91.24-30-22.3-71.18-35.55-125.6-19.65 0 0 33.4 27.83 20.68 25.45s-59.64-8.75-59.64 8.74 31 16.77 5.56 18.33-42.94 32.57-48.5 69.95L272 394.6c-3.8 25.87-6.23 61.06 15.26 97.3l1.08 1.78c12 19.6 31.18 39.46 61 58.27l3-2.75C315 618.43 297.8 680.35 295.5 732.1c-1.55 34.9 3.7 65.15 14.17 89.92-11 11.44-29.52 38.5-23.54 87.78 0 0 8.17-8.77 31.15-30.7 0 0 4.1 52.5 25 104.73 0 0 2.75-32 23-64.42 0 0-.6 49.36 49.54 172.6 0 0 19.67-25.2 21.5-74 0 0 17.8 89.9 71.35 145.78 0 0 18.47-87.3 51.9-116.53 0 0 37.6 11.77 37.6 93.24 0 0 49.6-9 66.84-91.15 0 0 61 20.13 54.75 112 0 0 49.13-48.57 45.5-128.76 0 0 22.72 77 110.45 79.1 0 0-45.7-56.13-24.8-108.35 0 0 140.73-3.73 126.1 98.62 0 0 23-50.8 9.83-227.77a112.72 112.72 0 0 0 10.54-9.33c7.95 13.84 17.27 35.45 20.62 64.48 0 0 3.54-44.42-4.1-85q2.4-3.68 4.57-7.58c13.23 17.58 38.25 44 71.4 48.63zm-768.8-492a36.35 36.35 0 0 1 3.17-14.76c3.44 2.94 9.9 3.9 14.35 4.2a3 3 0 0 0 3-4 64.42 64.42 0 0 1-3.83-20.1c94.63-97.8 170.8 26.4 170.8 26.4h0c-10.3 5.72-20.7 12.14-31.08 19.35a375.05 375.05 0 0 0-26.95 20.61c-45.52-15.8-91.17-28.25-129.46-31.68z" fill="#007887"/><path class="C" d="M1086.9 885.38s-35.07-31.1-58-80.87l1.06-3.72c16.67-61.2 5.76-148.16-49.87-251.43q-7.87-14.64-17-29.72C936 474.8 903.9 441 871 415.6a374.74 374.74 0 0 0-92.5-52.21c-59.1-23.15-106.5-25.06-112.67-25.22h-.67s-52.72.43-118.5 27.3c-5-13.16-25.3-60.7-66.4-91.24-30-22.3-71.18-35.55-125.6-19.65 0 0 33.4 27.83 20.68 25.45s-59.64-8.75-59.64 8.74 31 16.77 5.56 18.33-42.94 32.57-48.5 69.95L270 394.6c-3.8 25.87-6.23 61.06 15.26 97.3l1.08 1.78c12 19.6 31.18 39.46 61 58.27l3-2.75c-37.34 69.24-54.56 131.16-56.85 182.9-1.55 34.9 3.7 65.15 14.17 89.92-11 11.44-29.5 38.5-23.54 87.78 0 0 8.18-8.77 31.15-30.7 0 0 4.12 52.5 25 104.73 0 0 2.75-32 23.05-64.42 0 0-.6 49.36 49.53 172.6 0 0 19.67-25.2 21.5-74 0 0 17.8 89.9 71.35 145.78 0 0 18.47-87.3 51.9-116.53 0 0 37.6 11.77 37.6 93.24 0 0 49.6-9 66.84-91.15 0 0 61 20.13 54.76 112 0 0 49.12-48.57 45.5-128.76 0 0 22.7 77 110.44 79.1 0 0-45.7-56.13-24.8-108.35 0 0 140.73-3.73 126.1 98.62 0 0 23-50.8 9.83-227.77a114.12 114.12 0 0 0 10.55-9.33c8 13.84 17.27 35.45 20.62 64.48 0 0 3.54-44.42-4.1-85a146.23 146.23 0 0 0 4.56-7.58c13.24 17.58 38.27 44 71.4 48.63zM505.56 385.2c-10.3 5.72-20.7 12.14-31.08 19.35-9 6.26-18 13.1-27 20.6-45.46-15.87-91.15-28.3-129.44-31.74a36.35 36.35 0 0 1 3.17-14.76c3.44 2.94 9.9 3.9 14.35 4.2a3 3 0 0 0 3-4 64.42 64.42 0 0 1-3.83-20.1c94.63-97.8 170.8 26.4 170.8 26.4z" opacity=".55" fill="url(#A)"/><g fill="#cfffff"><path d="M507.55 385.17h0c-10.3 5.72-20.7 12.14-31.08 19.35a375.05 375.05 0 0 0-26.95 20.61c-45.46-15.87-91.15-28.3-129.44-31.74a36.35 36.35 0 0 1 3.17-14.76c3.44 2.94 9.9 3.9 14.35 4.2a3 3 0 0 0 3-4 64.42 64.42 0 0 1-3.83-20.1c94.6-97.73 170.78 26.44 170.78 26.44zm159.6-22.65s-278.7-20.25-334.8 378.58h59.2s-26.48 53.95-37.4 59.7h70.1s-39 36.9-29.6 41.57 53-7.8 74.78-14c0 0 10.9 23.37-14 48.3 0 0-4.7 12.46 25.7 0s53.25 1.56 66 23.37 54.7 60.68 120 60.75h0c65.43 0 107.5-38.95 120.2-60.76s35.58-35.83 66-23.37 25.7 0 25.7 0c-24.92-24.93-14-48.3-14-48.3 21.8 6.24 65.43 18.7 74.78 14s-29.6-41.58-29.6-41.58H667.3z"/></g><path d="M1007.32 394.13c-36.7 4.23-79.46 16.06-122.05 30.9q-5.82-4.9-11.7-9.4a368.75 368.75 0 0 0-51.43-33.27C828 373.15 900 265 990.62 358.76a64.58 64.58 0 0 1-3.82 20.1 3 3 0 0 0 3 4c4.45-.3 10.92-1.26 14.35-4.2a36.7 36.7 0 0 1 3.17 15.47z" fill="#7f7f7f"/><path d="M982.54 549.06c81.93-53.94 78.65-115.87 72.73-155.4l-2.62-16.6c-5.57-37.38-23.06-68.4-48.5-69.95s5.57-.83 5.57-18.33-46.92-11.13-59.64-8.74 20.67-25.45 20.67-25.45c-30-8.77-55.9-8.93-78-3.74C812.4 269.7 781.58 359.27 780.3 363.1l-2.9-1.1q-6.8-2.58-13.35-4.8l-2.16-.72-2.23-.74c-3-1-5.9-1.9-8.77-2.74l-2.14-.64-6.33-1.8-1.95-.54q-5.22-1.4-10.17-2.6l-1.94-.46-1.92-.45-3.78-.85-3.68-.8-1.8-.37-2.72-.55-.8-.16c-27.17-5.3-44.86-5.6-45.85-5.6h0v462.6h364.63c5.5-20.18 8-43.16 6.88-68.6-2.13-51.8-19.32-113.78-56.78-183.13zm8.08-190.3a64.58 64.58 0 0 1-3.82 20.1 3 3 0 0 0 3 4c4.45-.3 10.92-1.26 14.35-4.2a36.7 36.7 0 0 1 3.18 15.48c-36.7 4.23-79.46 16.06-122.05 30.9q-5.82-4.9-11.7-9.4a368.75 368.75 0 0 0-51.43-33.27C828 373.15 900 265 990.62 358.76z" fill="#565656"/><path d="M979.8 800.8h-313V362.5s278.7-20.25 334.8 378.58h-59.2s26.5 53.97 37.42 59.7z" fill="#7f7f7f"/><path d="M1044.78 494.07s91.26-30.35 137.44 60.7c-.9-.32-47.58-17.2-82.68 3.88 0 0 55.84 26.48-2.14 58.76 0 0 31.14 14.86 34.36 36.8 0 0-47.25-10.33-83.76 4.52 0 0 46.17 17.44 50.47 40 0 0-30.07-5.82-50.47 0 0 0 11.8 21.3 6.44 37.45 0 0-6.14-2-15-4l-.64-.15c-10-2.27-23.13-4.55-34.85-4.22 0 0 9.67 18.73-4.3 31.64 0 0-12.9-11-49.4-10.33 0 0 31 17.42 25.46 48.2-.2 1.14-.45 2.3-.76 3.47 0 0-15.9-32-72.46-53.2-6.6-2.48-13.76-4.8-21.5-6.93a295.61 295.61 0 0 0-30.11-6.51c-7.23-1.2-14.84-2.2-22.88-3-13.22-1.3-27.56-2-43.1-2H667.22V521.5l.64-.34c8.2-4.38 94.22-49.85 188.32-85.52l2.4-.9q5.65-2.13 11.35-4.2 7.44-2.72 14.9-5.32l.44-.16c42.6-14.84 85.36-26.67 122.05-30.9a214.33 214.33 0 0 1 38-1.34c3.44.22 6.76.52 10 .88 112 12.4 85.78 102.74 163.7 90.27 0 0-16.35 40.48-80.78 9.5s-93.47.64-93.47.64z" fill="#c6c6c6"/><path d="M742.28 620.42c1.6-5.92 7.5-19.56 29.54-38.85 0 0-45.18 5.27-75.3 69.27s57.22 60.23 79.05 59.47 53.46 9 82.82 59.48c0 0 6.4-27.68-24.95-58.24a1.47 1.47 0 0 1 1.21-2.5c11.9 1.4 46.5 10.78 64.4 71.28 0 0 13.5-53.27-12.64-75.64a.78.78 0 0 1 .7-1.34c8.36 1.95 31.5 10.2 44.3 43.1 0 0 5-65.27-38.13-99.4a.56.56 0 0 1 .57-1c11.65 5.25 42.35 19.62 55.63 31.1 0 0-27.4-75.52-124-65a1.77 1.77 0 0 1-1.8-2.54c2.06-3.8 10-10.83 39.25-17.5 0 0-50.63-19.08-118.57 29.7a1.32 1.32 0 0 1-2.1-1.37z" fill="#565656"/><g fill="#1e1e1e"><circle cx="691.71" cy="392.53" r="11.4"/><rect x="760.59" y="623.38" width="17.18" height="38.35" rx="8.59"/><rect x="760.59" y="675.33" width="17.18" height="38.35" rx="8.59"/><rect x="786.57" y="649.35" width="17.18" height="38.35" rx="8.59" transform="matrix(0 1 -1 0 1463.69 -126.63)"/><rect x="734.62" y="649.35" width="17.18" height="38.35" rx="8.59" transform="matrix(0 1 -1 0 1411.74 -74.68)"/></g><circle cx="769.18" cy="668.53" r="25.97" fill="#007887"/><g fill="#7f7f7f"><path d="M696.122 385.764l2.61 2.61-11.37 11.37-2.61-2.61z"/><path d="M698.736 397.132l-2.61 2.61-11.37-11.37 2.61-2.61z"/></g><circle cx="822.89" cy="430.53" r="11.4" fill="#1e1e1e"/><g fill="#7f7f7f"><path d="M829.024 435.998l-3.015 2.127-9.27-13.14 3.015-2.127z"/><path d="M828.358 424.386l2.127 3.015-13.14 9.27-2.127-3.015z"/></g><circle cx="688.58" cy="489.97" r="11.4" fill="#1e1e1e"/><g fill="#7f7f7f"><path d="M696.54 487.894l.093 3.69-16.075.404-.093-3.69z"/><path d="M686.524 482.04l3.69-.093.404 16.075-3.69.093z"/></g><g fill="#007887"><path d="M777.3 884.52c-.52 1.54-13.4 37.7-60.4 37.7-20 0-36.3-9.32-47.06-26.94a59.86 59.86 0 0 1-2.05-3.6c-.64 1.2-1.32 2.4-2 3.6-10.76 17.62-27 26.94-47.07 26.94-47 0-59.86-36.16-60.4-37.7a8.002 8.002 0 0 1 15.15-5.16c.37 1 10 26.86 45.24 26.86 29.28 0 38.4-27.5 40.6-36.63v-58.47c2.3.1 4.76.16 7.46.16 3.12 0 5.9-.07 8.54-.2v54.14a.14.14 0 0 1 0 .06c0 .13.1.26.13.4s.07.2.1.33l.12.55c.04.2 0 .12 0 .18.26 1.6 6.87 39.5 41.2 39.5 35.26 0 44.87-25.8 45.26-26.9a8.001 8.001 0 1 1 15.13 5.21zM413.74 341c-11.15-2.2-22.8-.3-31.56 7.25s-14.8 19.4-17.44 30.4c-2.7 11.2-1.44 23.73 6 32.93a64.63 64.63 0 0 0 17.26 14.5c11.5 6.75 24.8 4.35 36.56-.7 16.94-7.28 28.3-22 28.38-40.8-.75-20.92-19.1-39.57-39.2-43.57zm-33.62 24.07c5.15-8.73 12.4-15.36 23-15.93a35.66 35.66 0 0 1 13.37 2c-4.26 9.77-8.13 19.94-10.07 30.4a107.85 107.85 0 0 1-30.63-7.75 67.35 67.35 0 0 1 4.33-8.73zm19.3 56.14c-6-.95-12.22-6.2-16.74-10.3-5.12-4.66-8.8-9.62-10-16.73a32.78 32.78 0 0 1 .38-11.85 121 121 0 0 0 33.78 8.25l10.27 28.15c-5.8 2.12-12.22 3.35-17.7 2.48zm26.15-6.34l-.22.12-10.62-29.1c1.7-10.67 5.54-21.06 9.85-31 10.72 6.4 18.9 17.46 19.32 29.7-.06 13.24-6.9 23.87-18.33 30.3z"/></g><path d="M667.22 521.5V729.1h-117.7c-154.43 0-190.07 71.68-190.07 71.68-8.6-32.93 24.7-51.66 24.7-51.66-36.52-.7-49.4 10.33-49.4 10.33-14-12.9-4.3-31.64-4.3-31.64-11.8-.33-25 2-35 4.26-9.1 2.08-15.45 4.14-15.45 4.14-5.37-16.15 6.45-37.45 6.45-37.45-20.4-5.82-50.47 0-50.47 0 4.3-22.6 50.47-40 50.47-40-36.5-14.85-83.76-4.52-83.76-4.52 3.22-22 34.36-36.8 34.36-36.8-58-32.28-2.15-58.76-2.15-58.76-35.1-21.1-81.76-4.2-82.67-3.88 42.85-84.5 124.58-64.42 136.08-61.1.9.25 1.36.4 1.36.4a22.93 22.93 0 0 0-2.44-2.19c-8.2-6.6-37.28-24.3-91 1.55-64.43 31-80.77-9.5-80.77-9.5 76.2 12.2 52.8-73.93 156.5-89.35 5.37-.8 11.08-1.4 17.17-1.8a201.76 201.76 0 0 1 30.93.62c38.3 3.43 84 15.87 129.44 31.74q6 2.07 11.9 4.22 7.94 2.88 15.83 5.87c99.35 37.52 190 86.2 190 86.2z" fill="#66aeb7"/><path d="M587.45 620.42c-1.58-5.92-7.5-19.56-29.53-38.85 0 0 45.17 5.27 75.3 69.27s-57.2 60.23-79.06 59.47-53.45 9-82.82 59.48c0 0-6.4-27.68 24.95-58.24a1.47 1.47 0 0 0-1.21-2.5c-11.88 1.4-46.5 10.78-64.4 71.28 0 0-13.5-53.27 12.63-75.64a.78.78 0 0 0-.69-1.34c-8.36 1.95-31.52 10.2-44.32 43.1 0 0-5-65.27 38.13-99.4a.56.56 0 0 0-.57-1c-11.65 5.25-42.35 19.62-55.63 31.1 0 0 27.4-75.52 124-65a1.77 1.77 0 0 0 1.8-2.54c-2.06-3.8-9.95-10.83-39.25-17.5 0 0 50.63-19.08 118.56 29.7a1.32 1.32 0 0 0 2.11-1.37z" fill="#007887"/><path d="M704.08 807.76c-12.73 1.63-19.9 2.84-28.78 3.3-2.63.14-5.42.2-8.54.2-2.7 0-5.15 0-7.46-.16-9.38-.43-16.6-1.67-29.85-3.36-16.5-2.1-76.77-18.3-44.48-72.55 23.8-40 56.95-54.32 72.74-59.1a31.21 31.21 0 0 1 18.11 0c15.8 4.77 48.94 19.1 72.74 59.1 32.3 54.24-27.98 70.44-44.48 72.55z" fill="#3f3f3f"/><circle cx="1003.87" cy="778.19" r="11.4" fill="#1e1e1e"/><g fill="#7f7f7f"><path d="M1010.17 772.35l-.7 3.616-15.758-3.055.7-3.616z"/><path d="M1003.493 770l3.625.687-2.994 15.8-3.625-.687z"/></g><path d="M560.55 642.55a26 26 0 1 0 26 26 26 26 0 0 0-26-26zm-.5 38.45a12 12 0 1 1 12-12 12 12 0 0 1-12 12z" fill="#cfffff"/><path d="M890.9 221.1c-14.47 24.6-50.64 26.77-80.3 28.94-29.2 2.14-45.07 27.4-45.56 28.2 9.38-37.6-9.42-45.56-18.1-60s0-43.4 0-43.4c-39.8 6.5-61.5 34.72-61.5 34.72-12.3-11.57-10.13-34.72-10.13-34.72-26.77 10.13-47 60.77-47 54.26s-10.85-19.54-39.07-33.28-21.7-49.92-21.7-49.92c-15.9 11.58-13.74 30.4-13.74 30.4 13.74 43.4-17.37 64.38-17.37 64.38-2.14-34.18-42.12-41.73-43.37-42 18.77 10.16 13.7 42.68 0 59.3a102.23 102.23 0 0 0-10.79 16.26c31.36 23.32 50.6 56.52 60.17 76.8-10.18 106.5 55.44 147.74 34.1 118.47C555 440 598 371 598 371c27.5 44.48 0 128 0 128 37.54-33.1 55.3-73.6 63.7-105.7 8.9 17.07 25.25 40.87 51.94 54.45 0 0-12.9-60.28 0-104a390.21 390.21 0 0 1 66.64 19.32c1.28-3.82 32.1-93.38 112.44-112.24a75.68 75.68 0 0 0-1.81-29.75z" fill="#33939f"/></g></g></svg>