<svg xmlns="http://www.w3.org/2000/svg" viewBox="0 0 1334 1334" xmlns:v="https://vecta.io/nano"><style><![CDATA[.A{isolation:isolate}.C{mix-blend-mode:multiply}]]></style><defs><linearGradient id="A" x1="679.31" y1="247.61" x2="679.31" y2="1163.76" gradientUnits="userSpaceOnUse"><stop offset=".53" stop-color="#fff"/><stop offset=".54" stop-color="#f8f8f8"/><stop offset=".77" stop-color="#a7a7a7"/><stop offset=".92" stop-color="#747474"/><stop offset="1" stop-color="#606060"/></linearGradient></defs><g class="A"><g><path d="M1088.86 885.38s-35.07-31.1-58-80.86c19.84-67.07 5.82-166.4-65.8-284.88-108.78-179.94-298-181.47-298-181.47s-52.72.43-118.5 27.3c-5-13.25-25.6-61.38-67.28-91.9-29.95-21.92-70.82-34.74-124.72-19 0 0 33.4 27.83 20.68 25.45s-59.64-8.75-59.64 8.74 31 16.77 5.56 18.33-42.94 32.57-48.5 69.95l-2.76 17.53c-3.8 25.87-6.23 61.06 15.26 97.3l1.08 1.78c12 19.6 31.18 39.46 61 58.27l3-2.74Q339 573.88 329 597.27l-.43 1c-21.1 49.6-31.4 94.63-33.15 133.8-1.53 34.9 3.73 65.15 14.2 89.92-11 11.43-29.52 38.5-23.54 87.78 0 0 8.17-8.77 31.15-30.7 0 0-5.9 32.5 15 84.73 0 0 12.75-12 33-44.42 0 0-30.6 49.36 19.54 172.6 0 0 16.87-67 51.5-74 0 0 53.55 81.33 61.35 145.78 0 0 28.47-87.3 61.9-116.53 0 0 11 45.28 57.6 93.24 0 0-14.17-59.12 46.84-91.15 0 0 31 20.13 24.75 112 0 0 79.13-48.57 75.5-128.76 0 0 22.72 107 110.45 109.1 0 0-45.7-86.13-24.8-138.35 0 0 79.1-5.36 86.1 78.62 0 0 59.2-32.62 49.58-207.58a113.58 113.58 0 0 0 10.79-9.52c7.95 13.83 17.27 35.44 20.62 64.48 0 0 3.54-44.42-4.1-85q2.4-3.68 4.57-7.58c13.3 17.6 38.3 44.02 71.46 48.64zm-768.8-492a36.35 36.35 0 0 1 3.17-14.76c3.44 2.94 9.9 3.9 14.35 4.2a3 3 0 0 0 3-4 64.42 64.42 0 0 1-3.83-20.1c94.64-97.8 170.8 26.4 170.8 26.4h0a368.16 368.16 0 0 0-58.07 40c-45.48-15.85-91.15-28.3-129.43-31.72z" fill="#00adb0"/><path class="C" d="M1089 885.38s-35.06-31.1-58-80.86c19.83-67.07 5.82-166.4-65.8-284.88-108.78-179.94-298-181.47-298-181.47s-52.72.43-118.5 27.3c-5-13.25-25.6-61.38-67.28-91.9-29.95-21.92-70.82-34.74-124.72-19 0 0 33.4 27.83 20.68 25.45s-59.64-8.75-59.64 8.74 31 16.77 5.56 18.33-42.94 32.57-48.5 69.95l-2.76 17.53c-3.8 25.87-6.23 61.06 15.26 97.3l1.08 1.78c12 19.6 31.18 39.46 61 58.27l3-2.74q-13.32 24.7-23.28 48.08l-.43 1c-21.1 49.6-31.4 94.63-33.15 133.8-1.54 34.9 3.73 65.15 14.2 89.92-11 11.43-29.52 38.5-23.55 87.78 0 0 8.18-8.77 31.16-30.7 0 0-5.9 32.5 15 84.73 0 0 12.74-12 33-44.42 0 0-30.6 49.36 19.53 172.6 0 0 16.88-67 51.5-74 0 0 53.56 81.33 61.36 145.78 0 0 28.46-87.3 61.88-116.53 0 0 11 45.28 57.6 93.24 0 0-14.17-59.12 46.85-91.15 0 0 31 20.13 24.75 112 0 0 79.13-48.57 75.5-128.76 0 0 22.7 107 110.44 109.1 0 0-45.68-86.13-24.8-138.35 0 0 79.1-5.36 86.1 78.62 0 0 59.2-32.62 49.6-207.58a113.58 113.58 0 0 0 10.79-9.52c8 13.83 17.27 35.44 20.62 64.48 0 0 3.54-44.42-4.1-85q2.38-3.68 4.57-7.58c13.38 17.6 38.4 44.02 71.52 48.64zm-768.8-492a36.35 36.35 0 0 1 3.17-14.76c3.44 2.94 9.9 3.9 14.35 4.2a3 3 0 0 0 3-4 64.42 64.42 0 0 1-3.83-20.1c94.64-97.8 170.8 26.4 170.8 26.4h0a368.16 368.16 0 0 0-58.07 40c-45.44-15.85-91.13-28.3-129.4-31.72z" opacity=".55" fill="url(#A)"/><g fill="#cce4e7"><path d="M507.55 385.17h0a368.16 368.16 0 0 0-58.07 40c-45.45-15.86-91.14-28.3-129.42-31.73a36.35 36.35 0 0 1 3.17-14.76c3.44 2.94 9.9 3.9 14.35 4.2a3 3 0 0 0 3-4 64.42 64.42 0 0 1-3.83-20.1c94.63-97.78 170.8 26.4 170.8 26.4zm159.6-22.65s-278.7-20.25-334.8 378.58h59.2s-26.48 53.95-37.4 59.7h70.1s-39 36.9-29.6 41.57 53-7.8 74.78-14c0 0 10.9 23.37-14 48.3 0 0-4.7 12.46 25.7 0s53.25 1.56 66 23.37 54.7 60.68 120 60.75h0c65.43 0 107.5-38.95 120.2-60.76s35.58-35.83 66-23.37 25.7 0 25.7 0c-24.92-24.93-14-48.3-14-48.3 21.8 6.24 65.43 18.7 74.78 14s-29.6-41.58-29.6-41.58H667.3z"/></g><path d="M1007.3 394.13c-36.7 4.23-79.46 16.06-122 30.9q-8.12-6.82-16.33-12.94a369.14 369.14 0 0 0-46.8-29.74c5.86-9.2 77.8-117.3 168.47-23.6a64.58 64.58 0 0 1-3.82 20.1 3 3 0 0 0 3 4c4.45-.3 10.92-1.26 14.35-4.2a36.7 36.7 0 0 1 3.13 15.47z" fill="#7f7f7f"/><path d="M982.54 549.06c81.92-53.94 78.64-115.87 72.72-155.4l-2.62-16.6c-5.56-37.38-23.06-68.4-48.5-69.95s5.57-.83 5.57-18.33-46.92-11.13-59.64-8.74 20.67-25.45 20.67-25.45c-37.07-10.83-67.8-8.54-92.94.76-69.26 25.56-96.3 104.17-97.5 107.74-61.9-24.1-110.82-24.9-112.5-24.92l.07 462.66h364.63c5.5-20.18 8-43.16 6.88-68.6-2.2-51.83-19.43-113.82-56.83-183.17zm8.07-190.3a64.58 64.58 0 0 1-3.82 20.1 3 3 0 0 0 3 4c4.45-.3 10.92-1.26 14.35-4.2a36.7 36.7 0 0 1 3.18 15.48c-36.7 4.23-79.46 16.06-122 30.9q-8.12-6.82-16.33-12.94a369.14 369.14 0 0 0-46.8-29.74c5.8-9.2 77.75-117.36 168.42-23.6z" fill="#565656"/><path d="M979.8 800.8h-313V362.5s278.7-20.25 334.8 378.58h-59.2s26.5 53.97 37.42 59.7z" fill="#7f7f7f"/><path d="M1044.77 494.07s91.26-30.35 137.44 60.7c-.9-.32-47.58-17.2-82.68 3.88 0 0 55.84 26.48-2.14 58.76 0 0 31.14 14.86 34.36 36.8 0 0-47.25-10.33-83.76 4.52 0 0 46.18 17.44 50.47 40 0 0-30.07-5.82-50.47 0 0 0 11.8 21.3 6.44 37.45 0 0-6.14-2-15-4-10-2.32-23.5-4.7-35.5-4.37 0 0 9.67 18.73-4.3 31.64 0 0-12.9-11-49.4-10.33 0 0 33.3 18.73 24.7 51.66 0 0-35.64-71.68-190.07-71.68H667.2V521.5l.64-.34c8.2-4.38 94.22-49.85 188.32-85.52q6.86-2.6 13.75-5.12 7.67-2.8 15.35-5.48c42.58-14.84 85.35-26.67 122-30.9a214.33 214.33 0 0 1 38-1.34c3.44.22 6.76.52 10 .88 112 12.42 85.78 102.74 163.7 90.27 0 0-16.35 40.48-80.78 9.5s-93.43.64-93.43.64z" fill="#c6c6c6"/><path d="M748.76 608.32c1.9-7.12 9-23.48 35.44-46.63 0 0-54.2 6.33-90.34 83.12s68.66 72.28 94.86 71.38 64.15 10.8 99.38 71.37c0 0 7.67-33.22-29.94-69.9a1.77 1.77 0 0 1 1.46-3c14.26 1.7 55.8 13 77.27 85.55 0 0 16.2-63.92-15.16-90.78a.93.93 0 0 1 .83-1.6c10 2.34 37.82 12.23 53.18 51.72 0 0 6-78.32-45.76-119.27a.67.67 0 0 1 .69-1.15c14 6.3 50.82 23.54 66.75 37.3 0 0-32.87-90.62-148.84-78a2.12 2.12 0 0 1-2.16-3c2.47-4.55 11.94-13 47.1-21 0 0-60.75-22.9-142.28 35.63a1.58 1.58 0 0 1-2.48-1.75z" fill="#565656"/><g fill="#1e1e1e"><rect x="770.74" y="611.86" width="20.61" height="46.02" rx="8.59"/><rect x="770.74" y="674.2" width="20.61" height="46.02" rx="8.59"/><rect x="801.9" y="643.03" width="20.61" height="46.02" rx="8.59" transform="matrix(0 1 -1 0 1478.25 -146.17)"/><rect x="739.57" y="643.03" width="20.61" height="46.02" rx="8.59" transform="matrix(0 1 -1 0 1415.92 -83.83)"/></g><circle cx="781.04" cy="666.04" r="31.17" fill="#00adb0"/><circle cx="822.89" cy="430.53" r="11.4" fill="#1e1e1e"/><g fill="#7f7f7f"><path d="M829.024 435.998l-3.015 2.127-9.27-13.14 3.015-2.127z"/><path d="M828.358 424.386l2.127 3.015-13.14 9.27-2.127-3.015z"/></g><circle cx="688.58" cy="489.97" r="11.4" fill="#1e1e1e"/><g fill="#7f7f7f"><path d="M696.54 487.894l.093 3.69-16.075.404-.093-3.69z"/><path d="M686.524 482.04l3.69-.093.404 16.075-3.69.093z"/></g><path d="M413.74 341c-11.15-2.2-22.8-.3-31.56 7.25s-14.8 19.4-17.44 30.4c-2.7 11.2-1.44 23.73 6 32.93a64.63 64.63 0 0 0 17.26 14.5c11.5 6.75 24.8 4.35 36.56-.7 16.94-7.28 28.3-22 28.38-40.8-.75-20.92-19.1-39.57-39.2-43.57zm-33.62 24.07c5.15-8.73 12.4-15.36 23-15.93a35.66 35.66 0 0 1 13.37 2c-4.26 9.77-8.13 19.94-10.07 30.4a107.85 107.85 0 0 1-30.63-7.75 67.35 67.35 0 0 1 4.33-8.73zm19.3 56.14c-6-.95-12.22-6.2-16.74-10.3-5.12-4.66-8.8-9.62-10-16.73a32.78 32.78 0 0 1 .38-11.85 121 121 0 0 0 33.78 8.25l10.27 28.15c-5.8 2.12-12.22 3.35-17.7 2.48zm26.15-6.34l-.22.12-10.62-29.1c1.7-10.67 5.54-21.06 9.85-31 10.72 6.4 18.9 17.46 19.32 29.7-.06 13.24-6.9 23.87-18.33 30.3z" fill="#00adb0"/><path d="M667.2 521.5V729.1h-117.7c-154.43 0-190.07 71.68-190.07 71.68-8.6-32.93 24.7-51.66 24.7-51.66-36.5-.7-49.4 10.33-49.4 10.33-14-12.9-4.3-31.64-4.3-31.64-11.8-.33-25.06 2-35 4.26l-1.33.3c-8.37 2-14.1 3.83-14.1 3.83-5.37-16.15 6.45-37.45 6.45-37.45-20.4-5.82-50.47 0-50.47 0 4.3-22.6 50.47-40 50.47-40-36.5-14.85-83.76-4.52-83.76-4.52 3.22-22 34.36-36.8 34.36-36.8-58-32.28-2.15-58.76-2.15-58.76-35.1-21.1-81.76-4.2-82.67-3.88 42.85-84.5 124.58-64.42 136.08-61.1.9.25 1.36.4 1.36.4a22.93 22.93 0 0 0-2.44-2.19c-8.2-6.6-37.28-24.3-91 1.55-64.43 31-80.77-9.5-80.77-9.5 76.2 12.2 52.8-73.92 156.5-89.35 5.37-.8 11.08-1.4 17.17-1.8a201.76 201.76 0 0 1 30.93.62c38.28 3.43 84 15.87 129.42 31.73l1.88.66q5 1.76 10 3.58 8 2.87 15.84 5.86c99.37 37.52 190 86.2 190 86.2z" fill="#66ced0"/><circle cx="1003.87" cy="778.19" r="11.4" fill="#1e1e1e"/><g fill="#7f7f7f"><path d="M1010.17 772.35l-.7 3.616-15.758-3.055.7-3.616z"/><path d="M998.03 771.89l3.616.7-3.055 15.758-3.616-.7z"/></g><path d="M583 608.32c-1.9-7.12-9-23.48-35.44-46.63 0 0 54.2 6.33 90.35 83.12S569.2 717.1 543 716.2s-64.13 10.8-99.37 71.37c0 0-7.67-33.22 29.94-69.9a1.77 1.77 0 0 0-1.46-3c-14.25 1.7-55.78 13-77.27 85.55 0 0-16.2-63.92 15.16-90.78a.93.93 0 0 0-.83-1.6c-10 2.34-37.82 12.23-53.18 51.72 0 0-5.95-78.32 45.76-119.27a.67.67 0 0 0-.68-1.15c-14 6.3-50.82 23.54-66.76 37.3 0 0 32.87-90.62 148.84-78a2.12 2.12 0 0 0 2.16-3c-2.47-4.55-11.94-13-47.1-21 0 0 60.76-22.9 142.28 35.63a1.58 1.58 0 0 0 2.51-1.75z" fill="#00adb0"/><circle cx="550.69" cy="666.04" r="31.17" fill="#cce4e7"/><circle cx="550.09" cy="666.61" r="14.4" fill="#00adb0"/><path d="M852.93 204.1c-14.47 24.6-10 33.22-41.78 42.5a103.53 103.53 0 0 0-45.57 28.22c9.4-37.62 5.75-50.24 1.48-58.83-7.52-15.1-34.47-56.4-34.47-56.4-7.1 37.6-46.6 46.5-46.6 46.5-12.3-11.57-40.13-34.72-40.13-34.72 15.9 25.82-17 60.77-17 54.25s.73-13.4-27.48-27.14-13.3-56.05-13.3-56.05c-15.9 11.58-33.74 41-33.74 41-12.47 16.92-17.36 53.8-17.36 53.8-2.17-34.73-83.4-42-83.4-42 18.8 10.13 53.75 42.68 40 59.32a104.88 104.88 0 0 0-12.23 19c32.12 23.5 51.68 57.46 61.28 77.87-8.28 103.67 55.5 143.57 34.42 114.66-21.5-29.48 21.5-98.47 21.5-98.47 27.5 44.48 0 128 0 128 37.55-33.1 55.3-73.6 63.7-105.7 8.9 17.08 25.25 40.88 51.94 54.46 0 0-12.25-57.28-.9-100.64a389.26 389.26 0 0 1 67 19.39c1.2-3.57 28.24-82.18 97.5-107.74-6.4-24.68-24.86-51.3-24.86-51.3z" fill="#33bdc0"/><path d="M704.07 807.76c-12.3 1.57-19.4 2.75-27.87 3.26-2.9.17-6 .26-9.45.26-2.53 0-4.84 0-7-.14-9.6-.4-16.84-1.66-30.28-3.38-16.5-2.1-76.77-18.3-44.48-72.55 23.8-40 56.95-54.32 72.74-59.1a31.21 31.21 0 0 1 18.11 0c15.8 4.77 48.94 19.1 72.74 59.1 32.26 54.24-28 70.44-44.5 72.55z" fill="#3f3f3f"/><path d="M816.8 852.9c-1.77 2.7-43.9 65.88-89.5 65.88-19.56 0-37.33-9-51.4-26a98.26 98.26 0 0 1-7.91-11.16 99.7 99.7 0 0 1-8 11.15c-14.07 17-31.84 26-51.4 26-45.6 0-87.73-63.2-89.5-65.88a8 8 0 0 1 13.36-8.8 220 220 0 0 0 24.91 30.09c13 13 32.45 28.6 51.23 28.6 32.1 0 48.13-33 51.12-39.8v-51.82a169.72 169.72 0 0 0 7 .14c3.5 0 6.55-.1 9.45-.26v52c3 6.8 19 39.8 51.1 39.8 30.77 0 65.4-42.35 76.14-58.68a8 8 0 1 1 13.36 8.8z" fill="#00adb0"/></g></g></svg>