<svg xmlns="http://www.w3.org/2000/svg" viewBox="0 0 1334 1334" xmlns:v="https://vecta.io/nano"><style><![CDATA[.A{isolation:isolate}.C{mix-blend-mode:multiply}]]></style><defs><linearGradient id="A" x1="702.31" y1="341.84" x2="702.31" y2="1243.78" gradientUnits="userSpaceOnUse"><stop offset=".53" stop-color="#fff"/><stop offset=".54" stop-color="#f8f8f8"/><stop offset=".77" stop-color="#a7a7a7"/><stop offset=".92" stop-color="#747474"/><stop offset="1" stop-color="#606060"/></linearGradient></defs><g class="A"><g><path d="M984.38 906.7l162.13 136.55L1011.67 851l78.92 33.32s-35.43-31.43-58.32-81.65c17.48-66.94 2.32-164.06-67.36-279.32-108.77-180-297.9-181.5-297.9-181.5s-189.22 1.52-298 181.46c-80.78 133.62-88.27 242.84-56.6 309-12.5 34.94-39.84 114.12-54.3 177.53l73.07-118.54-23.8 198.4L387.1 945l-30.7 265.7 105.1-181.28 31.32 162.15 67.53-144.33 48.25 196.55 56.2-194.46 144.94 194.46-30.66-217.52 116.3 136L882.24 964l122.1 101.32z" fill="#ff0062"/><path class="C" d="M1004.35 1065.3L882.24 964l13.12 198.25-116.3-136 30.66 217.52-145-194.46-56.2 194.46-48.24-196.55-67.53 144.33-31.32-162.15-105.1 181.28L387.1 945l-79.7 144.66 23.8-198.4-73.07 118.54c14.45-63.4 41.78-142.6 54.3-177.53-12.46-26-18.86-58.7-17.12-96.94 2.38-52.08 19.87-114.43 57.75-184.18q7.44-13.73 16-27.84a383.55 383.55 0 0 1 56.64-72.75A365.23 365.23 0 0 1 476.53 408c10.16-7 20.33-13.3 30.4-18.92a379.79 379.79 0 0 1 41.29-19.85c65.9-27 118.74-27.4 118.74-27.4h.2c5.15.1 102.9 2.68 196.94 70.94 35.9 26.1 71.33 61.76 100.8 110.53 69.68 115.26 84.84 212.38 67.36 279.32h0c22.9 50.2 58.3 81.6 58.3 81.6l-78.9-33.23 134.85 192.3-162.13-136.6z" opacity=".55" fill="url(#A)"/><path d="M548.2 369.24a379.79 379.79 0 0 0-41.29 19.85 178.55 178.55 0 0 0-29.05-34.32c-30.65-28-82.6-53.93-141.75 7.2a64.58 64.58 0 0 0 3.82 20.1 3 3 0 0 1-3 4c-4.45-.3-10.9-1.26-14.35-4.2a37.16 37.16 0 0 0-3.15 17 107.3 107.3 0 0 0-30.36-2.86q-9.46.62-17.76 1.9l2.77-17.63c5.57-37.37 23.06-68.4 48.5-69.94S317 309.5 317 292s46.92-11.13 59.65-8.74S356 257.8 356 257.8c44.54-13 80.18-6.5 108.12 8.5 53.6 28.8 78.88 89 84.1 102.93z" fill="#ff3381"/><path d="M506.92 389.1a366.15 366.15 0 0 0-81.28 61.46C388 425.38 351.2 406 319.45 398.85a37.16 37.16 0 0 1 3.15-17c3.44 2.95 9.9 3.9 14.35 4.2a3 3 0 0 0 3-4 64.58 64.58 0 0 1-3.82-20.1c93.13-96.26 168.45 23.34 170.8 27.13z" fill="#ffcce0"/><path d="M1052 380.26c-5.57-37.37-23.06-68.4-48.5-69.94s5.56-.83 5.56-18.33-46.9-11.13-59.64-8.74 20.68-25.45 20.68-25.45c-31.7-9.26-58.76-8.93-81.66-2.82-77.62 20.67-107.5 107.58-108.76 111.32-61.9-24.1-110.83-24.9-112.5-24.92v74.2L667.3 804h364.63l.35-1.34c16.18-61.2 5-147.74-50.38-250.38 94.58-62.28 75.6-135.2 70.1-172.02zm-166.8-50.4c28.6-11.3 64.88-9.13 104.8 32.13a64.54 64.54 0 0 1-3.82 20.09 3 3 0 0 0 3 4c4.44-.3 10.9-1.26 14.35-4.2a37.86 37.86 0 0 1 3 19c-29.77 8.36-63.52 26.44-97.92 49.4a365 365 0 0 0-43.75-37.51 370.63 370.63 0 0 0-43.35-27.21c3.27-5.15 27.27-41.32 63.68-55.7z" fill="#565656"/><path d="M974.58 804H667.32l-1.2-212.3.07-226s278.7-20.23 334.8 378.6h-59.2l32.78 59.7z" fill="#7f7f7f"/><path d="M909.54 804H666.67l-.14-438.27s-278.7-20.25-334.8 378.58h59.2L359.42 804h64.24s-39 36.9-29.6 41.57 53-7.8 74.78-14c0 0 10.9 23.37-14 48.3 0 0-4.7 12.46 25.7 0 9.66-4 18.56-5.24 26.6-4.45V938a105.26 105.26 0 0 0 105.26 105.25h109.86A105.26 105.26 0 0 0 827.53 938v-62.7c7.66-.5 16.07.83 25.15 4.56 30.38 12.46 25.7 0 25.7 0-24.93-24.93-14-48.3-14-48.3 21.82 6.24 65.44 18.7 74.8 14S909.54 804 909.54 804z" fill="#ffcce0"/><path d="M666.63 663.3S921.34 388 1044.9 396s93.52 104 173.67 91.15c0 0-16.34 40.48-80.77 9.5s-93.43.64-93.43.64 91.28-30.35 137.45 60.7c0 0-47.25-17.44-82.68 3.87 0 0 55.84 26.48-2.15 58.76 0 0 31.14 14.86 34.36 36.8 0 0-47.25-10.33-83.76 4.52 0 0 46.18 17.43 50.47 40 0 0-30.06-5.8-50.47 0 0 0 11.82 21.3 6.45 37.46 0 0-27.92-9-50.47-8.4 0 0 9.66 18.73-4.3 31.64 0 0-12.88-11-49.4-10.33 0 0 33.3 18.73 24.7 51.66 0 0-35.64-71.68-190.07-71.68H666.63z" fill="#c6c6c6"/><circle cx="821.13" cy="445.32" r="11.4" fill="#1e1e1e"/><g fill="#7f7f7f"><path d="M827.636 450.46l-2.866 2.324-10.126-12.49 2.866-2.324z"/><path d="M826.26 438.814l2.324 2.866-12.49 10.126-2.324-2.866z"/></g><circle cx="1007.49" cy="777.74" r="11.4" fill="#1e1e1e"/><g fill="#7f7f7f"><path d="M1015.687 777.363l-.687 3.625-15.8-2.994.687-3.625z"/><path d="M1007.113 769.543l3.625.687-2.994 15.8-3.625-.687z"/></g><circle cx="691.08" cy="513.59" r="11.4" fill="#1e1e1e"/><g fill="#7f7f7f"><path d="M698.966 511.02l.34 3.674-16.012 1.477-.34-3.674z"/><path d="M688.54 505.744l3.674-.34 1.477 16.012-3.674.34z"/></g><path d="M454.94 358.7a64.67 64.67 0 0 0-17.22-14.51c-11.5-6.75-24.8-4.35-36.55.7-16.94 7.3-28.3 22-28.4 40.8.7 20.92 19.06 39.58 39.15 43.58 11.15 2.22 22.8.3 31.57-7.24s14.8-19.4 17.44-30.4c2.7-11.2 1.43-23.73-6-32.92zm-28.67-9.65c6 .95 12.2 6.2 16.73 10.32 5.13 4.65 8.8 9.6 10 16.73a32.79 32.79 0 0 1-.38 11.85 120.55 120.55 0 0 0-33.77-8.25l-10.27-28.16c5.8-2.12 12.2-3.36 17.7-2.5zm-44.5 36.63c.07-13.23 6.9-23.86 18.33-30.3l.23-.12 10.6 29.12c-1.7 10.67-5.54 21.06-9.85 31-10.72-6.4-18.9-17.47-19.32-29.7zm40.8 35.44a35.46 35.46 0 0 1-13.37-2c4.26-9.77 8.14-19.93 10.07-30.4a107.93 107.93 0 0 1 30.64 7.76 69.32 69.32 0 0 1-4.37 8.7c-5.15 8.75-12.4 15.38-22.97 15.94z" fill="#ff0062"/><path d="M666.62 663.3v69H549.48C395.06 732.32 359.4 804 359.4 804c-8.6-32.93 24.7-51.66 24.7-51.66-36.5-.7-49.4 10.33-49.4 10.33-14-12.9-4.3-31.64-4.3-31.64-11.84-.34-25.16 2-35.14 4.3-9 2.07-15.33 4.1-15.33 4.1-5.37-16.15 6.44-37.46 6.44-37.46-20.4-5.8-50.47 0-50.47 0 4.3-22.6 50.47-40 50.47-40-36.5-14.85-83.76-4.52-83.76-4.52 3.23-21.95 34.37-36.8 34.37-36.8-58-32.28-2.15-58.76-2.15-58.76-35.1-21.1-81.77-4.2-82.68-3.88 42.07-82.93 121.55-65.13 135.37-61.3a50.93 50.93 0 0 1 2.07.62 27.27 27.27 0 0 0-3.5-3h0c-9.47-7.1-38.34-22.42-89.9 2.4-64.43 31-80.77-9.5-80.77-9.5 76.06 12.17 52.87-73.6 155.9-89.26q8.3-1.26 17.76-1.9a107.3 107.3 0 0 1 30.37 2.85c31.74 7.2 68.6 26.53 106.2 51.7q4.9 3.27 9.8 6.68 5.8 4 11.58 8.18C557.18 544.65 666.62 663.3 666.62 663.3z" fill="#ff66a1"/><path d="M538.12 705.05c18.67 11.34 93 57.35 98-13.2L610.35 576.7l.8 66.23a1.32 1.32 0 0 1-2.48.2l-86.57-83.9 23.36 34.47a1.76 1.76 0 0 1-2.81 1.33l-125.4-31.94 49.13 28.08a.56.56 0 0 1 0 1.12L345 594l99.3 50.46a.77.77 0 0 1-.05 1.5l-70 12 113 17.18a1.46 1.46 0 0 1-.16 2.77l-48.3 13.3z" fill="#ff0062"/><g fill="#565656"><path d="M804.57 705.05c-18.67 11.34-93 57.35-98-13.2l25.8-115.14-.8 66.23a1.32 1.32 0 0 0 2.48.2l86.57-83.9-23.4 34.47a1.76 1.76 0 0 0 2.81 1.33l125.4-31.94-49.13 28.08a.56.56 0 0 0 0 1.12l121.4 1.7-99.3 50.46a.77.77 0 0 0 0 1.5l70 12L855.48 675a1.46 1.46 0 0 0 .16 2.77l48.3 13.3zm-11.02 195.77V962a53.76 53.76 0 0 1-3.67 19.59c-5.3-6.87-7.54-20.1-16.17-20.1-11.64 0-11.64 24.12-23.28 24.12s-11.64-24.12-23.28-24.12-11.65 24.12-23.3 24.12-11.64-24.12-23.28-24.12-11.65 24.12-23.3 24.12-11.64-24.1-23.3-24.1-11.65 24.12-23.3 24.12-11.65-24.12-23.3-24.12-11.64 24.12-23.3 24.12-11.65-24.12-23.3-24.12v.5-63a53.78 53.78 0 0 1 3.32-18.68c5.57 6.72 7.7 20.54 16.52 20.54 11.64 0 11.64-24.12 23.3-24.12s11.64 24.12 23.28 24.12 11.64-24.12 23.28-24.12 11.65 24.12 23.3 24.12 11.64-24.12 23.3-24.12 11.64 24.12 23.28 24.12 11.62-24.16 23.3-24.16 11.65 24.12 23.3 24.12 11.65-24.12 23.3-24.12 11.65 24.12 23.3 24.12z"/></g><g fill="#ff0062"><path d="M779.63 250.6l7.48-125.8-101 81.32-16.6-73.67-40.5 93.2-92.38-130.58 7.9 158.78-104.3-57.7 23.9 70.18c39.92 21.46 64.1 60.3 76 84.5-8.58 104.13 55.52 144.25 34.4 115.28C553 436.6 596 367.62 596 367.62c27.5 44.48 0 128 0 128 37.55-33.1 55.3-73.6 63.7-105.7 8.88 17.08 25.25 40.88 51.93 54.46 0 0-11.75-54.92-1.6-97.93a389.51 389.51 0 0 1 69.59 19.89c1.25-3.74 31.14-90.65 108.78-111.32l3.16-67.3zm-39.17 726.34c-3.6-6.9-6.4-15.43-13.3-15.43-11.65 0-11.65 24.12-23.3 24.12s-11.64-24.12-23.28-24.12-11.65 24.12-23.3 24.12-11.64-24.12-23.3-24.12-11.65 24.12-23.3 24.12c-5.8 0-8.72-6-11.62-12 6.15-17.92 35.26-31.5 70.25-31.5 37.12-.01 67.66 15.26 71.12 34.8z"/></g><g fill="#fff"><path d="M793.55 899v1.86c-11.65 0-11.65-24.12-23.3-24.12S758.6 900.82 747 900.82s-11.64-24.12-23.3-24.12-11.7 24.12-23.33 24.12-11.64-24.12-23.28-24.12-11.65 24.12-23.3 24.12-11.64-24.12-23.3-24.12-11.64 24.12-23.28 24.12-11.6-24.12-23.2-24.12-11.65 24.12-23.3 24.12c-5.73 0-8.64-5.85-11.5-11.8a7.94 7.94 0 0 0 .67-3.2c0-14.05 3.55-29 45.9-29 43 0 52.82-4.57 69.2-22.7a35.87 35.87 0 0 0 2.74-3.49 34.4 34.4 0 0 0 2.74 3.49c16.4 18.14 26.25 22.7 69.2 22.7 42.36 0 45.9 15 45.9 29a8 8 0 0 0 7.75 8 51.43 51.43 0 0 1 .21 5.17zm-3.67 82.6a53.94 53.94 0 0 1-50.26 34.4H594.76a53.93 53.93 0 0 1-53.92-53.24v-1.2c11.64 0 11.64 24.12 23.3 24.12s11.65-24.12 23.3-24.12c5.84 0 8.75 6.06 11.68 12.1s5.82 12 11.62 12c11.64 0 11.64-24.12 23.3-24.12s11.64 24.12 23.28 24.12 11.64-24.12 23.3-24.12 11.64 24.12 23.28 24.12 11.64-24.12 23.3-24.12c6.92 0 9.72 8.52 13.3 15.43 2.44 4.72 5.25 8.7 10 8.7 11.64 0 11.64-24.12 23.28-24.12 8.6-.04 10.84 13.18 16.14 20.05z"/></g><path d="M801.55 885.83a8 8 0 0 1-8 8h-.25a8 8 0 0 1-7.75-8c0-14.05-3.55-29-45.9-29-43 0-52.82-4.57-69.2-22.7a34.4 34.4 0 0 1-2.74-3.49 35.87 35.87 0 0 1-2.74 3.49c-16.4 18.14-26.25 22.7-69.2 22.7-42.36 0-45.9 15-45.9 29a8 8 0 0 1-16 0c0-40.38 35.33-45 61.9-45 41.6 0 45.55-4.4 57.33-17.44a22.19 22.19 0 0 0 4.66-9.06 166.17 166.17 0 0 0 8.4.2c4.3 0 8-.14 11.46-.4a22.49 22.49 0 0 0 4.71 9.26c11.78 13 15.75 17.44 57.34 17.44 26.58-.04 61.9 4.62 61.9 45z" fill="#ff0062"/><path d="M703.44 811c-11.3 1.44-18.23 2.56-25.85 3.12-3.5.26-7.17.4-11.46.4a166.17 166.17 0 0 1-8.4-.2c-8.93-.47-16.12-1.68-28.9-3.32-16.5-2.1-76.77-18.3-44.5-72.55 23.8-40 57-54.32 72.75-59.1a31.17 31.17 0 0 1 18.1 0c15.8 4.77 49 19.1 72.75 59.1 32.28 54.2-28 70.4-44.5 72.55z" fill="#3f3f3f"/><path d="M574.3 668.84a12 12 0 0 1-21.54-10.49l-15.84-7.7a29.34 29.34 0 0 0 52.76 25.67z" fill="#ffe0e0"/><g fill="#1e1e1e"><path d="M761.82 670.55h0c-3.7 1.83-7.88 1.67-9.32-.36l-6.45-9.08c-1.44-2 .4-5.16 4.1-7h0c3.7-1.83 7.88-1.67 9.33.36l6.44 9.07c1.45 2.04-.4 5.18-4.1 7zm15.82 22.25h0c-3.7 1.83-7.88 1.67-9.32-.37l-6.45-9.07c-1.45-2 .4-5.16 4.1-7h0c3.7-1.83 7.88-1.67 9.32.37l6.45 9.07c1.44 2.03-.4 5.2-4.1 7zm-8.44-21.96h0c-1.44-2 .4-5.17 4.1-7l16.54-8.18c3.7-1.83 7.87-1.67 9.32.36h0c1.44 2-.4 5.17-4.1 7l-16.54 8.18c-3.7 1.8-7.88 1.67-9.32-.36zm-40.57 20.06h0c-1.44-2 .4-5.16 4.1-7l16.54-8.17c3.7-1.84 7.88-1.67 9.32.36h0c1.45 2-.4 5.16-4.1 7l-16.5 8.17c-3.75 1.83-7.92 1.67-9.37-.36z"/></g><path d="M732.08,674.73a29.34,29.34,0,0,0,52.77-25.68Z" fill="#ff0062"/><path d="M1006.52 400.9c-29.77 8.36-63.52 26.44-97.92 49.4a367.19 367.19 0 0 0-87.1-64.72c5.86-9.2 77.8-117.3 168.47-23.58a64.54 64.54 0 0 1-3.82 20.09 3 3 0 0 0 3 4c4.44-.3 10.9-1.26 14.35-4.2a37.86 37.86 0 0 1 3.02 19.02z" fill="#7f7f7f"/></g></g></svg>
