<svg xmlns="http://www.w3.org/2000/svg" xmlns:xlink="http://www.w3.org/1999/xlink" viewBox="0 0 1334 1334" xmlns:v="https://vecta.io/nano"><style><![CDATA[.A{isolation:isolate}.C{mix-blend-mode:multiply}]]></style><defs><linearGradient id="A" x1="686.29" y1="341.84" x2="686.29" y2="1161.36" gradientUnits="userSpaceOnUse"><stop offset=".53" stop-color="#fff"/><stop offset=".54" stop-color="#f8f8f8"/><stop offset=".77" stop-color="#a7a7a7"/><stop offset=".92" stop-color="#747474"/><stop offset="1" stop-color="#606060"/></linearGradient><path id="B" d="M762.64 663.4h0c-4.67.7-9.1-2.2-9.9-6.48l-3-16.17c-.78-4.28 2.37-8.32 7.05-9h0c4.68-.7 9.1 2.2 9.9 6.48l3 16.17c.8 4.26-2.37 8.3-7.05 9z"/></defs><g class="A"><g><path d="M1088.27 885.38c-32-4.46-56.42-29.25-70-46.74q-2.9 5.4-6.2 10.33c4 39.26-5.7 80.4-5.7 80.4a274.83 274.83 0 0 0-12.84-58.27q-4 3.8-8.4 7.16c8.6 173.7-49.76 223.75-49.76 223.75 14.63-102.35-86.1-98.62-86.1-98.62-20.88 52.22 54.8 108.35 54.8 108.35-87.73-2.1-140.44-79.1-140.44-79.1 3.62 80.2-75.5 128.76-75.5 128.76 6.27-91.9-24.75-112-24.75-112-17.25 82.16-36.85 91.15-36.85 91.15 0-81.47-67.6-93.24-67.6-93.24-33.42 29.24-51.88 76.53-51.88 76.53C453.5 1067.87 435.7 1018 435.7 1018c-1.8 48.8-1.5 94-1.5 94-50.13-123.24-69.53-192.6-69.53-192.6-20.3 32.43-13 94.42-13 94.42-20.9-52.22-35-134.73-35-134.73-23 21.94-31.16 40.7-31.16 40.7-5.94-49 12.3-81.1 23.36-95.56-10.14-24.7-15.16-54.73-13.53-89.3 2.45-52 19.94-114.22 57.72-183.8q7.44-13.73 16-27.84l4.23-6.82a376.69 376.69 0 0 1 70.26-82.67A366.31 366.31 0 0 1 507.14 389a376.65 376.65 0 0 1 41.07-19.74c65.9-27 118.75-27.4 118.75-27.4s50 .4 113.34 25.23c59.9 23.45 131.7 68.76 184.6 156.2 71 117.48 85.4 216.1 66.3 283.15 22.9 48.63 57.05 78.93 57.05 78.93z" fill="#0741b0"/><path class="C" d="M1031.22 806.45c19.08-67 4.7-165.67-66.3-283.15-52.9-87.45-124.7-132.76-184.6-156.23-63.36-24.83-113.3-25.23-113.3-25.23s-52.85.42-118.75 27.4A376.65 376.65 0 0 0 507.14 389a366.31 366.31 0 0 0-63.65 44.83 376.69 376.69 0 0 0-70.26 82.67l-4.23 6.82q-8.52 14.1-16 27.84c-37.78 69.57-55.27 131.8-57.72 183.8-1.63 34.56 3.4 64.6 13.53 89.3-11 14.47-29.3 46.57-23.36 95.56 0 0 8.18-18.77 31.16-40.7 0 0 14.1 82.5 35 134.73 0 0-7.26-62 13-94.42 0 0 19.4 69.36 69.53 192.6 0 0-.32-45.2 1.5-94 0 0 17.8 49.9 71.36 105.78 0 0 18.46-47.3 51.88-76.53 0 0 67.6 11.77 67.6 93.24 0 0 19.6-9 36.85-91.15 0 0 31 20.13 24.75 112 0 0 79.13-48.57 75.5-128.76 0 0 52.7 77 140.44 79.1 0 0-75.68-56.13-54.8-108.35 0 0 100.74-3.73 86.1 98.62 0 0 58.36-50 49.77-223.73q4.33-3.36 8.4-7.16a274.83 274.83 0 0 1 12.84 58.27s9.72-41.13 5.7-80.4q3.27-5 6.2-10.33c13.57 17.5 38 42.28 70 46.74.06.02-34.1-30.28-57-78.9z" opacity=".55" fill="url(#A)"/><path d="M981.92 552.27q-2.17 1.44-4.44 2.87l-197.84-188.8c1-2.9 18.93-55.1 62.6-88.4 29.76-22.68 71.45-36.57 127.84-20.1 0 0-33.4 27.83-20.67 25.45s59.64-8.75 59.64 8.74-31 16.77-5.57 18.33 43 32.57 48.5 69.94c5.52 36.78 24.5 109.7-70.07 171.98z" fill="#565656"/><g fill="#7f7f7f"><path d="M1006.12 398.14c-35 5.27-75.36 18.72-115.85 35.63h0q-13.37-11.76-27-21.56a370.88 370.88 0 0 0-42-26.25c2-3.24 26.05-40.72 63.14-55.76.4-.17.8-.32 1.2-.48 28.46-10.87 64.36-8.3 103.8 32.48a64.58 64.58 0 0 1-3.82 20.1 3 3 0 0 0 3 4 36.86 36.86 0 0 0 10.82-2.16l.47-.2a13.25 13.25 0 0 0 3.14-1.7 37.4 37.4 0 0 1 3.08 15.89z"/><path d="M885.62 329.7c28.54-11.12 64.66-8.78 104.38 32.3a64.58 64.58 0 0 1-3.82 20.1 3 3 0 0 0 3 4 38 38 0 0 0 10.26-1.94 36.86 36.86 0 0 1-10.82 2.16 3 3 0 0 1-3-4 64.58 64.58 0 0 0 3.82-20.1c-39.44-40.8-75.36-43.38-103.82-32.5z"/></g><path d="M548.2 369.24A376.65 376.65 0 0 0 507.14 389a181.78 181.78 0 0 0-30.84-35.7c-31-27.44-82.23-51.22-140.18 8.67a64.42 64.42 0 0 0 3.83 20.1 3 3 0 0 1-3 4c-4.44-.3-10.9-1.26-14.35-4.2a36.47 36.47 0 0 0-3.17 15 170.72 170.72 0 0 0-30.91-1.1q-9.12.6-17.16 1.8l2.73-17.3c5.57-37.37 23.07-68.4 48.5-69.94S317 309.5 317 292s46.92-11.13 59.64-8.74S356 257.8 356 257.8c54.18-15.8 95.2-2.8 125.2 19.35 41.97 30.96 62.36 79.72 67.02 92.1z" fill="#0741b0"/><g fill="#f1f3f9"><path d="M507.14 389a366.31 366.31 0 0 0-63.65 44.83c-43.67-18.3-87.28-32.6-124.06-37a36.47 36.47 0 0 1 3.17-15c3.44 2.95 9.9 3.9 14.35 4.2a3 3 0 0 0 3-4 64.42 64.42 0 0 1-3.83-20.1c57.95-59.9 109.17-36.1 140.18-8.67A181.78 181.78 0 0 1 507.14 389zm159.4-23.27s-278.7-20.25-334.8 378.58h59.2S362.5 789 358.85 804h64.8s-39 36.9-29.6 41.57 53-7.8 74.78-14c0 0 10.9 23.37-14 48.3 0 0-4.7 12.46 25.7 0s53.25 1.56 66 23.37 54.7 60.68 120 60.75h0c65.43 0 107.5-39 120.2-60.76s35.58-35.83 66-23.37 25.7 0 25.7 0c-24.93-24.93-14-48.3-14-48.3 21.82 6.24 65.44 18.7 74.8 14S909.53 804 909.53 804H666.67z"/></g><path d="M1006.12 398.27v-.13a37.4 37.4 0 0 0-3.09-15.91l-.08-.16a12.3 12.3 0 0 1-3.06 1.86l-.47.2a36.86 36.86 0 0 1-10.82 2.16 3 3 0 0 1-3-4 64.58 64.58 0 0 0 3.82-20.1c-39.45-40.78-75.35-43.35-103.8-32.48l-1.2.48c-36.27 14.43-60.18 50.45-63.45 55.6l.3.17a370.88 370.88 0 0 1 42 26.25q13.6 9.84 27 21.56h0a378.32 378.32 0 0 1 72.92 87.1v.07l1.3 2.12q9 14.93 16.83 29.43c37.32 69.18 54.56 131 56.9 182.77v.35c1.1 25.44-1.4 48.43-6.88 68.6H666.76l-.08-462.6c1.68 0 50.6.83 112.5 24.92 1-2.9 18.93-55.1 62.6-88.4 29.76-22.68 71.45-36.57 127.84-20.1 0 0-33.4 27.83-20.67 25.45s59.64-8.75 59.64 8.74-31 16.77-5.57 18.33 43 32.57 48.5 69.94l2.58 16.33v.28q-4.8-.54-9.94-.87a179.62 179.62 0 0 0-37.46 2z" fill="#565656"/><path d="M974.37 804H666.2V365.7s278.7-20.23 334.8 378.6h-59.2s27.34 47.15 32.57 59.7z" fill="#7f7f7f"/><path d="M1044.17 497.28s91.26-30.35 137.44 60.7c-.9-.32-47.58-17.22-82.68 3.88 0 0 55.84 26.48-2.15 58.76 0 0 31.15 14.86 34.37 36.8 0 0-47.25-10.33-83.76 4.52 0 0 46.17 17.43 50.47 40 0 0-30.07-5.8-50.47 0 0 0 11.8 21.3 6.44 37.46 0 0-6.42-2.08-15.58-4.17-10-2.27-23.15-4.56-34.9-4.23 0 0 9.67 18.73-4.3 31.64 0 0-12.9-11-49.4-10.33 0 0 33.3 18.73 24.7 51.66 0 0-35.64-71.68-190.07-71.68H666.6V553h.07c3-1.94 104.08-67.16 209-113q7.3-3.2 14.6-6.24c40.5-16.9 80.9-30.36 115.85-35.63l.56-.1a180.61 180.61 0 0 1 38-2.05q4.83.3 9.34.8c112.74 12.15 86.26 102.84 164.32 90.34 0 0-16.34 40.48-80.77 9.5s-93.4.65-93.4.65z" fill="#c6c6c6"/><circle cx="821.13" cy="445.32" r="11.4" fill="#1e1e1e"/><g fill="#7f7f7f"><path d="M827.636 450.46l-2.866 2.324-10.126-12.49 2.866-2.324z"/><path d="M826.26 438.814l2.324 2.866-12.49 10.126-2.324-2.866z"/></g><circle cx="1007.49" cy="777.74" r="11.4" fill="#1e1e1e"/><g fill="#7f7f7f"><path d="M1015.687 777.363l-.687 3.625-15.8-2.994.687-3.625z"/><path d="M1007.113 769.543l3.625.687-2.994 15.8-3.625-.687z"/></g><circle cx="691.08" cy="513.59" r="11.4" fill="#1e1e1e"/><g fill="#7f7f7f"><path d="M698.966 511.02l.34 3.674-16.012 1.477-.34-3.674z"/><path d="M688.54 505.744l3.674-.34 1.477 16.012-3.674.34z"/></g><path d="M438.63 357.1c-7.1-8.18-17.84-14.16-28.87-13.92-11.9.25-23.42 7-32.28 14.47-8.6 7.3-14.9 17.47-15.54 28.93-.4 7.2 2.23 14.64 4.95 21.16 2.83 6.8 6.44 13 12.87 16.86a54.33 54.33 0 0 0 18.24 6.55c19.23 3.46 37.94-2.63 48.43-19.66.1-.16.2-.32.3-.5a6.62 6.62 0 0 0 .27-.53c9-17.07 3.9-39.24-8.38-53.37zM398.4 355a27.21 27.21 0 0 1 29.19 3.9 36.15 36.15 0 0 1 4.84 4.75c-8.65 6.26-17.2 13.06-24.2 21.1a108.15 108.15 0 0 1-22.46-22.35 60.63 60.63 0 0 1 12.63-7.4zm.16 67.27c-7-1.28-14.68-4-18.68-9.24-8.28-10.84-12-27.13-4.7-39.18a36.71 36.71 0 0 1 4-5.35A120.31 120.31 0 0 0 404 392.74l-5.45 29.5zM439 406.45c-6.93 11.55-18.4 17-31.44 16.7l5.67-30.43c6.9-8.34 15.5-15.33 24.28-21.68 5.82 10.96 7.3 24.74 1.5 35.4z" fill="#0741b0"/><g fill="#4d6fb0"><path d="M666.6 553v179H548.9c-154.43 0-190.07 71.68-190.07 71.68-8.6-32.93 24.7-51.66 24.7-51.66-36.5-.7-49.4 10.33-49.4 10.33-14-12.9-4.3-31.64-4.3-31.64-11.6-.33-24.64 1.9-34.55 4.15-9.35 2.12-15.92 4.25-15.92 4.25-5.37-16.15 6.44-37.46 6.44-37.46-20.4-5.8-50.47 0-50.47 0 4.3-22.6 50.47-40 50.47-40-36.5-14.85-83.76-4.52-83.76-4.52 3.22-22 34.36-36.8 34.36-36.8-58-32.28-2.14-58.76-2.14-58.76-35.1-21.1-81.77-4.2-82.68-3.88 42.6-84 123.56-64.66 135.86-61.17l1.58.48a24.3 24.3 0 0 0-2.75-2.44c-8.6-6.78-37.62-23.73-90.67 1.8-64.43 31-80.78-9.48-80.78-9.48 76.2 12.2 52.8-73.93 156.5-89.35q8.06-1.2 17.16-1.8a170.72 170.72 0 0 1 30.91 1.1c36.78 4.37 80.4 18.67 124.06 37q5.9 2.47 11.8 5l14 6.23C571.5 491.26 666.6 553 666.6 553zm214.56-328.9c-41.6 5.42-47.6 2.88-76.47 15.93-27.1 12.25-39.73 34.8-39.73 34.8-2-39.1-9.13-47.12-15.3-56.47C729.72 188.1 690 164 690 164c10 32.88-4.63 42.14-4.63 42.14-12.76-30.3-75.12-29.4-75.12-29.4 20.84 14.28 18 55.44 18 48.92s-.26-11.52-27.48-27.14C565.05 178 566.4 154 566.4 154c-13.95 17.22-20.27 26.9-20.27 26.9-12.47 16.92-9.76 56.35-9.76 56.35-48.1-47.75-103.36-13.9-103.36-13.9 37.8-3.2 45.15 15.4 49.5 34.75a35.73 35.73 0 0 1-1.27 19c30.3 22.34 49.33 54 59.34 74.47-10.7 107.23 55.4 148.83 34 119.47S596 372.62 596 372.62c27.5 44.48 0 128 0 128 38.88-34.28 56.55-76.5 64.56-109.06 9.06 16.92 25.23 39.67 51.08 52.83 0 0-11.66-54.53-1.7-97.46a388.83 388.83 0 0 1 70.33 20.19l-.67-.64v-.13c1-2.9 18.93-55.1 62.6-88.4v-.18c-3.47-38.64 38.96-53.67 38.96-53.67z"/></g><path d="M593 627.74c-.47-6.12-3.78-20.6-21.9-43.6 0 0 43.44 13.46 61.3 81.9s-67.3 48.7-88.62 44-54.2-.92-92.32 43.28c0 0-1.2-28.4 35.2-52.68a1.47 1.47 0 0 0-.74-2.68c-11.94-.8-47.68 2.07-76.37 58.27 0 0-3.5-54.85 26.3-72.05a.77.77 0 0 0-.44-1.44c-8.57.38-32.85 4.24-51.46 34.24 0 0 7.08-65.07 55.7-90.7a.56.56 0 0 0-.39-1.05c-12.4 3-45.23 11.52-60.38 20.36 0 0 40.78-69.22 133.85-41.18a1.77 1.77 0 0 0 2.24-2.17c-1.33-4.1-7.8-12.47-35.38-24.4 0 0 53.27-9.47 111.1 50.93a1.32 1.32 0 0 0 2.29-1z" fill="#0741b0"/><path d="M589.64 660.5c-1.95-6-7.94-9.63-13.2-12.1s-13.64-4.06-19.54-1.93-14.16 6-16.5 11.33a26.11 26.11 0 0 0 31.6 35.06 26.44 26.44 0 0 0 15.55-12.51 25.12 25.12 0 0 0 2.09-19.85zm-21.17 19.1a12 12 0 0 1-15.37-7.21 11.05 11.05 0 0 1 6.22-14c5.45-2 14.45 1.17 16.42 6.62a11.8 11.8 0 0 1-7.27 14.59z" fill="#f1f3f9"/><path d="M735.28 627.74c.47-6.12 3.78-20.6 21.9-43.6 0 0-43.44 13.46-61.3 81.9s67.3 48.7 88.62 44 54.2-.92 92.32 43.28c0 0 1.2-28.4-35.2-52.68a1.47 1.47 0 0 1 .74-2.68c11.94-.8 47.68 2.07 76.37 58.27 0 0 3.5-54.85-26.3-72.05a.78.78 0 0 1 .44-1.44c8.57.38 32.85 4.24 51.46 34.24 0 0-7.08-65.07-55.7-90.7a.56.56 0 0 1 .39-1.05c12.42 3 45.23 11.52 60.38 20.36 0 0-40.78-69.22-133.85-41.18a1.77 1.77 0 0 1-2.24-2.17c1.33-4.1 7.8-12.47 35.38-24.4 0 0-53.27-9.47-111.1 50.93a1.32 1.32 0 0 1-2.29-1z" fill="#565656"/><path d="M776 874a8 8 0 0 1-12.72 6.46l-2.6.87a140.71 140.71 0 0 1-47.94 8.19c-19.13 0-34.5-9.2-44.47-26.6a61.87 61.87 0 0 1-1.07-1.93l-1.06 1.93c-10 17.4-25.34 26.6-44.48 26.6a140.69 140.69 0 0 1-47.93-8.19l-2.62-.87a8 8 0 0 1-12.71-6.46 10 10 0 0 1 4-8.46c4.6-3.3 9.53-1.67 16.35.6a126.21 126.21 0 0 0 42.87 7.37c30.2 0 36.77-33.1 37.54-37.76v-21.4a185.75 185.75 0 0 0 6.94.13c3.33 0 6.27-.08 9.06-.24v21.48c.76 4.58 7.3 37.75 37.54 37.75a126.23 126.23 0 0 0 42.88-7.37c6.82-2.28 11.75-3.92 16.34-.6A10 10 0 0 1 776 874z" fill="#0741b0"/><path d="M703.45 811c-12.48 1.6-19.62 2.8-28.26 3.28-2.8.16-5.73.24-9.06.24-2.5 0-4.78 0-6.94-.13-9.63-.4-16.9-1.67-30.37-3.4-16.5-2.1-76.77-18.3-44.48-72.55 23.8-40 56.95-54.32 72.74-59.1a31.21 31.21 0 0 1 18.11 0c15.8 4.77 48.94 19.1 72.74 59.1 32.3 54.2-27.93 70.4-44.48 72.55z" fill="#3f3f3f"/><g fill="#1e1e1e"><use xlink:href="#B"/><use xlink:href="#B" x="7.86" y="42.88"/><path d="M770.38 668h0c-.72-3.9 2.17-7.6 6.45-8.25l22.32-3.35c4.28-.64 8.33 2 9.05 5.93h0c.72 3.92-2.17 7.6-6.45 8.26l-22.32 3.34c-4.28.63-8.34-2.02-9.05-5.93zm-51.24 7.68h0c-.7-3.92 2.18-7.6 6.46-8.26l22.3-3.34c4.3-.64 8.34 2 9.06 5.93h0c.7 3.9-2.18 7.6-6.46 8.25l-22.3 3.35c-4.3.64-8.34-2.02-9.06-5.93z"/></g><path d="M787.86 657.8c-2.34-5.32-10.6-9.2-16.5-11.33s-14.27-.54-19.54 1.93-11.25 6.14-13.2 12.1a25.12 25.12 0 0 0 2.14 19.85 26.42 26.42 0 0 0 15.54 12.51 26.11 26.11 0 0 0 31.56-35.06z" fill="#0741b0"/></g></g></svg>