<svg xmlns="http://www.w3.org/2000/svg" viewBox="0 0 1334 1334" xmlns:v="https://vecta.io/nano"><style><![CDATA[.A{isolation:isolate}.C{mix-blend-mode:multiply}]]></style><defs><linearGradient id="A" x1="679.68" y1="250.81" x2="679.68" y2="1160.47" gradientUnits="userSpaceOnUse"><stop offset=".53" stop-color="#fff"/><stop offset=".54" stop-color="#f8f8f8"/><stop offset=".77" stop-color="#a7a7a7"/><stop offset=".92" stop-color="#747474"/><stop offset="1" stop-color="#606060"/></linearGradient></defs><g class="A"><g><path d="M1031.22 806.45l.67-2.45c16.52-61.3 5.48-148.27-50.28-251.53q-7.77-14.37-16.7-29.17C935.12 474 899.3 438.12 863 412a376.55 376.55 0 0 0-82.69-44.9c-61-23.9-109.54-25.16-113.13-25.23H667s-52.85.42-118.75 27.4c-4.72-12.53-25.58-62.4-68.66-93.3-29.88-21.43-70.4-33.72-123.6-18.18 0 0 33.4 27.83 20.68 25.45S317 274.5 317 292s31 16.77 5.56 18.33-42.94 32.57-48.5 69.94l-2.73 17.3q8.06-1.2 17.16-1.8a170.72 170.72 0 0 1 30.91 1.1 36.28 36.28 0 0 1 3.17-15c3.44 2.95 9.9 3.9 14.35 4.2a3 3 0 0 0 3-4 64.42 64.42 0 0 1-3.83-20.1c87.42-90.35 161.5 10.4 172.3 26.3-8.12 4.5-16.33 9.4-24.54 14.8a364.65 364.65 0 0 0-40.39 30.75 377 377 0 0 0-70.49 83q-2 3.2-4 6.47-8.52 14.1-16 27.84c-37.77 69.57-55.27 131.78-57.7 183.8-1.64 34.55 3.38 64.6 13.52 89.3-11 14.47-29.3 46.57-23.36 95.56 0 0 8.18-18.77 31.16-40.7 0 0-5.9 82.5 15 134.73 0 0-4.56-80.22 33-94.42 0 0-.6 69.36 49.54 192.6 0 0-6.43-54.43 21.48-94 0 0 28.8 69.9 82.36 125.78 0 0 7.46-67.3 40.88-96.53 0 0 57.6 31.77 57.6 113.24 0 0 29.6-29 46.85-111.15 0 0 61 10.13 54.75 102 0 0 49.13-38.57 45.5-118.76 0 0 22.7 77 110.44 79.1 0 0-45.68-56.13-24.8-108.35 0 0 130.74-3.73 116.1 98.62 0 0 31.6-50.08 20-223.93a115.8 115.8 0 0 0 16-15c6.32 9.4 12.44 24 15 46.34a227.84 227.84 0 0 0-3.22-62.07q2.67-4.18 5.1-8.65c13.57 17.5 38 42.28 70 46.74.1.03-34.05-30.27-56.95-78.9z" fill="#7c4ab0"/><path class="C" d="M1031.1 806.45l.67-2.45c16.52-61.3 5.48-148.27-50.28-251.53q-7.77-14.37-16.7-29.17C935 474 899.17 438.12 862.86 412a376.55 376.55 0 0 0-82.69-44.9c-61-23.9-109.54-25.16-113.13-25.23h-.2s-52.85.42-118.75 27.4c-4.72-12.53-25.58-62.4-68.66-93.3-29.84-21.4-70.35-33.7-123.55-18.15 0 0 33.4 27.83 20.68 25.45s-59.64-8.75-59.64 8.74 31 16.77 5.56 18.33-42.94 32.54-48.47 69.9l-2.73 17.3q8.06-1.2 17.16-1.8a170.72 170.72 0 0 1 30.91 1.1 36.28 36.28 0 0 1 3.17-15c3.44 2.95 9.9 3.9 14.35 4.2a3 3 0 0 0 3-4A64.42 64.42 0 0 1 336 362c87.42-90.35 161.5 10.4 172.3 26.3-8.12 4.5-16.33 9.4-24.54 14.8a364.65 364.65 0 0 0-40.39 30.75 377 377 0 0 0-70.49 83q-2 3.2-4 6.47-8.52 14.1-16 27.84c-37.77 69.57-55.27 131.78-57.7 183.8-1.64 34.55 3.38 64.6 13.52 89.3-11 14.47-29.3 46.57-23.36 95.56 0 0 8.18-18.77 31.16-40.7 0 0-5.9 82.5 15 134.73 0 0-4.56-80.22 33-94.42 0 0-.6 69.36 49.54 192.6 0 0-6.43-54.43 21.48-94 0 0 28.8 69.9 82.36 125.78 0 0 7.46-67.3 40.88-96.53 0 0 57.6 31.77 57.6 113.24 0 0 29.6-29 46.85-111.15 0 0 61 10.13 54.75 102 0 0 49.13-38.57 45.5-118.76 0 0 22.7 77 110.44 79.1 0 0-45.68-56.13-24.8-108.35 0 0 130.74-3.73 116.1 98.62 0 0 31.6-50.08 20-223.93a115.8 115.8 0 0 0 16-15c6.32 9.4 12.44 24 15 46.34a227.84 227.84 0 0 0-3.22-62.07q2.67-4.18 5.1-8.65c13.57 17.5 38 42.28 70 46.74.05 0-34.1-30.3-57-78.93z" opacity=".55" fill="url(#A)"/><g fill="#ffe2f4"><path d="M508.42 388.26c-8.12 4.5-16.33 9.4-24.54 14.8a364.65 364.65 0 0 0-40.39 30.75c-43.67-18.3-87.28-32.6-124.06-37a36.28 36.28 0 0 1 3.17-15c3.44 2.95 9.9 3.9 14.35 4.2a3 3 0 0 0 3-4 64.42 64.42 0 0 1-3.83-20.1c87.42-90.3 161.5 10.44 172.3 26.34zm158.1-22.53s-278.7-20.25-334.8 378.58h59.2s-26.3 47.08-32.1 59.7h64.8s-39 36.9-29.6 41.57 53-7.8 74.78-14c0 0 10.9 23.37-14 48.3 0 0-4.7 12.46 25.7 0s53.25 1.56 66 23.37 54.7 60.68 120 60.75h0c65.43 0 107.5-39 120.2-60.76s35.58-35.83 66-23.37 25.7 0 25.7 0c-24.93-24.93-14-48.3-14-48.3 21.82 6.24 65.44 18.7 74.8 14S909.53 804 909.53 804H666.67z"/></g><path d="M1006.68 398.05c-34.9 5.2-75.34 18.6-115.86 35.5q-13.37-11.76-27-21.56a370.38 370.38 0 0 0-42.29-26.42c5.86-9.2 77.8-117.3 168.47-23.6a64.58 64.58 0 0 1-3.82 20.1 3 3 0 0 0 3 4c4.45-.3 10.92-1.26 14.35-4.2a36.84 36.84 0 0 1 3.15 16.19z" fill="#7f7f7f"/><path d="M989.16 386.06c4.45-.3 10.92-1.26 14.35-4.2a36.84 36.84 0 0 1 3.17 16.2 180.61 180.61 0 0 1 38-2.05q5.15.33 9.94.87l-2.62-16.6c-5.56-37.37-23.06-68.4-48.5-69.94s5.57-.83 5.57-18.33-46.92-11.13-59.64-8.74 20.67-25.45 20.67-25.45c-56.4-16.47-98.08-2.58-127.84 20.1-43.67 33.3-61.63 85.5-62.6 88.4-61.9-24.1-110.82-24.9-112.5-24.92L667.2 804H1032c5.5-20.18 8-43.17 6.88-68.6-2.27-51.8-19.5-113.78-56.9-183.12q-7.8-14.5-16.83-29.43l-1.34-2.2a378.41 378.41 0 0 0-72.93-87.11q-13.37-11.76-27-21.56a370.38 370.38 0 0 0-42.29-26.42c5.86-9.2 77.8-117.3 168.47-23.6a64.58 64.58 0 0 1-3.82 20.1 3 3 0 0 0 2.93 3.98z" fill="#565656"/><path d="M974.37 804H666.2V365.7s278.7-20.23 334.8 378.6h-59.2l32.57 59.7z" fill="#7f7f7f"/><path d="M1044.17 497.28s91.26-30.35 137.44 60.7c-.9-.32-47.58-17.22-82.68 3.88 0 0 55.84 26.48-2.15 58.76 0 0 31.15 14.86 34.37 36.8 0 0-47.25-10.33-83.76 4.52 0 0 46.17 17.43 50.47 40 0 0-30.07-5.8-50.47 0 0 0 11.8 21.3 6.44 37.46 0 0-6.15-2-15-4-10-2.3-23.5-4.7-35.47-4.36 0 0 9.67 18.73-4.3 31.64 0 0-12.9-11-49.4-10.33 0 0 33.3 18.73 24.7 51.66 0 0-35.64-71.68-190.07-71.68H666.6V553l.63-.4c8.33-5.37 98.6-63 195.54-106.9l12.9-5.73q7.58-3.3 15.15-6.47c40.52-16.9 80.95-30.3 115.86-35.5a180.61 180.61 0 0 1 38-2.05q5.15.33 9.94.87c112 12.4 85.8 102.75 163.72 90.28 0 0-16.34 40.48-80.77 9.5s-93.4.68-93.4.68z" fill="#c6c6c6"/><circle cx="821.13" cy="445.32" r="11.4" fill="#1e1e1e"/><g fill="#7f7f7f"><path d="M827.636 450.46l-2.866 2.324-10.126-12.49 2.866-2.324z"/><path d="M826.26 438.814l2.324 2.866-12.49 10.126-2.324-2.866z"/></g><circle cx="1007.49" cy="777.74" r="11.4" fill="#1e1e1e"/><g fill="#7f7f7f"><path d="M1015.687 777.363l-.687 3.625-15.8-2.994.687-3.625z"/><path d="M1007.113 769.543l3.625.687-2.994 15.8-3.625-.687z"/></g><circle cx="691.08" cy="513.59" r="11.4" fill="#1e1e1e"/><g fill="#7f7f7f"><path d="M698.966 511.02l.34 3.674-16.012 1.477-.34-3.674z"/><path d="M688.54 505.744l3.674-.34 1.477 16.012-3.674.34z"/></g><path d="M447.05 369c-3.8-9-10.62-17.22-19.62-21.42-10.73-5-23.15-3.08-33.95.72-10.5 3.7-20.4 9.9-26.15 19.67-3.9 6.65-4.83 13.75-4.52 21.28.32 7.8 1.18 16.95 5.76 23.53 3.72 5.36 9.52 9.52 15.14 12.7 18.2 10.26 39.74 10.23 55.46-4.4a5.74 5.74 0 0 0 .45-.41q.22-.22.42-.45c12.55-13.45 13.96-34.8 7-51.22zm-31.65-15.44c9 .63 16.43 6.6 21 14.1a36.57 36.57 0 0 1 1.89 3.56c-10 3.75-20 8.07-28.87 14a108 108 0 0 1-15.77-27.45c6.83-2.95 14.6-4.7 21.75-4.2zm-36.75 57.12c-3.9-3.8-5.28-8.4-6.13-13.76a60.87 60.87 0 0 1-.7-14.71c.77-8.63 6.75-15.76 13.8-20.3a120.12 120.12 0 0 0 17.6 29.92l-13 26.9a47 47 0 0 1-11.58-8.05zm54.6 3.6c-9.78 9.32-22.43 11.43-34.7 7.8l13.5-27.87c8.85-6.22 19-10.7 29.1-14.5 2.77 12.07.64 25.75-7.88 34.57z" fill="#7c4ab0"/><g fill="#966ec0"><path d="M666.6 553v179H548.9c-154.43 0-190.07 71.68-190.07 71.68-8.6-32.93 24.7-51.66 24.7-51.66-36.5-.7-49.4 10.33-49.4 10.33-14-12.9-4.3-31.64-4.3-31.64-11.6-.33-24.63 1.9-34.54 4.15-9.35 2.12-15.93 4.25-15.93 4.25-5.37-16.15 6.44-37.46 6.44-37.46-20.4-5.8-50.47 0-50.47 0 4.3-22.6 50.47-40 50.47-40-36.5-14.85-83.76-4.52-83.76-4.52 3.22-22 34.36-36.8 34.36-36.8-58-32.28-2.14-58.76-2.14-58.76-35.1-21.1-81.77-4.2-82.68-3.88 42.6-84 123.56-64.66 135.86-61.17l1.58.48a24.3 24.3 0 0 0-2.75-2.44c-8.6-6.78-37.62-23.73-90.67 1.8-64.43 31-80.78-9.48-80.78-9.48 76.2 12.2 52.8-73.93 156.5-89.35q8.06-1.2 17.16-1.8a170.72 170.72 0 0 1 30.91 1.1c36.78 4.37 80.4 18.67 124.06 37q6.58 2.76 13.17 5.63 6.34 2.78 12.67 5.64C571.5 491.26 666.6 553 666.6 553zm204.56-348.9c-41.6 5.42-34 28.06-65.78 37.36-28.1 8.23-40 32.6-40.4 33.35 9.4-37.6 3.66-49.47 1.47-58.8-8.28-35.28-53.44-62-53.44-62 10 32.88-27.63 52.14-27.63 52.14-12.76-30.3-55.12-29.4-55.12-29.4 20.84 14.28-2 55.44-2 48.92s-.26-11.52-27.48-27.14c-35.7-20.47 1.7-41.07 1.7-41.07-36-2.2-48.72 26-48.72 26-12.47 16.92-17.36 53.8-17.36 53.8-13.25-57.37-83.4-20-83.4-20 37.8-3.22 53.75 20.68 40 37.32A108 108 0 0 0 479.55 276c31.24 22.4 50.8 54.78 61 75.67-10.7 107.23 55.4 148.83 34 119.47S596 372.62 596 372.62c27.5 44.48 0 128 0 128 38.88-34.28 56.55-76.5 64.56-109.06 9.06 16.92 25.23 39.67 51.08 52.83 0 0-11.74-54.92-1.6-97.92a388.77 388.77 0 0 1 69.59 19.88c1-2.9 18.93-55.1 62.6-88.4v-.18c-3.5-38.64 28.92-73.67 28.92-73.67z"/></g><g fill="#7c4ab0"><path d="M775.27 888.6a8 8 0 0 1-16 .14c-3.25-1.1-13.17-.63-22-.23-7.3.34-16.4.75-26.75.75-18.6 0-33.44-9.13-42.93-26.4l-.46-.87-.47.87c-9.5 17.27-24.33 26.4-42.93 26.4-10.35 0-19.44-.4-26.75-.75-8.82-.4-18.74-.86-22 .23a8 8 0 0 1-16-.14 15 15 0 0 1 4.49-11.29c6.34-6.06 16.84-5.58 34.24-4.78 7.5.34 16 .73 26 .73 28.84 0 34.73-32.63 35.4-37v-21.9a168.27 168.27 0 0 0 7 .14c3.3 0 6.24-.08 9-.24v22c.65 4.34 6.52 37 35.4 37 10 0 18.5-.4 26-.73 17.4-.8 27.9-1.28 34.23 4.78a15 15 0 0 1 4.54 11.3zM601.9 625.5c.33-6.13-1-20.93-16-46.1 0 0 41.3 19 50 89.24s-73.12 39.45-93.63 32-53.62-8-97.2 30.78c0 0 2.54-28.3 41.82-47.6a1.47 1.47 0 0 0-.37-2.76c-11.73-2.35-47.54-4.2-83.37 47.73 0 0 3.74-54.82 35.53-68a.78.78 0 0 0-.24-1.49c-8.56-.75-33.13-.1-55.52 27.2 0 0 15.57-63.58 67.14-82.6a.56.56 0 0 0-.24-1.09c-12.7 1.36-46.35 5.47-62.54 12.24 0 0 49.52-63.25 138.1-23.24a1.76 1.76 0 0 0 2.5-1.85c-.78-4.24-6.1-13.38-31.86-28.84 0 0 54.05-2.4 103.45 65.1a1.32 1.32 0 0 0 2.43-.68z"/></g><path d="M587.24 651.3c-3.16-3.86-11-8.52-16.16-10-5.4-1.5-16.82-2.87-20.52.47-5.15 4.64-7.7 11.5-7.94 18.68a25.58 25.58 0 0 0 20.74 25.87 27 27 0 0 0 19.82-3.42c5.68-3.6 10.43-9.27 11.6-16.43.86-5.28-4.37-11.3-7.53-15.17zm-19.56 21.57a12 12 0 0 1-10.75-13.14 10.1 10.1 0 0 1 10.19-9.19c5 .5 13.66 8.05 13.17 13a11.64 11.64 0 0 1-12.61 9.33z" fill="#ffe2f4"/><path d="M729 625.5c-.34-6.13 1-20.93 16-46.1 0 0-41.3 19-50 89.24s73.1 39.45 93.63 32 53.6-8 97.2 30.78c0 0-2.54-28.3-41.83-47.6a1.47 1.47 0 0 1 .38-2.76c11.73-2.35 47.54-4.2 83.36 47.73 0 0-3.73-54.82-35.53-68a.78.78 0 0 1 .25-1.49c8.55-.75 33.12-.1 55.52 27.2 0 0-15.58-63.58-67.15-82.6a.56.56 0 0 1 .24-1.09c12.7 1.36 46.36 5.47 62.54 12.24 0 0-49.5-63.25-138.1-23.24a1.76 1.76 0 0 1-2.5-1.85c.78-4.24 6.1-13.38 31.86-28.84 0 0-54.05-2.4-103.46 65.1a1.32 1.32 0 0 1-2.42-.68z" fill="#565656"/><path d="M703.45 811c-12.5 1.6-19.65 2.8-28.3 3.28-2.77.16-5.7.24-9 .24-2.52 0-4.8 0-7-.14-9.6-.4-16.86-1.66-30.32-3.38-16.5-2.1-76.77-18.3-44.48-72.55 23.8-40 56.95-54.32 72.74-59.1a31.21 31.21 0 0 1 18.11 0c15.8 4.77 48.94 19.1 72.74 59.1 32.3 54.2-27.93 70.4-44.48 72.55z" fill="#3f3f3f"/><g fill="#1e1e1e"><path d="M761.65 659.24h0c-4.37 1.83-9.37.1-11.18-3.85l-6.84-15c-1.8-3.95.26-8.64 4.62-10.47h0c4.36-1.82 9.37-.1 11.18 3.85l6.84 15c1.8 3.95-.27 8.64-4.62 10.47zm18.15 39.66h0c-4.36 1.83-9.36.1-11.17-3.85l-6.85-14.95c-1.8-4 .26-8.65 4.63-10.47h0c4.36-1.83 9.36-.1 11.17 3.85l6.84 14.95c1.8 3.95-.26 8.64-4.62 10.47zm-9.53-37.1h0c-1.65-3.62.24-7.92 4.24-9.6l20.8-8.72c4-1.67 8.57-.1 10.23 3.53h0c1.66 3.62-.24 7.9-4.23 9.58l-20.8 8.72c-4 1.67-8.58.1-10.24-3.52zm-47.77 20.03h0c-1.65-3.62.24-7.9 4.23-9.6l20.82-8.72c4-1.67 8.57-.1 10.23 3.53h0c1.65 3.62-.24 7.9-4.23 9.58l-20.82 8.72c-4 1.65-8.57.1-10.23-3.52z"/></g><path d="M780.34 641.8c-3.7-3.34-15.12-2-20.52-.47-5.18 1.45-13 6.1-16.16 10s-8.4 9.9-7.54 15.2c1.17 7.16 5.92 12.84 11.6 16.43a27 27 0 0 0 19.82 3.42 25.56 25.56 0 0 0 20.73-25.87c-.27-7.2-2.78-14.07-7.93-18.7z" fill="#7c4ab0"/></g></g></svg>