<svg xmlns="http://www.w3.org/2000/svg" viewBox="0 0 22 22"><g fill="#000000"><path d="M0 10.9c.92-.16 1.83-.26 2.75-.4s1.83-.22 2.75-.3a11.09 11.09 0 0 1 2.75-.2 7.23 7.23 0 0 1 2.75.9v.2a7.06 7.06 0 0 1-2.75.9 10.63 10.63 0 0 1-2.75-.2c-.92-.08-1.83-.18-2.75-.3S.92 11.26 0 11.1zM22 11.1c-.92.16-1.83.27-2.75.4s-1.83.22-2.75.3a10.63 10.63 0 0 1-2.75.2 7.06 7.06 0 0 1-2.75-.9v-.2a7.23 7.23 0 0 1 2.75-.9 11.09 11.09 0 0 1 2.75.2c.92.08 1.83.18 2.75.3s1.83.24 2.75.4z"/><path d="M10.9 22c-.16-.92-.27-1.83-.4-2.75s-.22-1.83-.3-2.75a11.09 11.09 0 0 1-.2-2.75 7.06 7.06 0 0 1 .9-2.75h.2a7.06 7.06 0 0 1 .9 2.75 11.09 11.09 0 0 1-.2 2.75c-.08.92-.18 1.83-.3 2.75s-.24 1.83-.4 2.75zM11.1 0c.16.92.27 1.83.4 2.75s.22 1.83.3 2.75a10.63 10.63 0 0 1 .2 2.75 6.9 6.9 0 0 1-.9 2.75h-.19A7.08 7.08 0 0 1 10 8.25a11.59 11.59 0 0 1 .2-2.75c.09-.92.18-1.83.3-2.75s.24-1.83.4-2.75z"/></g></svg>