<svg xmlns="http://www.w3.org/2000/svg" viewBox="0 0 658.74 338.41"><path d="M266.72 178.6h-3.8c-3.4 0-4 .6-4 4v2.4c0 3.63.38 4 4.1 4h3.63c3.5 0 4-.53 4-3.94v-2.27c.01-3.74-.37-4.2-3.93-4.2zm156.5-14.24h-8.8c-3.4 0-4 .6-4 4v2.12c0 2.43.37 3 2.5 3.5s2.5 1.2 2.5 4.24v6.8c0 3.63.37 4 4.1 4h3.63c3.5 0 4.1-.53 4.1-4V168.4c-.01-3.48-.54-4-4.02-4z"/><path d="M562.27 119.65v-70.1H425.84L329.37 0 232.9 49.56H96.47v70.1L0 169.2l96.47 49.56v70.1H232.9l96.47 49.56 96.47-49.56h136.43v-70.1l96.47-49.56zM205.2 150.5h-5.46c-4.4 0-5.15.9-5.15 6.06v3.18c.08 2.13.6 3.2 2.12 3.8l.9.38c2.05.83 2.43 1.67 2.43 5.46v19.1c0 4.54-1.52 6.13-6 6.13s-5.9-1.5-5.9-6.13v-31.52c0-6.13-.3-6.44-6.74-6.44h-3.86c-3.1 0-4.47-1-4.47-3.26s1.44-3.18 4.62-3.18h28c3.8 0 5 .84 5 3.1.04 2.57-1.1 3.33-5.5 3.33zm37.65 39.4c0 3.56-.68 4.7-2.8 4.7s-2.8-1.06-2.8-4.62v-21.6c0-3.48-.45-4-3.94-4h-8.63c-3.4 0-4 .6-4 4v2.12c0 2.43.3 3 2.43 3.5s2.57 1.2 2.57 4.24v9.92c0 5.3-.9 6.44-5.07 6.44-4.85 0-5.53-.83-5.53-6.44v-39.62c0-3.48.68-4.62 2.72-4.62 2.2 0 2.8 1.06 2.8 4.62v6.9c0 2.72.75 3.48 3.56 3.48H237c5.07 0 5.83.76 5.83 6zm33.4-1.14c0 5-.9 5.83-5.9 5.83H254.3c-5 0-5.9-.83-5.9-5.83l.07-9.7c0-5.22.68-6 5.84-6h12.34c3.5 0 4-.53 4-4v-.68c0-3.48-.45-4-3.94-4h-9.1c-2.58 0-3.33.45-3.56 2.12l-.15 1.06a2.53 2.53 0 0 1-2.73 2.5c-2.12 0-2.73-1-2.73-4.25v-.9c0-5.23.68-6 5.84-6h16.13c5.15 0 5.84.68 5.84 6zm33.86 1.14c0 3.56-.68 4.7-2.8 4.7s-2.73-1.06-2.73-4.62v-21.6c0-3.48-.53-4-4-4H292c-3.4 0-4 .6-4 4v2.12c0 2.43.38 3 2.5 3.5s2.5 1.2 2.5 4.24v9.92c0 5.3-.9 6.44-5.07 6.44-4.85 0-5.53-.83-5.53-6.44V164.9c0-5.23.75-6 5.83-6h16.07c5.07 0 5.83.76 5.83 6zm33.63 0c0 3.56-.68 4.7-2.8 4.7s-2.73-1.06-2.73-4.62v-9.62c0-3.48-.53-4-4-4h-3.8c-3.4 0-3.94.6-3.94 4v7.8c0 5.3-.9 6.44-5.07 6.44-4.78 0-5.46-.83-5.46-6.44v-39.62c0-3.48.68-4.62 2.73-4.62s2.8 1.06 2.8 4.62v18.26c0 3.64.38 4 4.1 4h3.56c3.56 0 4.1-.53 4.1-3.93v-3.4c0-3.56.7-4.7 2.8-4.7s2.72 1.14 2.72 4.7v4.16c0 2.43.38 3 2.5 3.5s2.5 1.2 2.5 4.24zm56.06-27.13c0 5.7-1.13 7.13-5.76 7.35h-1.36c-4.1.15-4.85 1.14-4.85 6V187c0 6.06-1.2 7.57-5.76 7.57-4.92 0-6.13-1.5-6.13-7.5v-11c0-5-.76-6-4.7-6.06h-1.36c-4.7-.07-5.84-1.5-5.84-7.27v-14.5c0-3.1.9-4.4 3.26-4.4s3.18 1.22 3.18 4.4V158c0 5.08.76 5.76 6.52 5.76h9.92c5.76 0 6.44-.68 6.44-5.76v-9.85c0-3.1.9-4.32 3.26-4.32s3.18 1.3 3.18 4.47zm32.88 26c0 5-.83 5.83-5.83 5.83h-16.14c-5 0-5.83-.83-5.83-5.83V164.9c0-5.23.75-6 5.83-6h16.14c5.15 0 5.83.76 5.83 6zm33.86 0c0 5-.83 5.83-5.83 5.83H444.6c-5 0-5.83-.83-5.83-5.83v-25.4c0-3.48.68-4.62 2.8-4.62s2.73 1.06 2.73 4.62v5.46c0 2.42.3 2.95 2.5 3.48s2.5 1.2 2.5 4.24V185c0 3.63.38 4 4.1 4H457c3.48 0 4-.53 4-4v-21.63c0-3.48.68-4.62 2.8-4.62s2.73 1.06 2.73 4.62zm7.05-39.7c0-3.86.9-5.23 3.25-5.23s3.14 1.17 3.14 5.3v9.1c0 4.17.3 4.7 2.88 5.76 2.2.9 2.5 1.5 2.5 5.38v7.2c0 4.55-1.44 6.14-5.75 6.14-4.78 0-6.06-1.52-6.06-7.2zm6.4 45.52c-5.3 0-6.14-.68-6.14-4.84 0-3.64 1.06-4.4 5.84-4.4s6 .76 6 4.55-1.03 4.7-5.7 4.7z"/></svg>